<svg width="974" height="134" viewBox="0 0 974 134" fill="none" xmlns="http://www.w3.org/2000/svg">
<g style="mix-blend-mode:hard-light" filter="url(#filter0_f_357_4178)">
<ellipse cx="487" cy="67" rx="292.2" ry="32.4" fill="#128DFF" fill-opacity="0.2"/>
</g>
<g style="mix-blend-mode:hard-light" filter="url(#filter1_f_357_4178)">
<path d="M370.296 80H362.97V87.326H370.296V80ZM372.816 80V87.326H380.142V80H372.816ZM372.816 54.836H380.142V47.51H372.816V54.836ZM370.296 54.836V47.51H362.97V54.836H370.296ZM370.296 87.326H372.816V72.674H370.296V87.326ZM380.142 80V54.836H365.49V80H380.142ZM372.816 47.51H370.296V62.162H372.816V47.51ZM362.97 54.836V80H377.622V54.836H362.97ZM394.975 54.836V47.51H387.649V54.836H394.975ZM394.975 75.968L388.858 80.0004L402.301 100.39V75.968H394.975ZM381.043 54.836L387.159 50.8036L384.988 47.51H381.043V54.836ZM378.523 54.836V47.51H371.197V54.836H378.523ZM378.523 80H371.197V87.326H378.523V80ZM381.043 80V87.326H388.369V80H381.043ZM381.043 58.832L387.162 54.8043L373.717 34.3754V58.832H381.043ZM394.975 80L388.855 84.0277L391.026 87.326H394.975V80ZM397.495 80V87.326H404.821V80H397.495ZM397.495 54.836H404.821V47.51H397.495V54.836ZM387.649 54.836V75.968H402.301V54.836H387.649ZM401.091 71.9356L387.159 50.8036L374.926 58.8684L388.858 80.0004L401.091 71.9356ZM381.043 47.51H378.523V62.162H381.043V47.51ZM371.197 54.836V80H385.849V54.836H371.197ZM378.523 87.326H381.043V72.674H378.523V87.326ZM388.369 80V58.832H373.717V80H388.369ZM374.923 62.8597L388.855 84.0277L401.094 75.9723L387.162 54.8043L374.923 62.8597ZM394.975 87.326H397.495V72.674H394.975V87.326ZM404.821 80V54.836H390.169V80H404.821ZM397.495 47.51H394.975V62.162H397.495V47.51ZM401.402 56.924H394.076V64.25H401.402V56.924ZM408.422 56.924H415.748V49.598H408.422V56.924ZM408.422 80H401.096V87.326H408.422V80ZM410.942 80V87.326H418.268V80H410.942ZM410.942 56.924V49.598H403.616V56.924H410.942ZM417.926 56.924V64.25H425.252V56.924H417.926ZM417.926 54.836H425.252V47.51H417.926V54.836ZM401.402 54.836V47.51H394.076V54.836H401.402ZM401.402 64.25H408.422V49.598H401.402V64.25ZM401.096 56.924V80H415.748V56.924H401.096ZM408.422 87.326H410.942V72.674H408.422V87.326ZM418.268 80V56.924H403.616V80H418.268ZM410.942 64.25H417.926V49.598H410.942V64.25ZM425.252 56.924V54.836H410.6V56.924H425.252ZM417.926 47.51H401.402V62.162H417.926V47.51ZM394.076 54.836V56.924H408.728V54.836H394.076ZM424.425 67.436H417.099V74.762H424.425V67.436ZM424.425 56.96V49.634H417.099V56.96H424.425ZM421.905 54.836V47.51H414.579V54.836H421.905ZM421.905 80H414.579V87.326H421.905V80ZM424.425 80V87.326H431.751V80H424.425ZM424.425 69.488V62.162H417.099V69.488H424.425ZM429.069 69.488L435.372 65.7538L433.244 62.162H429.069V69.488ZM435.297 80L428.995 83.7342L431.123 87.326H435.297V80ZM438.321 80V87.326H451.328L444.587 76.2029L438.321 80ZM431.841 69.308L430.499 62.1061L420.087 64.0473L425.576 73.1051L431.841 69.308ZM428.115 62.144C428.115 62.2163 428.123 61.4402 428.916 60.6726C429.692 59.9223 430.258 60.11 429.501 60.11V74.762C432.848 74.762 436.385 73.8337 439.105 71.2024C441.842 68.5538 442.767 65.1317 442.767 62.144H428.115ZM429.501 60.11H424.425V74.762H429.501V60.11ZM431.751 67.436V56.96H417.099V67.436H431.751ZM424.425 64.286H429.465V49.634H424.425V64.286ZM429.465 64.286C430.55 64.286 429.936 64.5503 429.044 63.7164C428.607 63.3082 428.344 62.845 428.212 62.4785C428.094 62.1501 428.115 61.9997 428.115 62.144H442.767C442.767 59.2637 441.956 55.7284 439.049 53.0116C436.23 50.3777 432.629 49.634 429.465 49.634V64.286ZM414.579 54.836V80H429.231V54.836H414.579ZM421.905 87.326H424.425V72.674H421.905V87.326ZM431.751 80V69.488H417.099V80H431.751ZM424.425 76.814H429.069V62.162H424.425V76.814ZM422.767 73.2222L428.995 83.7342L441.6 76.2658L435.372 65.7538L422.767 73.2222ZM435.297 87.326H438.321V72.674H435.297V87.326ZM444.587 76.2029L438.107 65.5109L425.576 73.1051L432.056 83.7971L444.587 76.2029ZM433.184 76.5099C436.755 75.8442 439.957 74.1436 442.231 71.3263C444.474 68.5475 445.359 65.2462 445.359 62.144H430.707C430.707 62.3242 430.682 62.389 430.69 62.3636C430.694 62.3504 430.706 62.3181 430.73 62.2727C430.755 62.2268 430.788 62.1754 430.83 62.1237C430.872 62.0717 430.914 62.0295 430.952 61.998C430.989 61.9667 431.011 61.9544 431.008 61.956C431.005 61.9578 430.862 62.0383 430.499 62.1061L433.184 76.5099ZM445.359 62.144C445.359 58.4242 444.089 54.5046 440.916 51.5642C437.791 48.6682 433.675 47.51 429.465 47.51V62.162C430.27 62.162 430.728 62.2721 430.932 62.3403C431.119 62.4033 431.081 62.426 430.957 62.3108C430.828 62.1917 430.741 62.0487 430.702 61.9493C430.669 61.867 430.707 61.9125 430.707 62.144H445.359ZM429.465 47.51H421.905V62.162H429.465V47.51ZM474.12 67.4C474.12 55.9688 465.614 47.222 454.338 47.222V61.874C457.247 61.874 459.468 63.7832 459.468 67.4H474.12ZM454.338 47.222C443.113 47.222 434.556 55.9547 434.556 67.4H449.208C449.208 63.7973 451.452 61.874 454.338 61.874V47.222ZM434.556 67.4C434.556 78.8951 443.126 87.578 454.338 87.578V72.926C451.438 72.926 449.208 71.0249 449.208 67.4H434.556ZM454.338 87.578C465.6 87.578 474.12 78.8811 474.12 67.4H459.468C459.468 71.0389 457.26 72.926 454.338 72.926V87.578ZM451.8 67.4C451.8 65.7285 452.314 64.9875 452.584 64.7084C452.854 64.4285 453.36 64.106 454.338 64.106V49.454C449.737 49.454 445.31 51.1475 442.044 54.5306C438.776 57.9145 437.148 62.4835 437.148 67.4H451.8ZM454.338 64.106C455.317 64.106 455.822 64.4285 456.093 64.7084C456.362 64.9875 456.876 65.7285 456.876 67.4H471.528C471.528 62.4835 469.9 57.9145 466.633 54.5306C463.366 51.1475 458.94 49.454 454.338 49.454V64.106ZM456.876 67.4C456.876 69.0734 456.361 69.8308 456.08 70.1226C455.802 70.4121 455.298 70.73 454.338 70.73V85.382C458.959 85.382 463.387 83.6659 466.645 80.2744C469.902 76.8852 471.528 72.3146 471.528 67.4H456.876ZM454.338 70.73C453.379 70.73 452.875 70.4121 452.596 70.1226C452.316 69.8308 451.8 69.0734 451.8 67.4H437.148C437.148 72.3146 438.775 76.8852 442.031 80.2744C445.29 83.6659 449.717 85.382 454.338 85.382V70.73ZM471.405 54.836V47.51H464.079V54.836H471.405ZM471.405 80H464.079V87.326H471.405V80ZM473.925 77.912H466.599V85.238H473.925V77.912ZM473.925 56.924V49.598H466.599V56.924H473.925ZM478.857 47.51H471.405V62.162H478.857V47.51ZM464.079 54.836V80H478.731V54.836H464.079ZM471.405 87.326H478.857V72.674H471.405V87.326ZM478.857 87.326C484.393 87.326 489.711 85.7537 493.694 81.9908C497.73 78.1779 499.503 72.957 499.503 67.472H484.851C484.851 69.799 484.159 70.8421 483.632 71.3402C483.052 71.8883 481.71 72.674 478.857 72.674V87.326ZM499.503 67.472C499.503 61.971 497.743 56.7293 493.716 52.8932C489.734 49.0999 484.408 47.51 478.857 47.51V62.162C481.695 62.162 483.028 62.9481 483.61 63.5018C484.146 64.0127 484.851 65.089 484.851 67.472H499.503ZM481.251 77.912V56.924H466.599V77.912H481.251ZM473.925 64.25H478.857V49.598H473.925V64.25ZM478.857 64.25C481.056 64.25 481.644 64.8456 481.7 64.9025C481.775 64.9786 482.295 65.5405 482.295 67.472H496.947C496.947 62.8875 495.65 58.1754 492.125 54.6065C488.581 51.0184 483.787 49.598 478.857 49.598V64.25ZM482.295 67.472C482.295 69.3731 481.783 69.8907 481.732 69.9417C481.686 69.9876 481.092 70.586 478.857 70.586V85.238C483.751 85.238 488.539 83.8564 492.093 80.3023C495.642 76.7533 496.947 72.0509 496.947 67.472H482.295ZM478.857 70.586H473.925V85.238H478.857V70.586ZM515.003 54.836H522.329V47.51H515.003V54.836ZM512.483 54.836V47.51H505.157V54.836H512.483ZM499.235 54.836H506.561V47.51H499.235V54.836ZM496.715 54.836V47.51H489.389V54.836H496.715ZM489.389 70.64C489.389 75.4851 490.899 79.9882 494.315 83.2455C497.659 86.4341 501.94 87.578 505.859 87.578V72.926C505.276 72.926 504.893 72.8409 504.677 72.7659C504.572 72.7293 504.508 72.6961 504.475 72.6763C504.443 72.6573 504.43 72.6454 504.426 72.6415C504.423 72.6382 504.411 72.6266 504.39 72.5956C504.369 72.5638 504.328 72.4929 504.279 72.3649C504.182 72.1079 504.041 71.5714 504.041 70.64H489.389ZM505.859 87.578C509.779 87.578 514.06 86.4341 517.404 83.2455C520.82 79.9882 522.329 75.4851 522.329 70.64H507.677C507.677 71.5714 507.536 72.1079 507.439 72.3649C507.391 72.4929 507.349 72.5638 507.329 72.5956C507.308 72.6266 507.296 72.6382 507.293 72.6415C507.289 72.6454 507.276 72.6573 507.244 72.6763C507.211 72.6961 507.147 72.7293 507.042 72.7659C506.826 72.8409 506.442 72.926 505.859 72.926V87.578ZM522.329 70.64V54.836H507.677V70.64H522.329ZM515.003 47.51H512.483V62.162H515.003V47.51ZM505.157 54.836V70.676H519.809V54.836H505.157ZM505.157 70.676C505.157 71.376 505.066 71.6782 505.056 71.709C505.053 71.7186 505.071 71.6591 505.133 71.5554C505.196 71.4495 505.29 71.3193 505.421 71.1853C505.552 71.0511 505.695 70.9389 505.836 70.8514C505.974 70.7651 506.089 70.7168 506.159 70.6922C506.289 70.6466 506.232 70.694 505.895 70.694V85.346C509.129 85.346 512.943 84.4525 515.901 81.4257C518.836 78.4214 519.809 74.4577 519.809 70.676H505.157ZM505.895 70.694C505.559 70.694 505.49 70.6468 505.603 70.6859C505.664 70.7072 505.769 70.7508 505.899 70.8306C506.031 70.9116 506.167 71.017 506.294 71.145C506.421 71.273 506.514 71.399 506.578 71.5039C506.64 71.6069 506.661 71.6683 506.659 71.6639C506.653 71.6448 506.561 71.3577 506.561 70.676H491.909C491.909 74.5088 492.928 78.4771 495.894 81.466C498.861 84.4559 502.666 85.346 505.895 85.346V70.694ZM506.561 70.676V54.836H491.909V70.676H506.561ZM499.235 47.51H496.715V62.162H499.235V47.51ZM489.389 54.836V70.64H504.041V54.836H489.389ZM543.376 72.656L550.227 75.2511L553.985 65.33H543.376V72.656ZM540.424 72.656V65.33H535.593L533.69 69.7701L540.424 72.656ZM540.424 62.18L533.668 65.0132L535.552 69.506H540.424V62.18ZM543.376 62.18V69.506H553.929L550.24 59.6189L543.376 62.18ZM512.146 67.4C512.146 78.838 520.588 87.542 531.784 87.542V72.89C529.012 72.89 526.798 71.082 526.798 67.4H512.146ZM531.784 87.542C540.171 87.542 547.255 83.0984 550.227 75.2511L536.525 70.0609C535.898 71.7176 534.629 72.89 531.784 72.89V87.542ZM543.376 65.33H540.424V79.982H543.376V65.33ZM533.69 69.7701C533.512 70.1861 533.334 70.3326 533.223 70.404C533.106 70.4787 532.712 70.694 531.784 70.694V85.346C538.862 85.346 544.546 81.6353 547.158 75.5419L533.69 69.7701ZM531.784 70.694C530.893 70.694 530.434 70.3991 530.174 70.1253C529.904 69.8412 529.39 69.0805 529.39 67.4H514.738C514.738 72.2715 516.33 76.8208 519.543 80.2087C522.767 83.6069 527.168 85.346 531.784 85.346V70.694ZM529.39 67.4C529.39 65.6912 529.911 64.9212 530.18 64.6367C530.438 64.364 530.893 64.07 531.784 64.07V49.418C527.167 49.418 522.762 51.158 519.537 54.5663C516.323 57.9628 514.738 62.5208 514.738 67.4H529.39ZM531.784 64.07C532.713 64.07 533.093 64.2851 533.196 64.3516C533.292 64.414 533.478 64.5593 533.668 65.0132L547.18 59.3468C544.585 53.1575 538.888 49.418 531.784 49.418V64.07ZM540.424 69.506H543.376V54.854H540.424V69.506ZM550.24 59.6189C547.281 51.6885 540.193 47.222 531.784 47.222V61.874C534.608 61.874 535.871 63.0235 536.512 64.7411L550.24 59.6189ZM531.784 47.222C520.561 47.222 512.146 55.9899 512.146 67.4H526.798C526.798 63.6901 529.039 61.874 531.784 61.874V47.222ZM548.398 80H541.072V87.326H548.398V80ZM550.918 80V87.326H558.244V80H550.918ZM550.918 54.836H558.244V47.51H550.918V54.836ZM548.398 54.836V47.51H541.072V54.836H548.398ZM548.398 87.326H550.918V72.674H548.398V87.326ZM558.244 80V54.836H543.592V80H558.244ZM550.918 47.51H548.398V62.162H550.918V47.51ZM541.072 54.836V80H555.724V54.836H541.072ZM573.076 54.836V47.51H565.75V54.836H573.076ZM573.076 75.968L566.96 80.0004L580.402 100.39V75.968H573.076ZM559.144 54.836L565.261 50.8036L563.089 47.51H559.144V54.836ZM556.624 54.836V47.51H549.298V54.836H556.624ZM556.624 80H549.298V87.326H556.624V80ZM559.144 80V87.326H566.47V80H559.144ZM559.144 58.832L565.264 54.8043L551.818 34.3754V58.832H559.144ZM573.076 80L566.957 84.0277L569.127 87.326H573.076V80ZM575.596 80V87.326H582.922V80H575.596ZM575.596 54.836H582.922V47.51H575.596V54.836ZM565.75 54.836V75.968H580.402V54.836H565.75ZM579.193 71.9356L565.261 50.8036L553.028 58.8684L566.96 80.0004L579.193 71.9356ZM559.144 47.51H556.624V62.162H559.144V47.51ZM549.298 54.836V80H563.95V54.836H549.298ZM556.624 87.326H559.144V72.674H556.624V87.326ZM566.47 80V58.832H551.818V80H566.47ZM553.025 62.8597L566.957 84.0277L579.196 75.9723L565.264 54.8043L553.025 62.8597ZM573.076 87.326H575.596V72.674H573.076V87.326ZM582.922 80V54.836H568.27V80H582.922ZM575.596 47.51H573.076V62.162H575.596V47.51ZM604.848 68.48L612.161 68.9148L612.174 68.6976V68.48H604.848ZM604.848 66.644H612.174V59.318H604.848V66.644ZM591.6 66.644V59.318H584.274V66.644H591.6ZM591.6 68.696H584.274V76.022H591.6V68.696ZM602.184 68.696L609.492 69.2016L610.034 61.37H602.184V68.696ZM601.104 62.18L594.382 65.0929L596.294 69.506H601.104V62.18ZM604.056 62.18V69.506H614.637L610.913 59.602L604.056 62.18ZM592.608 47.222C581.382 47.222 572.826 55.9547 572.826 67.4H587.478C587.478 63.7973 589.722 61.874 592.608 61.874V47.222ZM572.826 67.4C572.826 78.8951 581.396 87.578 592.608 87.578V72.926C589.708 72.926 587.478 71.0249 587.478 67.4H572.826ZM592.608 87.578C603.629 87.578 611.551 79.1718 612.161 68.9148L597.535 68.0452C597.353 71.1082 595.339 72.926 592.608 72.926V87.578ZM612.174 68.48V66.644H597.522V68.48H612.174ZM604.848 59.318H591.6V73.97H604.848V59.318ZM584.274 66.644V68.696H598.926V66.644H584.274ZM591.6 76.022H602.184V61.37H591.6V76.022ZM594.875 68.1904C594.786 69.4786 594.365 70.0043 594.173 70.1872C593.987 70.365 593.563 70.658 592.608 70.658V85.31C596.944 85.31 601.111 83.821 604.29 80.7858C607.465 77.7557 609.186 73.6374 609.492 69.2016L594.875 68.1904ZM592.608 70.658C591.647 70.658 591.135 70.3384 590.853 70.0466C590.572 69.7553 590.07 69.0165 590.07 67.4H575.418C575.418 72.2995 577.057 76.8527 580.313 80.2244C583.568 83.5956 587.989 85.31 592.608 85.31V70.658ZM590.07 67.4C590.07 65.7855 590.57 65.0631 590.841 64.7843C591.115 64.5022 591.628 64.178 592.608 64.178V49.526C588.008 49.526 583.589 51.2178 580.326 54.5807C577.059 57.9469 575.418 62.4985 575.418 67.4H590.07ZM592.608 64.178C593.336 64.178 593.714 64.3569 593.885 64.4666C594.056 64.5764 594.234 64.753 594.382 65.0929L607.826 59.2671C605.213 53.2373 599.437 49.526 592.608 49.526V64.178ZM601.104 69.506H604.056V54.854H601.104V69.506ZM610.913 59.602C607.969 51.7701 600.854 47.222 592.608 47.222V61.874C595.161 61.874 596.543 63.0139 597.198 64.758L610.913 59.602Z" fill="#0094FF"/>
</g>
<g style="mix-blend-mode:hard-light" filter="url(#filter2_f_357_4178)">
<path d="M370.296 80H360.716V89.5802H370.296V80ZM372.816 80V89.5802H382.396V80H372.816ZM372.816 54.836H382.396V45.2558H372.816V54.836ZM370.296 54.836V45.2558H360.716V54.836H370.296ZM370.296 89.5802H372.816V70.4198H370.296V89.5802ZM382.396 80V54.836H363.236V80H382.396ZM372.816 45.2558H370.296V64.4162H372.816V45.2558ZM360.716 54.836V80H379.876V54.836H360.716ZM394.975 54.836V45.2558H385.394V54.836H394.975ZM394.975 75.968L386.976 81.2412L404.555 107.904V75.968H394.975ZM381.043 54.836L389.041 49.5628L386.201 45.2558H381.043V54.836ZM378.523 54.836V45.2558H368.942V54.836H378.523ZM378.523 80H368.942V89.5802H378.523V80ZM381.043 80V89.5802H390.623V80H381.043ZM381.043 58.832L389.045 53.5651L371.462 26.8503V58.832H381.043ZM394.975 80L386.972 85.2669L389.811 89.5802H394.975V80ZM397.495 80V89.5802H407.075V80H397.495ZM397.495 54.836H407.075V45.2558H397.495V54.836ZM385.394 54.836V75.968H404.555V54.836H385.394ZM402.973 70.6948L389.041 49.5628L373.044 60.1092L386.976 81.2412L402.973 70.6948ZM381.043 45.2558H378.523V64.4162H381.043V45.2558ZM368.942 54.836V80H388.103V54.836H368.942ZM378.523 89.5802H381.043V70.4198H378.523V89.5802ZM390.623 80V58.832H371.462V80H390.623ZM373.04 64.0989L386.972 85.2669L402.977 74.7331L389.045 53.5651L373.04 64.0989ZM394.975 89.5802H397.495V70.4198H394.975V89.5802ZM407.075 80V54.836H387.914V80H407.075ZM397.495 45.2558H394.975V64.4162H397.495V45.2558ZM401.402 56.924H391.822V66.5042H401.402V56.924ZM408.422 56.924H418.002V47.3438H408.422V56.924ZM408.422 80H398.842V89.5802H408.422V80ZM410.942 80V89.5802H420.522V80H410.942ZM410.942 56.924V47.3438H401.362V56.924H410.942ZM417.926 56.924V66.5042H427.506V56.924H417.926ZM417.926 54.836H427.506V45.2558H417.926V54.836ZM401.402 54.836V45.2558H391.822V54.836H401.402ZM401.402 66.5042H408.422V47.3438H401.402V66.5042ZM398.842 56.924V80H418.002V56.924H398.842ZM408.422 89.5802H410.942V70.4198H408.422V89.5802ZM420.522 80V56.924H401.362V80H420.522ZM410.942 66.5042H417.926V47.3438H410.942V66.5042ZM427.506 56.924V54.836H408.346V56.924H427.506ZM417.926 45.2558H401.402V64.4162H417.926V45.2558ZM391.822 54.836V56.924H410.982V54.836H391.822ZM424.425 67.436H414.845V77.0162H424.425V67.436ZM424.425 56.96V47.3798H414.845V56.96H424.425ZM421.905 54.836V45.2558H412.325V54.836H421.905ZM421.905 80H412.325V89.5802H421.905V80ZM424.425 80V89.5802H434.006V80H424.425ZM424.425 69.488V59.9078H414.845V69.488H424.425ZM429.069 69.488L437.312 64.6048L434.529 59.9078H429.069V69.488ZM435.297 80L427.055 84.8832L429.838 89.5802H435.297V80ZM438.321 80V89.5802H455.33L446.514 75.0346L438.321 80ZM431.841 69.308L430.086 59.8901L416.47 62.4286L423.648 74.2734L431.841 69.308ZM425.861 62.144C425.861 61.7678 426.012 60.3459 427.349 59.0526C428.662 57.782 429.86 57.8558 429.501 57.8558V77.0162C433.247 77.0162 437.415 75.974 440.672 72.8224C443.953 69.6481 445.022 65.5802 445.022 62.144H425.861ZM429.501 57.8558H424.425V77.0162H429.501V57.8558ZM434.006 67.436V56.96H414.845V67.436H434.006ZM424.425 66.5402H429.465V47.3798H424.425V66.5402ZM429.465 66.5402C430.23 66.5402 428.968 66.7306 427.505 65.3633C425.926 63.8875 425.861 62.2552 425.861 62.144H445.022C445.022 58.8648 444.093 54.6405 440.588 51.3647C437.199 48.1973 432.949 47.3798 429.465 47.3798V66.5402ZM412.325 54.836V80H431.486V54.836H412.325ZM421.905 89.5802H424.425V70.4198H421.905V89.5802ZM434.006 80V69.488H414.845V80H434.006ZM424.425 79.0682H429.069V59.9078H424.425V79.0682ZM420.827 74.3712L427.055 84.8832L443.54 75.1168L437.312 64.6048L420.827 74.3712ZM435.297 89.5802H438.321V70.4198H435.297V89.5802ZM446.514 75.0346L440.034 64.3426L423.648 74.2734L430.128 84.9654L446.514 75.0346ZM433.597 78.7259C437.613 77.9771 441.325 76.0386 443.985 72.7421C446.605 69.496 447.614 65.6691 447.614 62.144H428.453C428.453 62.0749 428.489 61.434 429.076 60.7079C429.353 60.3645 429.656 60.1302 429.902 59.9916C430.138 59.8588 430.234 59.8624 430.086 59.8901L433.597 78.7259ZM447.614 62.144C447.614 57.9166 446.163 53.353 442.448 49.9108C438.797 46.5267 434.073 45.2558 429.465 45.2558V64.4162C430.69 64.4162 430.25 64.7293 429.424 63.9642C429.039 63.607 428.764 63.1787 428.606 62.7782C428.456 62.4 428.453 62.1597 428.453 62.144H447.614ZM429.465 45.2558H421.905V64.4162H429.465V45.2558ZM476.375 67.4C476.375 54.7665 466.901 44.9678 454.338 44.9678V64.1282C455.415 64.1282 456.03 64.4976 456.384 64.8587C456.739 65.2203 457.214 65.9724 457.214 67.4H476.375ZM454.338 44.9678C441.83 44.9678 432.302 54.7481 432.302 67.4H451.463C451.463 65.9907 451.935 65.2368 452.299 64.8656C452.667 64.4915 453.289 64.1282 454.338 64.1282V44.9678ZM432.302 67.4C432.302 80.1059 441.847 89.8322 454.338 89.8322V70.6718C453.27 70.6718 452.65 70.3042 452.292 69.9412C451.94 69.5833 451.463 68.8363 451.463 67.4H432.302ZM454.338 89.8322C466.883 89.8322 476.375 80.0875 476.375 67.4H457.214C457.214 68.8547 456.733 69.5997 456.391 69.9481C456.047 70.2981 455.434 70.6718 454.338 70.6718V89.8322ZM454.055 67.4C454.055 66.7934 454.152 66.4561 454.202 66.323C454.249 66.1963 454.269 66.208 454.206 66.2742C454.142 66.34 454.073 66.3789 454.042 66.3913C454.017 66.4014 454.102 66.3602 454.338 66.3602V47.1998C449.18 47.1998 444.15 49.1042 440.422 52.9648C436.693 56.8263 434.894 61.9843 434.894 67.4H454.055ZM454.338 66.3602C454.575 66.3602 454.659 66.4014 454.634 66.3913C454.604 66.3789 454.535 66.34 454.471 66.2742C454.407 66.208 454.427 66.1963 454.475 66.323C454.525 66.4561 454.622 66.7934 454.622 67.4H473.783C473.783 61.9843 471.983 56.8263 468.255 52.9648C464.527 49.1042 459.497 47.1998 454.338 47.1998V66.3602ZM454.622 67.4C454.622 68.0066 454.525 68.3492 454.472 68.4902C454.421 68.6253 454.397 68.6214 454.455 68.5607C454.513 68.5001 454.579 68.4615 454.613 68.4479C454.641 68.4364 454.564 68.4758 454.338 68.4758V87.6362C459.522 87.6362 464.553 85.7049 468.271 81.8363C471.985 77.9705 473.783 72.8132 473.783 67.4H454.622ZM454.338 68.4758C454.113 68.4758 454.036 68.4364 454.064 68.4479C454.097 68.4615 454.163 68.5001 454.222 68.5607C454.28 68.6214 454.255 68.6253 454.205 68.4902C454.152 68.3492 454.055 68.0066 454.055 67.4H434.894C434.894 72.8132 436.691 77.9705 440.406 81.8363C444.123 85.7049 449.154 87.6362 454.338 87.6362V68.4758ZM471.405 54.836V45.2558H461.825V54.836H471.405ZM471.405 80H461.825V89.5802H471.405V80ZM473.925 77.912H464.345V87.4922H473.925V77.912ZM473.925 56.924V47.3438H464.345V56.924H473.925ZM478.857 45.2558H471.405V64.4162H478.857V45.2558ZM461.825 54.836V80H480.986V54.836H461.825ZM471.405 89.5802H478.857V70.4198H471.405V89.5802ZM478.857 89.5802C484.806 89.5802 490.736 87.8868 495.242 83.6293C499.818 79.3065 501.758 73.4428 501.758 67.472H482.597C482.597 68.4221 482.447 68.9916 482.336 69.2817C482.233 69.5482 482.138 69.6502 482.084 69.7017C482.027 69.7552 481.297 70.4198 478.857 70.4198V89.5802ZM501.758 67.472C501.758 61.4914 499.835 55.6088 495.271 51.2611C490.766 46.9695 484.825 45.2558 478.857 45.2558V64.4162C481.278 64.4162 481.997 65.0785 482.055 65.1339C482.113 65.1893 482.216 65.3019 482.326 65.5889C482.444 65.8996 482.597 66.4941 482.597 67.472H501.758ZM483.506 77.912V56.924H464.345V77.912H483.506ZM473.925 66.5042H478.857V47.3438H473.925V66.5042ZM478.857 66.5042C479.751 66.5042 480.195 66.6318 480.324 66.6777C480.421 66.7123 480.285 66.6774 480.096 66.4865C479.91 66.2983 479.871 66.1589 479.898 66.235C479.935 66.34 480.041 66.7184 480.041 67.472H499.202C499.202 62.4794 497.784 57.1287 493.729 53.0225C489.648 48.8912 484.207 47.3438 478.857 47.3438V66.5042ZM480.041 67.472C480.041 68.2118 479.936 68.5689 479.907 68.651C479.889 68.7026 479.94 68.5455 480.138 68.3478C480.337 68.1492 480.476 68.1166 480.367 68.1546C480.228 68.2038 479.768 68.3318 478.857 68.3318V87.4922C484.16 87.4922 489.593 85.99 493.687 81.8962C497.774 77.809 499.202 72.4629 499.202 67.472H480.041ZM478.857 68.3318H473.925V87.4922H478.857V68.3318ZM515.003 54.836H524.584V45.2558H515.003V54.836ZM512.483 54.836V45.2558H502.903V54.836H512.483ZM499.235 54.836H508.816V45.2558H499.235V54.836ZM496.715 54.836V45.2558H487.135V54.836H496.715ZM487.135 70.64C487.135 75.9513 488.799 81.1006 492.759 84.8768C496.625 88.5634 501.52 89.8322 505.859 89.8322V70.6718C505.49 70.6718 505.361 70.6173 505.416 70.6364C505.447 70.6472 505.524 70.6774 505.63 70.7408C505.738 70.8052 505.86 70.8944 505.982 71.0102C506.104 71.1266 506.202 71.2483 506.276 71.3609C506.349 71.4726 506.381 71.5498 506.388 71.5691C506.402 71.6063 506.296 71.3457 506.296 70.64H487.135ZM505.859 89.8322C510.198 89.8322 515.094 88.5634 518.96 84.8768C522.92 81.1006 524.584 75.9513 524.584 70.64H505.423C505.423 71.3457 505.316 71.6063 505.33 71.5691C505.338 71.5498 505.369 71.4726 505.443 71.3609C505.516 71.2483 505.615 71.1266 505.737 71.0102C505.858 70.8944 505.981 70.8052 506.088 70.7408C506.195 70.6774 506.272 70.6472 506.303 70.6364C506.358 70.6173 506.229 70.6718 505.859 70.6718V89.8322ZM524.584 70.64V54.836H505.423V70.64H524.584ZM515.003 45.2558H512.483V64.4162H515.003V45.2558ZM502.903 54.836V70.676H522.064V54.836H502.903ZM502.903 70.676C502.903 71.7537 502.639 70.8074 503.809 69.6099C505.008 68.3828 506.194 68.4398 505.895 68.4398V87.6002C509.52 87.6002 514.001 86.5952 517.513 83.0011C520.996 79.4366 522.064 74.8183 522.064 70.676H502.903ZM505.895 68.4398C505.591 68.4398 506.724 68.3785 507.894 69.5572C509.062 70.7345 508.816 71.6869 508.816 70.676H489.655C489.655 74.8851 490.776 79.5095 494.294 83.0538C497.813 86.5995 502.275 87.6002 505.895 87.6002V68.4398ZM508.816 70.676V54.836H489.655V70.676H508.816ZM499.235 45.2558H496.715V64.4162H499.235V45.2558ZM487.135 54.836V70.64H506.296V54.836H487.135ZM543.376 72.656L552.335 76.0496L557.249 63.0758H543.376V72.656ZM540.424 72.656V63.0758H534.107L531.619 68.8822L540.424 72.656ZM540.424 62.18L531.589 65.8849L534.053 71.7602H540.424V62.18ZM543.376 62.18V71.7602H557.176L552.352 58.8309L543.376 62.18ZM509.892 67.4C509.892 80.0312 519.292 89.7962 531.784 89.7962V70.6358C530.766 70.6358 530.193 70.2877 529.865 69.9512C529.537 69.6153 529.052 68.8725 529.052 67.4H509.892ZM531.784 89.7962C541.024 89.7962 549.002 84.8493 552.335 76.0496L534.417 69.2624C534.187 69.8691 533.929 70.0943 533.748 70.2132C533.541 70.3489 532.978 70.6358 531.784 70.6358V89.7962ZM543.376 63.0758H540.424V82.2362H543.376V63.0758ZM531.619 68.8822C531.602 68.9199 531.617 68.8731 531.692 68.7824C531.77 68.6881 531.878 68.5888 532.004 68.5078C532.129 68.4271 532.213 68.4027 532.212 68.403C532.206 68.4046 532.076 68.4398 531.784 68.4398V87.6002C539.721 87.6002 546.247 83.3902 549.23 76.4298L531.619 68.8822ZM531.784 68.4398C531.593 68.4398 531.548 68.4064 531.604 68.4293C531.664 68.4541 531.745 68.5059 531.809 68.574C531.873 68.6413 531.848 68.6467 531.796 68.5056C531.741 68.3589 531.644 68.0102 531.644 67.4H512.484C512.484 72.7624 514.241 77.8946 517.908 81.76C521.587 85.6389 526.595 87.6002 531.784 87.6002V68.4398ZM531.644 67.4C531.644 66.7748 531.743 66.4157 531.8 66.2622C531.854 66.1148 531.882 66.1182 531.817 66.186C531.752 66.2547 531.67 66.3079 531.607 66.3337C531.55 66.3576 531.593 66.3242 531.784 66.3242V47.1638C526.594 47.1638 521.581 49.1263 517.9 53.017C514.233 56.8923 512.484 62.0331 512.484 67.4H531.644ZM531.784 66.3242C531.931 66.3242 532.035 66.3331 532.103 66.3418C532.169 66.3504 532.201 66.359 532.201 66.3592C532.202 66.3593 532.177 66.3524 532.133 66.3327C532.088 66.3128 532.031 66.2834 531.968 66.2424C531.834 66.1552 531.723 66.0508 531.646 65.9563C531.573 65.866 531.565 65.8271 531.589 65.8849L549.259 58.4751C546.297 51.4116 539.755 47.1638 531.784 47.1638V66.3242ZM540.424 71.7602H543.376V52.5998H540.424V71.7602ZM552.352 58.8309C549.036 49.9446 541.052 44.9678 531.784 44.9678V64.1282C532.978 64.1282 533.529 64.4148 533.722 64.543C533.889 64.6536 534.158 64.8799 534.4 65.5291L552.352 58.8309ZM531.784 44.9678C519.257 44.9678 509.892 54.8052 509.892 67.4H529.052C529.052 65.9247 529.539 65.1655 529.878 64.8172C530.215 64.4708 530.786 64.1282 531.784 64.1282V44.9678ZM548.398 80H538.817V89.5802H548.398V80ZM550.918 80V89.5802H560.498V80H550.918ZM550.918 54.836H560.498V45.2558H550.918V54.836ZM548.398 54.836V45.2558H538.817V54.836H548.398ZM548.398 89.5802H550.918V70.4198H548.398V89.5802ZM560.498 80V54.836H541.337V80H560.498ZM550.918 45.2558H548.398V64.4162H550.918V45.2558ZM538.817 54.836V80H557.978V54.836H538.817ZM573.076 54.836V45.2558H563.496V54.836H573.076ZM573.076 75.968L565.078 81.2412L582.656 107.904V75.968H573.076ZM559.144 54.836L567.143 49.5628L564.303 45.2558H559.144V54.836ZM556.624 54.836V45.2558H547.044V54.836H556.624ZM556.624 80H547.044V89.5802H556.624V80ZM559.144 80V89.5802H568.724V80H559.144ZM559.144 58.832L567.147 53.5651L549.564 26.8503V58.832H559.144ZM573.076 80L565.074 85.2669L567.913 89.5802H573.076V80ZM575.596 80V89.5802H585.176V80H575.596ZM575.596 54.836H585.176V45.2558H575.596V54.836ZM563.496 54.836V75.968H582.656V54.836H563.496ZM581.074 70.6948L567.143 49.5628L551.146 60.1092L565.078 81.2412L581.074 70.6948ZM559.144 45.2558H556.624V64.4162H559.144V45.2558ZM547.044 54.836V80H566.204V54.836H547.044ZM556.624 89.5802H559.144V70.4198H556.624V89.5802ZM568.724 80V58.832H549.564V80H568.724ZM551.142 64.0989L565.074 85.2669L581.079 74.7331L567.147 53.5651L551.142 64.0989ZM573.076 89.5802H575.596V70.4198H573.076V89.5802ZM585.176 80V54.836H566.016V80H585.176ZM575.596 45.2558H573.076V64.4162H575.596V45.2558ZM604.848 68.48L614.411 69.0486L614.428 68.7646V68.48H604.848ZM604.848 66.644H614.428V57.0638H604.848V66.644ZM591.6 66.644V57.0638H582.02V66.644H591.6ZM591.6 68.696H582.02V78.2762H591.6V68.696ZM602.184 68.696L611.741 69.3572L612.45 59.1158H602.184V68.696ZM601.104 62.18L592.313 65.9892L594.814 71.7602H601.104V62.18ZM604.056 62.18V71.7602H617.892L613.023 58.8088L604.056 62.18ZM592.608 44.9678C580.099 44.9678 570.572 54.7481 570.572 67.4H589.732C589.732 65.9907 590.204 65.2368 590.569 64.8656C590.936 64.4915 591.559 64.1282 592.608 64.1282V44.9678ZM570.572 67.4C570.572 80.1059 580.117 89.8322 592.608 89.8322V70.6718C591.54 70.6718 590.919 70.3042 590.562 69.9412C590.21 69.5833 589.732 68.8363 589.732 67.4H570.572ZM592.608 89.8322C604.905 89.8322 613.735 80.4123 614.411 69.0486L595.285 67.9114C595.22 68.9963 594.815 69.6651 594.448 70.0252C594.116 70.3513 593.575 70.6718 592.608 70.6718V89.8322ZM614.428 68.48V66.644H595.268V68.48H614.428ZM604.848 57.0638H591.6V76.2242H604.848V57.0638ZM582.02 66.644V68.696H601.18V66.644H582.02ZM591.6 78.2762H602.184V59.1158H591.6V78.2762ZM592.626 68.0348C592.597 68.4554 592.518 68.6542 592.501 68.6929C592.491 68.7139 592.493 68.7044 592.514 68.6742C592.536 68.6437 592.569 68.602 592.617 68.5566C592.664 68.5112 592.716 68.4715 592.767 68.4395C592.818 68.4076 592.858 68.39 592.879 68.382C592.926 68.3641 592.851 68.4038 592.608 68.4038V87.5642C597.464 87.5642 602.206 85.8912 605.847 82.4164C609.48 78.9482 611.401 74.2773 611.741 69.3572L592.626 68.0348ZM592.608 68.4038C592.382 68.4038 592.302 68.3643 592.326 68.3741C592.355 68.3856 592.418 68.4215 592.475 68.4808C592.533 68.5404 592.512 68.548 592.466 68.4257C592.418 68.298 592.324 67.9764 592.324 67.4H573.164C573.164 72.8046 574.978 77.9446 578.692 81.7902C582.404 85.6351 587.426 87.5642 592.608 87.5642V68.4038ZM592.324 67.4C592.324 66.8236 592.418 66.5074 592.463 66.3877C592.506 66.2738 592.522 66.2891 592.459 66.3541C592.396 66.4186 592.33 66.4547 592.305 66.4651C592.284 66.4734 592.371 66.4322 592.608 66.4322V47.2718C587.451 47.2718 582.431 49.1741 578.708 53.0109C574.981 56.8521 573.164 61.9928 573.164 67.4H592.324ZM592.608 66.4322C592.786 66.4322 592.857 66.4548 592.845 66.4511C592.83 66.4471 592.762 66.4247 592.667 66.3637C592.572 66.3028 592.485 66.2256 592.416 66.1436C592.348 66.0626 592.319 66.0029 592.313 65.9892L609.894 58.3708C606.909 51.4827 600.298 47.2718 592.608 47.2718V66.4322ZM601.104 71.7602H604.056V52.5998H601.104V71.7602ZM613.023 58.8088C609.727 50.0403 601.73 44.9678 592.608 44.9678V64.1282C593.604 64.1282 594.127 64.379 594.363 64.5369C594.583 64.6835 594.861 64.9475 595.088 65.5512L613.023 58.8088Z" fill="#0094FF"/>
</g>
<g style="mix-blend-mode:hard-light" filter="url(#filter3_ddi_357_4178)">
<path d="M370.296 80H362.97V87.326H370.296V80ZM372.816 80V87.326H380.142V80H372.816ZM372.816 54.836H380.142V47.51H372.816V54.836ZM370.296 54.836V47.51H362.97V54.836H370.296ZM370.296 87.326H372.816V72.674H370.296V87.326ZM380.142 80V54.836H365.49V80H380.142ZM372.816 47.51H370.296V62.162H372.816V47.51ZM362.97 54.836V80H377.622V54.836H362.97ZM394.975 54.836V47.51H387.649V54.836H394.975ZM394.975 75.968L388.858 80.0004L402.301 100.39V75.968H394.975ZM381.043 54.836L387.159 50.8036L384.988 47.51H381.043V54.836ZM378.523 54.836V47.51H371.197V54.836H378.523ZM378.523 80H371.197V87.326H378.523V80ZM381.043 80V87.326H388.369V80H381.043ZM381.043 58.832L387.162 54.8043L373.717 34.3754V58.832H381.043ZM394.975 80L388.855 84.0277L391.026 87.326H394.975V80ZM397.495 80V87.326H404.821V80H397.495ZM397.495 54.836H404.821V47.51H397.495V54.836ZM387.649 54.836V75.968H402.301V54.836H387.649ZM401.091 71.9356L387.159 50.8036L374.926 58.8684L388.858 80.0004L401.091 71.9356ZM381.043 47.51H378.523V62.162H381.043V47.51ZM371.197 54.836V80H385.849V54.836H371.197ZM378.523 87.326H381.043V72.674H378.523V87.326ZM388.369 80V58.832H373.717V80H388.369ZM374.923 62.8597L388.855 84.0277L401.094 75.9723L387.162 54.8043L374.923 62.8597ZM394.975 87.326H397.495V72.674H394.975V87.326ZM404.821 80V54.836H390.169V80H404.821ZM397.495 47.51H394.975V62.162H397.495V47.51ZM401.402 56.924H394.076V64.25H401.402V56.924ZM408.422 56.924H415.748V49.598H408.422V56.924ZM408.422 80H401.096V87.326H408.422V80ZM410.942 80V87.326H418.268V80H410.942ZM410.942 56.924V49.598H403.616V56.924H410.942ZM417.926 56.924V64.25H425.252V56.924H417.926ZM417.926 54.836H425.252V47.51H417.926V54.836ZM401.402 54.836V47.51H394.076V54.836H401.402ZM401.402 64.25H408.422V49.598H401.402V64.25ZM401.096 56.924V80H415.748V56.924H401.096ZM408.422 87.326H410.942V72.674H408.422V87.326ZM418.268 80V56.924H403.616V80H418.268ZM410.942 64.25H417.926V49.598H410.942V64.25ZM425.252 56.924V54.836H410.6V56.924H425.252ZM417.926 47.51H401.402V62.162H417.926V47.51ZM394.076 54.836V56.924H408.728V54.836H394.076ZM424.425 67.436H417.099V74.762H424.425V67.436ZM424.425 56.96V49.634H417.099V56.96H424.425ZM421.905 54.836V47.51H414.579V54.836H421.905ZM421.905 80H414.579V87.326H421.905V80ZM424.425 80V87.326H431.751V80H424.425ZM424.425 69.488V62.162H417.099V69.488H424.425ZM429.069 69.488L435.372 65.7538L433.244 62.162H429.069V69.488ZM435.297 80L428.995 83.7342L431.123 87.326H435.297V80ZM438.321 80V87.326H451.328L444.587 76.2029L438.321 80ZM431.841 69.308L430.499 62.1061L420.087 64.0473L425.576 73.1051L431.841 69.308ZM428.115 62.144C428.115 62.2163 428.123 61.4402 428.916 60.6726C429.692 59.9223 430.258 60.11 429.501 60.11V74.762C432.848 74.762 436.385 73.8337 439.105 71.2024C441.842 68.5538 442.767 65.1317 442.767 62.144H428.115ZM429.501 60.11H424.425V74.762H429.501V60.11ZM431.751 67.436V56.96H417.099V67.436H431.751ZM424.425 64.286H429.465V49.634H424.425V64.286ZM429.465 64.286C430.55 64.286 429.936 64.5503 429.044 63.7164C428.607 63.3082 428.344 62.845 428.212 62.4785C428.094 62.1501 428.115 61.9997 428.115 62.144H442.767C442.767 59.2637 441.956 55.7284 439.049 53.0116C436.23 50.3777 432.629 49.634 429.465 49.634V64.286ZM414.579 54.836V80H429.231V54.836H414.579ZM421.905 87.326H424.425V72.674H421.905V87.326ZM431.751 80V69.488H417.099V80H431.751ZM424.425 76.814H429.069V62.162H424.425V76.814ZM422.767 73.2222L428.995 83.7342L441.6 76.2658L435.372 65.7538L422.767 73.2222ZM435.297 87.326H438.321V72.674H435.297V87.326ZM444.587 76.2029L438.107 65.5109L425.576 73.1051L432.056 83.7971L444.587 76.2029ZM433.184 76.5099C436.755 75.8442 439.957 74.1436 442.231 71.3263C444.474 68.5475 445.359 65.2462 445.359 62.144H430.707C430.707 62.3242 430.682 62.389 430.69 62.3636C430.694 62.3504 430.706 62.3181 430.73 62.2727C430.755 62.2268 430.788 62.1754 430.83 62.1237C430.872 62.0717 430.914 62.0295 430.952 61.998C430.989 61.9667 431.011 61.9544 431.008 61.956C431.005 61.9578 430.862 62.0383 430.499 62.1061L433.184 76.5099ZM445.359 62.144C445.359 58.4242 444.089 54.5046 440.916 51.5642C437.791 48.6682 433.675 47.51 429.465 47.51V62.162C430.27 62.162 430.728 62.2721 430.932 62.3403C431.119 62.4033 431.081 62.426 430.957 62.3108C430.828 62.1917 430.741 62.0487 430.702 61.9493C430.669 61.867 430.707 61.9125 430.707 62.144H445.359ZM429.465 47.51H421.905V62.162H429.465V47.51ZM474.12 67.4C474.12 55.9688 465.614 47.222 454.338 47.222V61.874C457.247 61.874 459.468 63.7832 459.468 67.4H474.12ZM454.338 47.222C443.113 47.222 434.556 55.9547 434.556 67.4H449.208C449.208 63.7973 451.452 61.874 454.338 61.874V47.222ZM434.556 67.4C434.556 78.8951 443.126 87.578 454.338 87.578V72.926C451.438 72.926 449.208 71.0249 449.208 67.4H434.556ZM454.338 87.578C465.6 87.578 474.12 78.8811 474.12 67.4H459.468C459.468 71.0389 457.26 72.926 454.338 72.926V87.578ZM451.8 67.4C451.8 65.7285 452.314 64.9875 452.584 64.7084C452.854 64.4285 453.36 64.106 454.338 64.106V49.454C449.737 49.454 445.31 51.1475 442.044 54.5306C438.776 57.9145 437.148 62.4835 437.148 67.4H451.8ZM454.338 64.106C455.317 64.106 455.822 64.4285 456.093 64.7084C456.362 64.9875 456.876 65.7285 456.876 67.4H471.528C471.528 62.4835 469.9 57.9145 466.633 54.5306C463.366 51.1475 458.94 49.454 454.338 49.454V64.106ZM456.876 67.4C456.876 69.0734 456.361 69.8308 456.08 70.1226C455.802 70.4121 455.298 70.73 454.338 70.73V85.382C458.959 85.382 463.387 83.6659 466.645 80.2744C469.902 76.8852 471.528 72.3146 471.528 67.4H456.876ZM454.338 70.73C453.379 70.73 452.875 70.4121 452.596 70.1226C452.316 69.8308 451.8 69.0734 451.8 67.4H437.148C437.148 72.3146 438.775 76.8852 442.031 80.2744C445.29 83.6659 449.717 85.382 454.338 85.382V70.73ZM471.405 54.836V47.51H464.079V54.836H471.405ZM471.405 80H464.079V87.326H471.405V80ZM473.925 77.912H466.599V85.238H473.925V77.912ZM473.925 56.924V49.598H466.599V56.924H473.925ZM478.857 47.51H471.405V62.162H478.857V47.51ZM464.079 54.836V80H478.731V54.836H464.079ZM471.405 87.326H478.857V72.674H471.405V87.326ZM478.857 87.326C484.393 87.326 489.711 85.7537 493.694 81.9908C497.73 78.1779 499.503 72.957 499.503 67.472H484.851C484.851 69.799 484.159 70.8421 483.632 71.3402C483.052 71.8883 481.71 72.674 478.857 72.674V87.326ZM499.503 67.472C499.503 61.971 497.743 56.7293 493.716 52.8932C489.734 49.0999 484.408 47.51 478.857 47.51V62.162C481.695 62.162 483.028 62.9481 483.61 63.5018C484.146 64.0127 484.851 65.089 484.851 67.472H499.503ZM481.251 77.912V56.924H466.599V77.912H481.251ZM473.925 64.25H478.857V49.598H473.925V64.25ZM478.857 64.25C481.056 64.25 481.644 64.8456 481.7 64.9025C481.775 64.9786 482.295 65.5405 482.295 67.472H496.947C496.947 62.8875 495.65 58.1754 492.125 54.6065C488.581 51.0184 483.787 49.598 478.857 49.598V64.25ZM482.295 67.472C482.295 69.3731 481.783 69.8907 481.732 69.9417C481.686 69.9876 481.092 70.586 478.857 70.586V85.238C483.751 85.238 488.539 83.8564 492.093 80.3023C495.642 76.7533 496.947 72.0509 496.947 67.472H482.295ZM478.857 70.586H473.925V85.238H478.857V70.586ZM515.003 54.836H522.329V47.51H515.003V54.836ZM512.483 54.836V47.51H505.157V54.836H512.483ZM499.235 54.836H506.561V47.51H499.235V54.836ZM496.715 54.836V47.51H489.389V54.836H496.715ZM489.389 70.64C489.389 75.4851 490.899 79.9882 494.315 83.2455C497.659 86.4341 501.94 87.578 505.859 87.578V72.926C505.276 72.926 504.893 72.8409 504.677 72.7659C504.572 72.7293 504.508 72.6961 504.475 72.6763C504.443 72.6573 504.43 72.6454 504.426 72.6415C504.423 72.6382 504.411 72.6266 504.39 72.5956C504.369 72.5638 504.328 72.4929 504.279 72.3649C504.182 72.1079 504.041 71.5714 504.041 70.64H489.389ZM505.859 87.578C509.779 87.578 514.06 86.4341 517.404 83.2455C520.82 79.9882 522.329 75.4851 522.329 70.64H507.677C507.677 71.5714 507.536 72.1079 507.439 72.3649C507.391 72.4929 507.349 72.5638 507.329 72.5956C507.308 72.6266 507.296 72.6382 507.293 72.6415C507.289 72.6454 507.276 72.6573 507.244 72.6763C507.211 72.6961 507.147 72.7293 507.042 72.7659C506.826 72.8409 506.442 72.926 505.859 72.926V87.578ZM522.329 70.64V54.836H507.677V70.64H522.329ZM515.003 47.51H512.483V62.162H515.003V47.51ZM505.157 54.836V70.676H519.809V54.836H505.157ZM505.157 70.676C505.157 71.376 505.066 71.6782 505.056 71.709C505.053 71.7186 505.071 71.6591 505.133 71.5554C505.196 71.4495 505.29 71.3193 505.421 71.1853C505.552 71.0511 505.695 70.9389 505.836 70.8514C505.974 70.7651 506.089 70.7168 506.159 70.6922C506.289 70.6466 506.232 70.694 505.895 70.694V85.346C509.129 85.346 512.943 84.4525 515.901 81.4257C518.836 78.4214 519.809 74.4577 519.809 70.676H505.157ZM505.895 70.694C505.559 70.694 505.49 70.6468 505.603 70.6859C505.664 70.7072 505.769 70.7508 505.899 70.8306C506.031 70.9116 506.167 71.017 506.294 71.145C506.421 71.273 506.514 71.399 506.578 71.5039C506.64 71.6069 506.661 71.6683 506.659 71.6639C506.653 71.6448 506.561 71.3577 506.561 70.676H491.909C491.909 74.5088 492.928 78.4771 495.894 81.466C498.861 84.4559 502.666 85.346 505.895 85.346V70.694ZM506.561 70.676V54.836H491.909V70.676H506.561ZM499.235 47.51H496.715V62.162H499.235V47.51ZM489.389 54.836V70.64H504.041V54.836H489.389ZM543.376 72.656L550.227 75.2511L553.985 65.33H543.376V72.656ZM540.424 72.656V65.33H535.593L533.69 69.7701L540.424 72.656ZM540.424 62.18L533.668 65.0132L535.552 69.506H540.424V62.18ZM543.376 62.18V69.506H553.929L550.24 59.6189L543.376 62.18ZM512.146 67.4C512.146 78.838 520.588 87.542 531.784 87.542V72.89C529.012 72.89 526.798 71.082 526.798 67.4H512.146ZM531.784 87.542C540.171 87.542 547.255 83.0984 550.227 75.2511L536.525 70.0609C535.898 71.7176 534.629 72.89 531.784 72.89V87.542ZM543.376 65.33H540.424V79.982H543.376V65.33ZM533.69 69.7701C533.512 70.1861 533.334 70.3326 533.223 70.404C533.106 70.4787 532.712 70.694 531.784 70.694V85.346C538.862 85.346 544.546 81.6353 547.158 75.5419L533.69 69.7701ZM531.784 70.694C530.893 70.694 530.434 70.3991 530.174 70.1253C529.904 69.8412 529.39 69.0805 529.39 67.4H514.738C514.738 72.2715 516.33 76.8208 519.543 80.2087C522.767 83.6069 527.168 85.346 531.784 85.346V70.694ZM529.39 67.4C529.39 65.6912 529.911 64.9212 530.18 64.6367C530.438 64.364 530.893 64.07 531.784 64.07V49.418C527.167 49.418 522.762 51.158 519.537 54.5663C516.323 57.9628 514.738 62.5208 514.738 67.4H529.39ZM531.784 64.07C532.713 64.07 533.093 64.2851 533.196 64.3516C533.292 64.414 533.478 64.5593 533.668 65.0132L547.18 59.3468C544.585 53.1575 538.888 49.418 531.784 49.418V64.07ZM540.424 69.506H543.376V54.854H540.424V69.506ZM550.24 59.6189C547.281 51.6885 540.193 47.222 531.784 47.222V61.874C534.608 61.874 535.871 63.0235 536.512 64.7411L550.24 59.6189ZM531.784 47.222C520.561 47.222 512.146 55.9899 512.146 67.4H526.798C526.798 63.6901 529.039 61.874 531.784 61.874V47.222ZM548.398 80H541.072V87.326H548.398V80ZM550.918 80V87.326H558.244V80H550.918ZM550.918 54.836H558.244V47.51H550.918V54.836ZM548.398 54.836V47.51H541.072V54.836H548.398ZM548.398 87.326H550.918V72.674H548.398V87.326ZM558.244 80V54.836H543.592V80H558.244ZM550.918 47.51H548.398V62.162H550.918V47.51ZM541.072 54.836V80H555.724V54.836H541.072ZM573.076 54.836V47.51H565.75V54.836H573.076ZM573.076 75.968L566.96 80.0004L580.402 100.39V75.968H573.076ZM559.144 54.836L565.261 50.8036L563.089 47.51H559.144V54.836ZM556.624 54.836V47.51H549.298V54.836H556.624ZM556.624 80H549.298V87.326H556.624V80ZM559.144 80V87.326H566.47V80H559.144ZM559.144 58.832L565.264 54.8043L551.818 34.3754V58.832H559.144ZM573.076 80L566.957 84.0277L569.127 87.326H573.076V80ZM575.596 80V87.326H582.922V80H575.596ZM575.596 54.836H582.922V47.51H575.596V54.836ZM565.75 54.836V75.968H580.402V54.836H565.75ZM579.193 71.9356L565.261 50.8036L553.028 58.8684L566.96 80.0004L579.193 71.9356ZM559.144 47.51H556.624V62.162H559.144V47.51ZM549.298 54.836V80H563.95V54.836H549.298ZM556.624 87.326H559.144V72.674H556.624V87.326ZM566.47 80V58.832H551.818V80H566.47ZM553.025 62.8597L566.957 84.0277L579.196 75.9723L565.264 54.8043L553.025 62.8597ZM573.076 87.326H575.596V72.674H573.076V87.326ZM582.922 80V54.836H568.27V80H582.922ZM575.596 47.51H573.076V62.162H575.596V47.51ZM604.848 68.48L612.161 68.9148L612.174 68.6976V68.48H604.848ZM604.848 66.644H612.174V59.318H604.848V66.644ZM591.6 66.644V59.318H584.274V66.644H591.6ZM591.6 68.696H584.274V76.022H591.6V68.696ZM602.184 68.696L609.492 69.2016L610.034 61.37H602.184V68.696ZM601.104 62.18L594.382 65.0929L596.294 69.506H601.104V62.18ZM604.056 62.18V69.506H614.637L610.913 59.602L604.056 62.18ZM592.608 47.222C581.382 47.222 572.826 55.9547 572.826 67.4H587.478C587.478 63.7973 589.722 61.874 592.608 61.874V47.222ZM572.826 67.4C572.826 78.8951 581.396 87.578 592.608 87.578V72.926C589.708 72.926 587.478 71.0249 587.478 67.4H572.826ZM592.608 87.578C603.629 87.578 611.551 79.1718 612.161 68.9148L597.535 68.0452C597.353 71.1082 595.339 72.926 592.608 72.926V87.578ZM612.174 68.48V66.644H597.522V68.48H612.174ZM604.848 59.318H591.6V73.97H604.848V59.318ZM584.274 66.644V68.696H598.926V66.644H584.274ZM591.6 76.022H602.184V61.37H591.6V76.022ZM594.875 68.1904C594.786 69.4786 594.365 70.0043 594.173 70.1872C593.987 70.365 593.563 70.658 592.608 70.658V85.31C596.944 85.31 601.111 83.821 604.29 80.7858C607.465 77.7557 609.186 73.6374 609.492 69.2016L594.875 68.1904ZM592.608 70.658C591.647 70.658 591.135 70.3384 590.853 70.0466C590.572 69.7553 590.07 69.0165 590.07 67.4H575.418C575.418 72.2995 577.057 76.8527 580.313 80.2244C583.568 83.5956 587.989 85.31 592.608 85.31V70.658ZM590.07 67.4C590.07 65.7855 590.57 65.0631 590.841 64.7843C591.115 64.5022 591.628 64.178 592.608 64.178V49.526C588.008 49.526 583.589 51.2178 580.326 54.5807C577.059 57.9469 575.418 62.4985 575.418 67.4H590.07ZM592.608 64.178C593.336 64.178 593.714 64.3569 593.885 64.4666C594.056 64.5764 594.234 64.753 594.382 65.0929L607.826 59.2671C605.213 53.2373 599.437 49.526 592.608 49.526V64.178ZM601.104 69.506H604.056V54.854H601.104V69.506ZM610.913 59.602C607.969 51.7701 600.854 47.222 592.608 47.222V61.874C595.161 61.874 596.543 63.0139 597.198 64.758L610.913 59.602Z" fill="#00B3FF" fill-opacity="0.2"/>
</g>
<g filter="url(#filter4_f_357_4178)">
<path d="M370.296 80H365.788V84.5083H370.296V80ZM372.816 80V84.5083H377.324V80H372.816ZM372.816 54.836H377.324V50.3277H372.816V54.836ZM370.296 54.836V50.3277H365.788V54.836H370.296ZM370.296 84.5083H372.816V75.4917H370.296V84.5083ZM377.324 80V54.836H368.308V80H377.324ZM372.816 50.3277H370.296V59.3443H372.816V50.3277ZM365.788 54.836V80H374.804V54.836H365.788ZM394.975 54.836V50.3277H390.466V54.836H394.975ZM394.975 75.968L391.211 78.4495L399.483 90.9968V75.968H394.975ZM381.043 54.836L384.807 52.3545L383.47 50.3277H381.043V54.836ZM378.523 54.836V50.3277H374.014V54.836H378.523ZM378.523 80H374.014V84.5083H378.523V80ZM381.043 80V84.5083H385.551V80H381.043ZM381.043 58.832L384.808 56.3534L376.534 43.7818V58.832H381.043ZM394.975 80L391.209 82.4786L392.545 84.5083H394.975V80ZM397.495 80V84.5083H402.003V80H397.495ZM397.495 54.836H402.003V50.3277H397.495V54.836ZM390.466 54.836V75.968H399.483V54.836H390.466ZM398.739 73.4865L384.807 52.3545L377.279 57.3175L391.211 78.4495L398.739 73.4865ZM381.043 50.3277H378.523V59.3443H381.043V50.3277ZM374.014 54.836V80H383.031V54.836H374.014ZM378.523 84.5083H381.043V75.4917H378.523V84.5083ZM385.551 80V58.832H376.534V80H385.551ZM377.277 61.3106L391.209 82.4786L398.74 77.5214L384.808 56.3534L377.277 61.3106ZM394.975 84.5083H397.495V75.4917H394.975V84.5083ZM402.003 80V54.836H392.986V80H402.003ZM397.495 50.3277H394.975V59.3443H397.495V50.3277ZM401.402 56.924H396.894V61.4323H401.402V56.924ZM408.422 56.924H412.931V52.4157H408.422V56.924ZM408.422 80H403.914V84.5083H408.422V80ZM410.942 80V84.5083H415.451V80H410.942ZM410.942 56.924V52.4157H406.434V56.924H410.942ZM417.926 56.924V61.4323H422.435V56.924H417.926ZM417.926 54.836H422.435V50.3277H417.926V54.836ZM401.402 54.836V50.3277H396.894V54.836H401.402ZM401.402 61.4323H408.422V52.4157H401.402V61.4323ZM403.914 56.924V80H412.931V56.924H403.914ZM408.422 84.5083H410.942V75.4917H408.422V84.5083ZM415.451 80V56.924H406.434V80H415.451ZM410.942 61.4323H417.926V52.4157H410.942V61.4323ZM422.435 56.924V54.836H413.418V56.924H422.435ZM417.926 50.3277H401.402V59.3443H417.926V50.3277ZM396.894 54.836V56.924H405.911V54.836H396.894ZM424.425 67.436H419.917V71.9443H424.425V67.436ZM424.425 56.96V52.4517H419.917V56.96H424.425ZM421.905 54.836V50.3277H417.397V54.836H421.905ZM421.905 80H417.397V84.5083H421.905V80ZM424.425 80V84.5083H428.934V80H424.425ZM424.425 69.488V64.9797H419.917V69.488H424.425ZM429.069 69.488L432.948 67.19L431.639 64.9797H429.069V69.488ZM435.297 80L431.419 82.298L432.728 84.5083H435.297V80ZM438.321 80V84.5083H446.325L442.177 77.6633L438.321 80ZM431.841 69.308L431.015 64.876L424.608 66.0706L427.986 71.6447L431.841 69.308ZM430.933 62.144C430.933 62.777 430.761 62.8082 430.875 62.6976C430.979 62.5975 430.756 62.9277 429.501 62.9277V71.9443C432.35 71.9443 435.098 71.1585 437.145 69.1774C439.204 67.1858 439.95 64.571 439.95 62.144H430.933ZM429.501 62.9277H424.425V71.9443H429.501V62.9277ZM428.934 67.436V56.96H419.917V67.436H428.934ZM424.425 61.4683H429.465V52.4517H424.425V61.4683ZM429.465 61.4683C430.95 61.4683 431.147 61.8248 430.968 61.6578C430.885 61.5797 430.856 61.5058 430.863 61.5243C430.878 61.5662 430.933 61.7506 430.933 62.144H439.95C439.95 59.7622 439.284 57.0882 437.125 55.0702C435.02 53.1032 432.229 52.4517 429.465 52.4517V61.4683ZM417.397 54.836V80H426.414V54.836H417.397ZM421.905 84.5083H424.425V75.4917H421.905V84.5083ZM428.934 80V69.488H419.917V80H428.934ZM424.425 73.9963H429.069V64.9797H424.425V73.9963ZM425.191 71.786L431.419 82.298L439.176 77.702L432.948 67.19L425.191 71.786ZM435.297 84.5083H438.321V75.4917H435.297V84.5083ZM442.177 77.6633L435.697 66.9713L427.986 71.6447L434.466 82.3367L442.177 77.6633ZM432.668 73.74C435.682 73.178 438.248 71.7749 440.039 69.5566C441.81 67.3619 442.542 64.7177 442.542 62.144H433.525C433.525 63.0263 433.285 63.5681 433.022 63.8934C432.779 64.1951 432.249 64.646 431.015 64.876L432.668 73.74ZM442.542 62.144C442.542 59.0588 441.497 55.944 439.001 53.6308C436.534 51.345 433.177 50.3277 429.465 50.3277V59.3443C431.585 59.3443 432.512 59.911 432.872 60.2442C433.202 60.55 433.525 61.0892 433.525 62.144H442.542ZM429.465 50.3277H421.905V59.3443H429.465V50.3277ZM471.303 67.4C471.303 57.4715 464.005 50.0397 454.338 50.0397V59.0563C458.856 59.0563 462.286 62.2805 462.286 67.4H471.303ZM454.338 50.0397C444.716 50.0397 437.374 57.4629 437.374 67.4H446.391C446.391 62.2891 449.848 59.0563 454.338 59.0563V50.0397ZM437.374 67.4C437.374 77.3816 444.725 84.7603 454.338 84.7603V75.7437C449.84 75.7437 446.391 72.5384 446.391 67.4H437.374ZM454.338 84.7603C463.996 84.7603 471.303 77.373 471.303 67.4H462.286C462.286 72.547 458.864 75.7437 454.338 75.7437V84.7603ZM448.983 67.4C448.983 65.1044 449.711 63.6273 450.557 62.7511C451.403 61.8745 452.663 61.2883 454.338 61.2883V52.2717C450.434 52.2717 446.761 53.7015 444.071 56.4879C441.38 59.2747 439.966 63.1076 439.966 67.4H448.983ZM454.338 61.2883C456.014 61.2883 457.273 61.8745 458.12 62.7511C458.966 63.6273 459.694 65.1044 459.694 67.4H468.711C468.711 63.1076 467.297 59.2747 464.606 56.4879C461.915 53.7015 458.243 52.2717 454.338 52.2717V61.2883ZM459.694 67.4C459.694 69.6967 458.965 71.1874 458.112 72.0748C457.261 72.9609 456.002 73.5477 454.338 73.5477V82.5643C458.255 82.5643 461.928 81.1171 464.614 78.3222C467.298 75.5286 468.711 71.6913 468.711 67.4H459.694ZM454.338 73.5477C452.675 73.5477 451.416 72.9609 450.565 72.0748C449.712 71.1874 448.983 69.6967 448.983 67.4H439.966C439.966 71.6913 441.379 75.5286 444.063 78.3222C446.749 81.1171 450.422 82.5643 454.338 82.5643V73.5477ZM471.405 54.836V50.3277H466.897V54.836H471.405ZM471.405 80H466.897V84.5083H471.405V80ZM473.925 77.912H469.417V82.4203H473.925V77.912ZM473.925 56.924V52.4157H469.417V56.924H473.925ZM478.857 50.3277H471.405V59.3443H478.857V50.3277ZM466.897 54.836V80H475.914V54.836H466.897ZM471.405 84.5083H478.857V75.4917H471.405V84.5083ZM478.857 84.5083C483.877 84.5083 488.43 83.0873 491.759 79.9426C495.12 76.7672 496.686 72.3497 496.686 67.472H487.669C487.669 70.4063 486.769 72.2528 485.567 73.3884C484.332 74.5547 482.226 75.4917 478.857 75.4917V84.5083ZM496.686 67.472C496.686 62.5706 495.128 58.1299 491.773 54.9333C488.445 51.763 483.886 50.3277 478.857 50.3277V59.3443C482.217 59.3443 484.318 60.285 485.553 61.4617C486.761 62.612 487.669 64.4894 487.669 67.472H496.686ZM478.434 77.912V56.924H469.417V77.912H478.434ZM473.925 61.4323H478.857V52.4157H473.925V61.4323ZM478.857 61.4323C481.581 61.4323 482.978 62.1865 483.705 62.9225C484.443 63.6703 485.113 65.0303 485.113 67.472H494.13C494.13 63.3977 492.981 59.4837 490.12 56.5865C487.247 53.6775 483.262 52.4157 478.857 52.4157V61.4323ZM485.113 67.472C485.113 69.888 484.448 71.2105 483.725 71.9341C483.004 72.6547 481.603 73.4037 478.857 73.4037V82.4203C483.24 82.4203 487.221 81.1893 490.1 78.3099C492.977 75.4335 494.13 71.5359 494.13 67.472H485.113ZM478.857 73.4037H473.925V82.4203H478.857V73.4037ZM515.003 54.836H519.512V50.3277H515.003V54.836ZM512.483 54.836V50.3277H507.975V54.836H512.483ZM499.235 54.836H503.744V50.3277H499.235V54.836ZM496.715 54.836V50.3277H492.207V54.836H496.715ZM492.207 70.64C492.207 74.9024 493.524 78.5977 496.259 81.2062C498.95 83.7725 502.464 84.7603 505.859 84.7603V75.7437C504.142 75.7437 503.084 75.2555 502.482 74.6808C501.923 74.1483 501.224 73.0376 501.224 70.64H492.207ZM505.859 84.7603C509.254 84.7603 512.768 83.7725 515.46 81.2062C518.195 78.5977 519.512 74.9024 519.512 70.64H510.495C510.495 73.0376 509.796 74.1483 509.237 74.6808C508.634 75.2555 507.576 75.7437 505.859 75.7437V84.7603ZM519.512 70.64V54.836H510.495V70.64H519.512ZM515.003 50.3277H512.483V59.3443H515.003V50.3277ZM507.975 54.836V70.676H516.992V54.836H507.975ZM507.975 70.676C507.975 72.5649 507.498 73.0916 507.436 73.1546C507.388 73.2038 507.075 73.5117 505.895 73.5117V82.5283C508.64 82.5283 511.62 81.7743 513.885 79.4564C516.137 77.1524 516.992 74.0071 516.992 70.676H507.975ZM505.895 73.5117C504.714 73.5117 504.365 73.2017 504.294 73.1298C504.222 73.0573 503.744 72.5335 503.744 70.676H494.727C494.727 74.0385 495.617 77.1867 497.894 79.4812C500.172 81.7763 503.153 82.5283 505.895 82.5283V73.5117ZM503.744 70.676V54.836H494.727V70.676H503.744ZM499.235 50.3277H496.715V59.3443H499.235V50.3277ZM492.207 54.836V70.64H501.224V54.836H492.207ZM543.376 72.656L547.592 74.253L549.905 68.1477H543.376V72.656ZM540.424 72.656V68.1477H537.451L536.28 70.8801L540.424 72.656ZM540.424 62.18L536.267 63.9235L537.426 66.6883H540.424V62.18ZM543.376 62.18V66.6883H549.87L547.6 60.6039L543.376 62.18ZM514.964 67.4C514.964 77.3464 522.208 84.7243 531.784 84.7243V75.7077C527.392 75.7077 523.98 72.5736 523.98 67.4H514.964ZM531.784 84.7243C539.105 84.7243 545.071 80.9098 547.592 74.253L539.16 71.059C538.082 73.9062 535.695 75.7077 531.784 75.7077V84.7243ZM543.376 68.1477H540.424V77.1643H543.376V68.1477ZM536.28 70.8801C535.619 72.4222 534.349 73.5117 531.784 73.5117V82.5283C537.787 82.5283 542.421 79.4417 544.568 74.4319L536.28 70.8801ZM531.784 73.5117C530.176 73.5117 528.959 72.939 528.13 72.0644C527.294 71.1834 526.572 69.6942 526.572 67.4H517.556C517.556 71.6578 518.94 75.4786 521.588 78.2696C524.241 81.067 527.884 82.5283 531.784 82.5283V73.5117ZM526.572 67.4C526.572 65.0815 527.298 63.583 528.133 62.7001C528.962 61.8244 530.177 61.2523 531.784 61.2523V52.2357C527.884 52.2357 524.238 53.6976 521.584 56.5029C518.936 59.301 517.556 63.1305 517.556 67.4H526.572ZM531.784 61.2523C534.333 61.2523 535.596 62.324 536.267 63.9235L544.582 60.4365C542.444 55.34 537.803 52.2357 531.784 52.2357V61.2523ZM540.424 66.6883H543.376V57.6717H540.424V66.6883ZM547.6 60.6039C545.087 53.8683 539.119 50.0397 531.784 50.0397V59.0563C535.682 59.0563 538.066 60.8437 539.152 63.7561L547.6 60.6039ZM531.784 50.0397C522.191 50.0397 514.964 57.4707 514.964 67.4H523.98C523.98 62.2093 527.409 59.0563 531.784 59.0563V50.0397ZM548.398 80H543.889V84.5083H548.398V80ZM550.918 80V84.5083H555.426V80H550.918ZM550.918 54.836H555.426V50.3277H550.918V54.836ZM548.398 54.836V50.3277H543.889V54.836H548.398ZM548.398 84.5083H550.918V75.4917H548.398V84.5083ZM555.426 80V54.836H546.409V80H555.426ZM550.918 50.3277H548.398V59.3443H550.918V50.3277ZM543.889 54.836V80H552.906V54.836H543.889ZM573.076 54.836V50.3277H568.568V54.836H573.076ZM573.076 75.968L569.312 78.4495L577.584 90.9968V75.968H573.076ZM559.144 54.836L562.908 52.3545L561.572 50.3277H559.144V54.836ZM556.624 54.836V50.3277H552.116V54.836H556.624ZM556.624 80H552.116V84.5083H556.624V80ZM559.144 80V84.5083H563.652V80H559.144ZM559.144 58.832L562.91 56.3534L554.636 43.7818V58.832H559.144ZM573.076 80L569.31 82.4786L570.646 84.5083H573.076V80ZM575.596 80V84.5083H580.104V80H575.596ZM575.596 54.836H580.104V50.3277H575.596V54.836ZM568.568 54.836V75.968H577.584V54.836H568.568ZM576.84 73.4865L562.908 52.3545L555.38 57.3175L569.312 78.4495L576.84 73.4865ZM559.144 50.3277H556.624V59.3443H559.144V50.3277ZM552.116 54.836V80H561.132V54.836H552.116ZM556.624 84.5083H559.144V75.4917H556.624V84.5083ZM563.652 80V58.832H554.636V80H563.652ZM555.378 61.3106L569.31 82.4786L576.842 77.5214L562.91 56.3534L555.378 61.3106ZM573.076 84.5083H575.596V75.4917H573.076V84.5083ZM580.104 80V54.836H571.088V80H580.104ZM575.596 50.3277H573.076V59.3443H575.596V50.3277ZM604.848 68.48L609.348 68.7476L609.356 68.6139V68.48H604.848ZM604.848 66.644H609.356V62.1357H604.848V66.644ZM591.6 66.644V62.1357H587.091V66.644H591.6ZM591.6 68.696H587.091V73.2043H591.6V68.696ZM602.184 68.696L606.681 69.0072L607.015 64.1877H602.184V68.696ZM601.104 62.18L596.967 63.9725L598.144 66.6883H601.104V62.18ZM604.056 62.18V66.6883H610.567L608.276 60.5935L604.056 62.18ZM592.608 50.0397C582.986 50.0397 575.643 57.4629 575.643 67.4H584.66C584.66 62.2891 588.118 59.0563 592.608 59.0563V50.0397ZM575.643 67.4C575.643 77.3816 582.994 84.7603 592.608 84.7603V75.7437C588.109 75.7437 584.66 72.5384 584.66 67.4H575.643ZM592.608 84.7603C602.035 84.7603 608.821 77.6211 609.348 68.7476L600.347 68.2124C600.083 72.6589 596.933 75.7437 592.608 75.7437V84.7603ZM609.356 68.48V66.644H600.34V68.48H609.356ZM604.848 62.1357H591.6V71.1523H604.848V62.1357ZM587.091 66.644V68.696H596.108V66.644H587.091ZM591.6 73.2043H602.184V64.1877H591.6V73.2043ZM597.686 68.3848C597.555 70.2783 596.884 71.495 596.119 72.2254C595.357 72.9527 594.214 73.4757 592.608 73.4757V82.4923C596.294 82.4923 599.741 81.2333 602.345 78.7476C604.946 76.265 606.416 72.8377 606.681 69.0072L597.686 68.3848ZM592.608 73.4757C590.943 73.4757 589.68 72.8879 588.827 72.0039C587.973 71.1202 587.252 69.6478 587.252 67.4H578.236C578.236 71.6682 579.656 75.4878 582.34 78.2671C585.024 81.0461 588.692 82.4923 592.608 82.4923V73.4757ZM587.252 67.4C587.252 65.1534 587.972 63.6946 588.819 62.8221C589.667 61.9475 590.931 61.3603 592.608 61.3603V52.3437C588.704 52.3437 585.036 53.7725 582.348 56.5429C579.658 59.3154 578.236 63.1306 578.236 67.4H587.252ZM592.608 61.3603C594.918 61.3603 596.307 62.4493 596.967 63.9725L605.24 60.3875C603.093 55.4307 598.361 52.3437 592.608 52.3437V61.3603ZM601.104 66.6883H604.056V57.6717H601.104V66.6883ZM608.276 60.5935C605.772 53.9324 599.759 50.0397 592.608 50.0397V59.0563C596.256 59.0563 598.74 60.8516 599.836 63.7665L608.276 60.5935Z" fill="#82D9FF"/>
</g>
<g filter="url(#filter5_f_357_4178)">
<path d="M370.796 80H368.542V82.2542H370.796V80ZM373.316 80V82.2542H375.57V80H373.316ZM373.316 54.836H375.57V52.5818H373.316V54.836ZM370.796 54.836V52.5818H368.542V54.836H370.796ZM370.796 82.2542H373.316V77.7458H370.796V82.2542ZM375.57 80V54.836H371.062V80H375.57ZM373.316 52.5818H370.796V57.0902H373.316V52.5818ZM368.542 54.836V80H373.05V54.836H368.542ZM395.475 54.836V52.5818H393.22V54.836H395.475ZM395.475 75.968L393.593 77.2088L397.729 83.4824V75.968H395.475ZM381.543 54.836L383.425 53.5952L382.756 52.5818H381.543V54.836ZM379.023 54.836V52.5818H376.768V54.836H379.023ZM379.023 80H376.768V82.2542H379.023V80ZM381.543 80V82.2542H383.797V80H381.543ZM381.543 58.832L383.426 57.5927L379.288 51.3069V58.832H381.543ZM395.475 80L393.592 81.2393L394.26 82.2542H395.475V80ZM397.995 80V82.2542H400.249V80H397.995ZM397.995 54.836H400.249V52.5818H397.995V54.836ZM393.22 54.836V75.968H397.729V54.836H393.22ZM397.357 74.7272L383.425 53.5952L379.661 56.0767L393.593 77.2088L397.357 74.7272ZM381.543 52.5818H379.023V57.0902H381.543V52.5818ZM376.768 54.836V80H381.277V54.836H376.768ZM379.023 82.2542H381.543V77.7458H379.023V82.2542ZM383.797 80V58.832H379.288V80H383.797ZM379.66 60.0713L393.592 81.2393L397.358 78.7607L383.426 57.5927L379.66 60.0713ZM395.475 82.2542H397.995V77.7458H395.475V82.2542ZM400.249 80V54.836H395.74V80H400.249ZM397.995 52.5818H395.475V57.0902H397.995V52.5818ZM401.902 56.924H399.648V59.1782H401.902V56.924ZM408.922 56.924H411.176V54.6698H408.922V56.924ZM408.922 80H406.668V82.2542H408.922V80ZM411.442 80V82.2542H413.696V80H411.442ZM411.442 56.924V54.6698H409.188V56.924H411.442ZM418.426 56.924V59.1782H420.68V56.924H418.426ZM418.426 54.836H420.68V52.5818H418.426V54.836ZM401.902 54.836V52.5818H399.648V54.836H401.902ZM401.902 59.1782H408.922V54.6698H401.902V59.1782ZM406.668 56.924V80H411.176V56.924H406.668ZM408.922 82.2542H411.442V77.7458H408.922V82.2542ZM413.696 80V56.924H409.188V80H413.696ZM411.442 59.1782H418.426V54.6698H411.442V59.1782ZM420.68 56.924V54.836H416.172V56.924H420.68ZM418.426 52.5818H401.902V57.0902H418.426V52.5818ZM399.648 54.836V56.924H404.156V54.836H399.648ZM424.925 67.436H422.671V69.6902H424.925V67.436ZM424.925 56.96V54.7058H422.671V56.96H424.925ZM422.405 54.836V52.5818H420.151V54.836H422.405ZM422.405 80H420.151V82.2542H422.405V80ZM424.925 80V82.2542H427.18V80H424.925ZM424.925 69.488V67.2338H422.671V69.488H424.925ZM429.569 69.488L431.509 68.339L430.854 67.2338H429.569V69.488ZM435.797 80L433.858 81.149L434.513 82.2542H435.797V80ZM438.821 80V82.2542H442.823L440.749 78.8317L438.821 80ZM432.341 69.308L431.928 67.092L428.725 67.6893L430.414 70.4763L432.341 69.308ZM433.687 62.144C433.687 63.2255 433.372 63.9026 432.943 64.3175C432.509 64.7378 431.655 65.1818 430.001 65.1818V69.6902C432.452 69.6902 434.568 69.0182 436.078 67.5575C437.593 66.0914 438.196 64.1225 438.196 62.144H433.687ZM430.001 65.1818H424.925V69.6902H430.001V65.1818ZM427.18 67.436V56.96H422.671V67.436H427.18ZM424.925 59.2142H429.965V54.7058H424.925V59.2142ZM429.965 59.2142C431.77 59.2142 432.615 59.6444 433.007 60.0109C433.372 60.3519 433.687 60.9589 433.687 62.144H438.196C438.196 60.1611 437.647 58.1761 436.086 56.7171C434.552 55.2836 432.409 54.7058 429.965 54.7058V59.2142ZM420.151 54.836V80H424.66V54.836H420.151ZM422.405 82.2542H424.925V77.7458H422.405V82.2542ZM427.18 80V69.488H422.671V80H427.18ZM424.925 71.7422H429.569V67.2338H424.925V71.7422ZM427.63 70.637L433.858 81.149L437.737 78.851L431.509 68.339L427.63 70.637ZM435.797 82.2542H438.821V77.7458H435.797V82.2542ZM440.749 78.8317L434.269 68.1397L430.414 70.4763L436.894 81.1683L440.749 78.8317ZM432.755 71.524C435.324 71.045 437.381 69.88 438.784 68.1408C440.179 66.4135 440.788 64.2948 440.788 62.144H436.279C436.279 63.4492 435.916 64.5165 435.276 65.3092C434.646 66.09 433.607 66.779 431.928 67.092L432.755 71.524ZM440.788 62.144C440.788 59.5664 439.923 57.0955 437.969 55.2842C436.029 53.4865 433.279 52.5818 429.965 52.5818V57.0902C432.483 57.0902 434.018 57.7695 434.904 58.5908C435.776 59.3985 436.279 60.5816 436.279 62.144H440.788ZM429.965 52.5818H422.405V57.0902H429.965V52.5818ZM469.548 67.4C469.548 58.6738 463.218 52.2938 454.838 52.2938V56.8022C460.643 56.8022 465.04 61.0782 465.04 67.4H469.548ZM454.838 52.2938C446.499 52.2938 440.128 58.6694 440.128 67.4H444.636C444.636 61.0826 449.065 56.8022 454.838 56.8022V52.2938ZM440.128 67.4C440.128 76.1708 446.503 82.5062 454.838 82.5062V77.9978C449.061 77.9978 444.636 73.7492 444.636 67.4H440.128ZM454.838 82.5062C463.213 82.5062 469.548 76.1665 469.548 67.4H465.04C465.04 73.7535 460.647 77.9978 454.838 77.9978V82.5062ZM447.228 67.4C447.228 64.6052 448.128 62.5392 449.435 61.1853C450.743 59.8312 452.606 59.0342 454.838 59.0342V54.5258C451.491 54.5258 448.422 55.7448 446.192 58.0537C443.963 60.3628 442.72 63.6068 442.72 67.4H447.228ZM454.838 59.0342C457.071 59.0342 458.934 59.8312 460.241 61.1853C461.549 62.5392 462.448 64.6052 462.448 67.4H466.956C466.956 63.6068 465.714 60.3628 463.484 58.0537C461.255 55.7448 458.186 54.5258 454.838 54.5258V59.0342ZM462.448 67.4C462.448 70.1954 461.548 72.2727 460.237 73.6367C458.927 75 457.065 75.8018 454.838 75.8018V80.3102C458.192 80.3102 461.261 79.078 463.488 76.7603C465.715 74.4433 466.956 71.1926 466.956 67.4H462.448ZM454.838 75.8018C452.612 75.8018 450.749 75 449.439 73.6367C448.129 72.2727 447.228 70.1954 447.228 67.4H442.72C442.72 71.1926 443.962 74.4433 446.188 76.7603C448.415 79.078 451.485 80.3102 454.838 80.3102V75.8018ZM471.905 54.836V52.5818H469.651V54.836H471.905ZM471.905 80H469.651V82.2542H471.905V80ZM474.425 77.912H472.171V80.1662H474.425V77.912ZM474.425 56.924V54.6698H472.171V56.924H474.425ZM479.357 52.5818H471.905V57.0902H479.357V52.5818ZM469.651 54.836V80H474.16V54.836H469.651ZM471.905 82.2542H479.357V77.7458H471.905V82.2542ZM479.357 82.2542C483.964 82.2542 487.906 80.9541 490.711 78.304C493.532 75.6386 494.932 71.8638 494.932 67.472H490.423C490.423 70.8922 489.357 73.3814 487.615 75.027C485.857 76.6879 483.139 77.7458 479.357 77.7458V82.2542ZM494.932 67.472C494.932 63.0503 493.536 59.2505 490.718 56.5654C487.913 53.8935 483.969 52.5818 479.357 52.5818V57.0902C483.134 57.0902 485.85 58.1545 487.608 59.8296C489.353 61.4915 490.423 64.0097 490.423 67.472H494.932ZM476.68 77.912V56.924H472.171V77.912H476.68ZM474.425 59.1782H479.357V54.6698H474.425V59.1782ZM479.357 59.1782C482.501 59.1782 484.545 60.0592 485.809 61.3385C487.078 62.6237 487.867 64.6221 487.867 67.472H492.376C492.376 63.8059 491.347 60.5303 489.016 58.1705C486.68 55.8047 483.342 54.6698 479.357 54.6698V59.1782ZM487.867 67.472C487.867 70.3 487.08 72.2662 485.818 73.5281C484.558 74.7883 482.512 75.6578 479.357 75.6578V80.1662C483.331 80.1662 486.667 79.0557 489.006 76.7159C491.344 74.3778 492.376 71.124 492.376 67.472H487.867ZM479.357 75.6578H474.425V80.1662H479.357V75.6578ZM515.503 54.836H517.758V52.5818H515.503V54.836ZM512.983 54.836V52.5818H510.729V54.836H512.983ZM499.735 54.836H501.99V52.5818H499.735V54.836ZM497.215 54.836V52.5818H494.961V54.836H497.215ZM494.961 70.64C494.961 74.4362 496.123 77.4854 498.315 79.5749C500.484 81.6433 503.384 82.5062 506.359 82.5062V77.9978C504.223 77.9978 502.551 77.3847 501.426 76.3121C500.323 75.2606 499.47 73.5038 499.47 70.64H494.961ZM506.359 82.5062C509.335 82.5062 512.235 81.6433 514.404 79.5749C516.595 77.4854 517.758 74.4362 517.758 70.64H513.249C513.249 73.5038 512.395 75.2606 511.293 76.3121C510.168 77.3847 508.496 77.9978 506.359 77.9978V82.5062ZM517.758 70.64V54.836H513.249V70.64H517.758ZM515.503 52.5818H512.983V57.0902H515.503V52.5818ZM510.729 54.836V70.676H515.238V54.836H510.729ZM510.729 70.676C510.729 72.9255 510.158 74.1068 509.549 74.7301C508.946 75.3464 507.966 75.7658 506.395 75.7658V80.2742C508.749 80.2742 511.062 79.6316 512.773 77.8809C514.477 76.1372 515.238 73.6465 515.238 70.676H510.729ZM506.395 75.7658C504.823 75.7658 503.817 75.3453 503.194 74.7177C502.571 74.0897 501.99 72.9097 501.99 70.676H497.481C497.481 73.6623 498.268 76.1543 499.994 77.8933C501.72 79.6327 504.043 80.2742 506.395 80.2742V75.7658ZM501.99 70.676V54.836H497.481V70.676H501.99ZM499.735 52.5818H497.215V57.0902H499.735V52.5818ZM494.961 54.836V70.64H499.47V54.836H494.961ZM543.876 72.656L545.984 73.4545L547.14 70.4018H543.876V72.656ZM540.924 72.656V70.4018H539.438L538.852 71.768L540.924 72.656ZM540.924 62.18L538.845 63.0517L539.425 64.4342H540.924V62.18ZM543.876 62.18V64.4342H547.123L545.988 61.392L543.876 62.18ZM517.718 67.4C517.718 76.1532 524.004 82.4702 532.284 82.4702V77.9618C526.596 77.9618 522.226 73.7668 522.226 67.4H517.718ZM532.284 82.4702C538.753 82.4702 543.823 79.1589 545.984 73.4545L541.768 71.8575C540.329 75.6571 537.048 77.9618 532.284 77.9618V82.4702ZM543.876 70.4018H540.924V74.9102H543.876V70.4018ZM538.852 71.768C537.82 74.1771 535.709 75.7658 532.284 75.7658V80.2742C537.428 80.2742 541.221 77.6869 542.996 73.544L538.852 71.768ZM532.284 75.7658C530.103 75.7658 528.28 74.971 526.994 73.6157C525.706 72.2572 524.818 70.1851 524.818 67.4H520.31C520.31 71.1669 521.529 74.4048 523.723 76.7183C525.921 79.035 528.957 80.2742 532.284 80.2742V75.7658ZM524.818 67.4C524.818 64.5937 525.708 62.5125 526.996 61.1508C528.281 59.7927 530.103 58.9982 532.284 58.9982V54.4898C528.957 54.4898 525.919 55.7293 523.721 58.0522C521.527 60.3715 520.31 63.6182 520.31 67.4H524.818ZM532.284 58.9982C535.701 58.9982 537.808 60.578 538.845 63.0517L543.003 61.3083C541.232 57.086 537.436 54.4898 532.284 54.4898V58.9982ZM540.924 64.4342H543.876V59.9258H540.924V64.4342ZM545.988 61.392C543.831 55.6121 538.759 52.2938 532.284 52.2938V56.8022C537.041 56.8022 540.321 59.0998 541.764 62.968L545.988 61.392ZM532.284 52.2938C523.996 52.2938 517.718 58.6553 517.718 67.4H522.226C522.226 61.0247 526.605 56.8022 532.284 56.8022V52.2938ZM548.898 80H546.643V82.2542H548.898V80ZM551.418 80V82.2542H553.672V80H551.418ZM551.418 54.836H553.672V52.5818H551.418V54.836ZM548.898 54.836V52.5818H546.643V54.836H548.898ZM548.898 82.2542H551.418V77.7458H548.898V82.2542ZM553.672 80V54.836H549.163V80H553.672ZM551.418 52.5818H548.898V57.0902H551.418V52.5818ZM546.643 54.836V80H551.152V54.836H546.643ZM573.576 54.836V52.5818H571.322V54.836H573.576ZM573.576 75.968L571.694 77.2088L575.83 83.4824V75.968H573.576ZM559.644 54.836L561.526 53.5952L560.858 52.5818H559.644V54.836ZM557.124 54.836V52.5818H554.87V54.836H557.124ZM557.124 80H554.87V82.2542H557.124V80ZM559.644 80V82.2542H561.898V80H559.644ZM559.644 58.832L561.527 57.5927L557.39 51.3069V58.832H559.644ZM573.576 80L571.693 81.2393L572.361 82.2542H573.576V80ZM576.096 80V82.2542H578.35V80H576.096ZM576.096 54.836H578.35V52.5818H576.096V54.836ZM571.322 54.836V75.968H575.83V54.836H571.322ZM575.458 74.7272L561.526 53.5952L557.762 56.0767L571.694 77.2088L575.458 74.7272ZM559.644 52.5818H557.124V57.0902H559.644V52.5818ZM554.87 54.836V80H559.378V54.836H554.87ZM557.124 82.2542H559.644V77.7458H557.124V82.2542ZM561.898 80V58.832H557.39V80H561.898ZM557.761 60.0713L571.693 81.2393L575.459 78.7607L561.527 57.5927L557.761 60.0713ZM573.576 82.2542H576.096V77.7458H573.576V82.2542ZM578.35 80V54.836H573.842V80H578.35ZM576.096 52.5818H573.576V57.0902H576.096V52.5818ZM605.348 68.48L607.598 68.6138L607.602 68.547V68.48H605.348ZM605.348 66.644H607.602V64.3898H605.348V66.644ZM592.1 66.644V64.3898H589.846V66.644H592.1ZM592.1 68.696H589.846V70.9502H592.1V68.696ZM602.684 68.696L604.933 68.8516L605.099 66.4418H602.684V68.696ZM601.604 62.18L599.535 63.0763L600.124 64.4342H601.604V62.18ZM604.556 62.18V64.4342H607.811L606.666 61.3868L604.556 62.18ZM593.108 52.2938C584.769 52.2938 578.398 58.6694 578.398 67.4H582.906C582.906 61.0826 587.335 56.8022 593.108 56.8022V52.2938ZM578.398 67.4C578.398 76.1708 584.773 82.5062 593.108 82.5062V77.9978C587.331 77.9978 582.906 73.7492 582.906 67.4H578.398ZM593.108 82.5062C601.259 82.5062 607.136 76.3805 607.598 68.6138L603.098 68.3462C602.767 73.8995 598.708 77.9978 593.108 77.9978V82.5062ZM607.602 68.48V66.644H603.094V68.48H607.602ZM605.348 64.3898H592.1V68.8982H605.348V64.3898ZM589.846 66.644V68.696H594.354V66.644H589.846ZM592.1 70.9502H602.684V66.4418H592.1V70.9502ZM600.435 68.5404C600.271 70.9182 599.399 72.6875 598.175 73.8559C596.953 75.0228 595.234 75.7298 593.108 75.7298V80.2382C596.274 80.2382 599.145 79.1632 601.288 77.1171C603.43 75.0725 604.701 72.1978 604.933 68.8516L600.435 68.5404ZM593.108 75.7298C590.881 75.7298 589.016 74.9274 587.705 73.5697C586.394 72.2121 585.498 70.1529 585.498 67.4H580.99C580.99 71.1631 582.236 74.3959 584.462 76.7013C586.688 79.0066 589.755 80.2382 593.108 80.2382V75.7298ZM585.498 67.4C585.498 64.6477 586.393 62.5998 587.701 61.2523C589.01 59.9038 590.875 59.1062 593.108 59.1062V54.5978C589.761 54.5978 586.694 55.8162 584.466 58.1127C582.236 60.4102 580.99 63.6363 580.99 67.4H585.498ZM593.108 59.1062C596.279 59.1062 598.503 60.6947 599.535 63.0763L603.672 61.2837C601.896 57.1853 598.001 54.5978 593.108 54.5978V59.1062ZM601.604 64.4342H604.556V59.9258H601.604V64.4342ZM606.666 61.3868C604.514 55.6622 599.384 52.2938 593.108 52.2938V56.8022C597.632 56.8022 600.998 59.1218 602.446 62.9732L606.666 61.3868Z" fill="white"/>
</g>
<defs>
<filter id="filter0_f_357_4178" x="160.988" y="0.787476" width="652.025" height="132.425" filterUnits="userSpaceOnUse" color-interpolation-filters="sRGB">
<feFlood flood-opacity="0" result="BackgroundImageFix"/>
<feBlend mode="normal" in="SourceGraphic" in2="BackgroundImageFix" result="shape"/>
<feGaussianBlur stdDeviation="16.9062" result="effect1_foregroundBlur_357_4178"/>
</filter>
<filter id="filter1_f_357_4178" x="336.483" y="20.7355" width="302.177" height="93.329" filterUnits="userSpaceOnUse" color-interpolation-filters="sRGB">
<feFlood flood-opacity="0" result="BackgroundImageFix"/>
<feBlend mode="normal" in="SourceGraphic" in2="BackgroundImageFix" result="shape"/>
<feGaussianBlur stdDeviation="16.9062" result="effect1_foregroundBlur_357_4178"/>
</filter>
<filter id="filter2_f_357_4178" x="359.025" y="43.2771" width="257.093" height="48.2456" filterUnits="userSpaceOnUse" color-interpolation-filters="sRGB">
<feFlood flood-opacity="0" result="BackgroundImageFix"/>
<feBlend mode="normal" in="SourceGraphic" in2="BackgroundImageFix" result="shape"/>
<feGaussianBlur stdDeviation="5.63542" result="effect1_foregroundBlur_357_4178"/>
</filter>
<filter id="filter3_ddi_357_4178" x="355.644" y="51.1667" width="263.856" height="55.0081" filterUnits="userSpaceOnUse" color-interpolation-filters="sRGB">
<feFlood flood-opacity="0" result="BackgroundImageFix"/>
<feColorMatrix in="SourceAlpha" type="matrix" values="0 0 0 0 0 0 0 0 0 0 0 0 0 0 0 0 0 0 127 0" result="hardAlpha"/>
<feOffset dy="7.32604"/>
<feGaussianBlur stdDeviation="2.81771"/>
<feColorMatrix type="matrix" values="0 0 0 0 0 0 0 0 0 0.051 0 0 0 0 0.082 0 0 0 0.7 0"/>
<feBlend mode="multiply" in2="BackgroundImageFix" result="effect1_dropShadow_357_4178"/>
<feColorMatrix in="SourceAlpha" type="matrix" values="0 0 0 0 0 0 0 0 0 0 0 0 0 0 0 0 0 0 127 0" result="hardAlpha"/>
<feOffset dy="11.2708"/>
<feGaussianBlur stdDeviation="7.32604"/>
<feColorMatrix type="matrix" values="0 0 0 0 0 0 0 0 0 0.4 0 0 0 0 1 0 0 0 1 0"/>
<feBlend mode="color-dodge" in2="effect1_dropShadow_357_4178" result="effect2_dropShadow_357_4178"/>
<feBlend mode="normal" in="SourceGraphic" in2="effect2_dropShadow_357_4178" result="shape"/>
<feColorMatrix in="SourceAlpha" type="matrix" values="0 0 0 0 0 0 0 0 0 0 0 0 0 0 0 0 0 0 127 0" result="hardAlpha"/>
<feOffset dx="-0.732604" dy="1.46521"/>
<feGaussianBlur stdDeviation="0.366302"/>
<feComposite in2="hardAlpha" operator="arithmetic" k2="-1" k3="1"/>
<feColorMatrix type="matrix" values="0 0 0 0 1 0 0 0 0 1 0 0 0 0 1 0 0 0 0.5 0"/>
<feBlend mode="normal" in2="shape" result="effect3_innerShadow_357_4178"/>
</filter>
<filter id="filter4_f_357_4178" x="369.169" y="53.4209" width="236.806" height="27.9581" filterUnits="userSpaceOnUse" color-interpolation-filters="sRGB">
<feFlood flood-opacity="0" result="BackgroundImageFix"/>
<feBlend mode="normal" in="SourceGraphic" in2="BackgroundImageFix" result="shape"/>
<feGaussianBlur stdDeviation="0.563542" result="effect1_foregroundBlur_357_4178"/>
</filter>
<filter id="filter5_f_357_4178" x="370.045" y="53.7966" width="236.055" height="27.2068" filterUnits="userSpaceOnUse" color-interpolation-filters="sRGB">
<feFlood flood-opacity="0" result="BackgroundImageFix"/>
<feBlend mode="normal" in="SourceGraphic" in2="BackgroundImageFix" result="shape"/>
<feGaussianBlur stdDeviation="0.375694" result="effect1_foregroundBlur_357_4178"/>
</filter>
</defs>
</svg>
