<?xml version="1.0" standalone="no"?>
<svg id="vuesax/linear/coin" width="80" height="80" viewBox="0 0 80 80" fill="none" xmlns="http://www.w3.org/2000/svg" style="max-width: 100%; max-height: 100%;">
<path d="M61.6666 42.1667V54.5C61.6666 64.9 51.9666 73.3333 39.9999 73.3333C28.0333 73.3333 18.3333 64.9 18.3333 54.5V42.1667C18.3333 52.5667 28.0333 60 39.9999 60C51.9666 60 61.6666 52.5667 61.6666 42.1667Z" stroke="white" stroke-width="1.5" stroke-linecap="round" stroke-linejoin="round" stroke-dasharray="0,0,0,150.83932495117188"><animate attributeType="XML" attributeName="stroke-dasharray" repeatCount="1" dur="2.5s" values="0,0,0,150.83932495117188; 
          0,75.41966247558594,75.41966247558594,0; 
          150.83932495117188,0,0,0" keyTimes="0; 0.5; 1" fill="freeze"></animate></path>
<path d="M61.6666 25.5C61.6666 28.5333 60.8332 31.3333 59.3666 33.7333C55.7999 39.6 48.4666 43.3333 39.9999 43.3333C31.5333 43.3333 24.1999 39.6 20.6333 33.7333C19.1666 31.3333 18.3333 28.5333 18.3333 25.5C18.3333 20.3 20.7666 15.6 24.6666 12.2C28.5999 8.76667 33.9999 6.66667 39.9999 6.66667C45.9999 6.66667 51.3999 8.76668 55.3333 12.1667C59.2333 15.6 61.6666 20.3 61.6666 25.5Z" stroke="white" stroke-width="1.5" stroke-linecap="round" stroke-linejoin="round" stroke-dasharray="0,0,0,126.16529083251953"><animate attributeType="XML" attributeName="stroke-dasharray" repeatCount="1" dur="2.5s" values="0,0,0,126.16529083251953; 
          0,63.082645416259766,63.082645416259766,0; 
          126.16529083251953,0,0,0" keyTimes="0; 0.5; 1" fill="freeze"></animate></path>
<path d="M61.6666 25.5V42.1667C61.6666 52.5667 51.9666 60 39.9999 60C28.0333 60 18.3333 52.5667 18.3333 42.1667V25.5C18.3333 15.1 28.0333 6.66667 39.9999 6.66667C45.9999 6.66667 51.3999 8.76668 55.3333 12.1667C59.2333 15.6 61.6666 20.3 61.6666 25.5Z" stroke="white" stroke-width="1.5" stroke-linecap="round" stroke-linejoin="round" stroke-dasharray="0,0,0,159.51376342773438"><animate attributeType="XML" attributeName="stroke-dasharray" repeatCount="1" dur="2.5s" values="0,0,0,159.51376342773438; 
          0,79.75688171386719,79.75688171386719,0; 
          159.51376342773438,0,0,0" keyTimes="0; 0.5; 1" fill="freeze"></animate></path>
<setting>{"type":"direct","speed":20,"random":1,"shift":1,"size":1,"rupture":50}</setting></svg>