<?xml version="1.0" standalone="no"?>
<svg id="vuesax/linear/lovely" width="80" height="80" viewBox="0 0 80 80" fill="none" xmlns="http://www.w3.org/2000/svg" style="max-width: 100%; max-height: 100%;">
<path d="M66.2 26.9667C66.2 28.3667 66.1001 29.7333 65.9334 31.0333C64.4001 30.3667 62.7334 30 60.9668 30C56.9001 30 53.3001 31.9666 51.0668 34.9666C48.8001 31.9666 45.2001 30 41.1334 30C34.3001 30 28.7668 35.5666 28.7668 42.4666C28.7668 51.4 33.5001 58.2333 38.7668 62.8666C38.6001 62.9666 38.4335 63.0001 38.2668 63.0667C37.2668 63.4334 35.6001 63.4334 34.6001 63.0667C25.9668 60.1001 6.66675 47.8333 6.66675 26.9667C6.66675 17.7667 14.0667 10.3334 23.2001 10.3334C28.6334 10.3334 33.4334 12.9333 36.4334 16.9667C39.4667 12.9333 44.2667 10.3334 49.6667 10.3334C58.8001 10.3334 66.2 17.7667 66.2 26.9667Z" stroke="white" stroke-width="1.5" stroke-linecap="round" stroke-linejoin="round" stroke-dasharray="0,0,0,210.68678283691406"><animate attributeType="XML" attributeName="stroke-dasharray" repeatCount="1" dur="2.5s" values="0,0,0,210.68678283691406; 
          0,105.34339141845703,105.34339141845703,0; 
          210.68678283691406,0,0,0" keyTimes="0; 0.5; 1" fill="freeze"></animate></path>
<path d="M73.3335 42.4666C73.3335 58.0666 58.9002 67.2667 52.4335 69.4667C51.6669 69.7333 50.4335 69.7333 49.6668 69.4667C46.9001 68.5333 42.6668 66.3 38.7668 62.8666C33.5002 58.2333 28.7668 51.4 28.7668 42.4666C28.7668 35.5666 34.3002 30 41.1335 30C45.2002 30 48.8002 31.9666 51.0669 34.9666C53.3002 31.9666 56.9002 30 60.9669 30C62.7335 30 64.4002 30.3667 65.9335 31.0333C70.3002 32.9667 73.3335 37.3333 73.3335 42.4666Z" stroke="white" stroke-width="1.5" stroke-linecap="round" stroke-linejoin="round" stroke-dasharray="0,0,0,137.35411071777344"><animate attributeType="XML" attributeName="stroke-dasharray" repeatCount="1" dur="2.5s" values="0,0,0,137.35411071777344; 
          0,68.67705535888672,68.67705535888672,0; 
          137.35411071777344,0,0,0" keyTimes="0; 0.5; 1" fill="freeze"></animate></path>
<setting>{"type":"direct","speed":20,"random":1,"shift":1,"size":1,"rupture":50}</setting></svg>