<?xml version="1.0" standalone="no"?>
<svg id="vuesax/linear/key" width="90" height="89" viewBox="0 0 90 89" fill="none" xmlns="http://www.w3.org/2000/svg" style="max-width: 100%; max-height: 100%;">
<path d="M18.0228 37.737C24.0519 30.1545 33.5759 26.9299 42.4638 28.6119L56.2439 11.2325C57.2345 9.94245 59.3717 8.98853 60.988 9.035L68.3216 9.18676C70.744 9.23992 73.2248 11.2327 73.867 13.5741L75.7018 20.6761C76.1188 22.2383 75.6159 24.5454 74.6546 25.7985L60.9076 43.174C64.56 51.4735 63.6459 61.4801 57.6168 69.0626C48.9884 79.9685 33.1291 81.8175 22.1901 73.193C11.2511 64.5684 9.39433 48.6429 18.0228 37.737Z" stroke="#964FD8" stroke-width="1.5" stroke-miterlimit="10" stroke-linecap="round" stroke-linejoin="round" stroke-dasharray="0,0,0,211.4082489013672"><animate attributeType="XML" attributeName="stroke-dasharray" repeatCount="1" dur="1.7857142857142858s" values="0,0,0,211.4082489013672; 
          0,105.7041244506836,105.7041244506836,0; 
          211.4082489013672,0,0,0" keyTimes="0; 0.5; 1" fill="freeze"></animate></path>
<path d="M18.0228 37.737C24.0519 30.1545 33.5759 26.9299 42.4638 28.6119L56.2439 11.2325C57.2345 9.94245 59.3717 8.98853 60.988 9.035L68.3216 9.18676C70.744 9.23992 73.2248 11.2327 73.867 13.5741L75.7018 20.6761C76.1188 22.2383 75.6159 24.5454 74.6546 25.7985L60.9076 43.174C64.56 51.4735 63.6459 61.4801 57.6168 69.0626C48.9884 79.9685 33.1291 81.8175 22.1901 73.193C11.2511 64.5684 9.39433 48.6429 18.0228 37.737Z" stroke="#FCBE00" stroke-width="1.5" stroke-miterlimit="10" stroke-linecap="round" stroke-linejoin="round" stroke-dasharray="0,0,0,211.4082489013672"><animate attributeType="XML" attributeName="stroke-dasharray" repeatCount="1" dur="1.7857142857142858s" values="0,0,0,211.4082489013672; 
          0,105.7041244506836,105.7041244506836,0; 
          211.4082489013672,0,0,0" keyTimes="0; 0.5; 1" fill="freeze"></animate></path>
<path d="M18.0228 37.737C24.0519 30.1545 33.5759 26.9299 42.4638 28.6119L56.2439 11.2325C57.2345 9.94245 59.3717 8.98853 60.988 9.035L68.3216 9.18676C70.744 9.23992 73.2248 11.2327 73.867 13.5741L75.7018 20.6761C76.1188 22.2383 75.6159 24.5454 74.6546 25.7985L60.9076 43.174C64.56 51.4735 63.6459 61.4801 57.6168 69.0626C48.9884 79.9685 33.1291 81.8175 22.1901 73.193C11.2511 64.5684 9.39433 48.6429 18.0228 37.737Z" stroke="white" stroke-width="1.5" stroke-miterlimit="10" stroke-linecap="round" stroke-linejoin="round" stroke-dasharray="0,0,0,211.4082489013672"><animate attributeType="XML" attributeName="stroke-dasharray" repeatCount="1" dur="1.7857142857142858s" values="0,0,0,211.4082489013672; 
          0,105.7041244506836,105.7041244506836,0; 
          211.4082489013672,0,0,0" keyTimes="0; 0.5; 1" fill="freeze"></animate></path>
<path d="M59.7454 24.2815L51.2424 17.5542" stroke="#964FD8" stroke-width="1.5" stroke-miterlimit="10" stroke-linecap="round" stroke-linejoin="round" stroke-dasharray="0,0,0,10.842395782470703"><animate attributeType="XML" attributeName="stroke-dasharray" repeatCount="1" dur="1.7857142857142858s" values="0,0,0,10.842395782470703; 
          0,5.421197891235352,5.421197891235352,0; 
          10.842395782470703,0,0,0" keyTimes="0; 0.5; 1" fill="freeze"></animate></path>
<path d="M59.7454 24.2815L51.2424 17.5542" stroke="#FCBE00" stroke-width="1.5" stroke-miterlimit="10" stroke-linecap="round" stroke-linejoin="round" stroke-dasharray="0,0,0,10.842395782470703"><animate attributeType="XML" attributeName="stroke-dasharray" repeatCount="1" dur="1.7857142857142858s" values="0,0,0,10.842395782470703; 
          0,5.421197891235352,5.421197891235352,0; 
          10.842395782470703,0,0,0" keyTimes="0; 0.5; 1" fill="freeze"></animate></path>
<path d="M59.7454 24.2815L51.2424 17.5542" stroke="white" stroke-width="1.5" stroke-miterlimit="10" stroke-linecap="round" stroke-linejoin="round" stroke-dasharray="0,0,0,10.842395782470703"><animate attributeType="XML" attributeName="stroke-dasharray" repeatCount="1" dur="1.7857142857142858s" values="0,0,0,10.842395782470703; 
          0,5.421197891235352,5.421197891235352,0; 
          10.842395782470703,0,0,0" keyTimes="0; 0.5; 1" fill="freeze"></animate></path>
<path d="M37.0545 48.7069C34.3117 49.0267 32.3474 51.5094 32.6672 54.2523C32.987 56.9951 35.4698 58.9594 38.2126 58.6396C40.9554 58.3198 42.9197 55.837 42.5999 53.0942C42.2801 50.3514 39.7974 48.3871 37.0545 48.7069Z" stroke="#964FD8" stroke-width="1.5" stroke-linecap="round" stroke-linejoin="round" stroke-dasharray="0,0,0,31.420303344726562"><animate attributeType="XML" attributeName="stroke-dasharray" repeatCount="1" dur="1.7857142857142858s" values="0,0,0,31.420303344726562; 
          0,15.710151672363281,15.710151672363281,0; 
          31.420303344726562,0,0,0" keyTimes="0; 0.5; 1" fill="freeze"></animate></path>
<path d="M37.0545 48.7069C34.3117 49.0267 32.3474 51.5094 32.6672 54.2523C32.987 56.9951 35.4698 58.9594 38.2126 58.6396C40.9554 58.3198 42.9197 55.837 42.5999 53.0942C42.2801 50.3514 39.7974 48.3871 37.0545 48.7069Z" stroke="#FCBE00" stroke-width="1.5" stroke-linecap="round" stroke-linejoin="round" stroke-dasharray="0,0,0,31.420303344726562"><animate attributeType="XML" attributeName="stroke-dasharray" repeatCount="1" dur="1.7857142857142858s" values="0,0,0,31.420303344726562; 
          0,15.710151672363281,15.710151672363281,0; 
          31.420303344726562,0,0,0" keyTimes="0; 0.5; 1" fill="freeze"></animate></path>
<path d="M37.0545 48.7069C34.3117 49.0267 32.3474 51.5094 32.6672 54.2523C32.987 56.9951 35.4698 58.9594 38.2126 58.6396C40.9554 58.3198 42.9197 55.837 42.5999 53.0942C42.2801 50.3514 39.7974 48.3871 37.0545 48.7069Z" stroke="white" stroke-width="1.5" stroke-linecap="round" stroke-linejoin="round" stroke-dasharray="0,0,0,31.420303344726562"><animate attributeType="XML" attributeName="stroke-dasharray" repeatCount="1" dur="1.7857142857142858s" values="0,0,0,31.420303344726562; 
          0,15.710151672363281,15.710151672363281,0; 
          31.420303344726562,0,0,0" keyTimes="0; 0.5; 1" fill="freeze"></animate></path>
<setting>{"type":"direct","speed":28,"random":1,"shift":1,"size":1,"rupture":50}</setting></svg>