<svg width="1457" height="488" viewBox="0 0 1457 488" fill="none" xmlns="http://www.w3.org/2000/svg">
<path d="M596.64 118.841H442.52L377.55 70.2334H263L173.15 3.02199L173.86 2.4834L263.42 69.4779H377.97L442.94 118.078H596.64V118.841Z" fill="#DEDEDE"/>
<path d="M596.45 115.61C598.55 115.61 600.26 116.881 600.26 118.46C600.26 120.031 598.55 121.31 596.45 121.31C594.34 121.31 592.63 120.031 592.63 118.46C592.63 116.881 594.34 115.61 596.45 115.61Z" fill="#DEDEDE"/>
<path d="M176.34 0.838377C174.85 -0.276204 172.43 -0.276204 170.95 0.838377C169.46 1.95296 169.46 3.75573 170.95 4.87031C172.43 5.98489 174.85 5.98489 176.34 4.87031C177.83 3.75573 177.83 1.95296 176.34 0.838377Z" fill="#DEDEDE"/>
<path d="M120.47 484.618H16.3999V483.862H120.05L177.38 440.977H291.94L356.91 392.37H514.43L572.45 348.976L573.16 349.514L514.85 393.133H357.33L292.36 441.733H177.8L120.47 484.618Z" fill="#DEDEDE"/>
<path d="M569.97 347.33C571.46 346.215 573.88 346.215 575.37 347.33C576.85 348.445 576.85 350.247 575.37 351.362C573.88 352.477 571.46 352.477 569.97 351.362C568.49 350.247 568.49 348.445 569.97 347.33Z" fill="#DEDEDE"/>
<path d="M16.59 481.386C14.49 481.386 12.78 482.665 12.78 484.244C12.78 485.815 14.49 487.094 16.59 487.094C18.7 487.094 20.41 485.815 20.41 484.244C20.41 482.665 18.7 481.386 16.59 481.386Z" fill="#DEDEDE"/>
<path d="M643.82 175.737L591.34 136.48H410.94L356.98 96.1156H284.5L255.46 117.839H35.8301V117.076H255.04L284.08 95.3601H357.4L411.36 135.717H591.76L644.54 175.198L643.82 175.737Z" fill="#DEDEDE"/>
<path d="M646.74 173.351C648.23 174.465 648.23 176.268 646.74 177.383C645.26 178.497 642.84 178.497 641.35 177.383C639.86 176.268 639.86 174.465 641.35 173.351C642.84 172.236 645.26 172.236 646.74 173.351Z" fill="#00C7FB"/>
<path d="M36.02 114.607C33.92 114.607 32.21 115.886 32.21 117.457C32.21 119.036 33.92 120.307 36.02 120.307C38.13 120.307 39.84 119.036 39.84 117.457C39.84 115.886 38.13 114.607 36.02 114.607Z" fill="#DEDEDE"/>
<path d="M500.25 382.623H439.29L394.18 348.886H305.83L261.87 315.995H130.08V315.239H262.29L306.25 348.13H394.6L439.71 381.867H499.83L561.79 335.518L562.5 336.057L500.25 382.623Z" fill="#DEDEDE"/>
<path d="M559.32 333.873C560.8 332.758 563.22 332.758 564.71 333.873C566.2 334.987 566.2 336.79 564.71 337.905C563.22 339.019 560.8 339.019 559.32 337.905C557.83 336.79 557.83 334.987 559.32 333.873Z" fill="#DEDEDE"/>
<path d="M130.28 312.763C128.17 312.763 126.46 314.042 126.46 315.613C126.46 317.191 128.17 318.471 130.28 318.471C132.38 318.471 134.09 317.191 134.09 315.613C134.09 314.042 132.38 312.763 130.28 312.763Z" fill="#DEDEDE"/>
<path d="M637.23 194.191L585.99 155.854H414.23L356.77 112.879H304.27L262.15 144.379H96.79V143.624H261.73L303.85 112.116H357.19L414.65 155.099H586.41L637.95 193.653L637.23 194.191Z" fill="#DEDEDE"/>
<path d="M96.9799 146.855C94.8799 146.855 93.1699 145.576 93.1699 144.005C93.1699 142.427 94.8799 141.148 96.9799 141.148C99.0899 141.148 100.8 142.427 100.8 144.005C100.8 145.576 99.0899 146.855 96.9799 146.855Z" fill="#DEDEDE"/>
<path d="M634.76 195.837C636.25 196.951 638.67 196.951 640.15 195.837C641.64 194.722 641.64 192.92 640.15 191.805C638.67 190.69 636.25 190.69 634.76 191.805C633.27 192.92 633.27 194.722 634.76 195.837Z" fill="#DEDEDE"/>
<path d="M492.5 345.033H417.87L331.39 280.35H153.03L110.01 312.531L109.3 311.993L152.61 279.587H331.81L418.29 344.278H492.08L534.5 312.539H611V313.302H534.92L492.5 345.033Z" fill="#DEDEDE"/>
<path d="M610.8 310.07C612.91 310.07 614.62 311.342 614.62 312.92C614.62 314.498 612.91 315.77 610.8 315.77C608.7 315.77 606.99 314.498 606.99 312.92C606.99 311.342 608.7 310.07 610.8 310.07Z" fill="#DEDEDE"/>
<path d="M107.09 310.145C105.61 311.259 105.61 313.062 107.09 314.177C108.58 315.291 111 315.291 112.49 314.177C113.97 313.062 113.97 311.259 112.49 310.145C111 309.03 108.58 309.03 107.09 310.145Z" fill="#DEDEDE"/>
<path d="M508.97 358.281H467.9V357.526H508.55L555.27 322.577L555.99 323.116L508.97 358.281Z" fill="#DEDEDE"/>
<path d="M552.8 320.932C554.29 319.817 556.7 319.817 558.19 320.932C559.68 322.046 559.68 323.849 558.19 324.964C556.7 326.078 554.29 326.078 552.8 324.964C551.31 323.849 551.31 322.046 552.8 320.932Z" fill="#DEDEDE"/>
<path d="M468.09 355.05C465.99 355.05 464.28 356.329 464.28 357.907C464.28 359.478 465.99 360.757 468.09 360.757C470.2 360.757 471.9 359.478 471.9 357.907C471.9 356.329 470.2 355.05 468.09 355.05Z" fill="#DEDEDE"/>
<path d="M637.23 216.991L582.28 175.887H427.41L375.51 137.063H289.44L244.54 170.643H58.3601L3.32007 129.471L4.03007 128.932L58.7801 169.887H244.12L289.02 136.3H375.93L427.83 175.124H582.7L637.95 216.453L637.23 216.991Z" fill="#DEDEDE"/>
<path d="M640.15 214.605C641.64 215.72 641.64 217.523 640.15 218.637C638.67 219.752 636.25 219.752 634.76 218.637C633.27 217.523 633.27 215.72 634.76 214.605C636.25 213.491 638.67 213.491 640.15 214.605Z" fill="#00C7FB"/>
<path d="M6.51 127.286C5.02 126.172 2.6 126.172 1.11 127.286C-0.37 128.401 -0.37 130.204 1.11 131.318C2.6 132.433 5.02 132.433 6.51 131.318C7.98999 130.204 7.98999 128.401 6.51 127.286Z" fill="#DEDEDE"/>
<path d="M614.17 225.003L569.51 191.595H430.71L376.54 151.082H292.73L224.5 202.128L223.78 201.589L292.31 150.319H376.96L431.13 190.84H569.93L614.89 224.464L614.17 225.003Z" fill="#DEDEDE"/>
<path d="M617.09 222.617C618.58 223.731 618.58 225.534 617.09 226.649C615.6 227.763 613.19 227.763 611.7 226.649C610.21 225.534 610.21 223.731 611.7 222.617C613.19 221.502 615.6 221.502 617.09 222.617Z" fill="#00C7FB"/>
<path d="M221.58 199.742C220.09 200.856 220.09 202.659 221.58 203.774C223.06 204.888 225.48 204.888 226.97 203.774C228.46 202.659 228.46 200.856 226.97 199.742C225.48 198.627 223.06 198.627 221.58 199.742Z" fill="#DEDEDE"/>
<path d="M463.25 325.622H411.28L312.24 251.543H49.3501V250.78H312.66L411.7 324.866H462.83L499.9 297.136H600.4L643.82 264.657L644.54 265.188L600.82 297.892H500.32L463.25 325.622Z" fill="#DEDEDE"/>
<path d="M641.35 263.003C642.84 261.896 645.26 261.896 646.74 263.003C648.23 264.118 648.23 265.928 646.74 267.043C645.26 268.15 642.84 268.15 641.35 267.043C639.86 265.928 639.86 264.118 641.35 263.003Z" fill="#00C7FB"/>
<path d="M49.54 248.312C47.44 248.312 45.73 249.591 45.73 251.162C45.73 252.74 47.44 254.012 49.54 254.012C51.65 254.012 53.36 252.74 53.36 251.162C53.36 249.591 51.65 248.312 49.54 248.312Z" fill="#DEDEDE"/>
<path d="M413.83 236.889H378.52V236.126H413.41L445.53 212.099H565.69V212.855H445.95L413.83 236.889Z" fill="#DEDEDE"/>
<path d="M565.5 209.623C567.6 209.623 569.31 210.902 569.31 212.473C569.31 214.052 567.6 215.331 565.5 215.331C563.39 215.331 561.69 214.052 561.69 212.473C561.69 210.902 563.39 209.623 565.5 209.623Z" fill="#DEDEDE"/>
<path d="M378.71 233.658C376.61 233.658 374.9 234.937 374.9 236.508C374.9 238.086 376.61 239.358 378.71 239.358C380.82 239.358 382.52 238.086 382.52 236.508C382.52 234.937 380.82 233.658 378.71 233.658Z" fill="#DEDEDE"/>
<path d="M411.52 213.296L362.33 176.5H291.2V175.745H362.75L412.24 212.758L411.52 213.296Z" fill="#DEDEDE"/>
<path d="M414.44 210.91C415.93 212.024 415.93 213.827 414.44 214.942C412.95 216.056 410.54 216.056 409.05 214.942C407.56 213.827 407.56 212.024 409.05 210.91C410.54 209.795 412.95 209.795 414.44 210.91Z" fill="#DEDEDE"/>
<path d="M291.39 173.269C289.29 173.269 287.58 174.548 287.58 176.119C287.58 177.697 289.29 178.976 291.39 178.976C293.5 178.976 295.21 177.697 295.21 176.119C295.21 174.548 293.5 173.269 291.39 173.269Z" fill="#DEDEDE"/>
<path d="M378.57 216.991L344.21 191.289H281.32V190.533H344.63L379.29 216.453L378.57 216.991Z" fill="#DEDEDE"/>
<path d="M381.49 214.605C382.98 215.72 382.98 217.523 381.49 218.637C380 219.752 377.59 219.752 376.1 218.637C374.61 217.523 374.61 215.72 376.1 214.605C377.59 213.491 380 213.491 381.49 214.605Z" fill="#00C7FB"/>
<path d="M281.51 188.057C279.4 188.057 277.7 189.336 277.7 190.907C277.7 192.486 279.4 193.765 281.51 193.765C283.61 193.765 285.32 192.486 285.32 190.907C285.32 189.336 283.61 188.057 281.51 188.057Z" fill="#DEDEDE"/>
<path d="M96.4801 325.345H52.6501V324.59H96.4801V325.345Z" fill="#DEDEDE"/>
<path d="M96.29 322.114C98.39 322.114 100.1 323.393 100.1 324.964C100.1 326.542 98.39 327.821 96.29 327.821C94.18 327.821 92.48 326.542 92.48 324.964C92.48 323.393 94.18 322.114 96.29 322.114Z" fill="#DEDEDE"/>
<path d="M52.84 322.114C50.74 322.114 49.03 323.393 49.03 324.964C49.03 326.542 50.74 327.821 52.84 327.821C54.95 327.821 56.65 326.542 56.65 324.964C56.65 323.393 54.95 322.114 52.84 322.114Z" fill="#DEDEDE"/>
<path d="M354.2 329.482L309.95 296.381H167.98V295.625H310.37L354.92 328.943L354.2 329.482Z" fill="#DEDEDE"/>
<path d="M357.12 327.096C358.61 328.21 358.61 330.013 357.12 331.128C355.63 332.242 353.22 332.242 351.73 331.128C350.24 330.013 350.24 328.21 351.73 327.096C353.22 325.981 355.63 325.981 357.12 327.096Z" fill="#DEDEDE"/>
<path d="M168.17 293.157C166.06 293.157 164.36 294.429 164.36 296.007C164.36 297.578 166.06 298.857 168.17 298.857C170.27 298.857 171.98 297.578 171.98 296.007C171.98 294.429 170.27 293.157 168.17 293.157Z" fill="#DEDEDE"/>
<path d="M120.91 465.229H24.6401V464.466H120.49L193.8 409.627H277.83L325.6 373.885H416.1V374.641H326.02L278.24 410.382H194.22L120.91 465.229Z" fill="#DEDEDE"/>
<path d="M415.91 371.409C418.02 371.409 419.72 372.689 419.72 374.267C419.72 375.838 418.02 377.117 415.91 377.117C413.81 377.117 412.1 375.838 412.1 374.267C412.1 372.689 413.81 371.409 415.91 371.409Z" fill="#DEDEDE"/>
<path d="M24.83 461.997C22.73 461.997 21.02 463.276 21.02 464.847C21.02 466.426 22.73 467.697 24.83 467.697C26.94 467.697 28.64 466.426 28.64 464.847C28.64 463.276 26.94 461.997 24.83 461.997Z" fill="#DEDEDE"/>
<path d="M20.6402 381.246L19.9302 380.708L76.8302 338.144H246.94L279.89 362.792H383.15V363.555H279.47L246.52 338.9H77.2502L20.6402 381.246Z" fill="#DEDEDE"/>
<path d="M382.96 360.323C385.07 360.323 386.77 361.595 386.77 363.174C386.77 364.744 385.07 366.024 382.96 366.024C380.86 366.024 379.15 364.744 379.15 363.174C379.15 361.595 380.86 360.323 382.96 360.323Z" fill="#DEDEDE"/>
<path d="M17.7201 378.86C16.2401 379.974 16.2401 381.777 17.7201 382.892C19.2101 384.006 21.6301 384.006 23.1201 382.892C24.6001 381.777 24.6001 379.974 23.1201 378.86C21.6301 377.745 19.2101 377.745 17.7201 378.86Z" fill="#DEDEDE"/>
<path d="M115.14 427.64H35.6398L7.56982 406.642L8.28982 406.111L36.0598 426.877H114.72L174.03 382.51H271.12V383.273H174.45L115.14 427.64Z" fill="#DEDEDE"/>
<path d="M270.93 380.042C273.03 380.042 274.74 381.321 274.74 382.892C274.74 384.47 273.03 385.742 270.93 385.742C268.82 385.742 267.12 384.47 267.12 382.892C267.12 381.321 268.82 380.042 270.93 380.042Z" fill="#DEDEDE"/>
<path d="M10.7599 404.458C9.26994 403.343 6.85994 403.343 5.36994 404.458C3.87994 405.572 3.87994 407.383 5.36994 408.49C6.85994 409.604 9.26994 409.604 10.7599 408.49C12.2499 407.383 12.2499 405.572 10.7599 404.458Z" fill="#DEDEDE"/>
<path d="M92.9001 398.675H52.6501V397.92H92.4801L137.78 364.026H238.17V364.782H138.2L92.9001 398.675Z" fill="#DEDEDE"/>
<path d="M237.98 361.558C240.08 361.558 241.79 362.829 241.79 364.408C241.79 365.979 240.08 367.258 237.98 367.258C235.87 367.258 234.16 365.979 234.16 364.408C234.16 362.829 235.87 361.558 237.98 361.558Z" fill="#DEDEDE"/>
<path d="M52.84 395.444C50.73 395.444 49.03 396.723 49.03 398.294C49.03 399.872 50.73 401.152 52.84 401.152C54.94 401.152 56.65 399.872 56.65 398.294C56.65 396.723 54.94 395.444 52.84 395.444Z" fill="#DEDEDE"/>
<path d="M10.76 325.787L10.04 325.255L83.42 270.364H276.06V271.127H83.84L10.76 325.787Z" fill="#DEDEDE"/>
<path d="M275.87 267.896C277.98 267.896 279.68 269.167 279.68 270.746C279.68 272.317 277.98 273.596 275.87 273.596C273.77 273.596 272.06 272.317 272.06 270.746C272.06 269.167 273.77 267.896 275.87 267.896Z" fill="#DEDEDE"/>
<path d="M7.83991 323.4C6.34991 324.515 6.34991 326.325 7.83991 327.432C9.32991 328.547 11.7399 328.547 13.2299 327.432C14.7199 326.325 14.7199 324.515 13.2299 323.4C11.7399 322.286 9.32991 322.286 7.83991 323.4Z" fill="#DEDEDE"/>
<path d="M433.94 301.318H403.04L312.84 233.845H32.8801V233.082H313.26L403.46 300.555H433.52L468.94 274.059H566.15L594.74 252.673L595.46 253.212L566.57 274.822H469.36L433.94 301.318Z" fill="#DEDEDE"/>
<path d="M592.27 251.027C593.76 249.913 596.17 249.913 597.66 251.027C599.15 252.142 599.15 253.945 597.66 255.059C596.17 256.174 593.76 256.174 592.27 255.059C590.78 253.945 590.78 252.142 592.27 251.027Z" fill="#00C7FB"/>
<path d="M33.07 230.613C30.96 230.613 29.26 231.885 29.26 233.463C29.26 235.034 30.96 236.313 33.07 236.313C35.18 236.313 36.88 235.034 36.88 233.463C36.88 231.885 35.18 230.613 33.07 230.613Z" fill="#DEDEDE"/>
<path d="M431.06 280.672H398.1L310.98 215.51H18.05V214.755H311.4L398.52 279.917H430.64L455.76 261.118H558.73L584.85 241.58L585.57 242.118L559.15 261.881H456.18L431.06 280.672Z" fill="#DEDEDE"/>
<path d="M582.38 239.934C583.87 238.819 586.29 238.819 587.77 239.934C589.26 241.048 589.26 242.851 587.77 243.966C586.29 245.08 583.87 245.08 582.38 243.966C580.89 242.851 580.89 241.048 582.38 239.934Z" fill="#DEDEDE"/>
<path d="M18.2399 212.279C16.1399 212.279 14.4299 213.558 14.4299 215.129C14.4299 216.707 16.1399 217.979 18.2399 217.979C20.3499 217.979 22.0499 216.707 22.0499 215.129C22.0499 213.558 20.3499 212.279 18.2399 212.279Z" fill="#DEDEDE"/>
<path d="M429.23 254.311L428.52 253.773L462.35 228.459H567.68V229.222H462.77L429.23 254.311Z" fill="#DEDEDE"/>
<path d="M567.49 225.99C569.59 225.99 571.3 227.27 571.3 228.84C571.3 230.419 569.59 231.69 567.49 231.69C565.38 231.69 563.67 230.419 563.67 228.84C563.67 227.27 565.38 225.99 567.49 225.99Z" fill="#DEDEDE"/>
<path d="M426.31 251.925C424.83 253.032 424.83 254.842 426.31 255.957C427.8 257.071 430.22 257.071 431.71 255.957C433.19 254.842 433.19 253.032 431.71 251.925C430.22 250.81 427.8 250.81 426.31 251.925Z" fill="#00C7FB"/>
<path d="M341.96 86.2564H238.29L159.14 27.0565L159.86 26.5179L238.71 85.5009H341.96V86.2564Z" fill="#DEDEDE"/>
<path d="M341.77 83.0249C343.88 83.0249 345.58 84.3041 345.58 85.8749C345.58 87.4533 343.88 88.7324 341.77 88.7324C339.67 88.7324 337.96 87.4533 337.96 85.8749C337.96 84.3041 339.67 83.0249 341.77 83.0249Z" fill="#DEDEDE"/>
<path d="M162.33 24.8723C160.84 23.7577 158.43 23.7577 156.94 24.8723C155.45 25.9869 155.45 27.7897 156.94 28.9042C158.43 30.0188 160.84 30.0188 162.33 28.9042C163.82 27.7897 163.82 25.9869 162.33 24.8723Z" fill="#DEDEDE"/>
<path d="M203.03 87.0044L152.2 48.974H11.8701V48.2185H152.62L203.75 86.4658L203.03 87.0044Z" fill="#DEDEDE"/>
<path d="M205.95 84.6182C207.44 85.7327 207.44 87.5355 205.95 88.6501C204.47 89.7647 202.05 89.7647 200.56 88.6501C199.07 87.5355 199.07 85.7327 200.56 84.6182C202.05 83.5036 204.47 83.5036 205.95 84.6182Z" fill="#DEDEDE"/>
<path d="M12.06 45.7426C9.96 45.7426 8.25 47.0217 8.25 48.6001C8.25 50.171 9.96 51.4501 12.06 51.4501C14.17 51.4501 15.87 50.171 15.87 48.6001C15.87 47.0217 14.17 45.7426 12.06 45.7426Z" fill="#DEDEDE"/>
<path d="M859.71 368.26H1013.83L1078.8 416.86H1193.35L1283.2 484.072L1282.48 484.61L1192.93 417.623H1078.38L1013.41 369.016H859.71V368.26Z" fill="#DEDEDE"/>
<path d="M859.9 371.492C857.8 371.492 856.09 370.213 856.09 368.642C856.09 367.063 857.8 365.784 859.9 365.784C862.01 365.784 863.71 367.063 863.71 368.642C863.71 370.213 862.01 371.492 859.9 371.492Z" fill="#DEDEDE"/>
<path d="M1280.01 486.256C1281.5 487.371 1283.92 487.371 1285.4 486.256C1286.89 485.142 1286.89 483.339 1285.4 482.224C1283.92 481.11 1281.5 481.11 1280.01 482.224C1278.52 483.339 1278.52 485.142 1280.01 486.256Z" fill="#DEDEDE"/>
<path d="M1335.88 2.47607H1439.95V3.2316H1336.3L1278.97 46.1242H1164.41L1099.44 94.7244H941.92L883.9 138.118L883.19 137.587L941.5 93.9689H1099.02L1163.99 45.3612H1278.55L1335.88 2.47607Z" fill="#DEDEDE"/>
<path d="M886.38 139.771C884.89 140.878 882.47 140.878 880.98 139.771C879.49 138.657 879.49 136.847 880.98 135.732C882.47 134.625 884.89 134.625 886.38 135.732C887.86 136.847 887.86 138.657 886.38 139.771Z" fill="#DEDEDE"/>
<path d="M1439.75 5.70754C1441.86 5.70754 1443.57 4.4284 1443.57 2.85751C1443.57 1.27915 1441.86 0 1439.75 0C1437.65 0 1435.94 1.27915 1435.94 2.85751C1435.94 4.4284 1437.65 5.70754 1439.75 5.70754Z" fill="#DEDEDE"/>
<path d="M812.53 311.357L865.01 350.621H1045.41L1099.37 390.978H1171.85L1200.89 369.263H1420.52V370.018H1201.31L1172.27 391.741H1098.95L1044.99 351.377H864.59L811.81 311.895L812.53 311.357Z" fill="#DEDEDE"/>
<path d="M809.6 313.743C808.12 312.629 808.12 310.826 809.6 309.711C811.09 308.597 813.51 308.597 815 309.711C816.49 310.826 816.49 312.629 815 313.743C813.51 314.858 811.09 314.858 809.6 313.743Z" fill="#DEDEDE"/>
<path d="M1420.33 372.494C1422.43 372.494 1424.14 371.215 1424.14 369.637C1424.14 368.066 1422.43 366.787 1420.33 366.787C1418.22 366.787 1416.51 368.066 1416.51 369.637C1416.51 371.215 1418.22 372.494 1420.33 372.494Z" fill="#DEDEDE"/>
<path d="M956.1 104.471H1017.06L1062.17 138.208H1150.51L1194.48 171.099H1326.26V171.862H1194.06L1150.09 138.971H1061.75L1016.64 105.234H956.52L894.56 151.575L893.84 151.044L956.1 104.471Z" fill="#DEDEDE"/>
<path d="M897.03 153.229C895.54 154.336 893.13 154.336 891.64 153.229C890.15 152.114 890.15 150.304 891.64 149.189C893.13 148.082 895.54 148.082 897.03 149.189C898.52 150.304 898.52 152.114 897.03 153.229Z" fill="#DEDEDE"/>
<path d="M1326.07 174.331C1328.18 174.331 1329.89 173.052 1329.89 171.481C1329.89 169.902 1328.18 168.631 1326.07 168.631C1323.97 168.631 1322.26 169.902 1322.26 171.481C1322.26 173.052 1323.97 174.331 1326.07 174.331Z" fill="#DEDEDE"/>
<path d="M819.11 292.903L870.36 331.24H1042.12L1099.58 374.222H1152.08L1194.2 342.715H1359.56V343.478H1194.62L1152.5 374.978H1099.16L1041.7 331.995H869.94L818.4 293.441L819.11 292.903Z" fill="#DEDEDE"/>
<path d="M1359.37 340.246C1361.47 340.246 1363.18 341.518 1363.18 343.096C1363.18 344.667 1361.47 345.946 1359.37 345.946C1357.26 345.946 1355.55 344.667 1355.55 343.096C1355.55 341.518 1357.26 340.246 1359.37 340.246Z" fill="#DEDEDE"/>
<path d="M821.59 291.257C820.1 290.142 817.68 290.142 816.19 291.257C814.71 292.372 814.71 294.174 816.19 295.289C817.68 296.403 820.1 296.403 821.59 295.289C823.07 294.174 823.07 292.372 821.59 291.257Z" fill="#DEDEDE"/>
<path d="M963.851 142.06H1038.48L1124.95 206.751H1303.32L1346.33 174.57L1347.05 175.109L1303.73 207.506H1124.54L1038.06 142.823H964.271L921.851 174.555H845.351V173.8H921.431L963.851 142.06Z" fill="#DEDEDE"/>
<path d="M845.54 177.031C843.44 177.031 841.73 175.752 841.73 174.174C841.73 172.603 843.44 171.324 845.54 171.324C847.65 171.324 849.36 172.603 849.36 174.174C849.36 175.752 847.65 177.031 845.54 177.031Z" fill="#DEDEDE"/>
<path d="M1349.25 176.956C1350.74 175.842 1350.74 174.032 1349.25 172.924C1347.77 171.81 1345.35 171.81 1343.86 172.924C1342.37 174.032 1342.37 175.842 1343.86 176.956C1345.35 178.071 1347.77 178.071 1349.25 176.956Z" fill="#DEDEDE"/>
<path d="M947.38 128.812H988.45V129.575H947.8L901.08 164.516L900.36 163.978L947.38 128.812Z" fill="#DEDEDE"/>
<path d="M903.55 166.162C902.06 167.277 899.65 167.277 898.16 166.162C896.67 165.055 896.67 163.245 898.16 162.13C899.65 161.016 902.06 161.016 903.55 162.13C905.04 163.245 905.04 165.055 903.55 166.162Z" fill="#DEDEDE"/>
<path d="M988.26 132.044C990.36 132.044 992.07 130.765 992.07 129.194C992.07 127.616 990.36 126.344 988.26 126.344C986.15 126.344 984.44 127.616 984.44 129.194C984.44 130.765 986.15 132.044 988.26 132.044Z" fill="#DEDEDE"/>
<path d="M819.11 270.102L874.07 311.215H1028.94L1080.83 350.038H1166.91L1211.8 316.451H1397.99L1453.03 357.623L1452.32 358.162L1397.57 317.206H1212.22L1167.33 350.794H1080.41L1028.52 311.97H873.65L818.4 270.641L819.11 270.102Z" fill="#DEDEDE"/>
<path d="M816.19 272.489C814.71 271.374 814.71 269.571 816.19 268.457C817.68 267.342 820.1 267.342 821.59 268.457C823.07 269.571 823.07 271.374 821.59 272.489C820.1 273.603 817.68 273.603 816.19 272.489Z" fill="#DEDEDE"/>
<path d="M1449.84 359.807C1451.33 360.922 1453.75 360.922 1455.24 359.807C1456.72 358.7 1456.72 356.89 1455.24 355.775C1453.75 354.661 1451.33 354.661 1449.84 355.775C1448.35 356.89 1448.35 358.7 1449.84 359.807Z" fill="#DEDEDE"/>
<path d="M842.18 262.091L886.84 295.498H1025.64L1079.8 336.02H1163.62L1231.85 284.973L1232.57 285.505L1164.03 336.775H1079.39L1025.22 296.261H886.42L841.46 262.63L842.18 262.091Z" fill="#DEDEDE"/>
<path d="M839.26 264.477C837.77 263.363 837.77 261.56 839.26 260.445C840.75 259.331 843.16 259.331 844.65 260.445C846.14 261.56 846.14 263.363 844.65 264.477C843.16 265.592 840.75 265.592 839.26 264.477Z" fill="#DEDEDE"/>
<g filter="url(#filter0_d)">
<path d="M1234.77 287.36C1236.26 286.245 1236.26 284.435 1234.77 283.328C1233.28 282.213 1230.87 282.213 1229.38 283.328C1227.89 284.435 1227.89 286.245 1229.38 287.36C1230.87 288.474 1233.28 288.474 1234.77 287.36Z" fill="#17ACFC"/>
</g>
<path d="M993.1 161.472H1045.07L1144.11 235.558H1406.99V236.313H1143.69L1044.65 162.235H993.52L956.45 189.957H855.95L812.53 222.445L811.81 221.906L855.53 189.202H956.03L993.1 161.472Z" fill="#DEDEDE"/>
<path d="M815 224.09C813.51 225.205 811.09 225.205 809.6 224.09C808.12 222.976 808.12 221.173 809.6 220.058C811.09 218.944 813.51 218.944 815 220.058C816.49 221.173 816.49 222.976 815 224.09Z" fill="#DEDEDE"/>
<path d="M1406.8 238.789C1408.91 238.789 1410.62 237.51 1410.62 235.932C1410.62 234.361 1408.91 233.082 1406.8 233.082C1404.7 233.082 1402.99 234.361 1402.99 235.932C1402.99 237.51 1404.7 238.789 1406.8 238.789Z" fill="#DEDEDE"/>
<path d="M1042.52 250.212H1077.83V250.968H1042.94L1010.81 275.002H890.66V274.239H1010.39L1042.52 250.212Z" fill="#DEDEDE"/>
<path d="M890.85 277.471C888.75 277.471 887.04 276.191 887.04 274.621C887.04 273.042 888.75 271.771 890.85 271.771C892.96 271.771 894.66 273.042 894.66 274.621C894.66 276.191 892.96 277.471 890.85 277.471Z" fill="#DEDEDE"/>
<path d="M1077.64 253.436C1079.74 253.436 1081.45 252.164 1081.45 250.586C1081.45 249.015 1079.74 247.736 1077.64 247.736C1075.53 247.736 1073.82 249.015 1073.82 250.586C1073.82 252.164 1075.53 253.436 1077.64 253.436Z" fill="#DEDEDE"/>
<path d="M1044.83 273.805L1094.02 310.594H1165.15V311.357H1093.6L1044.11 274.336L1044.83 273.805Z" fill="#DEDEDE"/>
<path d="M1041.91 276.184C1040.42 275.077 1040.42 273.267 1041.91 272.152C1043.4 271.038 1045.81 271.038 1047.3 272.152C1048.79 273.267 1048.79 275.077 1047.3 276.184C1045.81 277.299 1043.4 277.299 1041.91 276.184Z" fill="#DEDEDE"/>
<g filter="url(#filter1_d)">
<path d="M1164.96 313.825C1167.06 313.825 1168.77 312.554 1168.77 310.975C1168.77 309.405 1167.06 308.125 1164.96 308.125C1162.85 308.125 1161.14 309.405 1161.14 310.975C1161.14 312.554 1162.85 313.825 1164.96 313.825Z" fill="#17ACFC"/>
</g>
<path d="M1077.78 270.102L1112.14 295.805H1175.03V296.568H1111.72L1077.06 270.641L1077.78 270.102Z" fill="#DEDEDE"/>
<path d="M1074.86 272.489C1073.37 271.374 1073.37 269.571 1074.86 268.457C1076.35 267.342 1078.76 267.342 1080.25 268.457C1081.74 269.571 1081.74 271.374 1080.25 272.489C1078.76 273.603 1076.35 273.603 1074.86 272.489Z" fill="#DEDEDE"/>
<g filter="url(#filter2_d)">
<path d="M1174.84 299.037C1176.95 299.037 1178.65 297.765 1178.65 296.187C1178.65 294.616 1176.95 293.337 1174.84 293.337C1172.74 293.337 1171.03 294.616 1171.03 296.187C1171.03 297.765 1172.74 299.037 1174.84 299.037Z" fill="#17ACFC"/>
</g>
<path d="M1359.87 161.749H1403.7V162.512H1359.87V161.749Z" fill="#DEDEDE"/>
<path d="M1360.06 164.98C1357.95 164.98 1356.25 163.701 1356.25 162.13C1356.25 160.552 1357.95 159.28 1360.06 159.28C1362.16 159.28 1363.87 160.552 1363.87 162.13C1363.87 163.701 1362.16 164.98 1360.06 164.98Z" fill="#DEDEDE"/>
<path d="M1403.51 164.98C1405.61 164.98 1407.32 163.701 1407.32 162.13C1407.32 160.552 1405.61 159.28 1403.51 159.28C1401.4 159.28 1399.7 160.552 1399.7 162.13C1399.7 163.701 1401.4 164.98 1403.51 164.98Z" fill="#DEDEDE"/>
<path d="M1102.15 157.612L1146.4 190.713H1288.37V191.469H1145.98L1101.43 158.151L1102.15 157.612Z" fill="#DEDEDE"/>
<path d="M1099.23 159.998C1097.74 158.884 1097.74 157.081 1099.23 155.966C1100.72 154.852 1103.13 154.852 1104.62 155.966C1106.11 157.081 1106.11 158.884 1104.62 159.998C1103.13 161.113 1100.72 161.113 1099.23 159.998Z" fill="#DEDEDE"/>
<path d="M1288.18 193.944C1290.29 193.944 1291.99 192.665 1291.99 191.094C1291.99 189.516 1290.29 188.237 1288.18 188.237C1286.08 188.237 1284.37 189.516 1284.37 191.094C1284.37 192.665 1286.08 193.944 1288.18 193.944Z" fill="#DEDEDE"/>
<path d="M1335.44 21.8726H1431.71V22.6281H1335.86L1262.55 77.4669H1178.52L1130.75 113.208H1040.25V112.453H1130.33L1178.1 76.7114H1262.13L1335.44 21.8726Z" fill="#DEDEDE"/>
<path d="M1040.44 115.684C1038.33 115.684 1036.63 114.405 1036.63 112.834C1036.63 111.256 1038.33 109.977 1040.44 109.977C1042.54 109.977 1044.25 111.256 1044.25 112.834C1044.25 114.405 1042.54 115.684 1040.44 115.684Z" fill="#DEDEDE"/>
<path d="M1431.52 25.0967C1433.62 25.0967 1435.33 23.825 1435.33 22.2466C1435.33 20.6758 1433.62 19.3966 1431.52 19.3966C1429.41 19.3966 1427.71 20.6758 1427.71 22.2466C1427.71 23.825 1429.41 25.0967 1431.52 25.0967Z" fill="#DEDEDE"/>
<path d="M1435.71 105.855L1436.42 106.386L1379.52 148.95H1209.41L1176.46 124.302H1073.2V123.546H1176.88L1209.83 148.194H1379.1L1435.71 105.855Z" fill="#DEDEDE"/>
<path d="M1073.39 126.778C1071.28 126.778 1069.58 125.499 1069.58 123.92C1069.58 122.349 1071.28 121.07 1073.39 121.07C1075.49 121.07 1077.2 122.349 1077.2 123.92C1077.2 125.499 1075.49 126.778 1073.39 126.778Z" fill="#DEDEDE"/>
<path d="M1438.62 108.234C1440.11 107.127 1440.11 105.317 1438.62 104.202C1437.14 103.087 1434.72 103.087 1433.23 104.202C1431.74 105.317 1431.74 107.127 1433.23 108.234C1434.72 109.349 1437.14 109.349 1438.62 108.234Z" fill="#DEDEDE"/>
<path d="M1341.21 59.4618H1420.71L1448.78 80.4518L1448.06 80.9904L1420.29 60.2173H1341.63L1282.32 104.584H1185.23V103.828H1281.9L1341.21 59.4618Z" fill="#DEDEDE"/>
<path d="M1185.42 107.06C1183.32 107.06 1181.61 105.78 1181.61 104.202C1181.61 102.631 1183.32 101.352 1185.42 101.352C1187.53 101.352 1189.23 102.631 1189.23 104.202C1189.23 105.78 1187.53 107.06 1185.42 107.06Z" fill="#DEDEDE"/>
<path d="M1445.59 82.6361C1447.08 83.7506 1449.49 83.7506 1450.98 82.6361C1452.47 81.5215 1452.47 79.7187 1450.98 78.6041C1449.49 77.4895 1447.08 77.4895 1445.59 78.6041C1444.1 79.7187 1444.1 81.5215 1445.59 82.6361Z" fill="#DEDEDE"/>
<path d="M1363.45 88.4183H1403.7V89.1813H1363.87L1318.56 123.068H1218.18V122.312H1318.14L1363.45 88.4183Z" fill="#DEDEDE"/>
<path d="M1218.37 125.544C1216.27 125.544 1214.56 124.264 1214.56 122.694C1214.56 121.115 1216.27 119.836 1218.37 119.836C1220.48 119.836 1222.18 121.115 1222.18 122.694C1222.18 124.264 1220.48 125.544 1218.37 125.544Z" fill="#DEDEDE"/>
<path d="M1403.51 91.6499C1405.61 91.6499 1407.32 90.3782 1407.32 88.7999C1407.32 87.2215 1405.61 85.9498 1403.51 85.9498C1401.4 85.9498 1399.7 87.2215 1399.7 88.7999C1399.7 90.3782 1401.4 91.6499 1403.51 91.6499Z" fill="#DEDEDE"/>
<path d="M1445.59 161.307L1446.31 161.846L1372.93 216.73H1180.29V215.974H1372.51L1445.59 161.307Z" fill="#DEDEDE"/>
<path d="M1180.48 219.206C1178.37 219.206 1176.66 217.927 1176.66 216.356C1176.66 214.777 1178.37 213.498 1180.48 213.498C1182.58 213.498 1184.29 214.777 1184.29 216.356C1184.29 217.927 1182.58 219.206 1180.48 219.206Z" fill="#DEDEDE"/>
<path d="M1448.51 163.694C1450 162.579 1450 160.776 1448.51 159.662C1447.02 158.547 1444.61 158.547 1443.12 159.662C1441.63 160.776 1441.63 162.579 1443.12 163.694C1444.61 164.808 1447.02 164.808 1448.51 163.694Z" fill="#DEDEDE"/>
<path d="M1022.41 185.783H1053.31L1143.51 253.257H1423.47V254.012H1143.09L1052.89 186.539H1022.83L987.41 213.034H890.2L861.61 234.421L860.89 233.89L889.78 212.279H986.99L1022.41 185.783Z" fill="#DEDEDE"/>
<path d="M864.08 236.074C862.59 237.189 860.18 237.189 858.69 236.074C857.2 234.959 857.2 233.149 858.69 232.042C860.18 230.928 862.59 230.928 864.08 232.042C865.57 233.149 865.57 234.959 864.08 236.074Z" fill="#DEDEDE"/>
<path d="M1423.28 256.488C1425.38 256.488 1427.09 255.209 1427.09 253.631C1427.09 252.06 1425.38 250.781 1423.28 250.781C1421.17 250.781 1419.47 252.06 1419.47 253.631C1419.47 255.209 1421.17 256.488 1423.28 256.488Z" fill="#DEDEDE"/>
<path d="M1025.29 206.422H1058.25L1145.37 271.584H1438.3V272.347H1144.95L1057.83 207.177H1025.71L1000.59 225.976H897.62L871.49 245.514L870.78 244.983L897.2 225.22H1000.17L1025.29 206.422Z" fill="#DEDEDE"/>
<path d="M873.97 247.168C872.48 248.275 870.06 248.275 868.57 247.168C867.09 246.053 867.09 244.243 868.57 243.128C870.06 242.014 872.48 242.014 873.97 243.128C875.45 244.243 875.45 246.053 873.97 247.168Z" fill="#DEDEDE"/>
<path d="M1438.11 274.815C1440.21 274.815 1441.92 273.543 1441.92 271.965C1441.92 270.394 1440.21 269.115 1438.11 269.115C1436 269.115 1434.29 270.394 1434.29 271.965C1434.29 273.543 1436 274.815 1438.11 274.815Z" fill="#DEDEDE"/>
<path d="M1027.12 232.79L1027.83 233.329L994 258.635H888.67V257.88H993.58L1027.12 232.79Z" fill="#DEDEDE"/>
<path d="M888.86 261.111C886.76 261.111 885.05 259.832 885.05 258.254C885.05 256.683 886.76 255.404 888.86 255.404C890.97 255.404 892.67 256.683 892.67 258.254C892.67 259.832 890.97 261.111 888.86 261.111Z" fill="#DEDEDE"/>
<path d="M1030.03 235.176C1031.52 234.062 1031.52 232.252 1030.03 231.145C1028.55 230.03 1026.13 230.03 1024.64 231.145C1023.15 232.252 1023.15 234.062 1024.64 235.176C1026.13 236.291 1028.55 236.291 1030.03 235.176Z" fill="#DEDEDE"/>
<path d="M1114.39 400.838H1218.06L1297.21 460.045L1296.49 460.576L1217.64 401.6H1114.39V400.838Z" fill="#DEDEDE"/>
<g filter="url(#filter3_d)">
<path d="M1114.58 404.069C1112.47 404.069 1110.76 402.797 1110.76 401.219C1110.76 399.641 1112.47 398.369 1114.58 398.369C1116.68 398.369 1118.39 399.641 1118.39 401.219C1118.39 402.797 1116.68 404.069 1114.58 404.069Z" fill="#17ACFC"/>
</g>
<path d="M1294.02 462.222C1295.51 463.336 1297.92 463.336 1299.41 462.222C1300.9 461.115 1300.9 459.304 1299.41 458.19C1297.92 457.075 1295.51 457.075 1294.02 458.19C1292.53 459.304 1292.53 461.115 1294.02 462.222Z" fill="#DEDEDE"/>
<path d="M1253.32 400.097L1304.15 438.12H1444.48V438.875H1303.73L1252.6 400.628L1253.32 400.097Z" fill="#DEDEDE"/>
<g filter="url(#filter4_d)">
<path d="M1250.4 402.476C1248.91 401.369 1248.91 399.558 1250.4 398.444C1251.88 397.329 1254.3 397.329 1255.79 398.444C1257.28 399.558 1257.28 401.369 1255.79 402.476C1254.3 403.59 1251.88 403.59 1250.4 402.476Z" fill="#17ACFC"/>
</g>
<path d="M1444.29 441.351C1446.39 441.351 1448.1 440.072 1448.1 438.501C1448.1 436.923 1446.39 435.651 1444.29 435.651C1442.18 435.651 1440.47 436.923 1440.47 438.501C1440.47 440.072 1442.18 441.351 1444.29 441.351Z" fill="#DEDEDE"/>
<defs>
<filter id="filter0_d" x="1208.26" y="266.492" width="47.6251" height="45.7038" filterUnits="userSpaceOnUse" color-interpolation-filters="sRGB">
<feFlood flood-opacity="0" result="BackgroundImageFix"/>
<feColorMatrix in="SourceAlpha" type="matrix" values="0 0 0 0 0 0 0 0 0 0 0 0 0 0 0 0 0 0 127 0"/>
<feOffset dy="4"/>
<feGaussianBlur stdDeviation="10"/>
<feColorMatrix type="matrix" values="0 0 0 0 0.0901961 0 0 0 0 0.678431 0 0 0 0 0.988235 0 0 0 1 0"/>
<feBlend mode="normal" in2="BackgroundImageFix" result="effect1_dropShadow"/>
<feBlend mode="normal" in="SourceGraphic" in2="effect1_dropShadow" result="shape"/>
</filter>
<filter id="filter1_d" x="1141.14" y="292.125" width="47.63" height="45.7" filterUnits="userSpaceOnUse" color-interpolation-filters="sRGB">
<feFlood flood-opacity="0" result="BackgroundImageFix"/>
<feColorMatrix in="SourceAlpha" type="matrix" values="0 0 0 0 0 0 0 0 0 0 0 0 0 0 0 0 0 0 127 0"/>
<feOffset dy="4"/>
<feGaussianBlur stdDeviation="10"/>
<feColorMatrix type="matrix" values="0 0 0 0 0.0901961 0 0 0 0 0.678431 0 0 0 0 0.988235 0 0 0 1 0"/>
<feBlend mode="normal" in2="BackgroundImageFix" result="effect1_dropShadow"/>
<feBlend mode="normal" in="SourceGraphic" in2="effect1_dropShadow" result="shape"/>
</filter>
<filter id="filter2_d" x="1151.03" y="277.337" width="47.6201" height="45.7001" filterUnits="userSpaceOnUse" color-interpolation-filters="sRGB">
<feFlood flood-opacity="0" result="BackgroundImageFix"/>
<feColorMatrix in="SourceAlpha" type="matrix" values="0 0 0 0 0 0 0 0 0 0 0 0 0 0 0 0 0 0 127 0"/>
<feOffset dy="4"/>
<feGaussianBlur stdDeviation="10"/>
<feColorMatrix type="matrix" values="0 0 0 0 0.0901961 0 0 0 0 0.678431 0 0 0 0 0.988235 0 0 0 1 0"/>
<feBlend mode="normal" in2="BackgroundImageFix" result="effect1_dropShadow"/>
<feBlend mode="normal" in="SourceGraphic" in2="effect1_dropShadow" result="shape"/>
</filter>
<filter id="filter3_d" x="1090.76" y="382.369" width="47.63" height="45.7001" filterUnits="userSpaceOnUse" color-interpolation-filters="sRGB">
<feFlood flood-opacity="0" result="BackgroundImageFix"/>
<feColorMatrix in="SourceAlpha" type="matrix" values="0 0 0 0 0 0 0 0 0 0 0 0 0 0 0 0 0 0 127 0"/>
<feOffset dy="4"/>
<feGaussianBlur stdDeviation="10"/>
<feColorMatrix type="matrix" values="0 0 0 0 0.0901961 0 0 0 0 0.678431 0 0 0 0 0.988235 0 0 0 1 0"/>
<feBlend mode="normal" in2="BackgroundImageFix" result="effect1_dropShadow"/>
<feBlend mode="normal" in="SourceGraphic" in2="effect1_dropShadow" result="shape"/>
</filter>
<filter id="filter4_d" x="1229.28" y="381.608" width="47.6251" height="45.7038" filterUnits="userSpaceOnUse" color-interpolation-filters="sRGB">
<feFlood flood-opacity="0" result="BackgroundImageFix"/>
<feColorMatrix in="SourceAlpha" type="matrix" values="0 0 0 0 0 0 0 0 0 0 0 0 0 0 0 0 0 0 127 0"/>
<feOffset dy="4"/>
<feGaussianBlur stdDeviation="10"/>
<feColorMatrix type="matrix" values="0 0 0 0 0.0901961 0 0 0 0 0.678431 0 0 0 0 0.988235 0 0 0 1 0"/>
<feBlend mode="normal" in2="BackgroundImageFix" result="effect1_dropShadow"/>
<feBlend mode="normal" in="SourceGraphic" in2="effect1_dropShadow" result="shape"/>
</filter>
</defs>
</svg>
