<svg width="509" height="478" viewBox="0 0 509 478" fill="none" xmlns="http://www.w3.org/2000/svg">
<path d="M328.443 85.7079C328.216 85.8594 325.564 82.6023 321.095 76.8454L320.868 76.5425L321.019 76.1637C322.004 73.1338 323.216 69.4222 324.58 65.256C324.958 65.6348 325.337 66.0892 325.792 66.468C322.459 67.6042 318.823 68.8919 314.884 70.1796L314.354 70.4069L313.899 70.0281C311.021 67.8314 307.991 65.559 304.734 63.1351C305.34 62.8321 305.946 62.5291 306.627 62.2261C306.627 65.9125 306.627 69.7251 306.627 73.664L306.703 74.27L306.173 74.6488C302.941 76.8707 299.785 79.0421 296.704 81.1631C296.603 80.4561 296.502 79.7744 296.401 79.1179C300.189 80.3803 303.825 81.5671 307.309 82.678L307.839 82.9053L307.991 83.4355C309.127 87.3744 310.188 91.086 311.172 94.4189C310.566 94.3432 310.036 94.2674 309.506 94.1917C312.157 90.6315 314.429 87.6016 316.399 85.0262L316.626 84.7232H317.005C324.277 85.1019 328.443 85.405 328.443 85.7079C328.443 85.9352 324.201 86.0867 316.929 86.0867C317.131 86.0362 317.333 85.9604 317.535 85.8594C315.717 88.5106 313.52 91.692 311.021 95.2522L309.96 96.8429L309.354 94.9492C308.294 91.6163 307.158 87.9804 305.946 84.0415C306.148 84.294 306.375 84.5212 306.627 84.7232C303.143 83.6627 299.507 82.5265 295.72 81.3146L293.447 80.6328L295.417 79.2694C298.447 77.1484 301.578 74.9517 304.809 72.6793C304.658 73.0328 304.481 73.361 304.279 73.664C304.279 69.7251 304.279 65.9125 304.279 62.2261V59.8779L306.173 61.3171C309.354 63.7411 312.384 66.0893 315.263 68.2859C314.909 68.2354 314.556 68.1849 314.202 68.1344C318.141 66.9225 321.853 65.7105 325.186 64.7258L327.004 64.1198L326.398 65.9378C324.807 70.0281 323.443 73.664 322.307 76.6182C322.307 76.4162 322.282 76.2142 322.231 76.0122C326.398 81.9963 328.67 85.5565 328.443 85.7079V85.7079Z" fill="#EDEDF3"/>
<path d="M16.1343 0.0369029C16.21 -0.190341 18.1038 0.642881 21.5124 2.23359C24.9211 3.74854 29.7689 6.09673 35.753 9.05089L36.1317 9.20238L36.2075 9.65688C37.0407 14.5047 38.0254 20.1101 39.1616 26.1699L39.2374 26.7001L38.8586 27.0789C34.1623 31.9267 29.0872 37.2291 23.7091 42.7587L23.1031 43.4404L22.3456 42.9859C15.6041 39.5015 9.08975 36.1686 3.18142 33.1387L2.65117 32.8357L2.57544 32.3055C1.66647 26.2456 0.757506 20.6403 0.0757756 15.7924L0 15.338L0.30301 14.9592C4.99938 10.2629 8.93826 6.47546 11.6652 3.90004C14.3921 1.24886 15.9828 -0.114593 16.1343 0.0369029C16.21 0.112651 14.9223 1.7791 12.3469 4.58177C9.84721 7.38444 6.21135 11.3991 1.59073 16.2469C1.69173 15.9944 1.76747 15.7419 1.81797 15.4895C2.72694 20.3373 3.71163 25.8669 4.7721 31.9267C4.57011 31.6742 4.36813 31.4217 4.16613 31.1693C10.1502 34.1992 16.5888 37.4563 23.4061 40.865C22.9516 40.966 22.4971 41.0417 22.0426 41.0922C27.4207 35.6384 32.5716 30.336 37.2679 25.5639C37.1669 25.9174 37.0659 26.2457 36.9649 26.5486C36.056 20.4131 35.147 14.8835 34.3895 9.95986C34.5915 10.2124 34.7683 10.4396 34.9198 10.6416C29.0872 7.53594 24.315 4.96051 21.0579 3.14256C17.8007 1.24886 16.0585 0.188399 16.1343 0.0369029V0.0369029Z" fill="#EDEDF3"/>
<path d="M3.63517 32.1541C3.18068 31.6996 8.78605 25.1096 16.2093 17.459C16.8153 16.8531 17.396 16.2723 17.9515 15.7168C17.8505 16.0198 17.7495 16.3481 17.6485 16.7016C16.2093 7.38458 15.5276 0.112789 16.1336 0.0370409C16.6638 -0.114455 18.3303 7.00584 19.9967 16.3228L20.0725 16.8531L19.6937 17.3075C19.0877 17.9135 18.4818 18.5195 17.8758 19.1255C10.5283 26.776 4.1654 32.6086 3.63517 32.1541V32.1541Z" fill="#EDEDF3"/>
<path d="M18.7856 16.474C19.0885 15.9438 23.6334 17.6859 28.9358 20.3371C34.3139 23.064 38.3285 25.7152 38.0255 26.3212C37.7225 26.9272 33.1776 25.185 27.8753 22.4581C22.5729 19.7311 18.5583 17.08 18.7856 16.474Z" fill="#EDEDF3"/>
<path d="M111.274 434.072C111.35 433.92 113.168 434.829 116.425 436.647C119.682 438.465 124.378 441.117 129.984 444.449L130.362 444.677L130.438 445.131C130.893 450.055 131.499 455.584 132.105 461.644V462.25L131.726 462.629C126.726 467.022 121.273 471.87 115.592 477.021L114.91 477.551L114.152 477.097C107.714 473.158 101.578 469.37 95.8971 465.886L95.4426 465.583L95.3668 465.053C94.9123 458.917 94.5336 453.312 94.1548 448.464L94.0791 448.01L94.4578 447.707C99.4572 443.389 103.623 439.905 106.502 437.556C109.456 435.132 111.122 433.92 111.274 434.072C111.35 434.148 109.91 435.663 107.183 438.314C104.532 440.889 100.518 444.601 95.6698 449.07C95.7708 448.818 95.8718 448.565 95.9728 448.313C96.4273 453.16 96.9575 458.766 97.5635 464.826C97.412 464.573 97.2605 464.295 97.109 463.992C102.714 467.401 108.926 471.188 115.44 475.127C114.935 475.127 114.455 475.153 114.001 475.203C119.758 470.204 125.211 465.356 130.287 460.962C130.135 461.265 130.009 461.568 129.908 461.871C129.453 455.812 128.999 450.206 128.62 445.283C128.772 445.535 128.923 445.788 129.075 446.04C123.545 442.48 119 439.602 115.894 437.481C112.789 435.435 111.122 434.223 111.274 434.072V434.072Z" fill="#EDEDF3"/>
<path d="M96.5025 464.901C96.048 464.447 102.108 458.387 110.061 451.342C110.667 450.787 111.273 450.257 111.879 449.752C111.778 450.055 111.652 450.358 111.501 450.661C110.743 441.344 110.667 434.072 111.273 434.072C111.804 433.996 112.94 441.116 113.849 450.509L113.924 451.039L113.47 451.494C112.864 451.999 112.233 452.554 111.576 453.16C103.699 460.129 96.957 465.432 96.5025 464.901V464.901Z" fill="#EDEDF3"/>
<path d="M112.713 450.585C113.016 450.055 117.41 452.1 122.485 455.206C127.484 458.236 131.347 461.19 130.968 461.796C130.665 462.326 126.272 460.281 121.197 457.175C116.198 454.145 112.334 451.115 112.713 450.585Z" fill="#EDEDF3"/>
<path d="M443.199 256.216C443.047 256.14 444.714 253.489 447.82 248.793C451.001 244.021 455.546 237.355 461.151 229.098L461.454 228.719H461.909C469.256 228.492 477.816 228.265 487.057 227.962L487.587 227.886L487.966 228.341C494.177 236.294 500.995 245.081 508.115 254.246L508.721 254.928L508.191 255.61C501.6 265.003 495.238 273.941 489.405 282.197L489.102 282.652H488.572C479.255 282.803 470.771 282.955 463.348 283.031H462.893L462.59 282.728C456.531 274.698 451.607 268.108 448.274 263.563C444.865 258.943 443.047 256.367 443.199 256.216C443.35 256.14 445.471 258.488 449.031 262.882C452.667 267.275 457.818 273.714 464.03 281.591C463.828 281.49 463.6 281.364 463.348 281.213C470.695 280.985 479.255 280.758 488.496 280.455C488.244 280.607 487.966 280.758 487.663 280.91C493.42 272.653 499.707 263.639 506.221 254.246C506.272 254.701 506.297 255.181 506.297 255.686C499.177 246.52 492.435 237.733 486.224 229.704C486.527 229.856 486.83 230.007 487.133 230.159C477.891 230.31 469.332 230.462 461.909 230.537C462.161 230.386 462.414 230.26 462.666 230.159C456.834 238.264 452.061 244.854 448.653 249.323C445.32 253.868 443.35 256.367 443.199 256.216V256.216Z" fill="#EDEDF3"/>
<path d="M488.572 281.516C488.042 281.97 479.634 272.047 469.787 259.397C468.979 258.337 468.221 257.327 467.514 256.367C467.817 256.519 468.12 256.67 468.423 256.822C454.183 257.049 443.199 256.822 443.199 256.216C443.199 255.61 454.107 254.852 468.347 254.474H468.953L469.332 254.928C470.09 255.888 470.872 256.898 471.68 257.958C481.528 270.532 489.027 281.137 488.572 281.516V281.516Z" fill="#EDEDF3"/>
<path d="M468.423 255.61C467.893 255.307 471.605 249.02 476.756 241.673C481.907 234.325 486.527 228.644 487.058 229.023C487.663 229.402 483.876 235.689 478.725 243.036C473.574 250.384 468.954 255.989 468.423 255.61Z" fill="#EDEDF3"/>
<path d="M464.561 171.606C464.409 171.227 470.393 168.955 480.013 165.697L480.392 165.546L480.846 165.773C483.952 167.97 487.512 170.394 491.375 173.121L491.754 173.424L491.83 173.954C491.906 179.105 491.981 184.786 492.133 190.618V191.527L491.3 191.755C485.77 193.573 480.468 195.239 475.544 196.83L475.014 196.981L474.559 196.678C470.772 193.876 467.288 191.3 464.258 189.028L463.879 188.725V188.27C463.955 178.044 464.182 171.606 464.561 171.606C464.939 171.606 465.318 178.044 465.697 188.27C465.596 188.018 465.47 187.765 465.318 187.513C468.424 189.709 471.984 192.133 475.847 194.86C475.544 194.81 475.216 194.759 474.862 194.709C479.71 193.118 485.013 191.376 490.618 189.558C490.315 189.911 490.037 190.29 489.785 190.694C489.709 184.786 489.633 179.18 489.557 174.03C489.759 174.333 489.936 174.61 490.088 174.863C486.3 172.06 482.816 169.485 479.786 167.288C480.038 167.339 480.291 167.364 480.543 167.364C470.848 170.318 464.636 171.984 464.561 171.606V171.606Z" fill="#EDEDF3"/>
<path d="M475.241 195.769C474.559 195.769 473.953 189.179 473.802 180.999C473.802 180.342 473.802 179.711 473.802 179.105C473.953 179.408 474.105 179.711 474.256 180.014C468.424 175.772 464.182 172.136 464.561 171.606C464.939 171.151 469.711 173.954 475.62 178.12L476.15 178.423V179.029C476.15 179.686 476.15 180.342 476.15 180.999C476.302 189.104 475.847 195.769 475.241 195.769V195.769Z" fill="#EDEDF3"/>
<path d="M474.939 179.105C474.787 178.423 478.12 176.832 482.438 175.393C486.831 174.03 490.467 173.348 490.694 173.954C490.921 174.636 487.513 176.226 483.195 177.666C478.877 179.029 475.166 179.711 474.939 179.105Z" fill="#EDEDF3"/>
<path d="M206.564 386.351C206.488 386.275 207.7 385.442 210.048 384.003C212.396 382.488 215.805 380.367 220.274 377.64C229.137 372.262 242.014 364.46 257.845 354.991L258.224 354.764L258.678 354.916C271.253 360.218 285.796 366.354 301.552 372.944L302.082 373.171L302.233 373.701C306.627 391.881 311.475 411.802 316.474 432.633L316.701 433.466L315.944 433.921C297.689 444.677 280.191 454.979 264.208 464.447L263.753 464.674L263.223 464.447C247.392 457.705 232.924 451.494 220.35 446.116L219.971 445.965L219.82 445.51C215.578 427.406 212.169 412.635 209.897 402.41C208.761 397.259 207.852 393.244 207.321 390.517C206.715 387.866 206.488 386.351 206.564 386.351C206.64 386.351 207.094 387.714 207.776 390.441C208.533 393.093 209.594 397.031 210.881 402.107C213.457 412.333 217.169 427.028 221.638 445.056C221.436 444.854 221.259 444.652 221.107 444.45C233.682 449.752 248.225 455.812 264.056 462.478C263.753 462.478 263.425 462.503 263.072 462.553C279.055 453.009 296.477 442.707 314.732 431.875C314.53 432.279 314.353 432.709 314.202 433.163C309.202 412.333 304.43 392.411 300.112 374.231C300.314 374.484 300.516 374.736 300.718 374.989C284.963 368.247 270.495 362.036 257.921 356.658C258.224 356.607 258.502 356.582 258.754 356.582C242.847 365.823 229.818 373.398 220.804 378.549C216.26 381.124 212.699 383.094 210.351 384.457C207.927 385.745 206.64 386.427 206.564 386.351V386.351Z" fill="#EDEDF3"/>
<path d="M263.602 463.462C263.299 463.538 261.633 457.781 259.133 448.388C256.633 438.995 253.376 426.043 249.892 411.65C249.362 409.302 248.831 407.03 248.301 404.833C248.503 405.086 248.73 405.338 248.983 405.591C236.863 400.44 226.183 395.743 218.608 392.335C211.033 388.85 206.413 386.654 206.564 386.351C206.64 386.123 211.412 387.79 219.214 390.895C227.016 393.925 237.772 398.395 249.892 403.47L250.422 403.697L250.574 404.227C251.104 406.424 251.634 408.772 252.24 411.12C255.724 425.512 258.679 438.541 260.8 448.009C262.845 457.478 263.981 463.386 263.602 463.462V463.462Z" fill="#EDEDF3"/>
<path d="M249.437 404.53C249.058 404 260.42 396.653 274.661 388.245C288.977 379.761 300.794 373.398 301.173 373.928C301.476 374.534 290.189 381.806 275.873 390.29C261.632 398.698 249.74 405.136 249.437 404.53Z" fill="#EDEDF3"/>
<g opacity="0.9">
<g opacity="0.9">
<g opacity="0.9">
<g opacity="0.9">
<path opacity="0.9" d="M232.393 65.7109L247.694 125.249L195.049 156.76L179.748 97.222L232.393 65.7109Z" fill="#4EC5FF"/>
</g>
<g opacity="0.9">
<path opacity="0.9" d="M195.05 156.76L150.889 138.807L135.588 79.1938L179.749 97.2218L195.05 156.76Z" fill="#1B5AA6"/>
</g>
<g opacity="0.9">
<path opacity="0.9" d="M179.749 97.2217L135.588 79.1937L188.233 47.6826L232.394 65.7106L179.749 97.2217Z" fill="#349DDC"/>
</g>
</g>
</g>
<g opacity="0.9">
<path opacity="0.9" d="M247.695 125.248L195.05 156.76L150.889 138.807L135.588 79.1937L188.233 47.6826L232.394 65.7106L247.695 125.248Z" fill="url(#paint0_linear_123_1344)"/>
</g>
</g>
<path d="M169.902 121.006C170.053 121.309 166.266 123.885 159.979 127.748C153.692 131.611 144.981 136.838 135.209 142.443C125.514 148.124 116.575 153.124 110.137 156.608C103.622 160.092 99.5321 162.138 99.3806 161.835C99.1534 161.607 103.016 159.032 109.304 155.169C115.515 151.306 124.302 146.079 134.073 140.398C143.769 134.793 152.707 129.793 159.146 126.309C165.66 122.749 169.75 120.779 169.902 121.006V121.006Z" fill="#EDEDF3"/>
<g opacity="0.9">
<g opacity="0.9">
<g opacity="0.9">
<g opacity="0.9">
<path opacity="0.9" d="M146.949 308.86L162.175 368.398L109.606 399.909L94.3047 340.371L146.949 308.86Z" fill="#4EC5FF"/>
</g>
<g opacity="0.9">
<path opacity="0.9" d="M109.607 399.91L65.4456 381.958L50.1445 322.344L94.3055 340.372L109.607 399.91Z" fill="#1B5AA6"/>
</g>
<g opacity="0.9">
<path opacity="0.9" d="M94.3055 340.372L50.1445 322.344L102.789 290.833L146.95 308.861L94.3055 340.372Z" fill="#349DDC"/>
</g>
</g>
</g>
<g opacity="0.9">
<path opacity="0.9" d="M162.176 368.399L109.607 399.91L65.4456 381.958L50.1445 322.344L102.789 290.833L146.95 308.861L162.176 368.399Z" fill="url(#paint1_linear_123_1344)"/>
</g>
</g>
<g opacity="0.9">
<g opacity="0.9">
<g opacity="0.9">
<g opacity="0.9">
<path opacity="0.9" d="M434.109 298.863L449.41 358.401L396.765 389.912L381.54 330.374L434.109 298.863Z" fill="#4EC5FF"/>
</g>
<g opacity="0.9">
<path opacity="0.9" d="M396.765 389.912L352.604 371.96L337.379 312.422L381.54 330.375L396.765 389.912Z" fill="#1B5AA6"/>
</g>
<g opacity="0.9">
<path opacity="0.9" d="M381.54 330.374L337.379 312.422L390.024 280.911L434.109 298.863L381.54 330.374Z" fill="#349DDC"/>
</g>
</g>
</g>
<g opacity="0.9">
<path opacity="0.9" d="M449.411 358.401L396.842 389.912L352.605 371.96L337.38 312.422L390.025 280.911L434.11 298.863L449.411 358.401Z" fill="url(#paint2_linear_123_1344)"/>
</g>
</g>
<g opacity="0.9">
<g opacity="0.9">
<g opacity="0.9">
<g opacity="0.9">
<path opacity="0.9" d="M280.796 231.599L296.021 291.136L243.452 322.723L228.151 263.11L280.796 231.599Z" fill="#4EC5FF"/>
</g>
<g opacity="0.9">
<path opacity="0.9" d="M243.453 322.723L199.292 304.695L183.991 245.157L228.152 263.109L243.453 322.723Z" fill="#1B5AA6"/>
</g>
<g opacity="0.9">
<path opacity="0.9" d="M228.152 263.109L183.991 245.157L236.636 213.646L280.797 231.598L228.152 263.109Z" fill="#349DDC"/>
</g>
</g>
</g>
<g opacity="0.9">
<path opacity="0.9" d="M296.022 291.136L243.453 322.723L199.292 304.695L183.991 245.157L236.636 213.646L280.797 231.598L296.022 291.136Z" fill="url(#paint3_linear_123_1344)"/>
</g>
</g>
<path d="M213.684 285.531C213.912 285.834 210.503 288.106 204.973 291.591C199.444 294.999 191.642 299.62 183.006 304.619C174.371 309.619 166.493 314.088 160.737 317.118C154.98 320.223 151.344 322.041 151.192 321.738C150.965 321.435 154.374 319.163 159.903 315.678C165.433 312.27 173.235 307.573 181.87 302.574C190.505 297.575 198.383 293.181 204.14 290.076C209.897 287.046 213.533 285.228 213.684 285.531V285.531Z" fill="#EDEDF3"/>
<path d="M369.876 356.582C370.028 356.885 366.543 359.234 360.787 362.794C354.954 366.43 346.925 371.202 337.986 376.428C328.972 381.579 320.792 386.2 314.808 389.381C308.824 392.638 305.036 394.456 304.885 394.229C304.733 393.926 308.218 391.578 313.974 387.942C319.731 384.382 327.836 379.534 336.774 374.383C345.713 369.157 353.969 364.612 359.953 361.355C365.937 358.173 369.725 356.279 369.876 356.582V356.582Z" fill="#EDEDF3"/>
<path d="M232.394 241.673C232.091 241.748 230.5 236.598 228.303 228.19C226.031 219.706 223.077 208.041 219.971 195.088C216.865 182.135 214.138 170.394 212.321 161.834C210.503 153.275 209.518 147.973 209.821 147.897C210.124 147.821 211.715 152.972 213.987 161.456C216.184 169.864 219.138 181.529 222.243 194.557C225.349 207.435 228.076 219.251 229.894 227.735C231.712 236.295 232.697 241.597 232.394 241.673Z" fill="#EDEDF3"/>
<path d="M95.8958 317.421C95.5928 317.496 94.0778 312.497 91.8812 304.316C89.6845 296.135 86.8061 284.849 83.7762 272.275C80.7463 259.701 78.1708 248.339 76.4286 240.082C74.6107 231.826 73.7017 226.675 74.0047 226.599C74.3077 226.523 75.8226 231.523 78.0193 239.703C80.216 247.884 83.0944 259.171 86.1243 271.745C89.1543 284.243 91.7297 295.681 93.4719 303.938C95.2898 312.194 96.1988 317.345 95.8958 317.421Z" fill="#EDEDF3"/>
<path d="M387.6 303.786C387.297 303.862 385.783 299.166 383.737 291.439C381.692 283.637 378.965 272.957 376.087 261.065C373.208 249.172 370.784 238.416 369.118 230.538C367.452 222.736 366.543 217.812 366.921 217.737C367.224 217.661 368.663 222.433 370.709 230.159C372.83 237.886 375.557 248.642 378.359 260.534C381.238 272.427 383.662 283.183 385.328 290.985C386.994 298.863 387.903 303.711 387.6 303.786Z" fill="#EDEDF3"/>
<path d="M208.457 389.457C208.381 389.76 203.836 388.018 196.716 384.912C189.595 381.806 179.824 377.413 169.068 372.414C158.312 367.414 148.616 362.718 141.647 359.233C134.678 355.749 130.436 353.477 130.588 353.174C130.739 352.871 135.209 354.613 142.329 357.718C149.449 360.824 159.296 365.218 170.053 370.217C180.809 375.292 190.504 379.913 197.473 383.397C204.366 386.881 208.608 389.154 208.457 389.457Z" fill="#EDEDF3"/>
<path d="M340.562 310.452C340.486 310.755 335.941 309.164 328.821 306.437C321.625 303.634 311.778 299.696 301.022 295.151C290.19 290.606 280.494 286.364 273.449 283.183C266.481 280.001 262.239 277.88 262.314 277.577C262.466 277.274 266.935 278.865 274.131 281.668C281.251 284.395 291.099 288.409 301.931 292.954C312.763 297.499 322.458 301.741 329.427 304.846C336.472 308.028 340.714 310.149 340.562 310.452V310.452Z" fill="#EDEDF3"/>
<path d="M262.087 279.925C263.384 279.925 264.436 278.874 264.436 277.577C264.436 276.28 263.384 275.229 262.087 275.229C260.791 275.229 259.739 276.28 259.739 277.577C259.739 278.874 260.791 279.925 262.087 279.925Z" fill="#EDEDF3"/>
<path d="M232.394 244.021C233.691 244.021 234.742 242.97 234.742 241.673C234.742 240.376 233.691 239.325 232.394 239.325C231.097 239.325 230.046 240.376 230.046 241.673C230.046 242.97 231.097 244.021 232.394 244.021Z" fill="#EDEDF3"/>
<path d="M213.684 287.879C214.981 287.879 216.032 286.828 216.032 285.531C216.032 284.234 214.981 283.183 213.684 283.183C212.387 283.183 211.336 284.234 211.336 285.531C211.336 286.828 212.387 287.879 213.684 287.879Z" fill="#EDEDF3"/>
<path d="M131.8 355.522C133.097 355.522 134.149 354.471 134.149 353.174C134.149 351.877 133.097 350.826 131.8 350.826C130.503 350.826 129.452 351.877 129.452 353.174C129.452 354.471 130.503 355.522 131.8 355.522Z" fill="#EDEDF3"/>
<path d="M95.8961 319.769C97.1929 319.769 98.2442 318.717 98.2442 317.42C98.2442 316.124 97.1929 315.072 95.8961 315.072C94.5992 315.072 93.5479 316.124 93.5479 317.42C93.5479 318.717 94.5992 319.769 95.8961 319.769Z" fill="#EDEDF3"/>
<path d="M387.601 306.134C388.898 306.134 389.949 305.083 389.949 303.786C389.949 302.489 388.898 301.438 387.601 301.438C386.304 301.438 385.253 302.489 385.253 303.786C385.253 305.083 386.304 306.134 387.601 306.134Z" fill="#EDEDF3"/>
<path d="M169.902 124.112C171.199 124.112 172.25 123.061 172.25 121.764C172.25 120.467 171.199 119.416 169.902 119.416C168.605 119.416 167.554 120.467 167.554 121.764C167.554 123.061 168.605 124.112 169.902 124.112Z" fill="#EDEDF3"/>
<path d="M369.876 358.931C371.173 358.931 372.225 357.879 372.225 356.583C372.225 355.286 371.173 354.234 369.876 354.234C368.58 354.234 367.528 355.286 367.528 356.583C367.528 357.879 368.58 358.931 369.876 358.931Z" fill="#EDEDF3"/>
<path d="M0.680602 158.047C0.604854 157.972 1.8168 157.214 4.16498 155.699C6.43742 154.26 9.92182 152.063 14.3909 149.412C23.2534 143.958 36.1306 136.156 51.8861 126.688L52.3406 126.46L52.7194 126.688C65.3693 131.914 79.8371 138.05 95.6684 144.64L96.1986 144.867L96.3501 145.397C100.668 163.577 105.516 183.499 110.591 204.329L110.742 205.162L109.985 205.617C91.7295 216.373 74.3075 226.675 58.249 236.143L57.7944 236.446L57.2642 236.219C41.5087 229.402 27.0409 223.266 14.4667 217.812L14.0122 217.661L13.9365 217.206C9.69459 199.103 6.28593 184.332 3.93775 174.106C2.80153 168.955 1.96829 164.94 1.3623 162.289C0.83207 159.562 0.529106 158.123 0.680602 158.047C0.756349 158.047 1.13507 159.487 1.89255 162.138C2.65003 164.789 3.63478 168.728 4.99824 173.879C7.57366 184.029 11.2095 198.724 15.6787 216.828C15.5272 216.626 15.3504 216.398 15.1484 216.146C27.7983 221.448 42.2661 227.508 58.1732 234.174C57.8197 234.174 57.4915 234.199 57.1885 234.25C73.0955 224.781 90.5933 214.404 108.848 203.572C108.647 204.026 108.445 204.455 108.243 204.859C103.243 184.029 98.5468 164.107 94.1534 145.928C94.4059 146.18 94.6332 146.433 94.8351 146.685C79.0796 139.944 64.6118 133.732 52.0376 128.354C52.3406 128.304 52.6183 128.278 52.8708 128.278C36.9638 137.595 23.9352 145.094 14.8455 150.245C10.3763 152.821 6.81615 154.866 4.39222 156.154C1.96829 157.517 0.680602 158.199 0.680602 158.047V158.047Z" fill="#EDEDF3"/>
<path d="M57.7185 235.158C57.4155 235.234 55.6733 229.477 53.2494 220.085C50.7497 210.768 47.4926 197.739 44.0082 183.347C43.478 180.999 42.872 178.726 42.3417 176.53C42.5942 176.782 42.8214 177.06 43.0234 177.363C30.9795 172.136 20.2991 167.516 12.6486 164.031C5.07379 160.623 0.528934 158.35 0.68043 158.047C0.756178 157.82 5.5283 159.562 13.3303 162.592C21.0566 165.698 31.8128 170.091 43.9324 175.166L44.5384 175.393L44.6142 175.999C45.1444 178.196 45.7504 180.468 46.2806 182.817C49.765 197.209 52.7949 210.237 54.8401 219.706C56.8853 229.174 58.0215 235.083 57.7185 235.158V235.158Z" fill="#EDEDF3"/>
<path d="M43.4786 176.227C43.1756 175.696 54.462 168.425 68.7784 159.941C83.0947 151.533 94.9114 145.094 95.2144 145.7C95.5931 146.23 84.231 153.502 69.9904 161.986C55.674 170.394 43.8574 176.833 43.4786 176.227Z" fill="#EDEDF3"/>
<path d="M301.78 143.882C301.704 143.807 302.916 142.973 305.264 141.458C307.612 140.019 311.021 137.898 315.49 135.171C324.353 129.717 337.23 121.991 353.061 112.523L353.44 112.295L353.894 112.447C366.468 117.749 381.012 123.809 396.843 130.399L397.298 130.626L397.449 131.157C401.843 149.336 406.69 169.258 411.69 190.088L411.917 190.922L411.16 191.376C392.904 202.208 375.407 212.51 359.424 221.903L358.969 222.206L358.439 221.978C342.608 215.237 328.216 209.025 315.566 203.647L315.187 203.42L315.036 202.966C310.794 184.862 307.385 170.091 305.113 159.865C303.976 154.714 303.067 150.775 302.537 148.048C301.931 145.321 301.704 143.882 301.78 143.882C301.855 143.807 302.31 145.246 303.067 147.897C303.749 150.624 304.81 154.563 306.097 159.638C308.673 169.788 312.384 184.483 316.853 202.587C316.651 202.385 316.475 202.183 316.323 201.981C328.897 207.207 343.441 213.267 359.272 219.933C358.969 219.984 358.641 220.009 358.288 220.009C374.27 210.54 391.692 200.163 409.948 189.331C409.746 189.785 409.569 190.215 409.417 190.619C404.418 169.788 399.646 149.866 395.328 131.687C395.53 131.99 395.732 132.242 395.934 132.444C380.179 125.703 365.711 119.491 353.137 114.113C353.44 114.113 353.717 114.088 353.97 114.038C338.063 123.355 325.034 130.854 316.02 136.004C311.475 138.656 307.991 140.625 305.567 141.913C303.143 143.276 301.855 143.958 301.78 143.882V143.882Z" fill="#EDEDF3"/>
<path d="M358.894 220.993C358.515 221.069 356.849 215.237 354.349 205.92C351.849 196.527 348.592 183.498 345.108 169.182C344.578 166.834 344.047 164.486 343.517 162.289C343.719 162.592 343.946 162.87 344.199 163.122C332.079 157.971 321.399 153.275 313.824 149.79C306.249 146.382 301.628 144.109 301.78 143.882C301.931 143.579 306.704 145.321 314.43 148.351C322.232 151.457 332.988 155.85 345.108 160.925L345.638 161.153L345.79 161.759C346.32 163.955 346.85 166.228 347.456 168.576C350.94 182.968 353.895 195.997 356.015 205.541C358.061 215.009 359.197 220.918 358.894 220.993V220.993Z" fill="#EDEDF3"/>
<path d="M344.652 162.062C344.349 161.456 355.636 154.184 369.876 145.701C384.193 137.292 396.009 130.854 396.388 131.46C396.691 131.99 385.405 139.338 371.088 147.746C356.848 156.229 344.955 162.592 344.652 162.062V162.062Z" fill="#EDEDF3"/>
<defs>
<linearGradient id="paint0_linear_123_1344" x1="278.07" y1="110.856" x2="187.248" y2="164.94" gradientUnits="userSpaceOnUse">
<stop stop-color="#0063FD"/>
<stop offset="1" stop-color="#7BD2F2" stop-opacity="0"/>
</linearGradient>
<linearGradient id="paint1_linear_123_1344" x1="192.626" y1="354.082" x2="101.805" y2="408.091" gradientUnits="userSpaceOnUse">
<stop stop-color="#3886FF"/>
<stop offset="1" stop-color="#4A91FF"/>
</linearGradient>
<linearGradient id="paint2_linear_123_1344" x1="479.786" y1="344.084" x2="388.964" y2="398.093" gradientUnits="userSpaceOnUse">
<stop stop-color="#0063FD"/>
<stop offset="1" stop-color="#8AB8FF"/>
</linearGradient>
<linearGradient id="paint3_linear_123_1344" x1="326.473" y1="276.82" x2="235.651" y2="330.904" gradientUnits="userSpaceOnUse">
<stop stop-color="#0063FD"/>
<stop offset="1" stop-color="#9B51E0" stop-opacity="0.63"/>
</linearGradient>
</defs>
</svg>
