<svg width="44" height="49" viewBox="0 0 44 49" fill="none" xmlns="http://www.w3.org/2000/svg">
<path d="M42.0539 31.5008L40.0406 29.4883C39.9534 29.3997 39.8292 29.3581 39.7064 29.3761L35.9912 29.9072L34.1731 28.0891L37.2471 25.0151C37.4697 24.7927 37.5947 24.491 37.5947 24.1766C37.5947 23.8618 37.4698 23.5601 37.2471 23.3378L34.172 20.2651L35.9901 18.447L39.7053 18.9781C39.8285 18.9954 39.9524 18.9537 40.0399 18.8659L42.0531 16.8533C42.5743 17.1025 43.199 16.9394 43.5325 16.468C43.8659 15.9965 43.8109 15.3535 43.4026 14.9449C42.9943 14.5366 42.3513 14.4819 41.8795 14.8154C41.4081 15.1489 41.2454 15.7735 41.4945 16.2944L39.6218 18.1704L35.9065 17.64C35.7837 17.6231 35.6598 17.6644 35.5713 17.7515L33.6148 19.7079L30.2591 16.3522L37.5852 9.02686H37.5856C38.0345 9.23402 38.5641 9.14685 38.9231 8.80701C39.2414 8.49646 39.3589 8.03417 39.228 7.60927C39.097 7.18437 38.7396 6.8682 38.3016 6.79091C37.864 6.71328 37.4194 6.88725 37.1505 7.24121C36.8819 7.59552 36.8336 8.07016 37.0259 8.47102L29.7013 15.7932L26.3544 12.4464L28.4887 10.2228C28.5579 10.1487 28.5957 10.0506 28.5946 9.94932V5.33454L30.7991 2.27606C31.2921 2.52838 31.8945 2.39216 32.2308 1.95246C32.5671 1.51275 32.541 0.895921 32.1687 0.486226C31.7964 0.0765306 31.1844 -0.00818196 30.7151 0.284721C30.2454 0.577271 30.0524 1.16413 30.256 1.67868L27.8831 4.97575C27.8327 5.0421 27.8051 5.12326 27.8041 5.20655V9.79134L25.794 11.8875L22.7111 8.80464C22.4884 8.58232 22.1871 8.45738 21.8723 8.45738C21.5579 8.45738 21.2561 8.58231 21.0335 8.80464L17.9506 11.8875L15.9468 9.79134V5.20655C15.9472 5.12362 15.9207 5.0428 15.8717 4.97575L13.4963 1.67868C13.7243 1.13522 13.5281 0.506326 13.0309 0.189863C12.534 -0.127034 11.8811 -0.0398735 11.4849 0.39631C11.0886 0.832492 11.0639 1.49061 11.4266 1.95505C11.7894 2.41981 12.4341 2.55532 12.9532 2.27618L15.1563 5.33467V9.94945C15.1563 10.0514 15.1959 10.1495 15.2661 10.2229L17.4004 12.4465L14.0497 15.7933L6.72745 8.47114C6.91625 8.07202 6.8665 7.60056 6.59829 7.24974C6.33009 6.89861 5.88862 6.72639 5.45386 6.80368C5.01874 6.88061 4.66338 7.19398 4.53211 7.61569C4.40084 8.0374 4.51588 8.49686 4.83031 8.8071C5.1892 9.14694 5.71889 9.23411 6.1678 9.02695L13.4917 16.3523L10.1378 19.7062L8.18141 17.7498H8.18105C8.09283 17.6626 7.96896 17.6213 7.84581 17.6383L4.13055 18.1687L2.25562 16.2962C2.50476 15.775 2.34172 15.1503 1.87026 14.8169C1.39879 14.4837 0.755815 14.5384 0.347204 14.9467C-0.061091 15.355 -0.115792 15.9984 0.217691 16.4698C0.551175 16.9412 1.17575 17.1039 1.69702 16.8551L3.71026 18.8677C3.79778 18.9555 3.92164 18.9968 4.04445 18.9799L7.75971 18.4488L9.57782 20.2669L6.5038 23.3409C6.28112 23.5632 6.15619 23.865 6.15619 24.1794C6.15619 24.4942 6.28112 24.7959 6.5038 25.0182L9.57782 28.0922L7.75971 29.9103L4.04445 29.3792C3.92164 29.3623 3.79778 29.4036 3.71026 29.4915L1.69702 31.5008C1.29754 31.312 0.826434 31.3614 0.475343 31.6296C0.124216 31.8975 -0.0480007 32.3389 0.0285811 32.7737C0.105512 33.2088 0.418528 33.5645 0.840239 33.6958C1.26195 33.8274 1.72176 33.7124 2.03192 33.398C2.38446 33.0429 2.4741 32.5044 2.25566 32.0541L4.12915 30.1855L7.84441 30.7159C7.96757 30.7346 8.09214 30.693 8.17965 30.6044L10.1361 28.648L13.4918 32.0037L6.17418 39.3202C5.65472 39.0813 5.0386 39.2468 4.7093 39.714C4.37971 40.1813 4.43052 40.8172 4.83034 41.2262C5.29969 41.6736 6.03757 41.6736 6.50698 41.2262C6.85846 40.8708 6.94774 40.3323 6.73001 39.8824L14.0497 32.5627L17.3965 35.9095L15.2622 38.1331C15.1931 38.2072 15.1553 38.3053 15.1564 38.4066V43.0214L12.9519 46.0798C12.4589 45.8275 11.8565 45.9637 11.5202 46.4034C11.1838 46.8432 11.21 47.46 11.5823 47.8697C11.9546 48.2794 12.5665 48.3641 13.0358 48.0712C13.5055 47.7786 13.6986 47.1918 13.495 46.6772L15.872 43.3801H15.8716C15.9207 43.3131 15.9472 43.2323 15.9468 43.1494V38.5646L17.9569 36.4684L21.0398 39.5513C21.2624 39.7736 21.5638 39.8985 21.8786 39.8985C22.193 39.8985 22.4948 39.7736 22.7174 39.5513L25.8003 36.4684L27.8041 38.5646V43.1494C27.8037 43.2323 27.8302 43.3131 27.8792 43.3801L30.2546 46.6772C30.0001 47.2517 30.2002 47.9261 30.7267 48.2688C31.2532 48.6118 31.9506 48.5221 32.3734 48.057C32.7958 47.5919 32.8187 46.8889 32.427 46.3977C32.0357 45.9065 31.3454 45.7717 30.7977 46.0798L28.5946 43.0213V38.4065C28.5946 38.3045 28.5551 38.2064 28.4848 38.133L26.3505 35.9095L29.7013 32.5615L37.0242 39.8844V39.8848C36.8065 40.3347 36.8957 40.8729 37.2472 41.2286C37.7162 41.6768 38.4548 41.6768 38.9239 41.2286C39.1465 41.0063 39.2715 40.7046 39.2715 40.3898C39.2715 40.0754 39.1465 39.7736 38.9239 39.5513C38.5646 39.2118 38.0353 39.1247 37.5864 39.3315L30.2593 32.0037L33.6132 28.6505L35.5696 30.6069H35.57C35.6578 30.6948 35.7821 30.7361 35.9052 30.7184L39.6205 30.188L41.494 32.0608L41.4936 32.0604C41.2448 32.5816 41.4075 33.2063 41.879 33.5398C42.3504 33.8732 42.9938 33.8185 43.402 33.4099C43.8103 33.0016 43.865 32.3586 43.5319 31.8872C43.1984 31.4154 42.5738 31.2527 42.0525 31.5018L42.0539 31.5008ZM22.1554 36.7543C22.0813 36.8288 21.9807 36.8704 21.8756 36.8704C21.7704 36.8704 21.6698 36.8288 21.5957 36.7543L9.29944 24.458C9.22498 24.3839 9.18333 24.2834 9.18333 24.1782C9.18333 24.073 9.22498 23.9725 9.29944 23.8983L21.5957 11.6021C21.6698 11.5276 21.7704 11.486 21.8756 11.486C21.9807 11.486 22.0813 11.5276 22.1554 11.6021L34.4517 23.8983C34.5261 23.9724 34.5678 24.073 34.5678 24.1782C34.5678 24.2834 34.5261 24.3839 34.4517 24.458L22.1554 36.7543Z" fill="#111111"/>
<path d="M18.0161 21.8064L21.8754 23.736L25.7346 21.8064L21.8754 19.8768L18.0161 21.8064Z" fill="#111111"/>
<path d="M10.1365 24.1778L21.8753 35.9158L33.6142 24.1778L21.8753 12.4398L10.1365 24.1778ZM26.7953 21.4531C26.929 21.5202 27.0134 21.6567 27.0134 21.8064V26.5492C27.0134 26.6989 26.9291 26.8354 26.7953 26.9025L22.0524 29.2739C21.9409 29.3301 21.8096 29.3301 21.6981 29.2739L16.9552 26.9025C16.8215 26.8354 16.7371 26.6989 16.7371 26.5492V21.8064C16.7371 21.6567 16.8215 21.5202 16.9552 21.4531L21.6981 19.0817C21.8096 19.0256 21.9409 19.0256 22.0524 19.0817L26.7953 21.4531Z" fill="#111111"/>
<path d="M17.5281 26.3053L21.4805 28.2815V24.4222L17.5281 22.446V26.3053Z" fill="#111111"/>
<path d="M22.271 28.281L26.2234 26.3048V22.4456L22.271 24.4218V28.281Z" fill="#111111"/>
</svg>
