<svg width="44" height="53" viewBox="0 0 44 53" fill="none" xmlns="http://www.w3.org/2000/svg">
<path d="M40.016 32.1944C37.8498 34.1844 34.9782 35.2927 32.0311 35.2675H7.69842C-2.55354 34.537 -2.57873 19.6503 7.69842 18.9199H7.79918C0.771419 -0.626867 30.4694 -8.4103 33.8699 12.0936C43.3662 13.3027 47.2201 25.9223 40.016 32.1944Z" fill="#292D32"/>
<path d="M38.8808 47.8592C38.8808 48.8919 38.0243 49.7484 36.9916 49.7484H26.9159C26.79 49.7484 26.6892 49.7484 26.5633 49.698C25.8328 51.562 23.994 52.897 21.8781 52.897C19.7622 52.897 17.9234 51.562 17.193 49.698C17.067 49.7484 16.9663 49.7484 16.8403 49.7484H6.76467C5.73192 49.7484 4.87549 48.8919 4.87549 47.8592C4.87549 46.8264 5.73192 45.97 6.76467 45.97H16.8403C16.9663 45.97 17.067 45.97 17.193 46.0204C17.6967 44.7106 18.7295 43.6778 20.0393 43.174C19.9889 43.0481 19.9889 42.9473 19.9889 42.8214V35.2646H23.7673V42.8214C23.7673 42.9473 23.7673 43.0481 23.7169 43.174C25.0268 43.6778 26.0595 44.7106 26.5633 46.0204C26.6892 45.97 26.79 45.97 26.9159 45.97H36.9916C38.0243 45.97 38.8808 46.8264 38.8808 47.8592Z" fill="#292D32"/>
</svg>
