<svg width="68" height="80" viewBox="0 0 68 80" fill="none" xmlns="http://www.w3.org/2000/svg">
<path d="M62.7 17.5H22.3C19.3729 17.5 17 19.8729 17 22.8V74.2C17 77.1271 19.3729 79.5 22.3 79.5H62.7C65.6271 79.5 68 77.1271 68 74.2V22.8C68 19.8729 65.6271 17.5 62.7 17.5Z" fill="white"/>
<path d="M62.7 17.5H22.3C19.3729 17.5 17 19.8729 17 22.8V74.2C17 77.1271 19.3729 79.5 22.3 79.5H62.7C65.6271 79.5 68 77.1271 68 74.2V22.8C68 19.8729 65.6271 17.5 62.7 17.5Z" fill="white"/>
<path d="M12 17.8C12 16.3944 12.5584 15.0463 13.5523 14.0523C14.5463 13.0584 15.8944 12.5 17.3 12.5H51V5.8C51 4.39435 50.4416 3.04628 49.4477 2.05233C48.4537 1.05839 47.1056 0.5 45.7 0.5H5.3C3.89435 0.5 2.54628 1.05839 1.55233 2.05233C0.558391 3.04628 0 4.39435 0 5.8V57.2C0 58.6056 0.558391 59.9537 1.55233 60.9477C2.54628 61.9416 3.89435 62.5 5.3 62.5H12V17.8Z" fill="white"/>
</svg>
