<svg width="278" height="270" viewBox="0 0 278 270" fill="none" xmlns="http://www.w3.org/2000/svg">
<rect x="0.5" y="0.5" width="277" height="269" rx="19.5" fill="#0063FD" stroke="#D4D4D4"/>
<path d="M65.4726 226.218V228H56.7066V215.22H65.3106V217.002H58.7226V220.638H64.4286V222.312H58.7226V226.218H65.4726ZM68.3443 218.586L70.6483 221.808L70.8103 222.114L70.9723 221.808L73.2583 218.586H75.3283L71.8903 223.302L75.3643 228H73.2943L70.9723 224.796L70.8103 224.508L70.6483 224.796L68.3263 228H66.2563L69.7303 223.302L66.2923 218.586H68.3443ZM81.9426 227.514C81.6906 227.634 81.3426 227.772 80.8986 227.928C80.4546 228.072 79.9806 228.144 79.4766 228.144C79.1646 228.144 78.8706 228.102 78.5946 228.018C78.3186 227.934 78.0726 227.808 77.8566 227.64C77.6526 227.472 77.4906 227.256 77.3706 226.992C77.2506 226.716 77.1906 226.386 77.1906 226.002V220.116H75.9486V218.586H77.1906V215.49H79.1706V218.586H81.2226V220.116H79.1706V225.372C79.1946 225.708 79.2966 225.954 79.4766 226.11C79.6686 226.254 79.9026 226.326 80.1786 226.326C80.4546 226.326 80.7186 226.278 80.9706 226.182C81.2226 226.086 81.4086 226.008 81.5286 225.948L81.9426 227.514ZM87.3515 228.18C86.6195 228.18 85.9535 228.054 85.3535 227.802C84.7535 227.538 84.2375 227.184 83.8055 226.74C83.3855 226.296 83.0555 225.78 82.8155 225.192C82.5875 224.604 82.4735 223.98 82.4735 223.32C82.4735 222.66 82.5875 222.036 82.8155 221.448C83.0555 220.848 83.3855 220.326 83.8055 219.882C84.2375 219.426 84.7535 219.072 85.3535 218.82C85.9535 218.556 86.6255 218.424 87.3695 218.424C88.1015 218.424 88.7615 218.556 89.3495 218.82C89.9495 219.084 90.4595 219.438 90.8795 219.882C91.2995 220.314 91.6175 220.824 91.8335 221.412C92.0615 221.988 92.1755 222.594 92.1755 223.23C92.1755 223.374 92.1695 223.512 92.1575 223.644C92.1455 223.764 92.1335 223.866 92.1215 223.95H84.5795C84.6155 224.37 84.7115 224.748 84.8675 225.084C85.0355 225.42 85.2455 225.714 85.4975 225.966C85.7615 226.206 86.0555 226.392 86.3795 226.524C86.7155 226.656 87.0635 226.722 87.4235 226.722C87.6875 226.722 87.9455 226.692 88.1975 226.632C88.4615 226.56 88.7015 226.464 88.9175 226.344C89.1335 226.212 89.3255 226.056 89.4935 225.876C89.6615 225.696 89.7935 225.498 89.8895 225.282L91.5815 225.768C91.2575 226.476 90.7175 227.058 89.9615 227.514C89.2175 227.958 88.3475 228.18 87.3515 228.18ZM90.2135 222.582C90.1775 222.186 90.0755 221.82 89.9075 221.484C89.7515 221.148 89.5475 220.866 89.2955 220.638C89.0435 220.398 88.7495 220.212 88.4135 220.08C88.0775 219.948 87.7235 219.882 87.3515 219.882C86.9795 219.882 86.6255 219.948 86.2895 220.08C85.9655 220.212 85.6775 220.398 85.4255 220.638C85.1735 220.866 84.9695 221.148 84.8135 221.484C84.6575 221.82 84.5615 222.186 84.5255 222.582H90.2135ZM99.0825 220.296C98.3145 220.32 97.6305 220.5 97.0305 220.836C96.4425 221.16 96.0225 221.628 95.7705 222.24V228H93.7905V218.586H95.6265V220.692C95.9505 220.044 96.3705 219.528 96.8865 219.144C97.4145 218.748 97.9785 218.532 98.5785 218.496C98.6985 218.496 98.7945 218.496 98.8665 218.496C98.9505 218.496 99.0225 218.502 99.0825 218.514V220.296ZM108.965 228H106.985V222.726C106.985 221.838 106.841 221.196 106.553 220.8C106.277 220.392 105.863 220.188 105.311 220.188C105.023 220.188 104.735 220.242 104.447 220.35C104.159 220.458 103.889 220.614 103.637 220.818C103.385 221.01 103.157 221.244 102.953 221.52C102.761 221.784 102.611 222.078 102.503 222.402V228H100.523V218.586H102.323V220.476C102.683 219.84 103.205 219.342 103.889 218.982C104.573 218.61 105.329 218.424 106.157 218.424C106.721 218.424 107.183 218.526 107.543 218.73C107.903 218.934 108.185 219.216 108.389 219.576C108.605 219.924 108.755 220.332 108.839 220.8C108.923 221.256 108.965 221.742 108.965 222.258V228ZM113.765 228.18C113.309 228.18 112.883 228.108 112.487 227.964C112.103 227.808 111.767 227.598 111.479 227.334C111.203 227.07 110.981 226.758 110.813 226.398C110.657 226.038 110.579 225.648 110.579 225.228C110.579 224.784 110.675 224.382 110.867 224.022C111.059 223.662 111.329 223.35 111.677 223.086C112.037 222.822 112.457 222.618 112.937 222.474C113.429 222.33 113.969 222.258 114.557 222.258C115.001 222.258 115.439 222.3 115.871 222.384C116.303 222.456 116.693 222.558 117.041 222.69V222.042C117.041 221.346 116.843 220.806 116.447 220.422C116.051 220.026 115.481 219.828 114.737 219.828C114.233 219.828 113.735 219.924 113.243 220.116C112.763 220.296 112.265 220.56 111.749 220.908L111.137 219.648C112.349 218.832 113.609 218.424 114.917 218.424C116.213 218.424 117.221 218.754 117.941 219.414C118.661 220.074 119.021 221.022 119.021 222.258V225.66C119.021 226.08 119.195 226.296 119.543 226.308V228C119.351 228.036 119.183 228.06 119.039 228.072C118.907 228.084 118.775 228.09 118.643 228.09C118.259 228.09 117.959 227.994 117.743 227.802C117.539 227.61 117.413 227.364 117.365 227.064L117.311 226.47C116.891 227.022 116.369 227.448 115.745 227.748C115.133 228.036 114.473 228.18 113.765 228.18ZM114.305 226.722C114.785 226.722 115.235 226.638 115.655 226.47C116.087 226.29 116.423 226.044 116.663 225.732C116.915 225.516 117.041 225.288 117.041 225.048V223.806C116.705 223.674 116.345 223.572 115.961 223.5C115.589 223.428 115.223 223.392 114.863 223.392C114.155 223.392 113.573 223.548 113.117 223.86C112.673 224.16 112.451 224.562 112.451 225.066C112.451 225.534 112.625 225.93 112.973 226.254C113.321 226.566 113.765 226.722 114.305 226.722ZM121.441 214.86H123.421V225.282C123.421 225.63 123.511 225.906 123.691 226.11C123.871 226.302 124.123 226.398 124.447 226.398C124.579 226.398 124.729 226.374 124.897 226.326C125.077 226.278 125.245 226.224 125.401 226.164L125.689 227.712C125.401 227.844 125.059 227.946 124.663 228.018C124.267 228.102 123.913 228.144 123.601 228.144C122.917 228.144 122.383 227.958 121.999 227.586C121.627 227.214 121.441 226.686 121.441 226.002V214.86ZM130.974 228V215.22H132.99V228H130.974ZM144.068 228H142.088V222.726C142.088 221.838 141.944 221.196 141.656 220.8C141.38 220.392 140.966 220.188 140.414 220.188C140.126 220.188 139.838 220.242 139.55 220.35C139.262 220.458 138.992 220.614 138.74 220.818C138.488 221.01 138.26 221.244 138.056 221.52C137.864 221.784 137.714 222.078 137.606 222.402V228H135.626V218.586H137.426V220.476C137.786 219.84 138.308 219.342 138.992 218.982C139.676 218.61 140.432 218.424 141.26 218.424C141.824 218.424 142.286 218.526 142.646 218.73C143.006 218.934 143.288 219.216 143.492 219.576C143.708 219.924 143.858 220.332 143.942 220.8C144.026 221.256 144.068 221.742 144.068 222.258V228ZM151.517 227.514C151.265 227.634 150.917 227.772 150.473 227.928C150.029 228.072 149.555 228.144 149.051 228.144C148.739 228.144 148.445 228.102 148.169 228.018C147.893 227.934 147.647 227.808 147.431 227.64C147.227 227.472 147.065 227.256 146.945 226.992C146.825 226.716 146.765 226.386 146.765 226.002V220.116H145.523V218.586H146.765V215.49H148.745V218.586H150.797V220.116H148.745V225.372C148.769 225.708 148.871 225.954 149.051 226.11C149.243 226.254 149.477 226.326 149.753 226.326C150.029 226.326 150.293 226.278 150.545 226.182C150.797 226.086 150.983 226.008 151.103 225.948L151.517 227.514ZM156.926 228.18C156.194 228.18 155.528 228.054 154.928 227.802C154.328 227.538 153.812 227.184 153.38 226.74C152.96 226.296 152.63 225.78 152.39 225.192C152.162 224.604 152.048 223.98 152.048 223.32C152.048 222.66 152.162 222.036 152.39 221.448C152.63 220.848 152.96 220.326 153.38 219.882C153.812 219.426 154.328 219.072 154.928 218.82C155.528 218.556 156.2 218.424 156.944 218.424C157.676 218.424 158.336 218.556 158.924 218.82C159.524 219.084 160.034 219.438 160.454 219.882C160.874 220.314 161.192 220.824 161.408 221.412C161.636 221.988 161.75 222.594 161.75 223.23C161.75 223.374 161.744 223.512 161.732 223.644C161.72 223.764 161.708 223.866 161.696 223.95H154.154C154.19 224.37 154.286 224.748 154.442 225.084C154.61 225.42 154.82 225.714 155.072 225.966C155.336 226.206 155.63 226.392 155.954 226.524C156.29 226.656 156.638 226.722 156.998 226.722C157.262 226.722 157.52 226.692 157.772 226.632C158.036 226.56 158.276 226.464 158.492 226.344C158.708 226.212 158.9 226.056 159.068 225.876C159.236 225.696 159.368 225.498 159.464 225.282L161.156 225.768C160.832 226.476 160.292 227.058 159.536 227.514C158.792 227.958 157.922 228.18 156.926 228.18ZM159.788 222.582C159.752 222.186 159.65 221.82 159.482 221.484C159.326 221.148 159.122 220.866 158.87 220.638C158.618 220.398 158.324 220.212 157.988 220.08C157.652 219.948 157.298 219.882 156.926 219.882C156.554 219.882 156.2 219.948 155.864 220.08C155.54 220.212 155.252 220.398 155 220.638C154.748 220.866 154.544 221.148 154.388 221.484C154.232 221.82 154.136 222.186 154.1 222.582H159.788ZM167.091 228.09C166.455 228.09 165.873 227.964 165.345 227.712C164.817 227.448 164.361 227.094 163.977 226.65C163.605 226.206 163.311 225.696 163.095 225.12C162.891 224.544 162.789 223.938 162.789 223.302C162.789 222.63 162.897 222 163.113 221.412C163.329 220.812 163.629 220.296 164.013 219.864C164.397 219.42 164.853 219.072 165.381 218.82C165.921 218.556 166.515 218.424 167.163 218.424C167.919 218.424 168.579 218.604 169.143 218.964C169.719 219.324 170.193 219.792 170.565 220.368V218.586H172.311V227.73C172.311 228.414 172.185 229.02 171.933 229.548C171.681 230.076 171.327 230.52 170.871 230.88C170.427 231.252 169.899 231.534 169.287 231.726C168.675 231.918 168.015 232.014 167.307 232.014C166.263 232.014 165.393 231.834 164.697 231.474C164.013 231.126 163.437 230.634 162.969 229.998L164.085 228.954C164.445 229.458 164.907 229.842 165.471 230.106C166.047 230.37 166.659 230.502 167.307 230.502C167.715 230.502 168.099 230.448 168.459 230.34C168.831 230.232 169.155 230.064 169.431 229.836C169.707 229.608 169.923 229.32 170.079 228.972C170.247 228.624 170.331 228.21 170.331 227.73V226.29C169.995 226.866 169.533 227.31 168.945 227.622C168.357 227.934 167.739 228.09 167.091 228.09ZM167.739 226.488C168.039 226.488 168.327 226.44 168.603 226.344C168.879 226.236 169.131 226.098 169.359 225.93C169.599 225.75 169.803 225.552 169.971 225.336C170.139 225.108 170.259 224.868 170.331 224.616V222.15C170.211 221.85 170.055 221.58 169.863 221.34C169.671 221.088 169.449 220.872 169.197 220.692C168.957 220.512 168.699 220.374 168.423 220.278C168.147 220.17 167.871 220.116 167.595 220.116C167.163 220.116 166.773 220.212 166.425 220.404C166.089 220.584 165.801 220.83 165.561 221.142C165.321 221.442 165.135 221.784 165.003 222.168C164.871 222.552 164.805 222.948 164.805 223.356C164.805 223.788 164.877 224.196 165.021 224.58C165.177 224.952 165.387 225.282 165.651 225.57C165.915 225.846 166.221 226.068 166.569 226.236C166.929 226.404 167.319 226.488 167.739 226.488ZM179.977 220.296C179.209 220.32 178.525 220.5 177.925 220.836C177.337 221.16 176.917 221.628 176.665 222.24V228H174.685V218.586H176.521V220.692C176.845 220.044 177.265 219.528 177.781 219.144C178.309 218.748 178.873 218.532 179.473 218.496C179.593 218.496 179.689 218.496 179.761 218.496C179.845 218.496 179.917 218.502 179.977 218.514V220.296ZM183.796 228.18C183.34 228.18 182.914 228.108 182.518 227.964C182.134 227.808 181.798 227.598 181.51 227.334C181.234 227.07 181.012 226.758 180.844 226.398C180.688 226.038 180.61 225.648 180.61 225.228C180.61 224.784 180.706 224.382 180.898 224.022C181.09 223.662 181.36 223.35 181.708 223.086C182.068 222.822 182.488 222.618 182.968 222.474C183.46 222.33 184 222.258 184.588 222.258C185.032 222.258 185.47 222.3 185.902 222.384C186.334 222.456 186.724 222.558 187.072 222.69V222.042C187.072 221.346 186.874 220.806 186.478 220.422C186.082 220.026 185.512 219.828 184.768 219.828C184.264 219.828 183.766 219.924 183.274 220.116C182.794 220.296 182.296 220.56 181.78 220.908L181.168 219.648C182.38 218.832 183.64 218.424 184.948 218.424C186.244 218.424 187.252 218.754 187.972 219.414C188.692 220.074 189.052 221.022 189.052 222.258V225.66C189.052 226.08 189.226 226.296 189.574 226.308V228C189.382 228.036 189.214 228.06 189.07 228.072C188.938 228.084 188.806 228.09 188.674 228.09C188.29 228.09 187.99 227.994 187.774 227.802C187.57 227.61 187.444 227.364 187.396 227.064L187.342 226.47C186.922 227.022 186.4 227.448 185.776 227.748C185.164 228.036 184.504 228.18 183.796 228.18ZM184.336 226.722C184.816 226.722 185.266 226.638 185.686 226.47C186.118 226.29 186.454 226.044 186.694 225.732C186.946 225.516 187.072 225.288 187.072 225.048V223.806C186.736 223.674 186.376 223.572 185.992 223.5C185.62 223.428 185.254 223.392 184.894 223.392C184.186 223.392 183.604 223.548 183.148 223.86C182.704 224.16 182.482 224.562 182.482 225.066C182.482 225.534 182.656 225.93 183.004 226.254C183.352 226.566 183.796 226.722 184.336 226.722ZM196.622 227.514C196.37 227.634 196.022 227.772 195.578 227.928C195.134 228.072 194.66 228.144 194.156 228.144C193.844 228.144 193.55 228.102 193.274 228.018C192.998 227.934 192.752 227.808 192.536 227.64C192.332 227.472 192.17 227.256 192.05 226.992C191.93 226.716 191.87 226.386 191.87 226.002V220.116H190.628V218.586H191.87V215.49H193.85V218.586H195.902V220.116H193.85V225.372C193.874 225.708 193.976 225.954 194.156 226.11C194.348 226.254 194.582 226.326 194.858 226.326C195.134 226.326 195.398 226.278 195.65 226.182C195.902 226.086 196.088 226.008 196.208 225.948L196.622 227.514ZM197.994 228V218.586H199.974V228H197.994ZM197.994 217.038V214.86H199.974V217.038H197.994ZM206.583 228.18C205.839 228.18 205.167 228.048 204.567 227.784C203.979 227.52 203.475 227.166 203.055 226.722C202.635 226.278 202.311 225.762 202.083 225.174C201.855 224.574 201.741 223.95 201.741 223.302C201.741 222.654 201.855 222.036 202.083 221.448C202.311 220.848 202.635 220.326 203.055 219.882C203.487 219.438 203.997 219.084 204.585 218.82C205.185 218.556 205.851 218.424 206.583 218.424C207.315 218.424 207.975 218.556 208.563 218.82C209.163 219.084 209.673 219.438 210.093 219.882C210.525 220.326 210.855 220.848 211.083 221.448C211.311 222.036 211.425 222.654 211.425 223.302C211.425 223.95 211.311 224.574 211.083 225.174C210.855 225.762 210.525 226.278 210.093 226.722C209.673 227.166 209.163 227.52 208.563 227.784C207.975 228.048 207.315 228.18 206.583 228.18ZM203.775 223.32C203.775 223.776 203.847 224.196 203.991 224.58C204.135 224.964 204.333 225.3 204.585 225.588C204.837 225.864 205.131 226.086 205.467 226.254C205.815 226.41 206.187 226.488 206.583 226.488C206.979 226.488 207.345 226.41 207.681 226.254C208.029 226.086 208.329 225.858 208.581 225.57C208.833 225.282 209.031 224.946 209.175 224.562C209.319 224.178 209.391 223.758 209.391 223.302C209.391 222.858 209.319 222.444 209.175 222.06C209.031 221.664 208.833 221.322 208.581 221.034C208.329 220.746 208.029 220.524 207.681 220.368C207.345 220.2 206.979 220.116 206.583 220.116C206.199 220.116 205.833 220.2 205.485 220.368C205.149 220.536 204.855 220.764 204.603 221.052C204.351 221.34 204.147 221.682 203.991 222.078C203.847 222.462 203.775 222.876 203.775 223.32ZM221.623 228H219.643V222.726C219.643 221.838 219.499 221.196 219.211 220.8C218.935 220.392 218.521 220.188 217.969 220.188C217.681 220.188 217.393 220.242 217.105 220.35C216.817 220.458 216.547 220.614 216.295 220.818C216.043 221.01 215.815 221.244 215.611 221.52C215.419 221.784 215.269 222.078 215.161 222.402V228H213.181V218.586H214.981V220.476C215.341 219.84 215.863 219.342 216.547 218.982C217.231 218.61 217.987 218.424 218.815 218.424C219.379 218.424 219.841 218.526 220.201 218.73C220.561 218.934 220.843 219.216 221.047 219.576C221.263 219.924 221.413 220.332 221.497 220.8C221.581 221.256 221.623 221.742 221.623 222.258V228Z" fill="white"/>
<path fill-rule="evenodd" clip-rule="evenodd" d="M128.717 34.1901C163.639 32.2852 201.971 44.5492 213.045 77.7126C224.319 111.471 201.724 145.016 172.527 165.382C145.263 184.399 108.746 189.101 82.3834 168.854C57.7134 149.906 58.5196 114.998 68.6383 85.5891C78.1166 58.0414 99.6185 35.7772 128.717 34.1901Z" fill="white" fill-opacity="0.2"/>
<path d="M168.166 149.667V103.833" stroke="white" stroke-width="2.5" stroke-miterlimit="10" stroke-linecap="round" stroke-linejoin="round"/>
<path d="M168.166 87.1668V66.3335" stroke="white" stroke-width="2.5" stroke-miterlimit="10" stroke-linecap="round" stroke-linejoin="round"/>
<path d="M139 149.667V128.833" stroke="white" stroke-width="2.5" stroke-miterlimit="10" stroke-linecap="round" stroke-linejoin="round"/>
<path d="M139 112.167V66.3335" stroke="white" stroke-width="2.5" stroke-miterlimit="10" stroke-linecap="round" stroke-linejoin="round"/>
<path d="M109.834 149.667V103.833" stroke="white" stroke-width="2.5" stroke-miterlimit="10" stroke-linecap="round" stroke-linejoin="round"/>
<path d="M109.834 87.1668V66.3335" stroke="white" stroke-width="2.5" stroke-miterlimit="10" stroke-linecap="round" stroke-linejoin="round"/>
<path d="M101.5 103.833H118.167" stroke="white" stroke-width="2.5" stroke-miterlimit="10" stroke-linecap="round" stroke-linejoin="round"/>
<path d="M159.834 103.833H176.501" stroke="white" stroke-width="2.5" stroke-miterlimit="10" stroke-linecap="round" stroke-linejoin="round"/>
<path d="M130.666 112.167H147.333" stroke="white" stroke-width="2.5" stroke-miterlimit="10" stroke-linecap="round" stroke-linejoin="round"/>
</svg>
