<svg width="44" height="51" viewBox="0 0 44 51" fill="none" xmlns="http://www.w3.org/2000/svg">
<path d="M1.79298 22.8591L4.50235 19.7247C5.56479 18.5029 7.10565 17.7591 8.75258 17.7591L26.6563 17.7588L25.4875 23.5495C25.1688 25.037 26.8687 26.0995 28.0908 25.1963L43.0726 14.0928C43.9757 13.4554 43.9757 12.1272 43.0726 11.4365L28.0908 0.332989C26.869 -0.570118 25.1687 0.492341 25.4875 1.97982L26.6563 7.77092H8.43382C3.81189 7.77092 0.0397949 11.5431 0.0397949 16.165V22.1684C0.0397949 23.1245 1.20858 23.5492 1.79298 22.8588V22.8591Z" fill="black"/>
<path d="M41.9569 27.6406L39.2475 30.7749C38.1851 31.9968 36.6442 32.7405 34.9973 32.7405L17.0936 32.7409L18.2624 26.9502C18.5811 25.4626 16.8812 24.4002 15.6591 25.3034L0.677331 36.4068C-0.225777 37.0443 -0.225777 38.3724 0.677331 39.0632L15.6059 50.1667C16.8278 51.0698 18.528 50.0073 18.2093 48.5198L17.0938 42.7287H35.3163C39.9382 42.7287 43.7103 38.9566 43.7103 34.3347V28.3317C43.7103 27.3752 42.5415 26.9505 41.9571 27.6409L41.9569 27.6406Z" fill="black"/>
</svg>
