<svg width="278" height="270" viewBox="0 0 278 270" fill="none" xmlns="http://www.w3.org/2000/svg">
<rect x="0.5" y="0.5" width="277" height="269" rx="19.5" fill="#0063FD" stroke="#D4D4D4"/>
<path d="M96.4869 229V216.22H105.001V218.002H98.5029V221.818H103.939V223.492H98.5029V229H96.4869ZM108.941 229.18C107.957 229.18 107.213 228.862 106.709 228.226C106.205 227.578 105.953 226.618 105.953 225.346V219.586H107.933V224.95C107.933 226.642 108.533 227.488 109.733 227.488C110.297 227.488 110.831 227.314 111.335 226.966C111.839 226.618 112.229 226.114 112.505 225.454V219.586H114.485V226.66C114.485 226.888 114.521 227.05 114.593 227.146C114.677 227.242 114.821 227.296 115.025 227.308V229C114.821 229.036 114.653 229.06 114.521 229.072C114.389 229.084 114.263 229.09 114.143 229.09C113.783 229.09 113.477 228.994 113.225 228.802C112.973 228.598 112.841 228.34 112.829 228.028L112.793 227.092C112.373 227.776 111.827 228.298 111.155 228.658C110.483 229.006 109.745 229.18 108.941 229.18ZM117.03 215.86H119.01V226.282C119.01 226.63 119.1 226.906 119.28 227.11C119.46 227.302 119.712 227.398 120.036 227.398C120.168 227.398 120.318 227.374 120.486 227.326C120.666 227.278 120.834 227.224 120.99 227.164L121.278 228.712C120.99 228.844 120.648 228.946 120.252 229.018C119.856 229.102 119.502 229.144 119.19 229.144C118.506 229.144 117.972 228.958 117.588 228.586C117.216 228.214 117.03 227.686 117.03 227.002V215.86ZM122.444 215.86H124.424V226.282C124.424 226.63 124.514 226.906 124.694 227.11C124.874 227.302 125.126 227.398 125.45 227.398C125.582 227.398 125.732 227.374 125.9 227.326C126.08 227.278 126.248 227.224 126.404 227.164L126.692 228.712C126.404 228.844 126.062 228.946 125.666 229.018C125.27 229.102 124.916 229.144 124.604 229.144C123.92 229.144 123.386 228.958 123.002 228.586C122.63 228.214 122.444 227.686 122.444 227.002V215.86ZM127.971 231.214C128.151 231.25 128.325 231.28 128.493 231.304C128.673 231.328 128.817 231.34 128.925 231.34C129.081 231.34 129.213 231.304 129.321 231.232C129.441 231.172 129.561 231.058 129.681 230.89C129.801 230.722 129.921 230.482 130.041 230.17C130.173 229.87 130.323 229.48 130.491 229L126.621 219.586H128.655L131.571 227.254L134.163 219.586H136.035L131.769 231.178C131.577 231.718 131.241 232.168 130.761 232.528C130.293 232.9 129.687 233.086 128.943 233.086C128.799 233.086 128.649 233.074 128.493 233.05C128.337 233.038 128.163 233.002 127.971 232.942V231.214ZM149.258 219.226C149.138 219.094 148.964 218.956 148.736 218.812C148.508 218.656 148.238 218.512 147.926 218.38C147.626 218.248 147.29 218.14 146.918 218.056C146.558 217.972 146.186 217.93 145.802 217.93C144.95 217.93 144.32 218.086 143.912 218.398C143.516 218.71 143.318 219.142 143.318 219.694C143.318 220.006 143.378 220.264 143.498 220.468C143.63 220.66 143.828 220.834 144.092 220.99C144.356 221.134 144.686 221.266 145.082 221.386C145.478 221.494 145.94 221.614 146.468 221.746C147.116 221.902 147.698 222.076 148.214 222.268C148.742 222.46 149.186 222.694 149.546 222.97C149.906 223.246 150.182 223.588 150.374 223.996C150.578 224.392 150.68 224.878 150.68 225.454C150.68 226.102 150.554 226.66 150.302 227.128C150.062 227.596 149.726 227.98 149.294 228.28C148.874 228.568 148.382 228.784 147.818 228.928C147.254 229.06 146.648 229.126 146 229.126C145.028 229.126 144.086 228.982 143.174 228.694C142.274 228.394 141.458 227.962 140.726 227.398L141.644 225.67C141.8 225.826 142.022 226 142.31 226.192C142.61 226.384 142.952 226.564 143.336 226.732C143.732 226.888 144.158 227.026 144.614 227.146C145.07 227.254 145.544 227.308 146.036 227.308C146.828 227.308 147.44 227.17 147.872 226.894C148.304 226.618 148.52 226.21 148.52 225.67C148.52 225.346 148.436 225.076 148.268 224.86C148.112 224.644 147.884 224.458 147.584 224.302C147.284 224.134 146.918 223.984 146.486 223.852C146.054 223.72 145.562 223.582 145.01 223.438C144.374 223.27 143.816 223.096 143.336 222.916C142.868 222.724 142.478 222.496 142.166 222.232C141.854 221.968 141.614 221.662 141.446 221.314C141.29 220.954 141.212 220.522 141.212 220.018C141.212 219.394 141.332 218.842 141.572 218.362C141.812 217.87 142.136 217.462 142.544 217.138C142.964 216.802 143.456 216.55 144.02 216.382C144.584 216.214 145.196 216.13 145.856 216.13C146.72 216.13 147.518 216.268 148.25 216.544C148.982 216.82 149.624 217.162 150.176 217.57L149.258 219.226ZM156.716 229.18C155.984 229.18 155.318 229.054 154.718 228.802C154.118 228.538 153.602 228.184 153.17 227.74C152.75 227.296 152.42 226.78 152.18 226.192C151.952 225.604 151.838 224.98 151.838 224.32C151.838 223.66 151.952 223.036 152.18 222.448C152.42 221.848 152.75 221.326 153.17 220.882C153.602 220.426 154.118 220.072 154.718 219.82C155.318 219.556 155.99 219.424 156.734 219.424C157.466 219.424 158.126 219.556 158.714 219.82C159.314 220.084 159.824 220.438 160.244 220.882C160.664 221.314 160.982 221.824 161.198 222.412C161.426 222.988 161.54 223.594 161.54 224.23C161.54 224.374 161.534 224.512 161.522 224.644C161.51 224.764 161.498 224.866 161.486 224.95H153.944C153.98 225.37 154.076 225.748 154.232 226.084C154.4 226.42 154.61 226.714 154.862 226.966C155.126 227.206 155.42 227.392 155.744 227.524C156.08 227.656 156.428 227.722 156.788 227.722C157.052 227.722 157.31 227.692 157.562 227.632C157.826 227.56 158.066 227.464 158.282 227.344C158.498 227.212 158.69 227.056 158.858 226.876C159.026 226.696 159.158 226.498 159.254 226.282L160.946 226.768C160.622 227.476 160.082 228.058 159.326 228.514C158.582 228.958 157.712 229.18 156.716 229.18ZM159.578 223.582C159.542 223.186 159.44 222.82 159.272 222.484C159.116 222.148 158.912 221.866 158.66 221.638C158.408 221.398 158.114 221.212 157.778 221.08C157.442 220.948 157.088 220.882 156.716 220.882C156.344 220.882 155.99 220.948 155.654 221.08C155.33 221.212 155.042 221.398 154.79 221.638C154.538 221.866 154.334 222.148 154.178 222.484C154.022 222.82 153.926 223.186 153.89 223.582H159.578ZM162.543 224.284C162.543 223.624 162.657 223 162.885 222.412C163.113 221.824 163.437 221.308 163.857 220.864C164.289 220.42 164.805 220.072 165.405 219.82C166.005 219.556 166.677 219.424 167.421 219.424C168.393 219.424 169.227 219.64 169.923 220.072C170.631 220.492 171.159 221.056 171.507 221.764L169.581 222.376C169.353 221.98 169.047 221.674 168.663 221.458C168.279 221.23 167.853 221.116 167.385 221.116C166.989 221.116 166.617 221.194 166.269 221.35C165.933 221.506 165.639 221.728 165.387 222.016C165.135 222.292 164.937 222.622 164.793 223.006C164.649 223.39 164.577 223.816 164.577 224.284C164.577 224.74 164.649 225.166 164.793 225.562C164.949 225.946 165.153 226.282 165.405 226.57C165.669 226.858 165.969 227.086 166.305 227.254C166.653 227.41 167.019 227.488 167.403 227.488C167.643 227.488 167.883 227.458 168.123 227.398C168.363 227.326 168.579 227.23 168.771 227.11C168.975 226.99 169.149 226.852 169.293 226.696C169.449 226.54 169.563 226.372 169.635 226.192L171.579 226.768C171.267 227.476 170.745 228.058 170.013 228.514C169.281 228.958 168.417 229.18 167.421 229.18C166.689 229.18 166.023 229.048 165.423 228.784C164.823 228.52 164.307 228.166 163.875 227.722C163.455 227.266 163.125 226.744 162.885 226.156C162.657 225.568 162.543 224.944 162.543 224.284ZM176.107 229.18C175.123 229.18 174.379 228.862 173.875 228.226C173.371 227.578 173.119 226.618 173.119 225.346V219.586H175.099V224.95C175.099 226.642 175.699 227.488 176.899 227.488C177.463 227.488 177.997 227.314 178.501 226.966C179.005 226.618 179.395 226.114 179.671 225.454V219.586H181.651V226.66C181.651 226.888 181.687 227.05 181.759 227.146C181.843 227.242 181.987 227.296 182.191 227.308V229C181.987 229.036 181.819 229.06 181.687 229.072C181.555 229.084 181.429 229.09 181.309 229.09C180.949 229.09 180.643 228.994 180.391 228.802C180.139 228.598 180.007 228.34 179.995 228.028L179.959 227.092C179.539 227.776 178.993 228.298 178.321 228.658C177.649 229.006 176.911 229.18 176.107 229.18ZM189.47 221.296C188.702 221.32 188.018 221.5 187.418 221.836C186.83 222.16 186.41 222.628 186.158 223.24V229H184.178V219.586H186.014V221.692C186.338 221.044 186.758 220.528 187.274 220.144C187.802 219.748 188.366 219.532 188.966 219.496C189.086 219.496 189.182 219.496 189.254 219.496C189.338 219.496 189.41 219.502 189.47 219.514V221.296ZM194.702 229.18C193.97 229.18 193.304 229.054 192.704 228.802C192.104 228.538 191.588 228.184 191.156 227.74C190.736 227.296 190.406 226.78 190.166 226.192C189.938 225.604 189.824 224.98 189.824 224.32C189.824 223.66 189.938 223.036 190.166 222.448C190.406 221.848 190.736 221.326 191.156 220.882C191.588 220.426 192.104 220.072 192.704 219.82C193.304 219.556 193.976 219.424 194.72 219.424C195.452 219.424 196.112 219.556 196.7 219.82C197.3 220.084 197.81 220.438 198.23 220.882C198.65 221.314 198.968 221.824 199.184 222.412C199.412 222.988 199.526 223.594 199.526 224.23C199.526 224.374 199.52 224.512 199.508 224.644C199.496 224.764 199.484 224.866 199.472 224.95H191.93C191.966 225.37 192.062 225.748 192.218 226.084C192.386 226.42 192.596 226.714 192.848 226.966C193.112 227.206 193.406 227.392 193.73 227.524C194.066 227.656 194.414 227.722 194.774 227.722C195.038 227.722 195.296 227.692 195.548 227.632C195.812 227.56 196.052 227.464 196.268 227.344C196.484 227.212 196.676 227.056 196.844 226.876C197.012 226.696 197.144 226.498 197.24 226.282L198.932 226.768C198.608 227.476 198.068 228.058 197.312 228.514C196.568 228.958 195.698 229.18 194.702 229.18ZM197.564 223.582C197.528 223.186 197.426 222.82 197.258 222.484C197.102 222.148 196.898 221.866 196.646 221.638C196.394 221.398 196.1 221.212 195.764 221.08C195.428 220.948 195.074 220.882 194.702 220.882C194.33 220.882 193.976 220.948 193.64 221.08C193.316 221.212 193.028 221.398 192.776 221.638C192.524 221.866 192.32 222.148 192.164 222.484C192.008 222.82 191.912 223.186 191.876 223.582H197.564Z" fill="white"/>
<path fill-rule="evenodd" clip-rule="evenodd" d="M152.876 31.0192C186.677 31.6431 218.323 51.4304 227.884 83.8973C236.783 114.116 216.283 142.091 191.178 161.082C164.046 181.605 129.316 198.622 100.859 179.984C68.7996 158.988 56.2013 117.169 68.8447 80.9617C80.7301 46.9247 116.87 30.3546 152.876 31.0192Z" fill="white" fill-opacity="0.2"/>
<path d="M140.709 68.2915L119.917 76.1248C115.126 77.9165 111.209 83.5832 111.209 88.6665V119.625C111.209 124.542 114.459 131 118.417 133.958L136.334 147.333C142.209 151.75 151.876 151.75 157.751 147.333L175.667 133.958C179.626 131 182.876 124.542 182.876 119.625V88.6665C182.876 83.5415 178.959 77.8748 174.167 76.0832L153.376 68.2915C149.834 66.9998 144.167 66.9998 140.709 68.2915Z" stroke="white" stroke-width="2.5" stroke-linecap="round" stroke-linejoin="round"/>
<path d="M134.709 108.458L141.417 115.167L159.334 97.25" stroke="white" stroke-width="2.5" stroke-linecap="round" stroke-linejoin="round"/>
</svg>
