<svg width="122" height="122" viewBox="0 0 122 122" fill="none" xmlns="http://www.w3.org/2000/svg">
<path d="M78.961 52.7312C79.8969 52.7312 80.6555 51.9725 80.6555 51.0367C80.6555 50.1009 79.8969 49.3423 78.961 49.3423C78.0252 49.3423 77.2666 50.1009 77.2666 51.0367C77.2666 51.9725 78.0252 52.7312 78.961 52.7312Z" fill="white"/>
<path d="M84.9256 56.0522C85.8615 56.0522 86.6201 55.2936 86.6201 54.3578C86.6201 53.422 85.8615 52.6633 84.9256 52.6633C83.9898 52.6633 83.2312 53.422 83.2312 54.3578C83.2312 55.2936 83.9898 56.0522 84.9256 56.0522Z" fill="white"/>
<path d="M84.9256 62.6946C85.8615 62.6946 86.6201 61.9359 86.6201 61.0001C86.6201 60.0643 85.8615 59.3057 84.9256 59.3057C83.9898 59.3057 83.2312 60.0643 83.2312 61.0001C83.2312 61.9359 83.9898 62.6946 84.9256 62.6946Z" fill="white"/>
<path d="M84.9256 69.3366C85.8615 69.3366 86.6201 68.578 86.6201 67.6422C86.6201 66.7064 85.8615 65.9478 84.9256 65.9478C83.9898 65.9478 83.2312 66.7064 83.2312 67.6422C83.2312 68.578 83.9898 69.3366 84.9256 69.3366Z" fill="white"/>
<path d="M84.9256 75.9787C85.8615 75.9787 86.6201 75.2201 86.6201 74.2843C86.6201 73.3485 85.8615 72.5898 84.9256 72.5898C83.9898 72.5898 83.2312 73.3485 83.2312 74.2843C83.2312 75.2201 83.9898 75.9787 84.9256 75.9787Z" fill="white"/>
<path d="M84.9256 82.6211C85.8615 82.6211 86.6201 81.8624 86.6201 80.9266C86.6201 79.9908 85.8615 79.2322 84.9256 79.2322C83.9898 79.2322 83.2312 79.9908 83.2312 80.9266C83.2312 81.8624 83.9898 82.6211 84.9256 82.6211Z" fill="white"/>
<path d="M78.961 85.9421C79.8969 85.9421 80.6555 85.1835 80.6555 84.2477C80.6555 83.3119 79.8969 82.5532 78.961 82.5532C78.0252 82.5532 77.2666 83.3119 77.2666 84.2477C77.2666 85.1835 78.0252 85.9421 78.961 85.9421Z" fill="white"/>
<path d="M61.0001 42.7678C61.9359 42.7678 62.6946 42.0092 62.6946 41.0734C62.6946 40.1375 61.9359 39.3789 61.0001 39.3789C60.0643 39.3789 59.3057 40.1375 59.3057 41.0734C59.3057 42.0092 60.0643 42.7678 61.0001 42.7678Z" fill="white"/>
<path d="M66.9645 46.0888C67.9003 46.0888 68.6589 45.3302 68.6589 44.3944C68.6589 43.4586 67.9003 42.7 66.9645 42.7C66.0286 42.7 65.27 43.4586 65.27 44.3944C65.27 45.3302 66.0286 46.0888 66.9645 46.0888Z" fill="white"/>
<path d="M72.9967 49.4101C73.9325 49.4101 74.6911 48.6515 74.6911 47.7157C74.6911 46.7799 73.9325 46.0212 72.9967 46.0212C72.0609 46.0212 71.3022 46.7799 71.3022 47.7157C71.3022 48.6515 72.0609 49.4101 72.9967 49.4101Z" fill="white"/>
<path d="M72.9967 89.2634C73.9325 89.2634 74.6911 88.5048 74.6911 87.569C74.6911 86.6331 73.9325 85.8745 72.9967 85.8745C72.0609 85.8745 71.3022 86.6331 71.3022 87.569C71.3022 88.5048 72.0609 89.2634 72.9967 89.2634Z" fill="white"/>
<path d="M66.9645 92.6523C67.9003 92.6523 68.6589 91.8937 68.6589 90.9579C68.6589 90.0221 67.9003 89.2634 66.9645 89.2634C66.0286 89.2634 65.27 90.0221 65.27 90.9579C65.27 91.8937 66.0286 92.6523 66.9645 92.6523Z" fill="white"/>
<path d="M61.0001 95.9734C61.9359 95.9734 62.6946 95.2147 62.6946 94.2789C62.6946 93.3431 61.9359 92.5845 61.0001 92.5845C60.0643 92.5845 59.3057 93.3431 59.3057 94.2789C59.3057 95.2147 60.0643 95.9734 61.0001 95.9734Z" fill="white"/>
<path d="M55.0355 46.0888C55.9713 46.0888 56.73 45.3302 56.73 44.3944C56.73 43.4586 55.9713 42.7 55.0355 42.7C54.0997 42.7 53.3411 43.4586 53.3411 44.3944C53.3411 45.3302 54.0997 46.0888 55.0355 46.0888Z" fill="white"/>
<path d="M55.0355 92.6523C55.9713 92.6523 56.73 91.8937 56.73 90.9579C56.73 90.0221 55.9713 89.2634 55.0355 89.2634C54.0997 89.2634 53.3411 90.0221 53.3411 90.9579C53.3411 91.8937 54.0997 92.6523 55.0355 92.6523Z" fill="white"/>
<path d="M49.0033 49.4101C49.9391 49.4101 50.6977 48.6515 50.6977 47.7157C50.6977 46.7799 49.9391 46.0212 49.0033 46.0212C48.0675 46.0212 47.3088 46.7799 47.3088 47.7157C47.3088 48.6515 48.0675 49.4101 49.0033 49.4101Z" fill="white"/>
<path d="M43.0389 85.9421C43.9747 85.9421 44.7334 85.1835 44.7334 84.2477C44.7334 83.3119 43.9747 82.5532 43.0389 82.5532C42.1031 82.5532 41.3445 83.3119 41.3445 84.2477C41.3445 85.1835 42.1031 85.9421 43.0389 85.9421Z" fill="white"/>
<path d="M49.0033 89.2634C49.9391 89.2634 50.6977 88.5048 50.6977 87.569C50.6977 86.6331 49.9391 85.8745 49.0033 85.8745C48.0675 85.8745 47.3088 86.6331 47.3088 87.569C47.3088 88.5048 48.0675 89.2634 49.0033 89.2634Z" fill="white"/>
<path d="M37.0746 56.0522C38.0104 56.0522 38.769 55.2936 38.769 54.3578C38.769 53.422 38.0104 52.6633 37.0746 52.6633C36.1388 52.6633 35.3801 53.422 35.3801 54.3578C35.3801 55.2936 36.1388 56.0522 37.0746 56.0522Z" fill="white"/>
<path d="M37.0746 62.6946C38.0104 62.6946 38.769 61.9359 38.769 61.0001C38.769 60.0643 38.0104 59.3057 37.0746 59.3057C36.1388 59.3057 35.3801 60.0643 35.3801 61.0001C35.3801 61.9359 36.1388 62.6946 37.0746 62.6946Z" fill="white"/>
<path d="M37.0746 69.3366C38.0104 69.3366 38.769 68.578 38.769 67.6422C38.769 66.7064 38.0104 65.9478 37.0746 65.9478C36.1388 65.9478 35.3801 66.7064 35.3801 67.6422C35.3801 68.578 36.1388 69.3366 37.0746 69.3366Z" fill="white"/>
<path d="M37.0746 75.9787C38.0104 75.9787 38.769 75.2201 38.769 74.2843C38.769 73.3485 38.0104 72.5898 37.0746 72.5898C36.1388 72.5898 35.3801 73.3485 35.3801 74.2843C35.3801 75.2201 36.1388 75.9787 37.0746 75.9787Z" fill="white"/>
<path d="M37.0746 82.6211C38.0104 82.6211 38.769 81.8624 38.769 80.9266C38.769 79.9908 38.0104 79.2322 37.0746 79.2322C36.1388 79.2322 35.3801 79.9908 35.3801 80.9266C35.3801 81.8624 36.1388 82.6211 37.0746 82.6211Z" fill="white"/>
<path d="M61.0001 75.9787C61.9359 75.9787 62.6946 75.2201 62.6946 74.2843C62.6946 73.3485 61.9359 72.5898 61.0001 72.5898C60.0643 72.5898 59.3057 73.3485 59.3057 74.2843C59.3057 75.2201 60.0643 75.9787 61.0001 75.9787Z" fill="#00C7FB"/>
<path d="M61.0001 82.6211C61.9359 82.6211 62.6946 81.8624 62.6946 80.9266C62.6946 79.9908 61.9359 79.2322 61.0001 79.2322C60.0643 79.2322 59.3057 79.9908 59.3057 80.9266C59.3057 81.8624 60.0643 82.6211 61.0001 82.6211Z" fill="#00C7FB"/>
<path d="M61.0001 89.2634C61.9359 89.2634 62.6946 88.5048 62.6946 87.569C62.6946 86.6331 61.9359 85.8745 61.0001 85.8745C60.0643 85.8745 59.3057 86.6331 59.3057 87.569C59.3057 88.5048 60.0643 89.2634 61.0001 89.2634Z" fill="white"/>
<path d="M55.0355 99.2944C55.9713 99.2944 56.73 98.5358 56.73 97.6C56.73 96.6641 55.9713 95.9055 55.0355 95.9055C54.0997 95.9055 53.3411 96.6641 53.3411 97.6C53.3411 98.5358 54.0997 99.2944 55.0355 99.2944Z" fill="#00C7FB"/>
<path d="M49.0033 102.616C49.9391 102.616 50.6977 101.857 50.6977 100.921C50.6977 99.9854 49.9391 99.2268 49.0033 99.2268C48.0675 99.2268 47.3088 99.9854 47.3088 100.921C47.3088 101.857 48.0675 102.616 49.0033 102.616Z" fill="#00C7FB"/>
<path d="M43.0389 105.937C43.9747 105.937 44.7334 105.178 44.7334 104.242C44.7334 103.306 43.9747 102.548 43.0389 102.548C42.1031 102.548 41.3445 103.306 41.3445 104.242C41.3445 105.178 42.1031 105.937 43.0389 105.937Z" fill="#00C7FB"/>
<path d="M37.0746 109.258C38.0104 109.258 38.769 108.499 38.769 107.563C38.769 106.628 38.0104 105.869 37.0746 105.869C36.1388 105.869 35.3801 106.628 35.3801 107.563C35.3801 108.499 36.1388 109.258 37.0746 109.258Z" fill="#00C7FB"/>
<path d="M31.0421 59.3733C31.9779 59.3733 32.7365 58.6146 32.7365 57.6788C32.7365 56.743 31.9779 55.9844 31.0421 55.9844C30.1063 55.9844 29.3477 56.743 29.3477 57.6788C29.3477 58.6146 30.1063 59.3733 31.0421 59.3733Z" fill="#00C7FB"/>
<path d="M31.0421 105.937C31.9779 105.937 32.7365 105.178 32.7365 104.242C32.7365 103.306 31.9779 102.548 31.0421 102.548C30.1063 102.548 29.3477 103.306 29.3477 104.242C29.3477 105.178 30.1063 105.937 31.0421 105.937Z" fill="#00C7FB"/>
<path d="M25.0777 62.6946C26.0136 62.6946 26.7722 61.9359 26.7722 61.0001C26.7722 60.0643 26.0136 59.3057 25.0777 59.3057C24.1419 59.3057 23.3833 60.0643 23.3833 61.0001C23.3833 61.9359 24.1419 62.6946 25.0777 62.6946Z" fill="#00C7FB"/>
<path d="M19.1134 66.0156C20.0492 66.0156 20.8078 65.257 20.8078 64.3212C20.8078 63.3853 20.0492 62.6267 19.1134 62.6267C18.1776 62.6267 17.4189 63.3853 17.4189 64.3212C17.4189 65.257 18.1776 66.0156 19.1134 66.0156Z" fill="#00C7FB"/>
<path d="M19.1134 99.2944C20.0492 99.2944 20.8078 98.5358 20.8078 97.6C20.8078 96.6641 20.0492 95.9055 19.1134 95.9055C18.1776 95.9055 17.4189 96.6641 17.4189 97.6C17.4189 98.5358 18.1776 99.2944 19.1134 99.2944Z" fill="#00C7FB"/>
<path d="M25.0777 102.616C26.0136 102.616 26.7722 101.857 26.7722 100.921C26.7722 99.9854 26.0136 99.2268 25.0777 99.2268C24.1419 99.2268 23.3833 99.9854 23.3833 100.921C23.3833 101.857 24.1419 102.616 25.0777 102.616Z" fill="#00C7FB"/>
<path d="M13.0812 69.3366C14.017 69.3366 14.7756 68.578 14.7756 67.6422C14.7756 66.7064 14.017 65.9478 13.0812 65.9478C12.1453 65.9478 11.3867 66.7064 11.3867 67.6422C11.3867 68.578 12.1453 69.3366 13.0812 69.3366Z" fill="#00C7FB"/>
<path d="M13.0812 75.9787C14.017 75.9787 14.7756 75.2201 14.7756 74.2843C14.7756 73.3485 14.017 72.5898 13.0812 72.5898C12.1453 72.5898 11.3867 73.3485 11.3867 74.2843C11.3867 75.2201 12.1453 75.9787 13.0812 75.9787Z" fill="#00C7FB"/>
<path d="M13.0812 82.6211C14.017 82.6211 14.7756 81.8624 14.7756 80.9266C14.7756 79.9908 14.017 79.2322 13.0812 79.2322C12.1453 79.2322 11.3867 79.9908 11.3867 80.9266C11.3867 81.8624 12.1453 82.6211 13.0812 82.6211Z" fill="#00C7FB"/>
<path d="M13.0812 89.2634C14.017 89.2634 14.7756 88.5048 14.7756 87.569C14.7756 86.6331 14.017 85.8745 13.0812 85.8745C12.1453 85.8745 11.3867 86.6331 11.3867 87.569C11.3867 88.5048 12.1453 89.2634 13.0812 89.2634Z" fill="#00C7FB"/>
<path d="M13.0812 95.9734C14.017 95.9734 14.7756 95.2147 14.7756 94.2789C14.7756 93.3431 14.017 92.5845 13.0812 92.5845C12.1453 92.5845 11.3867 93.3431 11.3867 94.2789C11.3867 95.2147 12.1453 95.9734 13.0812 95.9734Z" fill="#00C7FB"/>
<path d="M102.887 66.0156C103.822 66.0156 104.581 65.257 104.581 64.3212C104.581 63.3853 103.822 62.6267 102.887 62.6267C101.951 62.6267 101.192 63.3853 101.192 64.3212C101.192 65.257 101.951 66.0156 102.887 66.0156Z" fill="#00C7FB"/>
<path d="M108.919 69.3366C109.855 69.3366 110.613 68.578 110.613 67.6422C110.613 66.7064 109.855 65.9478 108.919 65.9478C107.983 65.9478 107.224 66.7064 107.224 67.6422C107.224 68.578 107.983 69.3366 108.919 69.3366Z" fill="#00C7FB"/>
<path d="M108.919 75.9787C109.855 75.9787 110.613 75.2201 110.613 74.2843C110.613 73.3485 109.855 72.5898 108.919 72.5898C107.983 72.5898 107.224 73.3485 107.224 74.2843C107.224 75.2201 107.983 75.9787 108.919 75.9787Z" fill="#00C7FB"/>
<path d="M108.919 82.6211C109.855 82.6211 110.613 81.8624 110.613 80.9266C110.613 79.9908 109.855 79.2322 108.919 79.2322C107.983 79.2322 107.224 79.9908 107.224 80.9266C107.224 81.8624 107.983 82.6211 108.919 82.6211Z" fill="#00C7FB"/>
<path d="M108.919 89.2634C109.855 89.2634 110.613 88.5048 110.613 87.569C110.613 86.6331 109.855 85.8745 108.919 85.8745C107.983 85.8745 107.224 86.6331 107.224 87.569C107.224 88.5048 107.983 89.2634 108.919 89.2634Z" fill="#00C7FB"/>
<path d="M108.919 95.9734C109.855 95.9734 110.613 95.2147 110.613 94.2789C110.613 93.3431 109.855 92.5845 108.919 92.5845C107.983 92.5845 107.224 93.3431 107.224 94.2789C107.224 95.2147 107.983 95.9734 108.919 95.9734Z" fill="#00C7FB"/>
<path d="M102.887 99.2944C103.822 99.2944 104.581 98.5358 104.581 97.6C104.581 96.6641 103.822 95.9055 102.887 95.9055C101.951 95.9055 101.192 96.6641 101.192 97.6C101.192 98.5358 101.951 99.2944 102.887 99.2944Z" fill="#00C7FB"/>
<path d="M90.9579 59.3733C91.8937 59.3733 92.6523 58.6146 92.6523 57.6788C92.6523 56.743 91.8937 55.9844 90.9579 55.9844C90.0221 55.9844 89.2634 56.743 89.2634 57.6788C89.2634 58.6146 90.0221 59.3733 90.9579 59.3733Z" fill="#00C7FB"/>
<path d="M96.9222 62.6946C97.858 62.6946 98.6167 61.9359 98.6167 61.0001C98.6167 60.0643 97.858 59.3057 96.9222 59.3057C95.9864 59.3057 95.2278 60.0643 95.2278 61.0001C95.2278 61.9359 95.9864 62.6946 96.9222 62.6946Z" fill="#00C7FB"/>
<path d="M96.9222 102.616C97.858 102.616 98.6167 101.857 98.6167 100.921C98.6167 99.9854 97.858 99.2268 96.9222 99.2268C95.9864 99.2268 95.2278 99.9854 95.2278 100.921C95.2278 101.857 95.9864 102.616 96.9222 102.616Z" fill="#00C7FB"/>
<path d="M90.9579 105.937C91.8937 105.937 92.6523 105.178 92.6523 104.242C92.6523 103.306 91.8937 102.548 90.9579 102.548C90.0221 102.548 89.2634 103.306 89.2634 104.242C89.2634 105.178 90.0221 105.937 90.9579 105.937Z" fill="#00C7FB"/>
<path d="M84.9256 109.258C85.8615 109.258 86.6201 108.499 86.6201 107.563C86.6201 106.628 85.8615 105.869 84.9256 105.869C83.9898 105.869 83.2312 106.628 83.2312 107.563C83.2312 108.499 83.9898 109.258 84.9256 109.258Z" fill="#00C7FB"/>
<path d="M78.961 105.937C79.8969 105.937 80.6555 105.178 80.6555 104.242C80.6555 103.306 79.8969 102.548 78.961 102.548C78.0252 102.548 77.2666 103.306 77.2666 104.242C77.2666 105.178 78.0252 105.937 78.961 105.937Z" fill="#00C7FB"/>
<path d="M66.9645 99.2944C67.9003 99.2944 68.6589 98.5358 68.6589 97.6C68.6589 96.6641 67.9003 95.9055 66.9645 95.9055C66.0286 95.9055 65.27 96.6641 65.27 97.6C65.27 98.5358 66.0286 99.2944 66.9645 99.2944Z" fill="#00C7FB"/>
<path d="M72.9967 102.616C73.9325 102.616 74.6911 101.857 74.6911 100.921C74.6911 99.9854 73.9325 99.2268 72.9967 99.2268C72.0609 99.2268 71.3022 99.9854 71.3022 100.921C71.3022 101.857 72.0609 102.616 72.9967 102.616Z" fill="#00C7FB"/>
<path d="M78.961 26.0945C79.8969 26.0945 80.6555 25.3358 80.6555 24.4C80.6555 23.4642 79.8969 22.7056 78.961 22.7056C78.0252 22.7056 77.2666 23.4642 77.2666 24.4C77.2666 25.3358 78.0252 26.0945 78.961 26.0945Z" fill="#00C7FB"/>
<path d="M84.9256 29.4155C85.8615 29.4155 86.6201 28.6569 86.6201 27.7211C86.6201 26.7852 85.8615 26.0266 84.9256 26.0266C83.9898 26.0266 83.2312 26.7852 83.2312 27.7211C83.2312 28.6569 83.9898 29.4155 84.9256 29.4155Z" fill="#00C7FB"/>
<path d="M84.9256 36.0578C85.8615 36.0578 86.6201 35.2992 86.6201 34.3634C86.6201 33.4276 85.8615 32.6689 84.9256 32.6689C83.9898 32.6689 83.2312 33.4276 83.2312 34.3634C83.2312 35.2992 83.9898 36.0578 84.9256 36.0578Z" fill="#00C7FB"/>
<path d="M84.9256 42.7678C85.8615 42.7678 86.6201 42.0092 86.6201 41.0734C86.6201 40.1375 85.8615 39.3789 84.9256 39.3789C83.9898 39.3789 83.2312 40.1375 83.2312 41.0734C83.2312 42.0092 83.9898 42.7678 84.9256 42.7678Z" fill="#00C7FB"/>
<path d="M84.9256 49.4101C85.8615 49.4101 86.6201 48.6515 86.6201 47.7157C86.6201 46.7799 85.8615 46.0212 84.9256 46.0212C83.9898 46.0212 83.2312 46.7799 83.2312 47.7157C83.2312 48.6515 83.9898 49.4101 84.9256 49.4101Z" fill="#00C7FB"/>
<path d="M61.0001 16.1311C61.9359 16.1311 62.6946 15.3724 62.6946 14.4366C62.6946 13.5008 61.9359 12.7422 61.0001 12.7422C60.0643 12.7422 59.3057 13.5008 59.3057 14.4366C59.3057 15.3724 60.0643 16.1311 61.0001 16.1311Z" fill="#00C7FB"/>
<path d="M66.9645 19.4521C67.9003 19.4521 68.6589 18.6935 68.6589 17.7577C68.6589 16.8219 67.9003 16.0632 66.9645 16.0632C66.0286 16.0632 65.27 16.8219 65.27 17.7577C65.27 18.6935 66.0286 19.4521 66.9645 19.4521Z" fill="#00C7FB"/>
<path d="M72.9967 22.7734C73.9325 22.7734 74.6911 22.0148 74.6911 21.079C74.6911 20.1432 73.9325 19.3845 72.9967 19.3845C72.0609 19.3845 71.3022 20.1432 71.3022 21.079C71.3022 22.0148 72.0609 22.7734 72.9967 22.7734Z" fill="#00C7FB"/>
<path d="M55.0355 19.4521C55.9713 19.4521 56.73 18.6935 56.73 17.7577C56.73 16.8219 55.9713 16.0632 55.0355 16.0632C54.0997 16.0632 53.3411 16.8219 53.3411 17.7577C53.3411 18.6935 54.0997 19.4521 55.0355 19.4521Z" fill="#00C7FB"/>
<path d="M49.0033 22.7734C49.9391 22.7734 50.6977 22.0148 50.6977 21.079C50.6977 20.1432 49.9391 19.3845 49.0033 19.3845C48.0675 19.3845 47.3088 20.1432 47.3088 21.079C47.3088 22.0148 48.0675 22.7734 49.0033 22.7734Z" fill="#00C7FB"/>
<path d="M43.0389 26.0945C43.9747 26.0945 44.7334 25.3358 44.7334 24.4C44.7334 23.4642 43.9747 22.7056 43.0389 22.7056C42.1031 22.7056 41.3445 23.4642 41.3445 24.4C41.3445 25.3358 42.1031 26.0945 43.0389 26.0945Z" fill="#00C7FB"/>
<path d="M37.0746 29.4155C38.0104 29.4155 38.769 28.6569 38.769 27.7211C38.769 26.7852 38.0104 26.0266 37.0746 26.0266C36.1388 26.0266 35.3801 26.7852 35.3801 27.7211C35.3801 28.6569 36.1388 29.4155 37.0746 29.4155Z" fill="#00C7FB"/>
<path d="M37.0746 36.0578C38.0104 36.0578 38.769 35.2992 38.769 34.3634C38.769 33.4276 38.0104 32.6689 37.0746 32.6689C36.1388 32.6689 35.3801 33.4276 35.3801 34.3634C35.3801 35.2992 36.1388 36.0578 37.0746 36.0578Z" fill="#00C7FB"/>
<path d="M37.0746 42.7678C38.0104 42.7678 38.769 42.0092 38.769 41.0734C38.769 40.1375 38.0104 39.3789 37.0746 39.3789C36.1388 39.3789 35.3801 40.1375 35.3801 41.0734C35.3801 42.0092 36.1388 42.7678 37.0746 42.7678Z" fill="#00C7FB"/>
<path d="M37.0746 49.4101C38.0104 49.4101 38.769 48.6515 38.769 47.7157C38.769 46.7799 38.0104 46.0212 37.0746 46.0212C36.1388 46.0212 35.3801 46.7799 35.3801 47.7157C35.3801 48.6515 36.1388 49.4101 37.0746 49.4101Z" fill="#00C7FB"/>
<path d="M78.961 59.3733C79.8969 59.3733 80.6555 58.6146 80.6555 57.6788C80.6555 56.743 79.8969 55.9844 78.961 55.9844C78.0252 55.9844 77.2666 56.743 77.2666 57.6788C77.2666 58.6146 78.0252 59.3733 78.961 59.3733Z" fill="#00C7FB"/>
<path d="M72.9967 62.6946C73.9325 62.6946 74.6911 61.9359 74.6911 61.0001C74.6911 60.0643 73.9325 59.3057 72.9967 59.3057C72.0609 59.3057 71.3022 60.0643 71.3022 61.0001C71.3022 61.9359 72.0609 62.6946 72.9967 62.6946Z" fill="#00C7FB"/>
<path d="M66.9645 66.0156C67.9003 66.0156 68.6589 65.257 68.6589 64.3212C68.6589 63.3853 67.9003 62.6267 66.9645 62.6267C66.0286 62.6267 65.27 63.3853 65.27 64.3212C65.27 65.257 66.0286 66.0156 66.9645 66.0156Z" fill="#00C7FB"/>
<path d="M55.0355 66.0156C55.9713 66.0156 56.73 65.257 56.73 64.3212C56.73 63.3853 55.9713 62.6267 55.0355 62.6267C54.0997 62.6267 53.3411 63.3853 53.3411 64.3212C53.3411 65.257 54.0997 66.0156 55.0355 66.0156Z" fill="#00C7FB"/>
<path d="M49.0033 62.6946C49.9391 62.6946 50.6977 61.9359 50.6977 61.0001C50.6977 60.0643 49.9391 59.3057 49.0033 59.3057C48.0675 59.3057 47.3088 60.0643 47.3088 61.0001C47.3088 61.9359 48.0675 62.6946 49.0033 62.6946Z" fill="#00C7FB"/>
<path d="M61.0001 69.3366C61.9359 69.3366 62.6946 68.578 62.6946 67.6422C62.6946 66.7064 61.9359 65.9478 61.0001 65.9478C60.0643 65.9478 59.3057 66.7064 59.3057 67.6422C59.3057 68.578 60.0643 69.3366 61.0001 69.3366Z" fill="#00C7FB"/>
<path d="M43.0389 52.7312C43.9747 52.7312 44.7334 51.9725 44.7334 51.0367C44.7334 50.1009 43.9747 49.3423 43.0389 49.3423C42.1031 49.3423 41.3445 50.1009 41.3445 51.0367C41.3445 51.9725 42.1031 52.7312 43.0389 52.7312Z" fill="white"/>
<path d="M43.0389 59.3733C43.9747 59.3733 44.7334 58.6146 44.7334 57.6788C44.7334 56.743 43.9747 55.9844 43.0389 55.9844C42.1031 55.9844 41.3445 56.743 41.3445 57.6788C41.3445 58.6146 42.1031 59.3733 43.0389 59.3733Z" fill="#00C7FB"/>
</svg>
