<svg width="122" height="122" viewBox="0 0 122 122" fill="none" xmlns="http://www.w3.org/2000/svg">
<path d="M84.9256 82.2822C85.8615 82.2822 86.6201 81.5236 86.6201 80.5878C86.6201 79.6519 85.8615 78.8933 84.9256 78.8933C83.9898 78.8933 83.2312 79.6519 83.2312 80.5878C83.2312 81.5236 83.9898 82.2822 84.9256 82.2822Z" fill="#00C7FB"/>
<path d="M78.961 85.6032C79.8969 85.6032 80.6555 84.8446 80.6555 83.9088C80.6555 82.973 79.8969 82.2144 78.961 82.2144C78.0252 82.2144 77.2666 82.973 77.2666 83.9088C77.2666 84.8446 78.0252 85.6032 78.961 85.6032Z" fill="#00C7FB"/>
<path d="M72.9967 88.9245C73.9325 88.9245 74.6911 88.1659 74.6911 87.2301C74.6911 86.2943 73.9325 85.5356 72.9967 85.5356C72.0609 85.5356 71.3022 86.2943 71.3022 87.2301C71.3022 88.1659 72.0609 88.9245 72.9967 88.9245Z" fill="#00C7FB"/>
<path d="M66.9645 92.2456C67.9003 92.2456 68.6589 91.487 68.6589 90.5511C68.6589 89.6153 67.9003 88.8567 66.9645 88.8567C66.0286 88.8567 65.27 89.6153 65.27 90.5511C65.27 91.487 66.0286 92.2456 66.9645 92.2456Z" fill="#00C7FB"/>
<path d="M61.0001 95.5666C61.9359 95.5666 62.6946 94.808 62.6946 93.8722C62.6946 92.9364 61.9359 92.1777 61.0001 92.1777C60.0643 92.1777 59.3057 92.9364 59.3057 93.8722C59.3057 94.808 60.0643 95.5666 61.0001 95.5666Z" fill="#00C7FB"/>
<path d="M55.0355 92.2456C55.9713 92.2456 56.73 91.487 56.73 90.5511C56.73 89.6153 55.9713 88.8567 55.0355 88.8567C54.0997 88.8567 53.3411 89.6153 53.3411 90.5511C53.3411 91.487 54.0997 92.2456 55.0355 92.2456Z" fill="#00C7FB"/>
<path d="M49.0033 88.9245C49.9391 88.9245 50.6977 88.1659 50.6977 87.2301C50.6977 86.2943 49.9391 85.5356 49.0033 85.5356C48.0675 85.5356 47.3088 86.2943 47.3088 87.2301C47.3088 88.1659 48.0675 88.9245 49.0033 88.9245Z" fill="#00C7FB"/>
<path d="M43.0389 85.6032C43.9747 85.6032 44.7334 84.8446 44.7334 83.9088C44.7334 82.973 43.9747 82.2144 43.0389 82.2144C42.1031 82.2144 41.3445 82.973 41.3445 83.9088C41.3445 84.8446 42.1031 85.6032 43.0389 85.6032Z" fill="#00C7FB"/>
<path d="M108.919 68.9299C109.855 68.9299 110.613 68.1713 110.613 67.2355C110.613 66.2996 109.855 65.541 108.919 65.541C107.983 65.541 107.224 66.2996 107.224 67.2355C107.224 68.1713 107.983 68.9299 108.919 68.9299Z" fill="#00C7FB"/>
<path d="M102.887 65.6089C103.822 65.6089 104.581 64.8502 104.581 63.9144C104.581 62.9786 103.822 62.22 102.887 62.22C101.951 62.22 101.192 62.9786 101.192 63.9144C101.192 64.8502 101.951 65.6089 102.887 65.6089Z" fill="#00C7FB"/>
<path d="M96.9222 62.2878C97.858 62.2878 98.6167 61.5292 98.6167 60.5934C98.6167 59.6576 97.858 58.8989 96.9222 58.8989C95.9864 58.8989 95.2278 59.6576 95.2278 60.5934C95.2278 61.5292 95.9864 62.2878 96.9222 62.2878Z" fill="#00C7FB"/>
<path d="M90.9579 58.9668C91.8937 58.9668 92.6523 58.2081 92.6523 57.2723C92.6523 56.3365 91.8937 55.5779 90.9579 55.5779C90.0221 55.5779 89.2634 56.3365 89.2634 57.2723C89.2634 58.2081 90.0221 58.9668 90.9579 58.9668Z" fill="#00C7FB"/>
<path d="M37.0746 82.2822C38.0104 82.2822 38.769 81.5236 38.769 80.5878C38.769 79.6519 38.0104 78.8933 37.0746 78.8933C36.1388 78.8933 35.3801 79.6519 35.3801 80.5878C35.3801 81.5236 36.1388 82.2822 37.0746 82.2822Z" fill="#00C7FB"/>
<path d="M61.0001 55.6455C61.9359 55.6455 62.6946 54.8868 62.6946 53.951C62.6946 53.0152 61.9359 52.2566 61.0001 52.2566C60.0643 52.2566 59.3057 53.0152 59.3057 53.951C59.3057 54.8868 60.0643 55.6455 61.0001 55.6455Z" fill="#00C7FB"/>
<path d="M61.0001 68.9299C61.9359 68.9299 62.6946 68.1713 62.6946 67.2355C62.6946 66.2996 61.9359 65.541 61.0001 65.541C60.0643 65.541 59.3057 66.2996 59.3057 67.2355C59.3057 68.1713 60.0643 68.9299 61.0001 68.9299Z" fill="#00C7FB"/>
<path d="M61.0001 75.5722C61.9359 75.5722 62.6946 74.8136 62.6946 73.8778C62.6946 72.942 61.9359 72.1833 61.0001 72.1833C60.0643 72.1833 59.3057 72.942 59.3057 73.8778C59.3057 74.8136 60.0643 75.5722 61.0001 75.5722Z" fill="#00C7FB"/>
<path d="M61.0001 82.2822C61.9359 82.2822 62.6946 81.5236 62.6946 80.5878C62.6946 79.6519 61.9359 78.8933 61.0001 78.8933C60.0643 78.8933 59.3057 79.6519 59.3057 80.5878C59.3057 81.5236 60.0643 82.2822 61.0001 82.2822Z" fill="#00C7FB"/>
<path d="M55.0355 78.8933C55.9713 78.8933 56.73 78.1347 56.73 77.1988C56.73 76.263 55.9713 75.5044 55.0355 75.5044C54.0997 75.5044 53.3411 76.263 53.3411 77.1988C53.3411 78.1347 54.0997 78.8933 55.0355 78.8933Z" fill="#00C7FB"/>
<path d="M49.0033 75.5722C49.9391 75.5722 50.6977 74.8136 50.6977 73.8778C50.6977 72.942 49.9391 72.1833 49.0033 72.1833C48.0675 72.1833 47.3088 72.942 47.3088 73.8778C47.3088 74.8136 48.0675 75.5722 49.0033 75.5722Z" fill="#00C7FB"/>
<path d="M37.0746 68.9299C38.0104 68.9299 38.769 68.1713 38.769 67.2355C38.769 66.2996 38.0104 65.541 37.0746 65.541C36.1388 65.541 35.3801 66.2996 35.3801 67.2355C35.3801 68.1713 36.1388 68.9299 37.0746 68.9299Z" fill="#00C7FB"/>
<path d="M43.0389 39.04C43.9747 39.04 44.7334 38.2814 44.7334 37.3456C44.7334 36.4098 43.9747 35.6511 43.0389 35.6511C42.1031 35.6511 41.3445 36.4098 41.3445 37.3456C41.3445 38.2814 42.1031 39.04 43.0389 39.04Z" fill="white"/>
<path d="M61.0001 62.2878C61.9359 62.2878 62.6946 61.5292 62.6946 60.5934C62.6946 59.6576 61.9359 58.8989 61.0001 58.8989C60.0643 58.8989 59.3057 59.6576 59.3057 60.5934C59.3057 61.5292 60.0643 62.2878 61.0001 62.2878Z" fill="#00C7FB"/>
<path d="M43.0389 72.2512C43.9747 72.2512 44.7334 71.4926 44.7334 70.5567C44.7334 69.6209 43.9747 68.8623 43.0389 68.8623C42.1031 68.8623 41.3445 69.6209 41.3445 70.5567C41.3445 71.4926 42.1031 72.2512 43.0389 72.2512Z" fill="#00C7FB"/>
<path d="M31.0421 58.9668C31.9779 58.9668 32.7365 58.2081 32.7365 57.2723C32.7365 56.3365 31.9779 55.5779 31.0421 55.5779C30.1063 55.5779 29.3477 56.3365 29.3477 57.2723C29.3477 58.2081 30.1063 58.9668 31.0421 58.9668Z" fill="#00C7FB"/>
<path d="M31.0421 52.3244C31.9779 52.3244 32.7365 51.5658 32.7365 50.63C32.7365 49.6942 31.9779 48.9355 31.0421 48.9355C30.1063 48.9355 29.3477 49.6942 29.3477 50.63C29.3477 51.5658 30.1063 52.3244 31.0421 52.3244Z" fill="#00C7FB"/>
<path d="M31.0421 45.6823C31.9779 45.6823 32.7365 44.9237 32.7365 43.9879C32.7365 43.0521 31.9779 42.2935 31.0421 42.2935C30.1063 42.2935 29.3477 43.0521 29.3477 43.9879C29.3477 44.9237 30.1063 45.6823 31.0421 45.6823Z" fill="#00C7FB"/>
<path d="M31.0421 39.1079C31.9779 39.1079 32.7365 38.3493 32.7365 37.4134C32.7365 36.4776 31.9779 35.719 31.0421 35.719C30.1063 35.719 29.3477 36.4776 29.3477 37.4134C29.3477 38.3493 30.1063 39.1079 31.0421 39.1079Z" fill="#00C7FB"/>
<path d="M31.0421 65.6089C31.9779 65.6089 32.7365 64.8502 32.7365 63.9144C32.7365 62.9786 31.9779 62.22 31.0421 62.22C30.1063 62.22 29.3477 62.9786 29.3477 63.9144C29.3477 64.8502 30.1063 65.6089 31.0421 65.6089Z" fill="#00C7FB"/>
<path d="M90.9579 78.8933C91.8937 78.8933 92.6523 78.1347 92.6523 77.1988C92.6523 76.263 91.8937 75.5044 90.9579 75.5044C90.0221 75.5044 89.2634 76.263 89.2634 77.1988C89.2634 78.1347 90.0221 78.8933 90.9579 78.8933Z" fill="#00C7FB"/>
<path d="M96.9222 75.5722C97.858 75.5722 98.6167 74.8136 98.6167 73.8778C98.6167 72.942 97.858 72.1833 96.9222 72.1833C95.9864 72.1833 95.2278 72.942 95.2278 73.8778C95.2278 74.8136 95.9864 75.5722 96.9222 75.5722Z" fill="#00C7FB"/>
<path d="M102.887 72.2512C103.822 72.2512 104.581 71.4926 104.581 70.5567C104.581 69.6209 103.822 68.8623 102.887 68.8623C101.951 68.8623 101.192 69.6209 101.192 70.5567C101.192 71.4926 101.951 72.2512 102.887 72.2512Z" fill="#00C7FB"/>
<path d="M108.919 75.5722C109.855 75.5722 110.613 74.8136 110.613 73.8778C110.613 72.942 109.855 72.1833 108.919 72.1833C107.983 72.1833 107.224 72.942 107.224 73.8778C107.224 74.8136 107.983 75.5722 108.919 75.5722Z" fill="#00C7FB"/>
<path d="M108.919 82.2143C109.855 82.2143 110.613 81.4557 110.613 80.5199C110.613 79.5841 109.855 78.8254 108.919 78.8254C107.983 78.8254 107.224 79.5841 107.224 80.5199C107.224 81.4557 107.983 82.2143 108.919 82.2143Z" fill="#00C7FB"/>
<path d="M31.0421 78.8933C31.9779 78.8933 32.7365 78.1347 32.7365 77.1988C32.7365 76.263 31.9779 75.5044 31.0421 75.5044C30.1063 75.5044 29.3477 76.263 29.3477 77.1988C29.3477 78.1347 30.1063 78.8933 31.0421 78.8933Z" fill="#00C7FB"/>
<path d="M25.0777 75.5722C26.0136 75.5722 26.7722 74.8136 26.7722 73.8778C26.7722 72.942 26.0136 72.1833 25.0777 72.1833C24.1419 72.1833 23.3833 72.942 23.3833 73.8778C23.3833 74.8136 24.1419 75.5722 25.0777 75.5722Z" fill="#00C7FB"/>
<path d="M19.1134 72.2512C20.0492 72.2512 20.8078 71.4926 20.8078 70.5567C20.8078 69.6209 20.0492 68.8623 19.1134 68.8623C18.1776 68.8623 17.4189 69.6209 17.4189 70.5567C17.4189 71.4926 18.1776 72.2512 19.1134 72.2512Z" fill="#00C7FB"/>
<path d="M13.0812 75.5722C14.017 75.5722 14.7756 74.8136 14.7756 73.8778C14.7756 72.942 14.017 72.1833 13.0812 72.1833C12.1453 72.1833 11.3867 72.942 11.3867 73.8778C11.3867 74.8136 12.1453 75.5722 13.0812 75.5722Z" fill="#00C7FB"/>
<path d="M61.0001 49.0713C61.9359 49.0713 62.6946 48.3126 62.6946 47.3768C62.6946 46.441 61.9359 45.6824 61.0001 45.6824C60.0643 45.6824 59.3057 46.441 59.3057 47.3768C59.3057 48.3126 60.0643 49.0713 61.0001 49.0713Z" fill="white"/>
<path d="M55.0355 45.75C55.9713 45.75 56.73 44.9913 56.73 44.0555C56.73 43.1197 55.9713 42.3611 55.0355 42.3611C54.0997 42.3611 53.3411 43.1197 53.3411 44.0555C53.3411 44.9913 54.0997 45.75 55.0355 45.75Z" fill="white"/>
<path d="M49.0033 42.4289C49.9391 42.4289 50.6977 41.6703 50.6977 40.7345C50.6977 39.7987 49.9391 39.04 49.0033 39.04C48.0675 39.04 47.3088 39.7987 47.3088 40.7345C47.3088 41.6703 48.0675 42.4289 49.0033 42.4289Z" fill="white"/>
<path d="M37.0746 35.8545C38.0104 35.8545 38.769 35.0958 38.769 34.16C38.769 33.2242 38.0104 32.4656 37.0746 32.4656C36.1388 32.4656 35.3801 33.2242 35.3801 34.16C35.3801 35.0958 36.1388 35.8545 37.0746 35.8545Z" fill="white"/>
<path d="M31.0421 32.5334C31.9779 32.5334 32.7365 31.7748 32.7365 30.839C32.7365 29.9032 31.9779 29.1445 31.0421 29.1445C30.1063 29.1445 29.3477 29.9032 29.3477 30.839C29.3477 31.7748 30.1063 32.5334 31.0421 32.5334Z" fill="white"/>
<path d="M66.9645 78.8933C67.9003 78.8933 68.6589 78.1347 68.6589 77.1988C68.6589 76.263 67.9003 75.5044 66.9645 75.5044C66.0286 75.5044 65.27 76.263 65.27 77.1988C65.27 78.1347 66.0286 78.8933 66.9645 78.8933Z" fill="#00C7FB"/>
<path d="M72.9967 75.5722C73.9325 75.5722 74.6911 74.8136 74.6911 73.8778C74.6911 72.942 73.9325 72.1833 72.9967 72.1833C72.0609 72.1833 71.3022 72.942 71.3022 73.8778C71.3022 74.8136 72.0609 75.5722 72.9967 75.5722Z" fill="#00C7FB"/>
<path d="M84.9256 68.9299C85.8615 68.9299 86.6201 68.1713 86.6201 67.2355C86.6201 66.2996 85.8615 65.541 84.9256 65.541C83.9898 65.541 83.2312 66.2996 83.2312 67.2355C83.2312 68.1713 83.9898 68.9299 84.9256 68.9299Z" fill="#00C7FB"/>
<path d="M78.961 39.04C79.8969 39.04 80.6555 38.2814 80.6555 37.3456C80.6555 36.4098 79.8969 35.6511 78.961 35.6511C78.0252 35.6511 77.2666 36.4098 77.2666 37.3456C77.2666 38.2814 78.0252 39.04 78.961 39.04Z" fill="white"/>
<path d="M78.961 72.2512C79.8969 72.2512 80.6555 71.4926 80.6555 70.5567C80.6555 69.6209 79.8969 68.8623 78.961 68.8623C78.0252 68.8623 77.2666 69.6209 77.2666 70.5567C77.2666 71.4926 78.0252 72.2512 78.961 72.2512Z" fill="#00C7FB"/>
<path d="M90.9579 52.3244C91.8937 52.3244 92.6523 51.5658 92.6523 50.63C92.6523 49.6942 91.8937 48.9355 90.9579 48.9355C90.0221 48.9355 89.2634 49.6942 89.2634 50.63C89.2634 51.5658 90.0221 52.3244 90.9579 52.3244Z" fill="#00C7FB"/>
<path d="M90.9579 45.6823C91.8937 45.6823 92.6523 44.9237 92.6523 43.9879C92.6523 43.0521 91.8937 42.2935 90.9579 42.2935C90.0221 42.2935 89.2634 43.0521 89.2634 43.9879C89.2634 44.9237 90.0221 45.6823 90.9579 45.6823Z" fill="#00C7FB"/>
<path d="M90.9579 39.1079C91.8937 39.1079 92.6523 38.3493 92.6523 37.4134C92.6523 36.4776 91.8937 35.719 90.9579 35.719C90.0221 35.719 89.2634 36.4776 89.2634 37.4134C89.2634 38.3493 90.0221 39.1079 90.9579 39.1079Z" fill="#00C7FB"/>
<path d="M90.9579 65.6089C91.8937 65.6089 92.6523 64.8502 92.6523 63.9144C92.6523 62.9786 91.8937 62.22 90.9579 62.22C90.0221 62.22 89.2634 62.9786 89.2634 63.9144C89.2634 64.8502 90.0221 65.6089 90.9579 65.6089Z" fill="#00C7FB"/>
<path d="M66.9645 45.75C67.9003 45.75 68.6589 44.9913 68.6589 44.0555C68.6589 43.1197 67.9003 42.3611 66.9645 42.3611C66.0286 42.3611 65.27 43.1197 65.27 44.0555C65.27 44.9913 66.0286 45.75 66.9645 45.75Z" fill="white"/>
<path d="M72.9967 42.4289C73.9325 42.4289 74.6911 41.6703 74.6911 40.7345C74.6911 39.7987 73.9325 39.04 72.9967 39.04C72.0609 39.04 71.3022 39.7987 71.3022 40.7345C71.3022 41.6703 72.0609 42.4289 72.9967 42.4289Z" fill="white"/>
<path d="M84.9256 35.8545C85.8615 35.8545 86.6201 35.0958 86.6201 34.16C86.6201 33.2242 85.8615 32.4656 84.9256 32.4656C83.9898 32.4656 83.2312 33.2242 83.2312 34.16C83.2312 35.0958 83.9898 35.8545 84.9256 35.8545Z" fill="white"/>
<path d="M90.9579 32.5334C91.8937 32.5334 92.6523 31.7748 92.6523 30.839C92.6523 29.9032 91.8937 29.1445 90.9579 29.1445C90.0221 29.1445 89.2634 29.9032 89.2634 30.839C89.2634 31.7748 90.0221 32.5334 90.9579 32.5334Z" fill="white"/>
<path d="M49.0033 22.5022C49.9391 22.5022 50.6977 21.7435 50.6977 20.8077C50.6977 19.8719 49.9391 19.1133 49.0033 19.1133C48.0675 19.1133 47.3088 19.8719 47.3088 20.8077C47.3088 21.7435 48.0675 22.5022 49.0033 22.5022Z" fill="white"/>
<path d="M37.0746 29.2121C38.0104 29.2121 38.769 28.4535 38.769 27.5177C38.769 26.5819 38.0104 25.8232 37.0746 25.8232C36.1388 25.8232 35.3801 26.5819 35.3801 27.5177C35.3801 28.4535 36.1388 29.2121 37.0746 29.2121Z" fill="white"/>
<path d="M43.0389 25.8911C43.9747 25.8911 44.7334 25.1325 44.7334 24.1966C44.7334 23.2608 43.9747 22.5022 43.0389 22.5022C42.1031 22.5022 41.3445 23.2608 41.3445 24.1966C41.3445 25.1325 42.1031 25.8911 43.0389 25.8911Z" fill="white"/>
<path d="M55.0355 19.3166C55.9713 19.3166 56.73 18.558 56.73 17.6222C56.73 16.6864 55.9713 15.9277 55.0355 15.9277C54.0997 15.9277 53.3411 16.6864 53.3411 17.6222C53.3411 18.558 54.0997 19.3166 55.0355 19.3166Z" fill="white"/>
<path d="M61.0001 15.9956C61.9359 15.9956 62.6946 15.237 62.6946 14.3011C62.6946 13.3653 61.9359 12.6067 61.0001 12.6067C60.0643 12.6067 59.3057 13.3653 59.3057 14.3011C59.3057 15.237 60.0643 15.9956 61.0001 15.9956Z" fill="white"/>
<path d="M84.9256 29.3479C85.8615 29.3479 86.6201 28.5892 86.6201 27.6534C86.6201 26.7176 85.8615 25.959 84.9256 25.959C83.9898 25.959 83.2312 26.7176 83.2312 27.6534C83.2312 28.5892 83.9898 29.3479 84.9256 29.3479Z" fill="white"/>
<path d="M78.961 26.0266C79.8969 26.0266 80.6555 25.268 80.6555 24.3321C80.6555 23.3963 79.8969 22.6377 78.961 22.6377C78.0252 22.6377 77.2666 23.3963 77.2666 24.3321C77.2666 25.268 78.0252 26.0266 78.961 26.0266Z" fill="white"/>
<path d="M72.9967 22.7055C73.9325 22.7055 74.6911 21.9469 74.6911 21.0111C74.6911 20.0753 73.9325 19.3167 72.9967 19.3167C72.0609 19.3167 71.3022 20.0753 71.3022 21.0111C71.3022 21.9469 72.0609 22.7055 72.9967 22.7055Z" fill="white"/>
<path d="M66.9645 19.3166C67.9003 19.3166 68.6589 18.558 68.6589 17.6222C68.6589 16.6864 67.9003 15.9277 66.9645 15.9277C66.0286 15.9277 65.27 16.6864 65.27 17.6222C65.27 18.558 66.0286 19.3166 66.9645 19.3166Z" fill="white"/>
<path d="M78.961 105.462C79.8969 105.462 80.6555 104.704 80.6555 103.768C80.6555 102.832 79.8969 102.073 78.961 102.073C78.0252 102.073 77.2666 102.832 77.2666 103.768C77.2666 104.704 78.0252 105.462 78.961 105.462Z" fill="#00C7FB"/>
<path d="M72.9967 108.783C73.9325 108.783 74.6911 108.025 74.6911 107.089C74.6911 106.153 73.9325 105.395 72.9967 105.395C72.0609 105.395 71.3022 106.153 71.3022 107.089C71.3022 108.025 72.0609 108.783 72.9967 108.783Z" fill="#00C7FB"/>
<path d="M66.9645 112.172C67.9003 112.172 68.6589 111.414 68.6589 110.478C68.6589 109.542 67.9003 108.783 66.9645 108.783C66.0286 108.783 65.27 109.542 65.27 110.478C65.27 111.414 66.0286 112.172 66.9645 112.172Z" fill="#00C7FB"/>
<path d="M61.0001 115.493C61.9359 115.493 62.6946 114.735 62.6946 113.799C62.6946 112.863 61.9359 112.104 61.0001 112.104C60.0643 112.104 59.3057 112.863 59.3057 113.799C59.3057 114.735 60.0643 115.493 61.0001 115.493Z" fill="#00C7FB"/>
<path d="M55.0355 112.172C55.9713 112.172 56.73 111.414 56.73 110.478C56.73 109.542 55.9713 108.783 55.0355 108.783C54.0997 108.783 53.3411 109.542 53.3411 110.478C53.3411 111.414 54.0997 112.172 55.0355 112.172Z" fill="#00C7FB"/>
<path d="M43.0389 105.53C43.9747 105.53 44.7334 104.771 44.7334 103.836C44.7334 102.9 43.9747 102.141 43.0389 102.141C42.1031 102.141 41.3445 102.9 41.3445 103.836C41.3445 104.771 42.1031 105.53 43.0389 105.53Z" fill="#00C7FB"/>
<path d="M49.0033 108.851C49.9391 108.851 50.6977 108.092 50.6977 107.157C50.6977 106.221 49.9391 105.462 49.0033 105.462C48.0675 105.462 47.3088 106.221 47.3088 107.157C47.3088 108.092 48.0675 108.851 49.0033 108.851Z" fill="#00C7FB"/>
<path d="M90.9579 98.82C91.8937 98.82 92.6523 98.0614 92.6523 97.1256C92.6523 96.1898 91.8937 95.4312 90.9579 95.4312C90.0221 95.4312 89.2634 96.1898 89.2634 97.1256C89.2634 98.0614 90.0221 98.82 90.9579 98.82Z" fill="#00C7FB"/>
<path d="M84.9256 102.141C85.8615 102.141 86.6201 101.382 86.6201 100.447C86.6201 99.5108 85.8615 98.7522 84.9256 98.7522C83.9898 98.7522 83.2312 99.5108 83.2312 100.447C83.2312 101.382 83.9898 102.141 84.9256 102.141Z" fill="#00C7FB"/>
<path d="M37.0746 102.209C38.0104 102.209 38.769 101.45 38.769 100.515C38.769 99.5787 38.0104 98.8201 37.0746 98.8201C36.1388 98.8201 35.3801 99.5787 35.3801 100.515C35.3801 101.45 36.1388 102.209 37.0746 102.209Z" fill="#00C7FB"/>
<path d="M96.9222 95.499C97.858 95.499 98.6167 94.7404 98.6167 93.8046C98.6167 92.8687 97.858 92.1101 96.9222 92.1101C95.9864 92.1101 95.2278 92.8687 95.2278 93.8046C95.2278 94.7404 95.9864 95.499 96.9222 95.499Z" fill="#00C7FB"/>
<path d="M102.887 92.1777C103.822 92.1777 104.581 91.4191 104.581 90.4833C104.581 89.5474 103.822 88.7888 102.887 88.7888C101.951 88.7888 101.192 89.5474 101.192 90.4833C101.192 91.4191 101.951 92.1777 102.887 92.1777Z" fill="#00C7FB"/>
<path d="M108.919 88.8567C109.855 88.8567 110.613 88.098 110.613 87.1622C110.613 86.2264 109.855 85.4678 108.919 85.4678C107.983 85.4678 107.224 86.2264 107.224 87.1622C107.224 88.098 107.983 88.8567 108.919 88.8567Z" fill="#00C7FB"/>
<path d="M25.0777 95.5666C26.0136 95.5666 26.7722 94.808 26.7722 93.8722C26.7722 92.9364 26.0136 92.1777 25.0777 92.1777C24.1419 92.1777 23.3833 92.9364 23.3833 93.8722C23.3833 94.808 24.1419 95.5666 25.0777 95.5666Z" fill="#00C7FB"/>
<path d="M31.0421 98.8879C31.9779 98.8879 32.7365 98.1293 32.7365 97.1935C32.7365 96.2577 31.9779 95.499 31.0421 95.499C30.1063 95.499 29.3477 96.2577 29.3477 97.1935C29.3477 98.1293 30.1063 98.8879 31.0421 98.8879Z" fill="#00C7FB"/>
<path d="M19.1134 92.2456C20.0492 92.2456 20.8078 91.487 20.8078 90.5511C20.8078 89.6153 20.0492 88.8567 19.1134 88.8567C18.1776 88.8567 17.4189 89.6153 17.4189 90.5511C17.4189 91.487 18.1776 92.2456 19.1134 92.2456Z" fill="#00C7FB"/>
<path d="M13.0812 82.2822C14.017 82.2822 14.7756 81.5236 14.7756 80.5878C14.7756 79.6519 14.017 78.8933 13.0812 78.8933C12.1453 78.8933 11.3867 79.6519 11.3867 80.5878C11.3867 81.5236 12.1453 82.2822 13.0812 82.2822Z" fill="#00C7FB"/>
<path d="M13.0812 88.9245C14.017 88.9245 14.7756 88.1659 14.7756 87.2301C14.7756 86.2943 14.017 85.5356 13.0812 85.5356C12.1453 85.5356 11.3867 86.2943 11.3867 87.2301C11.3867 88.1659 12.1453 88.9245 13.0812 88.9245Z" fill="#00C7FB"/>
<path d="M13.0812 68.9299C14.017 68.9299 14.7756 68.1713 14.7756 67.2355C14.7756 66.2996 14.017 65.541 13.0812 65.541C12.1453 65.541 11.3867 66.2996 11.3867 67.2355C11.3867 68.1713 12.1453 68.9299 13.0812 68.9299Z" fill="#00C7FB"/>
<path d="M19.1134 65.6089C20.0492 65.6089 20.8078 64.8502 20.8078 63.9144C20.8078 62.9786 20.0492 62.22 19.1134 62.22C18.1776 62.22 17.4189 62.9786 17.4189 63.9144C17.4189 64.8502 18.1776 65.6089 19.1134 65.6089Z" fill="#00C7FB"/>
<path d="M25.0777 62.2878C26.0136 62.2878 26.7722 61.5292 26.7722 60.5934C26.7722 59.6576 26.0136 58.8989 25.0777 58.8989C24.1419 58.8989 23.3833 59.6576 23.3833 60.5934C23.3833 61.5292 24.1419 62.2878 25.0777 62.2878Z" fill="#00C7FB"/>
</svg>
