<svg width="413" height="413" viewBox="0 0 413 413" fill="none" xmlns="http://www.w3.org/2000/svg">
<path d="M130.666 336.619C127.803 334.957 125.017 333.248 122.308 331.494L146.562 296.164C148.255 297.261 149.986 298.334 151.757 299.385L130.666 336.619Z" fill="url(#paint0_linear_89_2781)"/>
<path d="M166.882 351.714C163.749 350.838 160.671 349.878 157.648 348.833L171.917 308.55C173.783 309.23 175.704 309.826 177.68 310.337L166.882 351.714Z" fill="url(#paint1_linear_89_2781)"/>
<path d="M82.6192 292.377C80.8615 289.749 79.0968 287.02 77.3252 284.19L114.161 262.49C115.214 264.277 116.322 265.98 117.485 267.598L82.6192 292.377Z" fill="url(#paint2_linear_89_2781)"/>
<path d="M292.38 329.916C289.72 331.797 286.991 333.562 284.193 335.21L262.493 298.374C264.203 297.367 265.906 296.259 267.601 295.05L292.38 329.916Z" fill="url(#paint3_linear_89_2781)"/>
<path d="M119.563 329.499C116.886 327.621 114.265 325.659 111.698 323.612L138.903 290.626C140.486 291.892 142.085 293.096 143.7 294.238L119.563 329.499Z" fill="url(#paint4_linear_89_2781)"/>
<path d="M90.6794 302.861C88.565 300.338 86.5283 297.769 84.5693 295.155L119.435 270.376C120.597 271.994 121.838 273.566 123.156 275.093L90.6794 302.861Z" fill="url(#paint5_linear_89_2781)"/>
<path d="M99.535 312.561C97.2333 310.253 94.9864 307.861 92.7942 305.384L125.271 277.615C126.634 279.22 128.03 280.7 129.458 282.058L99.535 312.561Z" fill="url(#paint6_linear_89_2781)"/>
<path d="M109.186 321.479C106.697 319.387 104.262 317.209 101.883 314.947L131.806 284.443C133.279 285.878 134.807 287.229 136.391 288.494L109.186 321.479Z" fill="url(#paint7_linear_89_2781)"/>
<path d="M219.121 356.428C215.824 356.696 212.559 356.84 209.325 356.86L208.879 314.255C210.937 314.194 212.949 314.055 214.916 313.839L219.121 356.428Z" fill="url(#paint8_linear_89_2781)"/>
<path d="M244.891 351.926C241.713 352.751 238.529 353.475 235.337 354.099L227.531 312.062C229.529 311.722 231.52 311.282 233.505 310.741L244.891 351.926Z" fill="url(#paint9_linear_89_2781)"/>
<path d="M257.476 347.965C254.358 349.069 251.255 350.112 248.169 351.092L236.714 309.791C238.699 309.25 240.637 308.631 242.53 307.935L257.476 347.965Z" fill="url(#paint10_linear_89_2781)"/>
<path d="M179.76 354.649C176.563 354.02 173.382 353.33 170.217 352.577L180.83 311.152C182.806 311.662 184.798 312.112 186.805 312.499L179.76 354.649Z" fill="url(#paint11_linear_89_2781)"/>
<path d="M281.278 336.928C278.48 338.576 275.614 340.107 272.679 341.522L254.194 302.949C256.073 302.051 257.868 301.099 259.577 300.092L281.278 336.928Z" fill="url(#paint12_linear_89_2781)"/>
<path d="M269.627 343.006C266.647 344.343 263.62 345.603 260.548 346.784L245.602 306.754C247.495 306.058 249.381 305.261 251.26 304.363L269.627 343.006Z" fill="url(#paint13_linear_89_2781)"/>
<path d="M192.857 356.356C189.564 356.097 186.303 355.715 183.074 355.21L190.119 313.059C192.159 313.323 194.176 313.548 196.17 313.735L192.857 356.356Z" fill="url(#paint14_linear_89_2781)"/>
<path d="M232.105 354.747C228.868 355.293 225.623 355.739 222.372 356.084L218.352 313.543C220.319 313.326 222.301 313.048 224.299 312.709L232.105 354.747Z" fill="url(#paint15_linear_89_2781)"/>
<path d="M205.937 356.971C202.658 356.914 199.395 356.795 196.148 356.614L199.461 313.993C201.533 314.133 203.559 314.196 205.539 314.181L205.937 356.971Z" fill="url(#paint16_linear_89_2781)"/>
<path d="M154.477 347.717C151.407 346.594 148.393 345.386 145.433 344.094L163.01 305.161C164.845 305.964 166.757 306.722 168.746 307.434L154.477 347.717Z" fill="url(#paint17_linear_89_2781)"/>
<path d="M69.9291 142.357C71.2991 139.352 72.7767 136.44 74.3617 133.622L111.527 154.596C110.6 156.398 109.673 158.201 108.746 160.003L69.9291 142.357Z" fill="url(#paint18_linear_89_2781)"/>
<path d="M60.8912 166.997C61.7215 163.786 62.6592 160.669 63.7045 157.645L103.987 171.915C103.353 173.859 102.757 175.78 102.2 177.678L60.8912 166.997Z" fill="url(#paint19_linear_89_2781)"/>
<path d="M64.8208 154.475C65.9439 151.406 67.1904 148.369 68.5604 145.363L107.446 163.126C106.642 164.96 105.861 166.833 105.103 168.745L64.8208 154.475Z" fill="url(#paint20_linear_89_2781)"/>
<path d="M83.0372 119.562C84.9151 116.885 86.9004 114.303 88.9933 111.813L121.91 138.902C120.69 140.562 119.509 142.201 118.366 143.816L83.0372 119.562Z" fill="url(#paint21_linear_89_2781)"/>
<path d="M76.0335 130.597C77.6186 127.779 79.35 125.031 81.2279 122.355L116.372 146.561C115.275 148.254 114.202 149.985 113.151 151.756L76.0335 130.597Z" fill="url(#paint22_linear_89_2781)"/>
<path d="M117.451 84.6857L142.278 119.366C140.628 120.652 139.017 121.915 137.445 123.156L109.676 90.6792C112.199 88.5648 114.791 86.567 117.451 84.6857Z" fill="url(#paint23_linear_89_2781)"/>
<path d="M75.6094 281.277C74.039 278.434 72.5074 275.568 71.0147 272.678L109.657 254.311C110.509 256.112 111.438 257.867 112.446 259.577L75.6094 281.277Z" fill="url(#paint24_linear_89_2781)"/>
<path d="M99.975 99.5339C102.283 97.2321 104.676 94.9852 107.153 92.7931L134.921 125.27C133.44 126.665 131.96 128.061 130.479 129.457L99.975 99.5339Z" fill="url(#paint25_linear_89_2781)"/>
<path d="M91.0556 109.184C93.1485 106.695 95.326 104.261 97.5882 101.881L128.161 131.921C126.726 133.394 125.352 134.884 124.041 136.389L91.0556 109.184Z" fill="url(#paint26_linear_89_2781)"/>
<path d="M60.6111 244.888C59.8317 241.788 59.13 238.643 58.506 235.451L100.544 227.645C100.884 229.643 101.301 231.596 101.796 233.502L60.6111 244.888Z" fill="url(#paint27_linear_89_2781)"/>
<path d="M64.5707 257.473C63.4666 254.355 62.4859 251.269 61.6288 248.215L102.745 236.712C103.286 238.696 103.905 240.635 104.601 242.528L64.5707 257.473Z" fill="url(#paint28_linear_89_2781)"/>
<path d="M69.5303 269.626C68.193 266.645 66.9564 263.657 65.8203 260.662L105.851 245.717C106.501 247.532 107.275 249.379 108.173 251.258L69.5303 269.626Z" fill="url(#paint29_linear_89_2781)"/>
<path d="M57.7905 232.105C57.2442 228.867 56.7986 225.623 56.4535 222.372L98.9946 218.352C99.2108 220.318 99.4888 222.301 99.8285 224.299L57.7905 232.105Z" fill="url(#paint30_linear_89_2781)"/>
<path d="M58.0733 179.806C58.5788 176.577 59.2078 173.38 59.9604 170.215L101.455 180.944C100.944 182.92 100.533 184.889 100.224 186.851L58.0733 179.806Z" fill="url(#paint31_linear_89_2781)"/>
<path d="M56.2969 192.785C56.6013 189.57 57.0061 186.348 57.5117 183.119L99.6622 190.165C99.2747 192.173 98.9879 194.173 98.8017 196.167L56.2969 192.785Z" fill="url(#paint32_linear_89_2781)"/>
<path d="M56.1088 219.12C55.8415 215.823 55.6975 212.558 55.6772 209.325L98.4677 208.927C98.4827 210.907 98.5594 212.903 98.6978 214.915L56.1088 219.12Z" fill="url(#paint33_linear_89_2781)"/>
<path d="M55.5659 205.936C55.6232 202.657 55.7423 199.394 55.9231 196.147L98.5445 199.461C98.404 201.532 98.3413 203.558 98.3563 205.538L55.5659 205.936Z" fill="url(#paint34_linear_89_2781)"/>
<path d="M142.244 342.676C139.316 341.26 136.404 339.783 133.508 338.244L154.598 301.009C156.369 302.06 158.171 302.987 160.006 303.791L142.244 342.676Z" fill="url(#paint35_linear_89_2781)"/>
<path d="M270.295 69.8599C273.223 71.2756 276.135 72.7532 279.03 74.2925L257.94 111.527C256.138 110.6 254.335 109.672 252.533 108.745L270.295 69.8599Z" fill="url(#paint36_linear_89_2781)"/>
<path d="M258.13 64.9354C261.199 66.0584 264.214 67.2661 267.173 68.5584L249.528 107.375C247.616 106.617 245.726 105.898 243.86 105.218L258.13 64.9354Z" fill="url(#paint37_linear_89_2781)"/>
<path d="M245.54 60.8886C248.751 61.7189 251.891 62.6956 254.96 63.8186L240.69 104.101C238.824 103.421 236.903 102.825 234.927 102.314L245.54 60.8886Z" fill="url(#paint38_linear_89_2781)"/>
<path d="M232.848 58.0028C236 58.5541 239.181 59.2449 242.391 60.0751L231.594 101.453C229.663 101.02 227.733 100.586 225.803 100.153L232.848 58.0028Z" fill="url(#paint39_linear_89_2781)"/>
<path d="M303.42 91.1716C305.909 93.2645 308.321 95.4032 310.654 97.5876L280.732 128.091C279.226 126.78 277.721 125.468 276.215 124.157L303.42 91.1716Z" fill="url(#paint40_linear_89_2781)"/>
<path d="M313.072 100.089C315.328 102.319 317.552 104.673 319.744 107.15L287.267 134.919C285.949 133.392 284.553 131.911 283.08 130.476L313.072 100.089Z" fill="url(#paint41_linear_89_2781)"/>
<path d="M219.752 56.2957C223.045 56.5542 226.306 56.9363 229.535 57.4418L222.49 99.5922C220.45 99.3283 218.433 99.1033 216.439 98.917L219.752 56.2957Z" fill="url(#paint42_linear_89_2781)"/>
<path d="M281.939 76.032C284.757 77.6171 287.505 79.3485 290.181 81.2264L265.975 116.37C264.283 115.274 262.574 114.239 260.849 113.266L281.939 76.032Z" fill="url(#paint43_linear_89_2781)"/>
<path d="M292.974 83.0352C295.65 84.9131 298.272 86.8755 300.839 88.9227L273.634 121.908C272.051 120.642 270.452 119.438 268.837 118.296L292.974 83.0352Z" fill="url(#paint44_linear_89_2781)"/>
<path d="M180.501 57.9061C183.693 57.2821 186.914 56.7975 190.166 56.4525L194.254 99.1102C192.288 99.3264 190.305 99.6044 188.307 99.9441L180.501 57.9061Z" fill="url(#paint45_linear_89_2781)"/>
<path d="M142.98 69.6467C145.915 68.2317 148.919 66.9333 151.991 65.7514L166.937 105.782C165.09 106.556 163.204 107.353 161.279 108.173L142.98 69.6467Z" fill="url(#paint46_linear_89_2781)"/>
<path d="M206.669 55.6799C209.902 55.6595 213.165 55.7785 216.458 56.037L213.076 98.5418C211.05 98.4791 209.024 98.4164 206.998 98.3537L206.669 55.6799Z" fill="url(#paint47_linear_89_2781)"/>
<path d="M120.157 82.6182C122.864 80.8147 125.593 79.05 128.344 77.3242L150.045 114.16C148.381 115.245 146.678 116.353 144.936 117.484L120.157 82.6182Z" fill="url(#paint48_linear_89_2781)"/>
<path d="M155.061 64.5686C158.179 63.4645 161.304 62.4609 164.436 61.558L175.822 102.743C173.884 103.362 171.945 103.98 170.007 104.599L155.061 64.5686Z" fill="url(#paint49_linear_89_2781)"/>
<path d="M131.26 75.6074C134.103 74.037 136.97 72.5054 139.859 71.0127L158.343 109.587C156.51 110.562 154.716 111.514 152.96 112.444L131.26 75.6074Z" fill="url(#paint50_linear_89_2781)"/>
<path d="M193.486 56.2231C196.737 55.878 199.98 55.6952 203.213 55.6749L203.611 98.4654C201.631 98.4804 199.634 98.5571 197.622 98.6956L193.486 56.2231Z" fill="url(#paint51_linear_89_2781)"/>
<path d="M302.863 321.856C300.34 323.97 297.771 326.007 295.157 327.966L270.261 293.169C271.957 291.961 273.568 290.697 275.095 289.379L302.863 321.856Z" fill="url(#paint52_linear_89_2781)"/>
<path d="M321.926 109.79C323.994 112.235 326.008 114.765 327.967 117.38L293.17 142.275C291.962 140.58 290.721 139.007 289.449 137.558L321.926 109.79Z" fill="url(#paint53_linear_89_2781)"/>
<path d="M167.649 60.6097C170.826 59.7845 174.011 59.0599 177.203 58.4359L185.009 100.474C182.978 100.937 181.01 101.416 179.103 101.911L167.649 60.6097Z" fill="url(#paint54_linear_89_2781)"/>
<path d="M354.534 232.846C353.983 235.997 353.292 239.178 352.462 242.389L311.153 231.708C311.664 229.732 312.074 227.763 312.384 225.801L354.534 232.846Z" fill="url(#paint55_linear_89_2781)"/>
<path d="M347.788 258.176C346.665 261.245 345.419 264.283 344.049 267.288L305.163 249.526C305.967 247.692 306.748 245.818 307.506 243.906L347.788 258.176Z" fill="url(#paint56_linear_89_2781)"/>
<path d="M336.505 281.938C334.92 284.756 333.211 287.542 331.379 290.296L296.166 265.974C297.308 264.359 298.366 262.689 299.339 260.964L336.505 281.938Z" fill="url(#paint57_linear_89_2781)"/>
<path d="M351.717 245.655C350.841 248.788 349.904 251.906 348.904 255.007L308.622 240.737C309.178 238.839 309.712 236.902 310.223 234.926L351.717 245.655Z" fill="url(#paint58_linear_89_2781)"/>
<path d="M342.677 270.293C341.261 273.221 339.784 276.133 338.244 279.029L301.01 257.939C301.983 256.214 302.91 254.412 303.792 252.531L342.677 270.293Z" fill="url(#paint59_linear_89_2781)"/>
<path d="M312.632 313.117C310.279 315.341 307.863 317.549 305.386 319.742L277.618 287.265C279.144 285.947 280.625 284.551 282.06 283.078L312.632 313.117Z" fill="url(#paint60_linear_89_2781)"/>
<path d="M321.482 303.35C319.389 305.839 317.212 308.274 314.949 310.653L284.446 280.73C285.803 279.303 287.153 277.774 288.497 276.145L321.482 303.35Z" fill="url(#paint61_linear_89_2781)"/>
<path d="M329.5 292.974C327.623 295.651 325.66 298.272 323.613 300.839L290.628 273.634C291.894 272.051 293.098 270.452 294.24 268.837L329.5 292.974Z" fill="url(#paint62_linear_89_2781)"/>
<path d="M356.973 206.6C356.915 209.879 356.796 213.142 356.616 216.389L313.994 213.076C314.103 211.127 314.165 209.101 314.182 206.998L356.973 206.6Z" fill="url(#paint63_linear_89_2781)"/>
<path d="M347.967 155.061C349.071 158.179 350.075 161.304 350.978 164.436L309.793 175.822C309.298 173.915 308.679 171.977 307.937 170.006L347.967 155.061Z" fill="url(#paint64_linear_89_2781)"/>
<path d="M343.008 142.909C344.345 145.89 345.605 148.916 346.787 151.989L306.756 166.934C306.06 165.042 305.286 163.194 304.434 161.393L343.008 142.909Z" fill="url(#paint65_linear_89_2781)"/>
<path d="M356.31 219.866C356.005 223.081 355.6 226.303 355.095 229.532L312.944 222.487C313.208 220.447 313.472 218.407 313.736 216.367L356.31 219.866Z" fill="url(#paint66_linear_89_2781)"/>
<path d="M351.926 167.646C352.751 170.824 353.476 174.009 354.1 177.2L312.062 185.006C311.645 183.054 311.204 181.062 310.741 179.032L351.926 167.646Z" fill="url(#paint67_linear_89_2781)"/>
<path d="M336.928 131.258C338.544 134.179 340.076 137.045 341.522 139.857L302.949 158.341C302.019 156.585 301.067 154.791 300.091 152.958L336.928 131.258Z" fill="url(#paint68_linear_89_2781)"/>
<path d="M329.918 120.157C331.721 122.863 333.486 125.592 335.212 128.344L298.376 150.044C297.291 148.38 296.206 146.716 295.121 145.053L329.918 120.157Z" fill="url(#paint69_linear_89_2781)"/>
<path d="M356.382 193.601C356.682 196.774 356.864 200.017 356.931 203.327L314.14 203.725C314.079 201.668 313.98 199.633 313.841 197.621L356.382 193.601Z" fill="url(#paint70_linear_89_2781)"/>
<path d="M354.746 180.43C355.293 183.667 355.738 186.911 356.083 190.163L313.611 194.299C313.349 192.255 313.048 190.234 312.708 188.235L354.746 180.43Z" fill="url(#paint71_linear_89_2781)"/>
<path d="M162.022 194.399C163.142 194.399 164.088 194.172 164.862 193.719C165.635 193.239 166.262 192.612 166.742 191.839C167.222 191.066 167.555 190.186 167.742 189.199C167.955 188.186 168.062 187.159 168.062 186.119V171.599H174.622V186.119C174.622 188.092 174.368 189.932 173.862 191.639C173.382 193.346 172.622 194.839 171.582 196.119C170.568 197.399 169.262 198.412 167.662 199.159C166.088 199.879 164.208 200.239 162.022 200.239C159.755 200.239 157.822 199.852 156.222 199.079C154.622 198.306 153.315 197.279 152.302 195.999C151.315 194.692 150.582 193.186 150.102 191.479C149.648 189.772 149.422 187.986 149.422 186.119V171.599H155.982V186.119C155.982 187.212 156.088 188.252 156.302 189.239C156.515 190.226 156.862 191.106 157.342 191.879C157.822 192.652 158.435 193.266 159.182 193.719C159.955 194.172 160.902 194.399 162.022 194.399ZM196.744 179.919C196.664 179.812 196.384 179.612 195.904 179.319C195.424 179.026 194.824 178.719 194.104 178.399C193.384 178.079 192.598 177.799 191.744 177.559C190.891 177.319 190.038 177.199 189.184 177.199C186.838 177.199 185.664 177.986 185.664 179.559C185.664 180.039 185.784 180.439 186.024 180.759C186.291 181.079 186.664 181.372 187.144 181.639C187.651 181.879 188.278 182.106 189.024 182.319C189.771 182.532 190.638 182.772 191.624 183.039C192.984 183.412 194.211 183.826 195.304 184.279C196.398 184.706 197.318 185.252 198.064 185.919C198.838 186.559 199.424 187.346 199.824 188.279C200.251 189.212 200.464 190.332 200.464 191.639C200.464 193.239 200.158 194.599 199.544 195.719C198.958 196.812 198.171 197.706 197.184 198.399C196.198 199.066 195.064 199.559 193.784 199.879C192.504 200.172 191.184 200.319 189.824 200.319C188.784 200.319 187.718 200.239 186.624 200.079C185.531 199.919 184.464 199.692 183.424 199.399C182.384 199.079 181.371 198.706 180.384 198.279C179.424 197.852 178.531 197.359 177.704 196.799L180.584 191.079C180.691 191.212 181.038 191.466 181.624 191.839C182.211 192.212 182.931 192.586 183.784 192.959C184.664 193.332 185.638 193.666 186.704 193.959C187.771 194.252 188.851 194.399 189.944 194.399C192.264 194.399 193.424 193.692 193.424 192.279C193.424 191.746 193.251 191.306 192.904 190.959C192.558 190.612 192.078 190.306 191.464 190.039C190.851 189.746 190.118 189.479 189.264 189.239C188.438 188.999 187.531 188.732 186.544 188.439C185.238 188.039 184.104 187.612 183.144 187.159C182.184 186.679 181.384 186.132 180.744 185.519C180.131 184.906 179.664 184.199 179.344 183.399C179.051 182.599 178.904 181.666 178.904 180.599C178.904 179.106 179.184 177.786 179.744 176.639C180.304 175.492 181.064 174.532 182.024 173.759C182.984 172.959 184.091 172.359 185.344 171.959C186.624 171.559 187.971 171.359 189.384 171.359C190.371 171.359 191.344 171.452 192.304 171.639C193.264 171.826 194.184 172.066 195.064 172.359C195.944 172.652 196.758 172.986 197.504 173.359C198.278 173.732 198.984 174.106 199.624 174.479L196.744 179.919ZM224.274 194.239V199.999H204.314V171.599H223.914V177.359H210.874V182.879H222.074V188.199H210.874V194.239H224.274ZM244.713 179.919C244.633 179.812 244.353 179.612 243.873 179.319C243.393 179.026 242.793 178.719 242.073 178.399C241.353 178.079 240.566 177.799 239.713 177.559C238.86 177.319 238.006 177.199 237.153 177.199C234.806 177.199 233.633 177.986 233.633 179.559C233.633 180.039 233.753 180.439 233.993 180.759C234.26 181.079 234.633 181.372 235.113 181.639C235.62 181.879 236.246 182.106 236.993 182.319C237.74 182.532 238.606 182.772 239.593 183.039C240.953 183.412 242.18 183.826 243.273 184.279C244.366 184.706 245.286 185.252 246.033 185.919C246.806 186.559 247.393 187.346 247.793 188.279C248.22 189.212 248.433 190.332 248.433 191.639C248.433 193.239 248.126 194.599 247.513 195.719C246.926 196.812 246.14 197.706 245.153 198.399C244.166 199.066 243.033 199.559 241.753 199.879C240.473 200.172 239.153 200.319 237.793 200.319C236.753 200.319 235.686 200.239 234.593 200.079C233.5 199.919 232.433 199.692 231.393 199.399C230.353 199.079 229.34 198.706 228.353 198.279C227.393 197.852 226.5 197.359 225.673 196.799L228.553 191.079C228.66 191.212 229.006 191.466 229.593 191.839C230.18 192.212 230.9 192.586 231.753 192.959C232.633 193.332 233.606 193.666 234.673 193.959C235.74 194.252 236.82 194.399 237.913 194.399C240.233 194.399 241.393 193.692 241.393 192.279C241.393 191.746 241.22 191.306 240.873 190.959C240.526 190.612 240.046 190.306 239.433 190.039C238.82 189.746 238.086 189.479 237.233 189.239C236.406 188.999 235.5 188.732 234.513 188.439C233.206 188.039 232.073 187.612 231.113 187.159C230.153 186.679 229.353 186.132 228.713 185.519C228.1 184.906 227.633 184.199 227.313 183.399C227.02 182.599 226.873 181.666 226.873 180.599C226.873 179.106 227.153 177.786 227.713 176.639C228.273 175.492 229.033 174.532 229.993 173.759C230.953 172.959 232.06 172.359 233.313 171.959C234.593 171.559 235.94 171.359 237.353 171.359C238.34 171.359 239.313 171.452 240.273 171.639C241.233 171.826 242.153 172.066 243.033 172.359C243.913 172.652 244.726 172.986 245.473 173.359C246.246 173.732 246.953 174.106 247.593 174.479L244.713 179.919ZM131.539 247.239C129.432 247.239 127.512 246.826 125.779 245.999C124.046 245.172 122.566 244.092 121.339 242.759C120.112 241.399 119.152 239.852 118.459 238.119C117.792 236.386 117.459 234.599 117.459 232.759C117.459 230.892 117.806 229.092 118.499 227.359C119.219 225.626 120.206 224.106 121.459 222.799C122.739 221.466 124.246 220.412 125.979 219.639C127.712 218.839 129.606 218.439 131.659 218.439C133.766 218.439 135.686 218.852 137.419 219.679C139.152 220.506 140.632 221.599 141.859 222.959C143.086 224.319 144.032 225.866 144.699 227.599C145.366 229.332 145.699 231.092 145.699 232.879C145.699 234.746 145.339 236.546 144.619 238.279C143.926 240.012 142.952 241.546 141.699 242.879C140.446 244.186 138.952 245.239 137.219 246.039C135.486 246.839 133.592 247.239 131.539 247.239ZM124.139 232.839C124.139 233.932 124.299 234.999 124.619 236.039C124.939 237.052 125.406 237.959 126.019 238.759C126.659 239.559 127.446 240.199 128.379 240.679C129.312 241.159 130.379 241.399 131.579 241.399C132.832 241.399 133.926 241.146 134.859 240.639C135.792 240.132 136.566 239.479 137.179 238.679C137.792 237.852 138.246 236.932 138.539 235.919C138.859 234.879 139.019 233.826 139.019 232.759C139.019 231.666 138.859 230.612 138.539 229.599C138.219 228.559 137.739 227.652 137.099 226.879C136.459 226.079 135.672 225.452 134.739 224.999C133.832 224.519 132.779 224.279 131.579 224.279C130.326 224.279 129.232 224.532 128.299 225.039C127.392 225.519 126.619 226.159 125.979 226.959C125.366 227.759 124.899 228.679 124.579 229.719C124.286 230.732 124.139 231.772 124.139 232.839ZM149.49 246.999V218.599H168.77V224.359H156.05V230.479H166.53V235.799H156.05V246.999H149.49ZM180.7 246.999V218.599H199.98V224.359H187.26V230.479H197.74V235.799H187.26V246.999H180.7ZM215.674 241.399C216.794 241.399 217.741 241.172 218.514 240.719C219.287 240.239 219.914 239.612 220.394 238.839C220.874 238.066 221.207 237.186 221.394 236.199C221.607 235.186 221.714 234.159 221.714 233.119V218.599H228.274V233.119C228.274 235.092 228.021 236.932 227.514 238.639C227.034 240.346 226.274 241.839 225.234 243.119C224.221 244.399 222.914 245.412 221.314 246.159C219.741 246.879 217.861 247.239 215.674 247.239C213.407 247.239 211.474 246.852 209.874 246.079C208.274 245.306 206.967 244.279 205.954 242.999C204.967 241.692 204.234 240.186 203.754 238.479C203.301 236.772 203.074 234.986 203.074 233.119V218.599H209.634V233.119C209.634 234.212 209.741 235.252 209.954 236.239C210.167 237.226 210.514 238.106 210.994 238.879C211.474 239.652 212.087 240.266 212.834 240.719C213.607 241.172 214.554 241.399 215.674 241.399ZM239.917 230.759V246.999H233.357V218.599H238.477L251.717 235.279V218.599H258.277V246.999H252.997L239.917 230.759ZM263.708 246.999V218.599H274.308C276.655 218.599 278.708 218.972 280.468 219.719C282.228 220.466 283.695 221.479 284.868 222.759C286.068 224.039 286.962 225.546 287.548 227.279C288.162 228.986 288.468 230.812 288.468 232.759C288.468 234.919 288.135 236.879 287.468 238.639C286.802 240.372 285.842 241.866 284.588 243.119C283.362 244.346 281.868 245.306 280.108 245.999C278.375 246.666 276.442 246.999 274.308 246.999H263.708ZM281.788 232.759C281.788 231.506 281.615 230.372 281.268 229.359C280.948 228.319 280.468 227.426 279.828 226.679C279.188 225.932 278.402 225.359 277.468 224.959C276.535 224.559 275.482 224.359 274.308 224.359H270.268V241.239H274.308C275.508 241.239 276.575 241.026 277.508 240.599C278.442 240.172 279.215 239.586 279.828 238.839C280.468 238.066 280.948 237.172 281.268 236.159C281.615 235.119 281.788 233.986 281.788 232.759Z" fill="black"/>
<defs>
<linearGradient id="paint0_linear_89_2781" x1="171.973" y1="396.608" x2="40.2588" y2="245.258" gradientUnits="userSpaceOnUse">
<stop stop-color="#28C6E3"/>
<stop offset="1" stop-color="#008FD1"/>
</linearGradient>
<linearGradient id="paint1_linear_89_2781" x1="183.423" y1="386.723" x2="51.6403" y2="235.256" gradientUnits="userSpaceOnUse">
<stop stop-color="#28C6E3"/>
<stop offset="1" stop-color="#008FD1"/>
</linearGradient>
<linearGradient id="paint2_linear_89_2781" x1="168.653" y1="399.503" x2="36.9401" y2="248.155" gradientUnits="userSpaceOnUse">
<stop stop-color="#28C6E3"/>
<stop offset="1" stop-color="#008FD1"/>
</linearGradient>
<linearGradient id="paint3_linear_89_2781" x1="382.326" y1="256.83" x2="237.656" y2="386.022" gradientUnits="userSpaceOnUse">
<stop stop-color="#FB49A3"/>
<stop offset="1" stop-color="#863EA0"/>
</linearGradient>
<linearGradient id="paint4_linear_89_2781" x1="169.8" y1="398.516" x2="38.0854" y2="247.167" gradientUnits="userSpaceOnUse">
<stop stop-color="#28C6E3"/>
<stop offset="1" stop-color="#008FD1"/>
</linearGradient>
<linearGradient id="paint5_linear_89_2781" x1="168.023" y1="400.033" x2="36.3092" y2="248.684" gradientUnits="userSpaceOnUse">
<stop stop-color="#28C6E3"/>
<stop offset="1" stop-color="#008FD1"/>
</linearGradient>
<linearGradient id="paint6_linear_89_2781" x1="168.023" y1="400.033" x2="36.3095" y2="248.684" gradientUnits="userSpaceOnUse">
<stop stop-color="#28C6E3"/>
<stop offset="1" stop-color="#008FD1"/>
</linearGradient>
<linearGradient id="paint7_linear_89_2781" x1="168.421" y1="399.642" x2="36.7073" y2="248.292" gradientUnits="userSpaceOnUse">
<stop stop-color="#28C6E3"/>
<stop offset="1" stop-color="#008FD1"/>
</linearGradient>
<linearGradient id="paint8_linear_89_2781" x1="362.938" y1="235.118" x2="218.268" y2="364.311" gradientUnits="userSpaceOnUse">
<stop stop-color="#FB49A3"/>
<stop offset="1" stop-color="#863EA0"/>
</linearGradient>
<linearGradient id="paint9_linear_89_2781" x1="372.207" y1="245.519" x2="227.537" y2="374.711" gradientUnits="userSpaceOnUse">
<stop stop-color="#FB49A3"/>
<stop offset="1" stop-color="#863EA0"/>
</linearGradient>
<linearGradient id="paint10_linear_89_2781" x1="375.817" y1="249.514" x2="231.147" y2="378.706" gradientUnits="userSpaceOnUse">
<stop stop-color="#FB49A3"/>
<stop offset="1" stop-color="#863EA0"/>
</linearGradient>
<linearGradient id="paint11_linear_89_2781" x1="188.682" y1="382.055" x2="56.9676" y2="230.705" gradientUnits="userSpaceOnUse">
<stop stop-color="#28C6E3"/>
<stop offset="1" stop-color="#008FD1"/>
</linearGradient>
<linearGradient id="paint12_linear_89_2781" x1="380.875" y1="255.172" x2="236.275" y2="384.48" gradientUnits="userSpaceOnUse">
<stop stop-color="#FB49A3"/>
<stop offset="1" stop-color="#863EA0"/>
</linearGradient>
<linearGradient id="paint13_linear_89_2781" x1="378.645" y1="252.717" x2="234.161" y2="381.957" gradientUnits="userSpaceOnUse">
<stop stop-color="#FB49A3"/>
<stop offset="1" stop-color="#863EA0"/>
</linearGradient>
<linearGradient id="paint14_linear_89_2781" x1="194.688" y1="376.79" x2="62.9733" y2="225.44" gradientUnits="userSpaceOnUse">
<stop stop-color="#28C6E3"/>
<stop offset="1" stop-color="#008FD1"/>
</linearGradient>
<linearGradient id="paint15_linear_89_2781" x1="367.812" y1="240.727" x2="223.259" y2="369.85" gradientUnits="userSpaceOnUse">
<stop stop-color="#FB49A3"/>
<stop offset="1" stop-color="#863EA0"/>
</linearGradient>
<linearGradient id="paint16_linear_89_2781" x1="201.439" y1="370.927" x2="69.725" y2="219.577" gradientUnits="userSpaceOnUse">
<stop stop-color="#28C6E3"/>
<stop offset="1" stop-color="#008FD1"/>
</linearGradient>
<linearGradient id="paint17_linear_89_2781" x1="178.726" y1="390.746" x2="47.0119" y2="239.396" gradientUnits="userSpaceOnUse">
<stop stop-color="#28C6E3"/>
<stop offset="1" stop-color="#008FD1"/>
</linearGradient>
<linearGradient id="paint18_linear_89_2781" x1="51.2659" y1="134.666" x2="267.635" y2="71.7402" gradientUnits="userSpaceOnUse">
<stop stop-color="#5E5BAF"/>
<stop offset="1" stop-color="#1C4EA9"/>
</linearGradient>
<linearGradient id="paint19_linear_89_2781" x1="56.9591" y1="153.925" x2="273.328" y2="90.9989" gradientUnits="userSpaceOnUse">
<stop stop-color="#5E5BAF"/>
<stop offset="1" stop-color="#1C4EA9"/>
</linearGradient>
<linearGradient id="paint20_linear_89_2781" x1="54.0238" y1="143.877" x2="270.461" y2="81.068" gradientUnits="userSpaceOnUse">
<stop stop-color="#5E5BAF"/>
<stop offset="1" stop-color="#1C4EA9"/>
</linearGradient>
<linearGradient id="paint21_linear_89_2781" x1="46.5704" y1="118.433" x2="263.008" y2="55.6234" gradientUnits="userSpaceOnUse">
<stop stop-color="#5E5BAF"/>
<stop offset="1" stop-color="#1C4EA9"/>
</linearGradient>
<linearGradient id="paint22_linear_89_2781" x1="48.8525" y1="126.039" x2="265.29" y2="63.2294" gradientUnits="userSpaceOnUse">
<stop stop-color="#5E5BAF"/>
<stop offset="1" stop-color="#1C4EA9"/>
</linearGradient>
<linearGradient id="paint23_linear_89_2781" x1="125.638" y1="132.176" x2="150.514" y2="102.996" gradientUnits="userSpaceOnUse">
<stop stop-color="#FF8F2C"/>
<stop offset="1" stop-color="#FF5424"/>
</linearGradient>
<linearGradient id="paint24_linear_89_2781" x1="170.197" y1="398.126" x2="38.483" y2="246.776" gradientUnits="userSpaceOnUse">
<stop stop-color="#28C6E3"/>
<stop offset="1" stop-color="#008FD1"/>
</linearGradient>
<linearGradient id="paint25_linear_89_2781" x1="42.9134" y1="105.827" x2="259.351" y2="43.0173" gradientUnits="userSpaceOnUse">
<stop stop-color="#5E5BAF"/>
<stop offset="1" stop-color="#1C4EA9"/>
</linearGradient>
<linearGradient id="paint26_linear_89_2781" x1="44.6516" y1="111.711" x2="261.02" y2="48.7851" gradientUnits="userSpaceOnUse">
<stop stop-color="#5E5BAF"/>
<stop offset="1" stop-color="#1C4EA9"/>
</linearGradient>
<linearGradient id="paint27_linear_89_2781" x1="179.638" y1="389.894" x2="47.9235" y2="238.545" gradientUnits="userSpaceOnUse">
<stop stop-color="#28C6E3"/>
<stop offset="1" stop-color="#008FD1"/>
</linearGradient>
<linearGradient id="paint28_linear_89_2781" x1="175.689" y1="393.32" x2="43.9748" y2="241.97" gradientUnits="userSpaceOnUse">
<stop stop-color="#28C6E3"/>
<stop offset="1" stop-color="#008FD1"/>
</linearGradient>
<linearGradient id="paint29_linear_89_2781" x1="172.487" y1="396.148" x2="40.772" y2="244.798" gradientUnits="userSpaceOnUse">
<stop stop-color="#28C6E3"/>
<stop offset="1" stop-color="#008FD1"/>
</linearGradient>
<linearGradient id="paint30_linear_89_2781" x1="20.368" y1="234.858" x2="320.964" y2="261.239" gradientUnits="userSpaceOnUse">
<stop stop-color="#5E5BAF"/>
<stop offset="1" stop-color="#1C4EA9"/>
</linearGradient>
<linearGradient id="paint31_linear_89_2781" x1="23.623" y1="178.739" x2="316.956" y2="139.233" gradientUnits="userSpaceOnUse">
<stop stop-color="#5E5BAF"/>
<stop offset="1" stop-color="#1C4EA9"/>
</linearGradient>
<linearGradient id="paint32_linear_89_2781" x1="20.7648" y1="192.837" x2="324.281" y2="166.532" gradientUnits="userSpaceOnUse">
<stop stop-color="#5E5BAF"/>
<stop offset="1" stop-color="#1C4EA9"/>
</linearGradient>
<linearGradient id="paint33_linear_89_2781" x1="18.964" y1="221.078" x2="327.672" y2="228.497" gradientUnits="userSpaceOnUse">
<stop stop-color="#5E5BAF"/>
<stop offset="1" stop-color="#1C4EA9"/>
</linearGradient>
<linearGradient id="paint34_linear_89_2781" x1="19.0678" y1="206.881" x2="328.284" y2="195.674" gradientUnits="userSpaceOnUse">
<stop stop-color="#5E5BAF"/>
<stop offset="1" stop-color="#1C4EA9"/>
</linearGradient>
<linearGradient id="paint35_linear_89_2781" x1="175.011" y1="394.034" x2="43.228" y2="242.568" gradientUnits="userSpaceOnUse">
<stop stop-color="#28C6E3"/>
<stop offset="1" stop-color="#008FD1"/>
</linearGradient>
<linearGradient id="paint36_linear_89_2781" x1="250.787" y1="115.741" x2="235.748" y2="90.2119" gradientUnits="userSpaceOnUse">
<stop stop-color="#18B04D"/>
<stop offset="1" stop-color="#B8D443"/>
</linearGradient>
<linearGradient id="paint37_linear_89_2781" x1="242.083" y1="111.761" x2="225.739" y2="84.0167" gradientUnits="userSpaceOnUse">
<stop stop-color="#18B04D"/>
<stop offset="1" stop-color="#B8D443"/>
</linearGradient>
<linearGradient id="paint38_linear_89_2781" x1="233.218" y1="108.503" x2="215.569" y2="78.5447" gradientUnits="userSpaceOnUse">
<stop stop-color="#18B04D"/>
<stop offset="1" stop-color="#B8D443"/>
</linearGradient>
<linearGradient id="paint39_linear_89_2781" x1="224.121" y1="105.855" x2="205.443" y2="74.1476" gradientUnits="userSpaceOnUse">
<stop stop-color="#18B04D"/>
<stop offset="1" stop-color="#B8D443"/>
</linearGradient>
<linearGradient id="paint40_linear_89_2781" x1="274.437" y1="131.8" x2="264.136" y2="114.314" gradientUnits="userSpaceOnUse">
<stop stop-color="#18B04D"/>
<stop offset="1" stop-color="#B8D443"/>
</linearGradient>
<linearGradient id="paint41_linear_89_2781" x1="281.439" y1="138.352" x2="272.855" y2="123.781" gradientUnits="userSpaceOnUse">
<stop stop-color="#18B04D"/>
<stop offset="1" stop-color="#B8D443"/>
</linearGradient>
<linearGradient id="paint42_linear_89_2781" x1="214.8" y1="104.122" x2="195.159" y2="70.7833" gradientUnits="userSpaceOnUse">
<stop stop-color="#18B04D"/>
<stop offset="1" stop-color="#B8D443"/>
</linearGradient>
<linearGradient id="paint43_linear_89_2781" x1="259.04" y1="120.456" x2="245.512" y2="97.4917" gradientUnits="userSpaceOnUse">
<stop stop-color="#18B04D"/>
<stop offset="1" stop-color="#B8D443"/>
</linearGradient>
<linearGradient id="paint44_linear_89_2781" x1="266.99" y1="125.822" x2="254.972" y2="105.422" gradientUnits="userSpaceOnUse">
<stop stop-color="#18B04D"/>
<stop offset="1" stop-color="#B8D443"/>
</linearGradient>
<linearGradient id="paint45_linear_89_2781" x1="186.917" y1="103.433" x2="165.354" y2="66.8295" gradientUnits="userSpaceOnUse">
<stop stop-color="#18B04D"/>
<stop offset="1" stop-color="#B8D443"/>
</linearGradient>
<linearGradient id="paint46_linear_89_2781" x1="156.297" y1="114.115" x2="181.172" y2="84.9351" gradientUnits="userSpaceOnUse">
<stop stop-color="#FF8F2C"/>
<stop offset="1" stop-color="#FF5424"/>
</linearGradient>
<linearGradient id="paint47_linear_89_2781" x1="205.445" y1="103.037" x2="185.05" y2="68.4158" gradientUnits="userSpaceOnUse">
<stop stop-color="#18B04D"/>
<stop offset="1" stop-color="#B8D443"/>
</linearGradient>
<linearGradient id="paint48_linear_89_2781" x1="138.152" y1="123.533" x2="158.344" y2="103.656" gradientUnits="userSpaceOnUse">
<stop stop-color="#FF8F2C"/>
<stop offset="1" stop-color="#FF5424"/>
</linearGradient>
<linearGradient id="paint49_linear_89_2781" x1="163.664" y1="111.977" x2="191.258" y2="74.0645" gradientUnits="userSpaceOnUse">
<stop stop-color="#FF8F2C"/>
<stop offset="1" stop-color="#FF5424"/>
</linearGradient>
<linearGradient id="paint50_linear_89_2781" x1="149.461" y1="116.871" x2="169.653" y2="96.9945" gradientUnits="userSpaceOnUse">
<stop stop-color="#FF8F2C"/>
<stop offset="1" stop-color="#FF5424"/>
</linearGradient>
<linearGradient id="paint51_linear_89_2781" x1="196.185" y1="102.84" x2="175.103" y2="67.0528" gradientUnits="userSpaceOnUse">
<stop stop-color="#18B04D"/>
<stop offset="1" stop-color="#B8D443"/>
</linearGradient>
<linearGradient id="paint52_linear_89_2781" x1="382.922" y1="257.577" x2="238.437" y2="386.817" gradientUnits="userSpaceOnUse">
<stop stop-color="#FB49A3"/>
<stop offset="1" stop-color="#863EA0"/>
</linearGradient>
<linearGradient id="paint53_linear_89_2781" x1="287.808" y1="145.434" x2="281.009" y2="133.894" gradientUnits="userSpaceOnUse">
<stop stop-color="#18B04D"/>
<stop offset="1" stop-color="#B8D443"/>
</linearGradient>
<linearGradient id="paint54_linear_89_2781" x1="171.386" y1="110.557" x2="200.056" y2="64.4697" gradientUnits="userSpaceOnUse">
<stop stop-color="#FF8F2C"/>
<stop offset="1" stop-color="#FF5424"/>
</linearGradient>
<linearGradient id="paint55_linear_89_2781" x1="365.445" y1="238.039" x2="220.96" y2="367.279" gradientUnits="userSpaceOnUse">
<stop stop-color="#FB49A3"/>
<stop offset="1" stop-color="#863EA0"/>
</linearGradient>
<linearGradient id="paint56_linear_89_2781" x1="374.116" y1="247.691" x2="229.562" y2="376.815" gradientUnits="userSpaceOnUse">
<stop stop-color="#FB49A3"/>
<stop offset="1" stop-color="#863EA0"/>
</linearGradient>
<linearGradient id="paint57_linear_89_2781" x1="379.84" y1="254.211" x2="235.287" y2="383.334" gradientUnits="userSpaceOnUse">
<stop stop-color="#FB49A3"/>
<stop offset="1" stop-color="#863EA0"/>
</linearGradient>
<linearGradient id="paint58_linear_89_2781" x1="370.114" y1="243.297" x2="225.56" y2="372.421" gradientUnits="userSpaceOnUse">
<stop stop-color="#FB49A3"/>
<stop offset="1" stop-color="#863EA0"/>
</linearGradient>
<linearGradient id="paint59_linear_89_2781" x1="377.334" y1="251.29" x2="232.849" y2="380.531" gradientUnits="userSpaceOnUse">
<stop stop-color="#FB49A3"/>
<stop offset="1" stop-color="#863EA0"/>
</linearGradient>
<linearGradient id="paint60_linear_89_2781" x1="382.991" y1="257.694" x2="238.506" y2="386.934" gradientUnits="userSpaceOnUse">
<stop stop-color="#FB49A3"/>
<stop offset="1" stop-color="#863EA0"/>
</linearGradient>
<linearGradient id="paint61_linear_89_2781" x1="382.785" y1="257.344" x2="238.115" y2="386.536" gradientUnits="userSpaceOnUse">
<stop stop-color="#FB49A3"/>
<stop offset="1" stop-color="#863EA0"/>
</linearGradient>
<linearGradient id="paint62_linear_89_2781" x1="381.61" y1="256.152" x2="237.126" y2="385.393" gradientUnits="userSpaceOnUse">
<stop stop-color="#FB49A3"/>
<stop offset="1" stop-color="#863EA0"/>
</linearGradient>
<linearGradient id="paint63_linear_89_2781" x1="321.761" y1="236.922" x2="306.722" y2="211.393" gradientUnits="userSpaceOnUse">
<stop stop-color="#18B04D"/>
<stop offset="1" stop-color="#B8D443"/>
</linearGradient>
<linearGradient id="paint64_linear_89_2781" x1="310.761" y1="188.128" x2="302.108" y2="173.44" gradientUnits="userSpaceOnUse">
<stop stop-color="#18B04D"/>
<stop offset="1" stop-color="#B8D443"/>
</linearGradient>
<linearGradient id="paint65_linear_89_2781" x1="305.87" y1="176.093" x2="299.072" y2="164.552" gradientUnits="userSpaceOnUse">
<stop stop-color="#18B04D"/>
<stop offset="1" stop-color="#B8D443"/>
</linearGradient>
<linearGradient id="paint66_linear_89_2781" x1="360.248" y1="232.149" x2="215.764" y2="361.389" gradientUnits="userSpaceOnUse">
<stop stop-color="#FB49A3"/>
<stop offset="1" stop-color="#863EA0"/>
</linearGradient>
<linearGradient id="paint67_linear_89_2781" x1="314.816" y1="200.343" x2="304.446" y2="182.74" gradientUnits="userSpaceOnUse">
<stop stop-color="#18B04D"/>
<stop offset="1" stop-color="#B8D443"/>
</linearGradient>
<linearGradient id="paint68_linear_89_2781" x1="300.14" y1="164.235" x2="295.196" y2="155.842" gradientUnits="userSpaceOnUse">
<stop stop-color="#18B04D"/>
<stop offset="1" stop-color="#B8D443"/>
</linearGradient>
<linearGradient id="paint69_linear_89_2781" x1="293.48" y1="152.929" x2="288.535" y2="144.535" gradientUnits="userSpaceOnUse">
<stop stop-color="#18B04D"/>
<stop offset="1" stop-color="#B8D443"/>
</linearGradient>
<linearGradient id="paint70_linear_89_2781" x1="320.327" y1="224.89" x2="306.73" y2="201.81" gradientUnits="userSpaceOnUse">
<stop stop-color="#18B04D"/>
<stop offset="1" stop-color="#B8D443"/>
</linearGradient>
<linearGradient id="paint71_linear_89_2781" x1="318.081" y1="212.55" x2="306.064" y2="192.15" gradientUnits="userSpaceOnUse">
<stop stop-color="#18B04D"/>
<stop offset="1" stop-color="#B8D443"/>
</linearGradient>
</defs>
</svg>
