<svg width="44" height="44" viewBox="0 0 44 44" fill="none" xmlns="http://www.w3.org/2000/svg">
<path d="M43.3125 41.1667L41.8125 39.6667C42.5833 38.5 43.0417 37.0833 43.0417 35.5833C43.0417 31.4583 39.7083 28.125 35.5833 28.125C31.4583 28.125 28.125 31.4583 28.125 35.5833C28.125 39.7083 31.4583 43.0417 35.5833 43.0417C37.1042 43.0417 38.5 42.5833 39.6667 41.8125L41.1667 43.3125C41.4583 43.6042 41.8542 43.75 42.2292 43.75C42.625 43.75 43 43.6042 43.2917 43.3125C43.8958 42.7083 43.8958 41.75 43.3125 41.1667Z" fill="#111111"/>
<path d="M37.6432 11.3161C35.6849 7.21191 32.3724 3.89941 28.2891 1.96191C29.0391 4.44108 29.6641 6.98275 30.0807 9.52441C32.6224 9.94108 35.1641 10.5452 37.6432 11.3161Z" fill="#111111"/>
<path d="M26.7084 9.08334C26.2084 6.375 25.5834 3.66667 24.6875 1.04167C24.6459 0.895834 24.6459 0.770833 24.625 0.604167C23.0834 0.229167 21.4584 0 19.7917 0C18.1042 0 16.5 0.229167 14.9375 0.625C14.9167 0.770833 14.9375 0.895833 14.8958 1.0625C14.0208 3.6875 13.375 6.375 12.875 9.08334C17.4792 8.58334 22.1042 8.58334 26.7084 9.08334Z" fill="#111111"/>
<path d="M38.9557 14.9583C38.8099 14.9583 38.6849 14.9375 38.5182 14.8958C35.8932 14.0208 33.1849 13.375 30.4766 12.875C30.9974 17.4792 30.9974 22.1042 30.4766 26.6875C33.1849 26.1875 35.8932 25.5625 38.5182 24.6667C38.6641 24.625 38.7891 24.6459 38.9557 24.625C39.3307 23.0625 39.5807 21.4584 39.5807 19.7709C39.5807 18.125 39.3516 16.5208 38.9557 14.9583Z" fill="#111111"/>
<path d="M12.875 30.4984C13.375 33.2275 14 35.915 14.8958 38.54C14.9375 38.6859 14.9167 38.8109 14.9375 38.9775C16.5 39.3525 18.1042 39.5817 19.7917 39.5817C21.4584 39.5817 23.0834 39.3525 24.625 38.9567C24.6459 38.8109 24.6459 38.6859 24.6875 38.5192C25.5625 35.8942 26.2084 33.2067 26.7084 30.4775C24.4167 30.7275 22.1042 30.915 19.7917 30.915C17.4792 30.915 15.1667 30.7484 12.875 30.4984Z" fill="#111111"/>
<path d="M12.3984 12.3994C11.7734 17.3161 11.7734 22.2745 12.3984 27.212C17.3151 27.837 22.2735 27.837 27.211 27.212C27.836 22.2953 27.836 17.3369 27.211 12.3994C22.2735 11.7744 17.3151 11.7744 12.3984 12.3994Z" fill="#111111"/>
<path d="M2.15104 28.3945C2.15104 28.457 2.10938 28.5404 2.10938 28.6029C4.02604 32.4362 7.15104 35.582 10.9844 37.4779C11.0469 37.4779 11.1302 37.4362 11.1927 37.4362C10.4844 35.0195 9.94271 32.5404 9.54687 30.0612C7.04687 29.6445 4.56771 29.1029 2.15104 28.3945Z" fill="#111111"/>
<path d="M1.9375 11.3125C4.4375 10.5625 6.97917 9.9375 9.52083 9.52083C9.9375 7.04167 10.4583 4.58333 11.1667 2.16667C11.1042 2.16667 11.0208 2.125 10.9583 2.125C7.04167 4.0625 3.85417 7.33333 1.9375 11.3125Z" fill="#111111"/>
<path d="M9.08333 12.875C6.35417 13.375 3.6875 14.0208 1.04167 14.8958C0.895833 14.9375 0.770833 14.9375 0.625 14.9583C0.229167 16.5 0 18.125 0 19.7917C0 21.4792 0.229167 23.0834 0.625 24.6459C0.770833 24.6667 0.895833 24.6459 1.0625 24.6875C3.6875 25.5625 6.375 26.2084 9.10417 26.7084C8.58333 22.1042 8.58333 17.4792 9.08333 12.875Z" fill="#111111"/>
</svg>
