<svg width="44" height="44" viewBox="0 0 44 44" fill="none" xmlns="http://www.w3.org/2000/svg">
<path d="M43.3945 41.2409L41.8945 39.7409C42.6654 38.5742 43.1237 37.1576 43.1237 35.6576C43.1237 31.5326 39.7904 28.1992 35.6654 28.1992C31.5404 28.1992 28.207 31.5326 28.207 35.6576C28.207 39.7826 31.5404 43.1159 35.6654 43.1159C37.1862 43.1159 38.582 42.6576 39.7487 41.8867L41.2487 43.3867C41.5404 43.6784 41.9362 43.8242 42.3112 43.8242C42.707 43.8242 43.082 43.6784 43.3737 43.3867C43.9779 42.7826 43.9779 41.8242 43.3945 41.2409Z" fill="url(#paint0_linear_89_2908)"/>
<path d="M37.7253 11.3903C35.7669 7.28613 32.4544 3.97363 28.3711 2.03613C29.1211 4.5153 29.7461 7.05697 30.1628 9.59863C32.7044 10.0153 35.2461 10.6195 37.7253 11.3903Z" fill="url(#paint1_linear_89_2908)"/>
<path d="M26.7904 9.15755C26.2904 6.44922 25.6654 3.74089 24.7696 1.11589C24.7279 0.970052 24.7279 0.845052 24.7071 0.678385C23.1654 0.303385 21.5404 0.0742188 19.8737 0.0742188C18.1862 0.0742188 16.582 0.303385 15.0195 0.699219C14.9987 0.845052 15.0195 0.970052 14.9779 1.13672C14.1029 3.76172 13.457 6.44922 12.957 9.15755C17.5612 8.65755 22.1862 8.65755 26.7904 9.15755Z" fill="url(#paint2_linear_89_2908)"/>
<path d="M39.0378 15.0326C38.8919 15.0326 38.7669 15.0117 38.6003 14.9701C35.9753 14.0951 33.2669 13.4492 30.5586 12.9492C31.0794 17.5534 31.0794 22.1784 30.5586 26.7617C33.2669 26.2617 35.9753 25.6367 38.6003 24.7409C38.7461 24.6992 38.8711 24.7201 39.0378 24.6992C39.4128 23.1367 39.6628 21.5326 39.6628 19.8451C39.6628 18.1992 39.4336 16.5951 39.0378 15.0326Z" fill="url(#paint3_linear_89_2908)"/>
<path d="M12.957 30.5726C13.457 33.3018 14.082 35.9893 14.9779 38.6143C15.0195 38.7601 14.9987 38.8851 15.0195 39.0518C16.582 39.4268 18.1862 39.6559 19.8737 39.6559C21.5404 39.6559 23.1654 39.4268 24.7071 39.0309C24.7279 38.8851 24.7279 38.7601 24.7696 38.5934C25.6446 35.9684 26.2904 33.2809 26.7904 30.5518C24.4987 30.8018 22.1862 30.9893 19.8737 30.9893C17.5612 30.9893 15.2487 30.8226 12.957 30.5726Z" fill="url(#paint4_linear_89_2908)"/>
<path d="M12.4805 12.4736C11.8555 17.3903 11.8555 22.3487 12.4805 27.2862C17.3971 27.9112 22.3555 27.9112 27.293 27.2862C27.918 22.3695 27.918 17.4111 27.293 12.4736C22.3555 11.8486 17.3971 11.8486 12.4805 12.4736Z" fill="url(#paint5_linear_89_2908)"/>
<path d="M2.23307 28.4688C2.23307 28.5312 2.19141 28.6146 2.19141 28.6771C4.10807 32.5104 7.23307 35.6562 11.0664 37.5521C11.1289 37.5521 11.2122 37.5104 11.2747 37.5104C10.5664 35.0938 10.0247 32.6146 9.62891 30.1354C7.12891 29.7188 4.64974 29.1771 2.23307 28.4688Z" fill="url(#paint6_linear_89_2908)"/>
<path d="M2.01953 11.3867C4.51953 10.6367 7.0612 10.0117 9.60287 9.59505C10.0195 7.11589 10.5404 4.65755 11.2487 2.24089C11.1862 2.24089 11.1029 2.19922 11.0404 2.19922C7.1237 4.13672 3.9362 7.40755 2.01953 11.3867Z" fill="url(#paint7_linear_89_2908)"/>
<path d="M9.16537 12.9492C6.4362 13.4492 3.76953 14.0951 1.1237 14.9701C0.977865 15.0117 0.852865 15.0117 0.707031 15.0326C0.311198 16.5742 0.0820312 18.1992 0.0820312 19.8659C0.0820312 21.5534 0.311198 23.1576 0.707031 24.7201C0.852865 24.7409 0.977865 24.7201 1.14453 24.7617C3.76953 25.6367 6.45703 26.2826 9.1862 26.7826C8.66537 22.1784 8.66537 17.5534 9.16537 12.9492Z" fill="url(#paint8_linear_89_2908)"/>
<defs>
<linearGradient id="paint0_linear_89_2908" x1="15.454" y1="43.7571" x2="15.454" y2="28.2664" gradientUnits="userSpaceOnUse">
<stop stop-color="#D4D4D4"/>
<stop offset="0.7" stop-color="#F4F4F4"/>
<stop offset="1" stop-color="white"/>
</linearGradient>
<linearGradient id="paint1_linear_89_2908" x1="20.735" y1="11.3501" x2="20.735" y2="2.07634" gradientUnits="userSpaceOnUse">
<stop stop-color="#D4D4D4"/>
<stop offset="0.7" stop-color="#F4F4F4"/>
<stop offset="1" stop-color="white"/>
</linearGradient>
<linearGradient id="paint2_linear_89_2908" x1="1.6645" y1="9.11852" x2="1.6645" y2="0.113258" gradientUnits="userSpaceOnUse">
<stop stop-color="#D4D4D4"/>
<stop offset="0.7" stop-color="#F4F4F4"/>
<stop offset="1" stop-color="white"/>
</linearGradient>
<linearGradient id="paint3_linear_89_2908" x1="23.1266" y1="26.7024" x2="23.1266" y2="13.0086" gradientUnits="userSpaceOnUse">
<stop stop-color="#D4D4D4"/>
<stop offset="0.7" stop-color="#F4F4F4"/>
<stop offset="1" stop-color="white"/>
</linearGradient>
<linearGradient id="paint4_linear_89_2908" x1="1.6645" y1="39.6168" x2="1.6645" y2="30.5909" gradientUnits="userSpaceOnUse">
<stop stop-color="#D4D4D4"/>
<stop offset="0.7" stop-color="#F4F4F4"/>
<stop offset="1" stop-color="white"/>
</linearGradient>
<linearGradient id="paint5_linear_89_2908" x1="-0.84549" y1="27.6873" x2="-0.84549" y2="12.0726" gradientUnits="userSpaceOnUse">
<stop stop-color="#D4D4D4"/>
<stop offset="0.7" stop-color="#F4F4F4"/>
<stop offset="1" stop-color="white"/>
</linearGradient>
<linearGradient id="paint6_linear_89_2908" x1="-5.22356" y1="37.513" x2="-5.22356" y2="28.5078" gradientUnits="userSpaceOnUse">
<stop stop-color="#D4D4D4"/>
<stop offset="0.7" stop-color="#F4F4F4"/>
<stop offset="1" stop-color="white"/>
</linearGradient>
<linearGradient id="paint7_linear_89_2908" x1="-5.51448" y1="11.3472" x2="-5.51448" y2="2.23871" gradientUnits="userSpaceOnUse">
<stop stop-color="#D4D4D4"/>
<stop offset="0.7" stop-color="#F4F4F4"/>
<stop offset="1" stop-color="white"/>
</linearGradient>
<linearGradient id="paint8_linear_89_2908" x1="-7.34994" y1="26.7231" x2="-7.34994" y2="13.0087" gradientUnits="userSpaceOnUse">
<stop stop-color="#D4D4D4"/>
<stop offset="0.7" stop-color="#F4F4F4"/>
<stop offset="1" stop-color="white"/>
</linearGradient>
</defs>
</svg>
