<svg width="278" height="270" viewBox="0 0 278 270" fill="none" xmlns="http://www.w3.org/2000/svg">
<rect x="0.5" y="0.5" width="277" height="269" rx="19.5" fill="#0063FD" stroke="#D4D4D4"/>
<path d="M59.5533 232V219.22H61.5693V232H59.5533ZM72.6476 232H70.6676V226.726C70.6676 225.838 70.5236 225.196 70.2356 224.8C69.9596 224.392 69.5456 224.188 68.9936 224.188C68.7056 224.188 68.4176 224.242 68.1296 224.35C67.8416 224.458 67.5716 224.614 67.3196 224.818C67.0676 225.01 66.8396 225.244 66.6356 225.52C66.4436 225.784 66.2936 226.078 66.1856 226.402V232H64.2056V222.586H66.0056V224.476C66.3656 223.84 66.8876 223.342 67.5716 222.982C68.2556 222.61 69.0116 222.424 69.8396 222.424C70.4036 222.424 70.8656 222.526 71.2256 222.73C71.5856 222.934 71.8676 223.216 72.0716 223.576C72.2876 223.924 72.4376 224.332 72.5216 224.8C72.6056 225.256 72.6476 225.742 72.6476 226.258V232ZM80.0959 231.514C79.8439 231.634 79.4959 231.772 79.0519 231.928C78.6079 232.072 78.1339 232.144 77.6299 232.144C77.3179 232.144 77.0239 232.102 76.7479 232.018C76.4719 231.934 76.2259 231.808 76.0099 231.64C75.8059 231.472 75.6439 231.256 75.5239 230.992C75.4039 230.716 75.3439 230.386 75.3439 230.002V224.116H74.1019V222.586H75.3439V219.49H77.3239V222.586H79.3759V224.116H77.3239V229.372C77.3479 229.708 77.4499 229.954 77.6299 230.11C77.8219 230.254 78.0559 230.326 78.3319 230.326C78.6079 230.326 78.8719 230.278 79.1239 230.182C79.3759 230.086 79.5619 230.008 79.6819 229.948L80.0959 231.514ZM85.5048 232.18C84.7728 232.18 84.1068 232.054 83.5068 231.802C82.9068 231.538 82.3908 231.184 81.9588 230.74C81.5388 230.296 81.2088 229.78 80.9688 229.192C80.7408 228.604 80.6268 227.98 80.6268 227.32C80.6268 226.66 80.7408 226.036 80.9688 225.448C81.2088 224.848 81.5388 224.326 81.9588 223.882C82.3908 223.426 82.9068 223.072 83.5068 222.82C84.1068 222.556 84.7788 222.424 85.5228 222.424C86.2548 222.424 86.9148 222.556 87.5028 222.82C88.1028 223.084 88.6128 223.438 89.0328 223.882C89.4528 224.314 89.7708 224.824 89.9868 225.412C90.2148 225.988 90.3288 226.594 90.3288 227.23C90.3288 227.374 90.3228 227.512 90.3108 227.644C90.2988 227.764 90.2868 227.866 90.2748 227.95H82.7328C82.7688 228.37 82.8648 228.748 83.0208 229.084C83.1888 229.42 83.3988 229.714 83.6508 229.966C83.9148 230.206 84.2088 230.392 84.5328 230.524C84.8688 230.656 85.2168 230.722 85.5768 230.722C85.8408 230.722 86.0988 230.692 86.3508 230.632C86.6148 230.56 86.8548 230.464 87.0708 230.344C87.2868 230.212 87.4788 230.056 87.6468 229.876C87.8148 229.696 87.9468 229.498 88.0428 229.282L89.7348 229.768C89.4108 230.476 88.8708 231.058 88.1148 231.514C87.3708 231.958 86.5008 232.18 85.5048 232.18ZM88.3668 226.582C88.3308 226.186 88.2288 225.82 88.0608 225.484C87.9048 225.148 87.7008 224.866 87.4488 224.638C87.1968 224.398 86.9028 224.212 86.5668 224.08C86.2308 223.948 85.8768 223.882 85.5048 223.882C85.1328 223.882 84.7788 223.948 84.4428 224.08C84.1188 224.212 83.8308 224.398 83.5788 224.638C83.3268 224.866 83.1228 225.148 82.9668 225.484C82.8108 225.82 82.7148 226.186 82.6788 226.582H88.3668ZM97.2359 224.296C96.4679 224.32 95.7839 224.5 95.1839 224.836C94.5959 225.16 94.1759 225.628 93.9239 226.24V232H91.9439V222.586H93.7799V224.692C94.1039 224.044 94.5239 223.528 95.0399 223.144C95.5679 222.748 96.1319 222.532 96.7319 222.496C96.8519 222.496 96.9479 222.496 97.0199 222.496C97.1039 222.496 97.1759 222.502 97.2359 222.514V224.296ZM107.118 232H105.138V226.726C105.138 225.838 104.994 225.196 104.706 224.8C104.43 224.392 104.016 224.188 103.464 224.188C103.176 224.188 102.888 224.242 102.6 224.35C102.312 224.458 102.042 224.614 101.79 224.818C101.538 225.01 101.31 225.244 101.106 225.52C100.914 225.784 100.764 226.078 100.656 226.402V232H98.6763V222.586H100.476V224.476C100.836 223.84 101.358 223.342 102.042 222.982C102.726 222.61 103.482 222.424 104.31 222.424C104.874 222.424 105.336 222.526 105.696 222.73C106.056 222.934 106.338 223.216 106.542 223.576C106.758 223.924 106.908 224.332 106.992 224.8C107.076 225.256 107.118 225.742 107.118 226.258V232ZM111.919 232.18C111.463 232.18 111.037 232.108 110.641 231.964C110.257 231.808 109.921 231.598 109.633 231.334C109.357 231.07 109.135 230.758 108.967 230.398C108.811 230.038 108.733 229.648 108.733 229.228C108.733 228.784 108.829 228.382 109.021 228.022C109.213 227.662 109.483 227.35 109.831 227.086C110.191 226.822 110.611 226.618 111.091 226.474C111.583 226.33 112.123 226.258 112.711 226.258C113.155 226.258 113.593 226.3 114.025 226.384C114.457 226.456 114.847 226.558 115.195 226.69V226.042C115.195 225.346 114.997 224.806 114.601 224.422C114.205 224.026 113.635 223.828 112.891 223.828C112.387 223.828 111.889 223.924 111.397 224.116C110.917 224.296 110.419 224.56 109.903 224.908L109.291 223.648C110.503 222.832 111.763 222.424 113.071 222.424C114.367 222.424 115.375 222.754 116.095 223.414C116.815 224.074 117.175 225.022 117.175 226.258V229.66C117.175 230.08 117.349 230.296 117.697 230.308V232C117.505 232.036 117.337 232.06 117.193 232.072C117.061 232.084 116.929 232.09 116.797 232.09C116.413 232.09 116.113 231.994 115.897 231.802C115.693 231.61 115.567 231.364 115.519 231.064L115.465 230.47C115.045 231.022 114.523 231.448 113.899 231.748C113.287 232.036 112.627 232.18 111.919 232.18ZM112.459 230.722C112.939 230.722 113.389 230.638 113.809 230.47C114.241 230.29 114.577 230.044 114.817 229.732C115.069 229.516 115.195 229.288 115.195 229.048V227.806C114.859 227.674 114.499 227.572 114.115 227.5C113.743 227.428 113.377 227.392 113.017 227.392C112.309 227.392 111.727 227.548 111.271 227.86C110.827 228.16 110.605 228.562 110.605 229.066C110.605 229.534 110.779 229.93 111.127 230.254C111.475 230.566 111.919 230.722 112.459 230.722ZM119.595 218.86H121.575V229.282C121.575 229.63 121.665 229.906 121.845 230.11C122.025 230.302 122.277 230.398 122.601 230.398C122.733 230.398 122.883 230.374 123.051 230.326C123.231 230.278 123.399 230.224 123.555 230.164L123.843 231.712C123.555 231.844 123.213 231.946 122.817 232.018C122.421 232.102 122.067 232.144 121.755 232.144C121.071 232.144 120.537 231.958 120.153 231.586C119.781 231.214 119.595 230.686 119.595 230.002V218.86ZM129.128 232V219.22H131.144V232H129.128ZM142.222 232H140.242V226.726C140.242 225.838 140.098 225.196 139.81 224.8C139.534 224.392 139.12 224.188 138.568 224.188C138.28 224.188 137.992 224.242 137.704 224.35C137.416 224.458 137.146 224.614 136.894 224.818C136.642 225.01 136.414 225.244 136.21 225.52C136.018 225.784 135.868 226.078 135.76 226.402V232H133.78V222.586H135.58V224.476C135.94 223.84 136.462 223.342 137.146 222.982C137.83 222.61 138.586 222.424 139.414 222.424C139.978 222.424 140.44 222.526 140.8 222.73C141.16 222.934 141.442 223.216 141.646 223.576C141.862 223.924 142.012 224.332 142.096 224.8C142.18 225.256 142.222 225.742 142.222 226.258V232ZM149.67 231.514C149.418 231.634 149.07 231.772 148.626 231.928C148.182 232.072 147.708 232.144 147.204 232.144C146.892 232.144 146.598 232.102 146.322 232.018C146.046 231.934 145.8 231.808 145.584 231.64C145.38 231.472 145.218 231.256 145.098 230.992C144.978 230.716 144.918 230.386 144.918 230.002V224.116H143.676V222.586H144.918V219.49H146.898V222.586H148.95V224.116H146.898V229.372C146.922 229.708 147.024 229.954 147.204 230.11C147.396 230.254 147.63 230.326 147.906 230.326C148.182 230.326 148.446 230.278 148.698 230.182C148.95 230.086 149.136 230.008 149.256 229.948L149.67 231.514ZM155.079 232.18C154.347 232.18 153.681 232.054 153.081 231.802C152.481 231.538 151.965 231.184 151.533 230.74C151.113 230.296 150.783 229.78 150.543 229.192C150.315 228.604 150.201 227.98 150.201 227.32C150.201 226.66 150.315 226.036 150.543 225.448C150.783 224.848 151.113 224.326 151.533 223.882C151.965 223.426 152.481 223.072 153.081 222.82C153.681 222.556 154.353 222.424 155.097 222.424C155.829 222.424 156.489 222.556 157.077 222.82C157.677 223.084 158.187 223.438 158.607 223.882C159.027 224.314 159.345 224.824 159.561 225.412C159.789 225.988 159.903 226.594 159.903 227.23C159.903 227.374 159.897 227.512 159.885 227.644C159.873 227.764 159.861 227.866 159.849 227.95H152.307C152.343 228.37 152.439 228.748 152.595 229.084C152.763 229.42 152.973 229.714 153.225 229.966C153.489 230.206 153.783 230.392 154.107 230.524C154.443 230.656 154.791 230.722 155.151 230.722C155.415 230.722 155.673 230.692 155.925 230.632C156.189 230.56 156.429 230.464 156.645 230.344C156.861 230.212 157.053 230.056 157.221 229.876C157.389 229.696 157.521 229.498 157.617 229.282L159.309 229.768C158.985 230.476 158.445 231.058 157.689 231.514C156.945 231.958 156.075 232.18 155.079 232.18ZM157.941 226.582C157.905 226.186 157.803 225.82 157.635 225.484C157.479 225.148 157.275 224.866 157.023 224.638C156.771 224.398 156.477 224.212 156.141 224.08C155.805 223.948 155.451 223.882 155.079 223.882C154.707 223.882 154.353 223.948 154.017 224.08C153.693 224.212 153.405 224.398 153.153 224.638C152.901 224.866 152.697 225.148 152.541 225.484C152.385 225.82 152.289 226.186 152.253 226.582H157.941ZM165.244 232.09C164.608 232.09 164.026 231.964 163.498 231.712C162.97 231.448 162.514 231.094 162.13 230.65C161.758 230.206 161.464 229.696 161.248 229.12C161.044 228.544 160.942 227.938 160.942 227.302C160.942 226.63 161.05 226 161.266 225.412C161.482 224.812 161.782 224.296 162.166 223.864C162.55 223.42 163.006 223.072 163.534 222.82C164.074 222.556 164.668 222.424 165.316 222.424C166.072 222.424 166.732 222.604 167.296 222.964C167.872 223.324 168.346 223.792 168.718 224.368V222.586H170.464V231.73C170.464 232.414 170.338 233.02 170.086 233.548C169.834 234.076 169.48 234.52 169.024 234.88C168.58 235.252 168.052 235.534 167.44 235.726C166.828 235.918 166.168 236.014 165.46 236.014C164.416 236.014 163.546 235.834 162.85 235.474C162.166 235.126 161.59 234.634 161.122 233.998L162.238 232.954C162.598 233.458 163.06 233.842 163.624 234.106C164.2 234.37 164.812 234.502 165.46 234.502C165.868 234.502 166.252 234.448 166.612 234.34C166.984 234.232 167.308 234.064 167.584 233.836C167.86 233.608 168.076 233.32 168.232 232.972C168.4 232.624 168.484 232.21 168.484 231.73V230.29C168.148 230.866 167.686 231.31 167.098 231.622C166.51 231.934 165.892 232.09 165.244 232.09ZM165.892 230.488C166.192 230.488 166.48 230.44 166.756 230.344C167.032 230.236 167.284 230.098 167.512 229.93C167.752 229.75 167.956 229.552 168.124 229.336C168.292 229.108 168.412 228.868 168.484 228.616V226.15C168.364 225.85 168.208 225.58 168.016 225.34C167.824 225.088 167.602 224.872 167.35 224.692C167.11 224.512 166.852 224.374 166.576 224.278C166.3 224.17 166.024 224.116 165.748 224.116C165.316 224.116 164.926 224.212 164.578 224.404C164.242 224.584 163.954 224.83 163.714 225.142C163.474 225.442 163.288 225.784 163.156 226.168C163.024 226.552 162.958 226.948 162.958 227.356C162.958 227.788 163.03 228.196 163.174 228.58C163.33 228.952 163.54 229.282 163.804 229.57C164.068 229.846 164.374 230.068 164.722 230.236C165.082 230.404 165.472 230.488 165.892 230.488ZM178.13 224.296C177.362 224.32 176.678 224.5 176.078 224.836C175.49 225.16 175.07 225.628 174.818 226.24V232H172.838V222.586H174.674V224.692C174.998 224.044 175.418 223.528 175.934 223.144C176.462 222.748 177.026 222.532 177.626 222.496C177.746 222.496 177.842 222.496 177.914 222.496C177.998 222.496 178.07 222.502 178.13 222.514V224.296ZM181.95 232.18C181.494 232.18 181.068 232.108 180.672 231.964C180.288 231.808 179.952 231.598 179.664 231.334C179.388 231.07 179.166 230.758 178.998 230.398C178.842 230.038 178.764 229.648 178.764 229.228C178.764 228.784 178.86 228.382 179.052 228.022C179.244 227.662 179.514 227.35 179.862 227.086C180.222 226.822 180.642 226.618 181.122 226.474C181.614 226.33 182.154 226.258 182.742 226.258C183.186 226.258 183.624 226.3 184.056 226.384C184.488 226.456 184.878 226.558 185.226 226.69V226.042C185.226 225.346 185.028 224.806 184.632 224.422C184.236 224.026 183.666 223.828 182.922 223.828C182.418 223.828 181.92 223.924 181.428 224.116C180.948 224.296 180.45 224.56 179.934 224.908L179.322 223.648C180.534 222.832 181.794 222.424 183.102 222.424C184.398 222.424 185.406 222.754 186.126 223.414C186.846 224.074 187.206 225.022 187.206 226.258V229.66C187.206 230.08 187.38 230.296 187.728 230.308V232C187.536 232.036 187.368 232.06 187.224 232.072C187.092 232.084 186.96 232.09 186.828 232.09C186.444 232.09 186.144 231.994 185.928 231.802C185.724 231.61 185.598 231.364 185.55 231.064L185.496 230.47C185.076 231.022 184.554 231.448 183.93 231.748C183.318 232.036 182.658 232.18 181.95 232.18ZM182.49 230.722C182.97 230.722 183.42 230.638 183.84 230.47C184.272 230.29 184.608 230.044 184.848 229.732C185.1 229.516 185.226 229.288 185.226 229.048V227.806C184.89 227.674 184.53 227.572 184.146 227.5C183.774 227.428 183.408 227.392 183.048 227.392C182.34 227.392 181.758 227.548 181.302 227.86C180.858 228.16 180.636 228.562 180.636 229.066C180.636 229.534 180.81 229.93 181.158 230.254C181.506 230.566 181.95 230.722 182.49 230.722ZM194.776 231.514C194.524 231.634 194.176 231.772 193.732 231.928C193.288 232.072 192.814 232.144 192.31 232.144C191.998 232.144 191.704 232.102 191.428 232.018C191.152 231.934 190.906 231.808 190.69 231.64C190.486 231.472 190.324 231.256 190.204 230.992C190.084 230.716 190.024 230.386 190.024 230.002V224.116H188.782V222.586H190.024V219.49H192.004V222.586H194.056V224.116H192.004V229.372C192.028 229.708 192.13 229.954 192.31 230.11C192.502 230.254 192.736 230.326 193.012 230.326C193.288 230.326 193.552 230.278 193.804 230.182C194.056 230.086 194.242 230.008 194.362 229.948L194.776 231.514ZM196.147 232V222.586H198.127V232H196.147ZM196.147 221.038V218.86H198.127V221.038H196.147ZM204.736 232.18C203.992 232.18 203.32 232.048 202.72 231.784C202.132 231.52 201.628 231.166 201.208 230.722C200.788 230.278 200.464 229.762 200.236 229.174C200.008 228.574 199.894 227.95 199.894 227.302C199.894 226.654 200.008 226.036 200.236 225.448C200.464 224.848 200.788 224.326 201.208 223.882C201.64 223.438 202.15 223.084 202.738 222.82C203.338 222.556 204.004 222.424 204.736 222.424C205.468 222.424 206.128 222.556 206.716 222.82C207.316 223.084 207.826 223.438 208.246 223.882C208.678 224.326 209.008 224.848 209.236 225.448C209.464 226.036 209.578 226.654 209.578 227.302C209.578 227.95 209.464 228.574 209.236 229.174C209.008 229.762 208.678 230.278 208.246 230.722C207.826 231.166 207.316 231.52 206.716 231.784C206.128 232.048 205.468 232.18 204.736 232.18ZM201.928 227.32C201.928 227.776 202 228.196 202.144 228.58C202.288 228.964 202.486 229.3 202.738 229.588C202.99 229.864 203.284 230.086 203.62 230.254C203.968 230.41 204.34 230.488 204.736 230.488C205.132 230.488 205.498 230.41 205.834 230.254C206.182 230.086 206.482 229.858 206.734 229.57C206.986 229.282 207.184 228.946 207.328 228.562C207.472 228.178 207.544 227.758 207.544 227.302C207.544 226.858 207.472 226.444 207.328 226.06C207.184 225.664 206.986 225.322 206.734 225.034C206.482 224.746 206.182 224.524 205.834 224.368C205.498 224.2 205.132 224.116 204.736 224.116C204.352 224.116 203.986 224.2 203.638 224.368C203.302 224.536 203.008 224.764 202.756 225.052C202.504 225.34 202.3 225.682 202.144 226.078C202 226.462 201.928 226.876 201.928 227.32ZM219.776 232H217.796V226.726C217.796 225.838 217.652 225.196 217.364 224.8C217.088 224.392 216.674 224.188 216.122 224.188C215.834 224.188 215.546 224.242 215.258 224.35C214.97 224.458 214.7 224.614 214.448 224.818C214.196 225.01 213.968 225.244 213.764 225.52C213.572 225.784 213.422 226.078 213.314 226.402V232H211.334V222.586H213.134V224.476C213.494 223.84 214.016 223.342 214.7 222.982C215.384 222.61 216.14 222.424 216.968 222.424C217.532 222.424 217.994 222.526 218.354 222.73C218.714 222.934 218.996 223.216 219.2 223.576C219.416 223.924 219.566 224.332 219.65 224.8C219.734 225.256 219.776 225.742 219.776 226.258V232Z" fill="white"/>
<path fill-rule="evenodd" clip-rule="evenodd" d="M144.876 29.0192C178.677 29.6431 210.323 49.4304 219.884 81.8973C228.783 112.116 208.283 140.091 183.178 159.082C156.046 179.605 121.316 196.622 92.8589 177.984C60.7996 156.988 48.2013 115.169 60.8447 78.9617C72.7301 44.9247 108.87 28.3546 144.876 29.0192Z" fill="white" fill-opacity="0.2"/>
<path d="M164.333 112.333C168.936 112.333 172.667 108.602 172.667 104C172.667 99.3975 168.936 95.6665 164.333 95.6665C159.731 95.6665 156 99.3975 156 104C156 108.602 159.731 112.333 164.333 112.333Z" stroke="white" stroke-width="2.5" stroke-linecap="round" stroke-linejoin="round"/>
<path d="M164.333 79.0002C168.936 79.0002 172.667 75.2692 172.667 70.6668C172.667 66.0645 168.936 62.3335 164.333 62.3335C159.731 62.3335 156 66.0645 156 70.6668C156 75.2692 159.731 79.0002 164.333 79.0002Z" stroke="white" stroke-width="2.5" stroke-linecap="round" stroke-linejoin="round"/>
<path d="M164.333 145.667C168.936 145.667 172.667 141.936 172.667 137.333C172.667 132.731 168.936 129 164.333 129C159.731 129 156 132.731 156 137.333C156 141.936 159.731 145.667 164.333 145.667Z" stroke="white" stroke-width="2.5" stroke-linecap="round" stroke-linejoin="round"/>
<path d="M97.6673 112.333C102.27 112.333 106.001 108.602 106.001 104C106.001 99.3975 102.27 95.6665 97.6673 95.6665C93.0649 95.6665 89.334 99.3975 89.334 104C89.334 108.602 93.0649 112.333 97.6673 112.333Z" stroke="white" stroke-width="2.5" stroke-linecap="round" stroke-linejoin="round"/>
<path d="M106 104H156" stroke="white" stroke-width="2.5" stroke-linecap="round" stroke-linejoin="round"/>
<path d="M156.001 70.6665H139.334C131.001 70.6665 126.834 74.8332 126.834 83.1665V124.833C126.834 133.167 131.001 137.333 139.334 137.333H156.001" stroke="white" stroke-width="2.5" stroke-linecap="round" stroke-linejoin="round"/>
</svg>
