<svg width="83" height="83" viewBox="0 0 83 83" fill="none" xmlns="http://www.w3.org/2000/svg">
<path d="M34.1325 76.5589C26.3344 84.3569 13.6464 84.3571 5.8484 76.5591C-1.94955 68.7612 -1.94945 56.073 5.84858 48.2749L19.9907 34.1329C27.7888 26.3348 40.4769 26.3347 48.2748 34.1327C48.5598 34.4098 48.787 34.7408 48.943 35.1065C49.099 35.4722 49.1808 35.8652 49.1836 36.2627C49.1864 36.6603 49.1101 37.0545 48.9593 37.4223C48.8084 37.7901 48.586 38.1243 48.3049 38.4054C48.0238 38.6865 47.6896 38.9089 47.3217 39.0598C46.9539 39.2106 46.5598 39.2869 46.1622 39.2841C45.7647 39.2813 45.3716 39.1995 45.006 39.0435C44.6403 38.8875 44.3093 38.6603 44.0322 38.3753C38.5112 32.8544 29.7543 32.8544 24.2333 38.3755L10.0912 52.5176C4.57016 58.0387 4.5701 66.7955 10.091 72.3164C15.612 77.8374 24.3689 77.8374 29.8898 72.3163L42.6178 59.5884C42.895 59.3035 43.226 59.0764 43.5916 58.9205C43.9573 58.7646 44.3502 58.6829 44.7477 58.6802C45.1452 58.6774 45.5393 58.7537 45.9071 58.9045C46.2748 59.0554 46.6089 59.2777 46.89 59.5588C47.1711 59.8399 47.3935 60.174 47.5443 60.5418C47.6952 60.9096 47.7714 61.3036 47.7687 61.7011C47.7659 62.0986 47.6842 62.4916 47.5283 62.8573C47.3724 63.2229 47.1453 63.5539 46.8604 63.831L34.1325 76.5589V76.5589ZM62.4167 48.2745C54.6187 56.0726 41.9306 56.0727 34.1327 48.2748C33.8478 47.9976 33.6209 47.6667 33.4651 47.3011C33.3093 46.9355 33.2276 46.5425 33.2249 46.1451C33.2222 45.7476 33.2985 45.3536 33.4493 44.9859C33.6002 44.6182 33.8226 44.2842 34.1036 44.0032C34.3846 43.7221 34.7187 43.4997 35.0864 43.3489C35.4541 43.198 35.8481 43.1217 36.2455 43.1244C36.643 43.1271 37.0359 43.2088 37.4015 43.3646C37.7671 43.5204 38.0981 43.7473 38.3753 44.0321C43.8962 49.553 52.6531 49.553 58.1742 44.032L72.3163 29.8899C77.8373 24.3689 77.8374 15.612 72.3164 10.091C66.7955 4.57012 58.0386 4.57015 52.5176 10.0912L39.7897 22.8191C39.5125 23.1042 39.1815 23.3314 38.8158 23.4874C38.4502 23.6435 38.0571 23.7253 37.6595 23.7281C37.2619 23.731 36.8678 23.6547 36.4999 23.5039C36.1321 23.353 35.7978 23.1306 35.5167 22.8495C35.2356 22.5683 35.0131 22.2341 34.8623 21.8663C34.7114 21.4984 34.6352 21.1042 34.638 20.7066C34.6409 20.3091 34.7227 19.916 34.8787 19.5503C35.0348 19.1847 35.262 18.8536 35.5471 18.5765L48.275 5.84861C56.073 -1.94944 68.7611 -1.94956 76.5591 5.84837C84.3571 13.6464 84.3569 26.3344 76.5589 34.1325L62.4167 48.2745Z" fill="white"/>
</svg>
