<svg width="1608" height="500" viewBox="0 0 1608 500" fill="none" xmlns="http://www.w3.org/2000/svg">
<path d="M529 185H587.628C601.615 185 613.994 187.675 624.764 193.025C635.11 197.998 643.811 205.835 649.836 215.606C655.789 225.309 658.77 236.613 658.779 249.516C658.787 262.419 655.806 273.727 649.836 283.439C643.805 293.219 635.088 301.057 624.724 306.019C613.972 311.369 601.593 314.044 587.589 314.044H529V185ZM586.146 289.523C599.049 289.523 609.343 285.93 617.027 278.744C624.711 271.558 628.549 261.816 628.54 249.516C628.54 237.277 624.703 227.538 617.027 220.3C609.352 213.062 599.058 209.469 586.146 209.521H558.871V289.51L586.146 289.523Z" fill="white"/>
<path d="M912.173 196.802C921.509 204.669 926.182 215.483 926.191 229.243C926.199 243.003 921.527 253.786 912.173 261.593C902.836 269.408 889.933 273.311 873.464 273.303H838.806V314.044H825.169V185H873.464C889.933 185 902.836 188.934 912.173 196.802ZM902.404 252.938C909.17 247.343 912.553 239.445 912.553 229.243C912.553 218.753 909.17 210.732 902.404 205.181C895.638 199.63 885.868 196.837 873.096 196.802H838.806V261.317H873.096C885.886 261.317 895.655 258.524 902.404 252.938V252.938Z" fill="white"/>
<path d="M1194.25 279.57H1122.36L1106.87 314.044H1092.67L1151.68 185H1165.13L1224.14 314.044H1209.72L1194.25 279.57ZM1189.28 268.503L1158.3 199.201L1127.33 268.503H1189.28Z" fill="white"/>
<path d="M1390.34 185H1442.88C1456.52 185 1468.56 187.736 1479.01 193.209C1489.12 198.366 1497.56 206.292 1503.34 216.065C1509.02 226.295 1512 237.802 1512 249.503C1512 261.203 1509.02 272.71 1503.34 282.941C1497.56 292.713 1489.12 300.644 1479.01 305.809C1468.57 311.282 1456.53 314.014 1442.88 314.005H1390.34V185ZM1442.15 302.243C1453.45 302.243 1463.34 300 1471.82 295.516C1480 291.29 1486.82 284.835 1491.49 276.896C1496.08 268.503 1498.49 259.09 1498.49 249.522C1498.49 239.955 1496.08 230.541 1491.49 222.149C1486.82 214.21 1480 207.754 1471.82 203.529C1463.33 199.044 1453.44 196.802 1442.15 196.802H1403.97V302.243H1442.15Z" fill="white"/>
<path d="M86 169.909V325.796L189.878 385.77V373.48L96.6432 319.65V176.056L217.48 106.293V94L86 169.909Z" fill="url(#paint0_linear)"/>
<path d="M321.658 186.195L221.002 128.081L117.279 187.966V276.624H127.922V194.11L221.002 140.371L300.369 186.195H321.658Z" fill="url(#paint1_linear)"/>
<path d="M314.082 220.105V301.591L221.002 355.333L141.888 309.657H120.601L221.002 367.623L324.725 307.738V220.105H314.082Z" fill="url(#paint2_linear)"/>
<path d="M208.412 326.244L147.025 290.55V205.107L215.678 166.353V134.228H226.321V172.567L157.669 211.321V284.427L197.772 307.748L197.792 236.946L208.432 236.949L208.412 326.244Z" fill="url(#paint3_linear)"/>
<path d="M249.187 108.243V120.533L345.357 176.056V319.654L227.792 387.733V326.134L294.974 290.699V205.226L233.369 166.155V261.948H244.012V185.097L284.331 211.208V284.28L217.149 319.718V391.792L216.937 406.314L356 325.79V169.91L249.187 108.243Z" fill="url(#paint4_linear)"/>
<defs>
<linearGradient id="paint0_linear" x1="151.198" y1="208.836" x2="259.247" y2="421.41" gradientUnits="userSpaceOnUse">
<stop stop-color="#4C6FFF"/>
<stop offset="1" stop-color="#00C7FB"/>
</linearGradient>
<linearGradient id="paint1_linear" x1="190601" y1="103969" x2="228889" y2="207609" gradientUnits="userSpaceOnUse">
<stop stop-color="#4C6FFF"/>
<stop offset="1" stop-color="#00C7FB"/>
</linearGradient>
<linearGradient id="paint2_linear" x1="183723" y1="105784" x2="221581" y2="208849" gradientUnits="userSpaceOnUse">
<stop stop-color="#4C6FFF"/>
<stop offset="1" stop-color="#00C7FB"/>
</linearGradient>
<linearGradient id="paint3_linear" x1="69732.5" y1="139682" x2="144247" y2="200222" gradientUnits="userSpaceOnUse">
<stop stop-color="#4C6FFF"/>
<stop offset="1" stop-color="#4C6FFF"/>
</linearGradient>
<linearGradient id="paint4_linear" x1="142334" y1="194850" x2="260076" y2="302922" gradientUnits="userSpaceOnUse">
<stop stop-color="#4C6FFF"/>
<stop offset="1" stop-color="#00C7FB"/>
</linearGradient>
</defs>
</svg>
