<svg width="278" height="270" viewBox="0 0 278 270" fill="none" xmlns="http://www.w3.org/2000/svg">
<rect x="0.5" y="0.5" width="277" height="269" rx="19.5" fill="#0063FD" stroke="#D4D4D4"/>
<path d="M54.9932 229.09C54.0812 229.09 53.2472 228.91 52.4912 228.55C51.7472 228.178 51.1052 227.692 50.5652 227.092C50.0252 226.48 49.6052 225.784 49.3052 225.004C49.0172 224.224 48.8732 223.426 48.8732 222.61C48.8732 221.758 49.0292 220.942 49.3412 220.162C49.6532 219.382 50.0792 218.692 50.6192 218.092C51.1712 217.492 51.8192 217.018 52.5632 216.67C53.3192 216.31 54.1412 216.13 55.0292 216.13C55.9412 216.13 56.7692 216.322 57.5132 216.706C58.2692 217.078 58.9112 217.57 59.4392 218.182C59.9792 218.794 60.3932 219.49 60.6812 220.27C60.9812 221.038 61.1312 221.824 61.1312 222.628C61.1312 223.48 60.9752 224.296 60.6632 225.076C60.3632 225.856 59.9372 226.546 59.3852 227.146C58.8332 227.734 58.1792 228.208 57.4232 228.568C56.6792 228.916 55.8692 229.09 54.9932 229.09ZM50.9252 222.61C50.9252 223.21 51.0212 223.792 51.2132 224.356C51.4052 224.92 51.6752 225.418 52.0232 225.85C52.3832 226.282 52.8152 226.63 53.3192 226.894C53.8232 227.146 54.3872 227.272 55.0112 227.272C55.6592 227.272 56.2292 227.14 56.7212 226.876C57.2252 226.6 57.6512 226.24 57.9992 225.796C58.3472 225.352 58.6112 224.854 58.7912 224.302C58.9712 223.75 59.0612 223.186 59.0612 222.61C59.0612 221.998 58.9652 221.416 58.7732 220.864C58.5812 220.3 58.3052 219.808 57.9452 219.388C57.5972 218.956 57.1712 218.614 56.6672 218.362C56.1752 218.098 55.6232 217.966 55.0112 217.966C54.3632 217.966 53.7872 218.104 53.2832 218.38C52.7792 218.644 52.3532 218.992 52.0052 219.424C51.6572 219.856 51.3872 220.354 51.1952 220.918C51.0152 221.47 50.9252 222.034 50.9252 222.61ZM71.4083 229H69.4283V223.726C69.4283 222.838 69.2843 222.196 68.9963 221.8C68.7203 221.392 68.3063 221.188 67.7543 221.188C67.4663 221.188 67.1783 221.242 66.8903 221.35C66.6023 221.458 66.3323 221.614 66.0803 221.818C65.8283 222.01 65.6003 222.244 65.3963 222.52C65.2043 222.784 65.0543 223.078 64.9463 223.402V229H62.9663V219.586H64.7663V221.476C65.1263 220.84 65.6483 220.342 66.3323 219.982C67.0163 219.61 67.7723 219.424 68.6003 219.424C69.1643 219.424 69.6263 219.526 69.9863 219.73C70.3463 219.934 70.6283 220.216 70.8323 220.576C71.0483 220.924 71.1983 221.332 71.2823 221.8C71.3663 222.256 71.4083 222.742 71.4083 223.258V229ZM77.9726 229.18C77.2406 229.18 76.5746 229.054 75.9746 228.802C75.3746 228.538 74.8586 228.184 74.4266 227.74C74.0066 227.296 73.6766 226.78 73.4366 226.192C73.2086 225.604 73.0946 224.98 73.0946 224.32C73.0946 223.66 73.2086 223.036 73.4366 222.448C73.6766 221.848 74.0066 221.326 74.4266 220.882C74.8586 220.426 75.3746 220.072 75.9746 219.82C76.5746 219.556 77.2466 219.424 77.9906 219.424C78.7226 219.424 79.3826 219.556 79.9706 219.82C80.5706 220.084 81.0806 220.438 81.5006 220.882C81.9206 221.314 82.2386 221.824 82.4546 222.412C82.6826 222.988 82.7966 223.594 82.7966 224.23C82.7966 224.374 82.7906 224.512 82.7786 224.644C82.7666 224.764 82.7546 224.866 82.7426 224.95H75.2006C75.2366 225.37 75.3326 225.748 75.4886 226.084C75.6566 226.42 75.8666 226.714 76.1186 226.966C76.3826 227.206 76.6766 227.392 77.0006 227.524C77.3366 227.656 77.6846 227.722 78.0446 227.722C78.3086 227.722 78.5666 227.692 78.8186 227.632C79.0826 227.56 79.3226 227.464 79.5386 227.344C79.7546 227.212 79.9466 227.056 80.1146 226.876C80.2826 226.696 80.4146 226.498 80.5106 226.282L82.2026 226.768C81.8786 227.476 81.3386 228.058 80.5826 228.514C79.8386 228.958 78.9686 229.18 77.9726 229.18ZM80.8346 223.582C80.7986 223.186 80.6966 222.82 80.5286 222.484C80.3726 222.148 80.1686 221.866 79.9166 221.638C79.6646 221.398 79.3706 221.212 79.0346 221.08C78.6986 220.948 78.3446 220.882 77.9726 220.882C77.6006 220.882 77.2466 220.948 76.9106 221.08C76.5866 221.212 76.2986 221.398 76.0466 221.638C75.7946 221.866 75.5906 222.148 75.4346 222.484C75.2786 222.82 75.1826 223.186 75.1466 223.582H80.8346ZM88.3009 222.52C88.3009 221.752 88.4389 220.99 88.7149 220.234C88.9909 219.466 89.3929 218.782 89.9209 218.182C90.4609 217.57 91.1149 217.078 91.8829 216.706C92.6509 216.334 93.5209 216.148 94.4929 216.148C95.6569 216.148 96.6529 216.406 97.4809 216.922C98.3089 217.438 98.9329 218.11 99.3529 218.938L97.7689 220C97.5889 219.616 97.3729 219.292 97.1209 219.028C96.8689 218.764 96.5929 218.554 96.2929 218.398C95.9929 218.242 95.6809 218.134 95.3569 218.074C95.0329 218.002 94.7209 217.966 94.4209 217.966C93.7489 217.966 93.1609 218.104 92.6569 218.38C92.1529 218.644 91.7269 218.998 91.3789 219.442C91.0429 219.886 90.7849 220.384 90.6049 220.936C90.4369 221.488 90.3529 222.04 90.3529 222.592C90.3529 223.216 90.4549 223.81 90.6589 224.374C90.8629 224.938 91.1449 225.436 91.5049 225.868C91.8769 226.3 92.3149 226.648 92.8189 226.912C93.3229 227.164 93.8749 227.29 94.4749 227.29C94.7869 227.29 95.1049 227.254 95.4289 227.182C95.7649 227.098 96.0829 226.972 96.3829 226.804C96.6949 226.624 96.9769 226.402 97.2289 226.138C97.4929 225.874 97.7089 225.556 97.8769 225.184L99.5509 226.138C99.3469 226.618 99.0589 227.044 98.6869 227.416C98.3149 227.776 97.8949 228.082 97.4269 228.334C96.9589 228.586 96.4609 228.778 95.9329 228.91C95.4169 229.042 94.9069 229.108 94.4029 229.108C93.5029 229.108 92.6809 228.916 91.9369 228.532C91.1929 228.148 90.5509 227.65 90.0109 227.038C89.4709 226.414 89.0509 225.712 88.7509 224.932C88.4509 224.14 88.3009 223.336 88.3009 222.52ZM101.182 215.86H103.162V226.282C103.162 226.63 103.252 226.906 103.432 227.11C103.612 227.302 103.864 227.398 104.188 227.398C104.32 227.398 104.47 227.374 104.638 227.326C104.818 227.278 104.986 227.224 105.142 227.164L105.43 228.712C105.142 228.844 104.8 228.946 104.404 229.018C104.008 229.102 103.654 229.144 103.342 229.144C102.658 229.144 102.124 228.958 101.74 228.586C101.368 228.214 101.182 227.686 101.182 227.002V215.86ZM106.578 229V219.586H108.558V229H106.578ZM106.578 218.038V215.86H108.558V218.038H106.578ZM110.325 224.284C110.325 223.624 110.439 223 110.667 222.412C110.895 221.824 111.219 221.308 111.639 220.864C112.071 220.42 112.587 220.072 113.187 219.82C113.787 219.556 114.459 219.424 115.203 219.424C116.175 219.424 117.009 219.64 117.705 220.072C118.413 220.492 118.941 221.056 119.289 221.764L117.363 222.376C117.135 221.98 116.829 221.674 116.445 221.458C116.061 221.23 115.635 221.116 115.167 221.116C114.771 221.116 114.399 221.194 114.051 221.35C113.715 221.506 113.421 221.728 113.169 222.016C112.917 222.292 112.719 222.622 112.575 223.006C112.431 223.39 112.359 223.816 112.359 224.284C112.359 224.74 112.431 225.166 112.575 225.562C112.731 225.946 112.935 226.282 113.187 226.57C113.451 226.858 113.751 227.086 114.087 227.254C114.435 227.41 114.801 227.488 115.185 227.488C115.425 227.488 115.665 227.458 115.905 227.398C116.145 227.326 116.361 227.23 116.553 227.11C116.757 226.99 116.931 226.852 117.075 226.696C117.231 226.54 117.345 226.372 117.417 226.192L119.361 226.768C119.049 227.476 118.527 228.058 117.795 228.514C117.063 228.958 116.199 229.18 115.203 229.18C114.471 229.18 113.805 229.048 113.205 228.784C112.605 228.52 112.089 228.166 111.657 227.722C111.237 227.266 110.907 226.744 110.667 226.156C110.439 225.568 110.325 224.944 110.325 224.284ZM127.544 229L124.538 224.662L122.972 226.138V229H120.992V215.86H122.972V224.194L127.292 219.604H129.452L125.798 223.546L129.65 229H127.544ZM138.752 216.22H140.516L145.556 229H143.432L142.082 225.526H137.15L135.818 229H133.676L138.752 216.22ZM141.686 224.032L139.634 218.542L137.51 224.032H141.686ZM152.23 229.18C151.474 229.18 150.808 229 150.232 228.64C149.656 228.28 149.2 227.812 148.864 227.236V232.834H146.884V219.586H148.63V221.278C148.99 220.714 149.452 220.264 150.016 219.928C150.592 219.592 151.24 219.424 151.96 219.424C152.608 219.424 153.202 219.556 153.742 219.82C154.282 220.084 154.75 220.438 155.146 220.882C155.542 221.326 155.848 221.842 156.064 222.43C156.292 223.018 156.406 223.636 156.406 224.284C156.406 224.968 156.304 225.61 156.1 226.21C155.896 226.798 155.608 227.314 155.236 227.758C154.864 228.19 154.42 228.538 153.904 228.802C153.4 229.054 152.842 229.18 152.23 229.18ZM151.582 227.488C152.002 227.488 152.38 227.398 152.716 227.218C153.064 227.038 153.358 226.798 153.598 226.498C153.85 226.198 154.042 225.856 154.174 225.472C154.306 225.088 154.372 224.692 154.372 224.284C154.372 223.852 154.294 223.444 154.138 223.06C153.994 222.676 153.79 222.34 153.526 222.052C153.274 221.764 152.968 221.536 152.608 221.368C152.248 221.2 151.858 221.116 151.438 221.116C151.186 221.116 150.922 221.164 150.646 221.26C150.37 221.356 150.112 221.488 149.872 221.656C149.632 221.824 149.422 222.022 149.242 222.25C149.062 222.466 148.936 222.706 148.864 222.97V225.436C148.984 225.724 149.14 225.994 149.332 226.246C149.524 226.498 149.734 226.714 149.962 226.894C150.202 227.074 150.46 227.218 150.736 227.326C151.012 227.434 151.294 227.488 151.582 227.488ZM163.533 229.18C162.777 229.18 162.111 229 161.535 228.64C160.959 228.28 160.503 227.812 160.167 227.236V232.834H158.187V219.586H159.933V221.278C160.293 220.714 160.755 220.264 161.319 219.928C161.895 219.592 162.543 219.424 163.263 219.424C163.911 219.424 164.505 219.556 165.045 219.82C165.585 220.084 166.053 220.438 166.449 220.882C166.845 221.326 167.151 221.842 167.367 222.43C167.595 223.018 167.709 223.636 167.709 224.284C167.709 224.968 167.607 225.61 167.403 226.21C167.199 226.798 166.911 227.314 166.539 227.758C166.167 228.19 165.723 228.538 165.207 228.802C164.703 229.054 164.145 229.18 163.533 229.18ZM162.885 227.488C163.305 227.488 163.683 227.398 164.019 227.218C164.367 227.038 164.661 226.798 164.901 226.498C165.153 226.198 165.345 225.856 165.477 225.472C165.609 225.088 165.675 224.692 165.675 224.284C165.675 223.852 165.597 223.444 165.441 223.06C165.297 222.676 165.093 222.34 164.829 222.052C164.577 221.764 164.271 221.536 163.911 221.368C163.551 221.2 163.161 221.116 162.741 221.116C162.489 221.116 162.225 221.164 161.949 221.26C161.673 221.356 161.415 221.488 161.175 221.656C160.935 221.824 160.725 222.022 160.545 222.25C160.365 222.466 160.239 222.706 160.167 222.97V225.436C160.287 225.724 160.443 225.994 160.635 226.246C160.827 226.498 161.037 226.714 161.265 226.894C161.505 227.074 161.763 227.218 162.039 227.326C162.315 227.434 162.597 227.488 162.885 227.488ZM169.508 215.86H171.488V226.282C171.488 226.63 171.578 226.906 171.758 227.11C171.938 227.302 172.19 227.398 172.514 227.398C172.646 227.398 172.796 227.374 172.964 227.326C173.144 227.278 173.312 227.224 173.468 227.164L173.756 228.712C173.468 228.844 173.126 228.946 172.73 229.018C172.334 229.102 171.98 229.144 171.668 229.144C170.984 229.144 170.45 228.958 170.066 228.586C169.694 228.214 169.508 227.686 169.508 227.002V215.86ZM174.904 229V219.586H176.884V229H174.904ZM174.904 218.038V215.86H176.884V218.038H174.904ZM178.651 224.284C178.651 223.624 178.765 223 178.993 222.412C179.221 221.824 179.545 221.308 179.965 220.864C180.397 220.42 180.913 220.072 181.513 219.82C182.113 219.556 182.785 219.424 183.529 219.424C184.501 219.424 185.335 219.64 186.031 220.072C186.739 220.492 187.267 221.056 187.615 221.764L185.689 222.376C185.461 221.98 185.155 221.674 184.771 221.458C184.387 221.23 183.961 221.116 183.493 221.116C183.097 221.116 182.725 221.194 182.377 221.35C182.041 221.506 181.747 221.728 181.495 222.016C181.243 222.292 181.045 222.622 180.901 223.006C180.757 223.39 180.685 223.816 180.685 224.284C180.685 224.74 180.757 225.166 180.901 225.562C181.057 225.946 181.261 226.282 181.513 226.57C181.777 226.858 182.077 227.086 182.413 227.254C182.761 227.41 183.127 227.488 183.511 227.488C183.751 227.488 183.991 227.458 184.231 227.398C184.471 227.326 184.687 227.23 184.879 227.11C185.083 226.99 185.257 226.852 185.401 226.696C185.557 226.54 185.671 226.372 185.743 226.192L187.687 226.768C187.375 227.476 186.853 228.058 186.121 228.514C185.389 228.958 184.525 229.18 183.529 229.18C182.797 229.18 182.131 229.048 181.531 228.784C180.931 228.52 180.415 228.166 179.983 227.722C179.563 227.266 179.233 226.744 178.993 226.156C178.765 225.568 178.651 224.944 178.651 224.284ZM191.82 229.18C191.364 229.18 190.938 229.108 190.542 228.964C190.158 228.808 189.822 228.598 189.534 228.334C189.258 228.07 189.036 227.758 188.868 227.398C188.712 227.038 188.634 226.648 188.634 226.228C188.634 225.784 188.73 225.382 188.922 225.022C189.114 224.662 189.384 224.35 189.732 224.086C190.092 223.822 190.512 223.618 190.992 223.474C191.484 223.33 192.024 223.258 192.612 223.258C193.056 223.258 193.494 223.3 193.926 223.384C194.358 223.456 194.748 223.558 195.096 223.69V223.042C195.096 222.346 194.898 221.806 194.502 221.422C194.106 221.026 193.536 220.828 192.792 220.828C192.288 220.828 191.79 220.924 191.298 221.116C190.818 221.296 190.32 221.56 189.804 221.908L189.192 220.648C190.404 219.832 191.664 219.424 192.972 219.424C194.268 219.424 195.276 219.754 195.996 220.414C196.716 221.074 197.076 222.022 197.076 223.258V226.66C197.076 227.08 197.25 227.296 197.598 227.308V229C197.406 229.036 197.238 229.06 197.094 229.072C196.962 229.084 196.83 229.09 196.698 229.09C196.314 229.09 196.014 228.994 195.798 228.802C195.594 228.61 195.468 228.364 195.42 228.064L195.366 227.47C194.946 228.022 194.424 228.448 193.8 228.748C193.188 229.036 192.528 229.18 191.82 229.18ZM192.36 227.722C192.84 227.722 193.29 227.638 193.71 227.47C194.142 227.29 194.478 227.044 194.718 226.732C194.97 226.516 195.096 226.288 195.096 226.048V224.806C194.76 224.674 194.4 224.572 194.016 224.5C193.644 224.428 193.278 224.392 192.918 224.392C192.21 224.392 191.628 224.548 191.172 224.86C190.728 225.16 190.506 225.562 190.506 226.066C190.506 226.534 190.68 226.93 191.028 227.254C191.376 227.566 191.82 227.722 192.36 227.722ZM204.646 228.514C204.394 228.634 204.046 228.772 203.602 228.928C203.158 229.072 202.684 229.144 202.18 229.144C201.868 229.144 201.574 229.102 201.298 229.018C201.022 228.934 200.776 228.808 200.56 228.64C200.356 228.472 200.194 228.256 200.074 227.992C199.954 227.716 199.894 227.386 199.894 227.002V221.116H198.652V219.586H199.894V216.49H201.874V219.586H203.926V221.116H201.874V226.372C201.898 226.708 202 226.954 202.18 227.11C202.372 227.254 202.606 227.326 202.882 227.326C203.158 227.326 203.422 227.278 203.674 227.182C203.926 227.086 204.112 227.008 204.232 226.948L204.646 228.514ZM206.017 229V219.586H207.997V229H206.017ZM206.017 218.038V215.86H207.997V218.038H206.017ZM214.606 229.18C213.862 229.18 213.19 229.048 212.59 228.784C212.002 228.52 211.498 228.166 211.078 227.722C210.658 227.278 210.334 226.762 210.106 226.174C209.878 225.574 209.764 224.95 209.764 224.302C209.764 223.654 209.878 223.036 210.106 222.448C210.334 221.848 210.658 221.326 211.078 220.882C211.51 220.438 212.02 220.084 212.608 219.82C213.208 219.556 213.874 219.424 214.606 219.424C215.338 219.424 215.998 219.556 216.586 219.82C217.186 220.084 217.696 220.438 218.116 220.882C218.548 221.326 218.878 221.848 219.106 222.448C219.334 223.036 219.448 223.654 219.448 224.302C219.448 224.95 219.334 225.574 219.106 226.174C218.878 226.762 218.548 227.278 218.116 227.722C217.696 228.166 217.186 228.52 216.586 228.784C215.998 229.048 215.338 229.18 214.606 229.18ZM211.798 224.32C211.798 224.776 211.87 225.196 212.014 225.58C212.158 225.964 212.356 226.3 212.608 226.588C212.86 226.864 213.154 227.086 213.49 227.254C213.838 227.41 214.21 227.488 214.606 227.488C215.002 227.488 215.368 227.41 215.704 227.254C216.052 227.086 216.352 226.858 216.604 226.57C216.856 226.282 217.054 225.946 217.198 225.562C217.342 225.178 217.414 224.758 217.414 224.302C217.414 223.858 217.342 223.444 217.198 223.06C217.054 222.664 216.856 222.322 216.604 222.034C216.352 221.746 216.052 221.524 215.704 221.368C215.368 221.2 215.002 221.116 214.606 221.116C214.222 221.116 213.856 221.2 213.508 221.368C213.172 221.536 212.878 221.764 212.626 222.052C212.374 222.34 212.17 222.682 212.014 223.078C211.87 223.462 211.798 223.876 211.798 224.32ZM229.647 229H227.667V223.726C227.667 222.838 227.523 222.196 227.235 221.8C226.959 221.392 226.545 221.188 225.993 221.188C225.705 221.188 225.417 221.242 225.129 221.35C224.841 221.458 224.571 221.614 224.319 221.818C224.067 222.01 223.839 222.244 223.635 222.52C223.443 222.784 223.293 223.078 223.185 223.402V229H221.205V219.586H223.005V221.476C223.365 220.84 223.887 220.342 224.571 219.982C225.255 219.61 226.011 219.424 226.839 219.424C227.403 219.424 227.865 219.526 228.225 219.73C228.585 219.934 228.867 220.216 229.071 220.576C229.287 220.924 229.437 221.332 229.521 221.8C229.605 222.256 229.647 222.742 229.647 223.258V229Z" fill="white"/>
<path fill-rule="evenodd" clip-rule="evenodd" d="M143.487 23.0057C177.727 23.3535 210.305 41.9157 220.806 74.4614C231.234 106.783 215.054 140.145 187.86 160.535C159.072 182.119 120.427 192.386 90.8411 171.906C59.4788 150.197 48.4662 108.772 61.1706 72.8398C72.9811 39.4358 108.014 22.6453 143.487 23.0057Z" fill="white" fill-opacity="0.2"/>
<path d="M140 144.667C157.208 144.667 171.25 130.625 171.25 113.417V92.5835C171.25 75.3752 157.208 61.3335 140 61.3335C122.792 61.3335 108.75 75.3752 108.75 92.5835V113.417C108.75 130.625 122.792 144.667 140 144.667Z" stroke="white" stroke-width="2.5" stroke-linecap="round" stroke-linejoin="round"/>
<path d="M140 98.8333C136.542 98.8333 133.75 96.0417 133.75 92.5833V84.25C133.75 80.7917 136.542 78 140 78C143.417 78 146.25 80.7917 146.25 84.25V92.5833C146.25 96.0417 143.417 98.8333 140 98.8333Z" stroke="white" stroke-width="2.5" stroke-linecap="round" stroke-linejoin="round"/>
<path d="M140 78.0002V61.3335" stroke="white" stroke-width="2.5" stroke-linecap="round" stroke-linejoin="round"/>
</svg>
