<svg width="278" height="270" viewBox="0 0 278 270" fill="none" xmlns="http://www.w3.org/2000/svg">
<rect x="0.5" y="0.5" width="277" height="269" rx="19.5" fill="#0063FD" stroke="#D4D4D4"/>
<path d="M68.606 232V219.22H73.97C74.546 219.22 75.074 219.34 75.554 219.58C76.046 219.82 76.466 220.138 76.814 220.534C77.162 220.918 77.432 221.362 77.624 221.866C77.828 222.358 77.93 222.862 77.93 223.378C77.93 223.918 77.834 224.44 77.642 224.944C77.462 225.436 77.204 225.88 76.868 226.276C76.532 226.66 76.124 226.972 75.644 227.212C75.176 227.44 74.654 227.554 74.078 227.554H70.622V232H68.606ZM70.622 225.772H73.952C74.24 225.772 74.498 225.712 74.726 225.592C74.966 225.472 75.17 225.304 75.338 225.088C75.506 224.872 75.638 224.62 75.734 224.332C75.83 224.044 75.878 223.726 75.878 223.378C75.878 223.018 75.824 222.694 75.716 222.406C75.608 222.118 75.458 221.872 75.266 221.668C75.074 221.452 74.852 221.29 74.6 221.182C74.36 221.062 74.108 221.002 73.844 221.002H70.622V225.772ZM81.983 232.18C81.527 232.18 81.101 232.108 80.705 231.964C80.321 231.808 79.985 231.598 79.697 231.334C79.421 231.07 79.199 230.758 79.031 230.398C78.875 230.038 78.797 229.648 78.797 229.228C78.797 228.784 78.893 228.382 79.085 228.022C79.277 227.662 79.547 227.35 79.895 227.086C80.255 226.822 80.675 226.618 81.155 226.474C81.647 226.33 82.187 226.258 82.775 226.258C83.219 226.258 83.657 226.3 84.089 226.384C84.521 226.456 84.911 226.558 85.259 226.69V226.042C85.259 225.346 85.061 224.806 84.665 224.422C84.269 224.026 83.699 223.828 82.955 223.828C82.451 223.828 81.953 223.924 81.461 224.116C80.981 224.296 80.483 224.56 79.967 224.908L79.355 223.648C80.567 222.832 81.827 222.424 83.135 222.424C84.431 222.424 85.439 222.754 86.159 223.414C86.879 224.074 87.239 225.022 87.239 226.258V229.66C87.239 230.08 87.413 230.296 87.761 230.308V232C87.569 232.036 87.401 232.06 87.257 232.072C87.125 232.084 86.993 232.09 86.861 232.09C86.477 232.09 86.177 231.994 85.961 231.802C85.757 231.61 85.631 231.364 85.583 231.064L85.529 230.47C85.109 231.022 84.587 231.448 83.963 231.748C83.351 232.036 82.691 232.18 81.983 232.18ZM82.523 230.722C83.003 230.722 83.453 230.638 83.873 230.47C84.305 230.29 84.641 230.044 84.881 229.732C85.133 229.516 85.259 229.288 85.259 229.048V227.806C84.923 227.674 84.563 227.572 84.179 227.5C83.807 227.428 83.441 227.392 83.081 227.392C82.373 227.392 81.791 227.548 81.335 227.86C80.891 228.16 80.669 228.562 80.669 229.066C80.669 229.534 80.843 229.93 81.191 230.254C81.539 230.566 81.983 230.722 82.523 230.722ZM89.7366 234.214C89.9166 234.25 90.0906 234.28 90.2586 234.304C90.4386 234.328 90.5826 234.34 90.6906 234.34C90.8466 234.34 90.9786 234.304 91.0866 234.232C91.2066 234.172 91.3266 234.058 91.4466 233.89C91.5666 233.722 91.6866 233.482 91.8066 233.17C91.9386 232.87 92.0886 232.48 92.2566 232L88.3866 222.586H90.4206L93.3366 230.254L95.9286 222.586H97.8006L93.5346 234.178C93.3426 234.718 93.0066 235.168 92.5266 235.528C92.0586 235.9 91.4526 236.086 90.7086 236.086C90.5646 236.086 90.4146 236.074 90.2586 236.05C90.1026 236.038 89.9286 236.002 89.7366 235.942V234.214ZM113.656 232H111.676V226.726C111.676 225.85 111.532 225.208 111.244 224.8C110.956 224.392 110.536 224.188 109.984 224.188C109.42 224.188 108.904 224.398 108.436 224.818C107.98 225.226 107.65 225.76 107.446 226.42V232H105.466V226.726C105.466 225.838 105.322 225.196 105.034 224.8C104.746 224.392 104.332 224.188 103.792 224.188C103.228 224.188 102.712 224.392 102.244 224.8C101.776 225.208 101.44 225.742 101.236 226.402V232H99.2564V222.586H101.056V224.476C101.428 223.816 101.914 223.312 102.514 222.964C103.126 222.604 103.822 222.424 104.602 222.424C105.382 222.424 105.994 222.628 106.438 223.036C106.894 223.444 107.176 223.954 107.284 224.566C107.68 223.87 108.178 223.342 108.778 222.982C109.378 222.61 110.062 222.424 110.83 222.424C111.382 222.424 111.838 222.532 112.198 222.748C112.57 222.952 112.864 223.228 113.08 223.576C113.296 223.924 113.446 224.332 113.53 224.8C113.614 225.256 113.656 225.742 113.656 226.258V232ZM120.204 232.18C119.472 232.18 118.806 232.054 118.206 231.802C117.606 231.538 117.09 231.184 116.658 230.74C116.238 230.296 115.908 229.78 115.668 229.192C115.44 228.604 115.326 227.98 115.326 227.32C115.326 226.66 115.44 226.036 115.668 225.448C115.908 224.848 116.238 224.326 116.658 223.882C117.09 223.426 117.606 223.072 118.206 222.82C118.806 222.556 119.478 222.424 120.222 222.424C120.954 222.424 121.614 222.556 122.202 222.82C122.802 223.084 123.312 223.438 123.732 223.882C124.152 224.314 124.47 224.824 124.686 225.412C124.914 225.988 125.028 226.594 125.028 227.23C125.028 227.374 125.022 227.512 125.01 227.644C124.998 227.764 124.986 227.866 124.974 227.95H117.432C117.468 228.37 117.564 228.748 117.72 229.084C117.888 229.42 118.098 229.714 118.35 229.966C118.614 230.206 118.908 230.392 119.232 230.524C119.568 230.656 119.916 230.722 120.276 230.722C120.54 230.722 120.798 230.692 121.05 230.632C121.314 230.56 121.554 230.464 121.77 230.344C121.986 230.212 122.178 230.056 122.346 229.876C122.514 229.696 122.646 229.498 122.742 229.282L124.434 229.768C124.11 230.476 123.57 231.058 122.814 231.514C122.07 231.958 121.2 232.18 120.204 232.18ZM123.066 226.582C123.03 226.186 122.928 225.82 122.76 225.484C122.604 225.148 122.4 224.866 122.148 224.638C121.896 224.398 121.602 224.212 121.266 224.08C120.93 223.948 120.576 223.882 120.204 223.882C119.832 223.882 119.478 223.948 119.142 224.08C118.818 224.212 118.53 224.398 118.278 224.638C118.026 224.866 117.822 225.148 117.666 225.484C117.51 225.82 117.414 226.186 117.378 226.582H123.066ZM135.085 232H133.105V226.726C133.105 225.838 132.961 225.196 132.673 224.8C132.397 224.392 131.983 224.188 131.431 224.188C131.143 224.188 130.855 224.242 130.567 224.35C130.279 224.458 130.009 224.614 129.757 224.818C129.505 225.01 129.277 225.244 129.073 225.52C128.881 225.784 128.731 226.078 128.623 226.402V232H126.643V222.586H128.443V224.476C128.803 223.84 129.325 223.342 130.009 222.982C130.693 222.61 131.449 222.424 132.277 222.424C132.841 222.424 133.303 222.526 133.663 222.73C134.023 222.934 134.305 223.216 134.509 223.576C134.725 223.924 134.875 224.332 134.959 224.8C135.043 225.256 135.085 225.742 135.085 226.258V232ZM142.533 231.514C142.281 231.634 141.933 231.772 141.489 231.928C141.045 232.072 140.571 232.144 140.067 232.144C139.755 232.144 139.461 232.102 139.185 232.018C138.909 231.934 138.663 231.808 138.447 231.64C138.243 231.472 138.081 231.256 137.961 230.992C137.841 230.716 137.781 230.386 137.781 230.002V224.116H136.539V222.586H137.781V219.49H139.761V222.586H141.813V224.116H139.761V229.372C139.785 229.708 139.887 229.954 140.067 230.11C140.259 230.254 140.493 230.326 140.769 230.326C141.045 230.326 141.309 230.278 141.561 230.182C141.813 230.086 141.999 230.008 142.119 229.948L142.533 231.514ZM157.55 230.416C156.47 231.532 155.228 232.09 153.824 232.09C152.972 232.09 152.18 231.916 151.448 231.568C150.716 231.208 150.08 230.728 149.54 230.128C149 229.528 148.574 228.832 148.262 228.04C147.962 227.248 147.812 226.42 147.812 225.556C147.812 224.692 147.962 223.87 148.262 223.09C148.574 222.31 149 221.626 149.54 221.038C150.08 220.45 150.722 219.988 151.466 219.652C152.21 219.304 153.02 219.13 153.896 219.13C155.12 219.13 156.146 219.388 156.974 219.904C157.802 220.408 158.426 221.08 158.846 221.92L157.298 223.036C156.95 222.34 156.47 221.818 155.858 221.47C155.246 221.122 154.574 220.948 153.842 220.948C153.242 220.948 152.696 221.08 152.204 221.344C151.712 221.596 151.292 221.938 150.944 222.37C150.596 222.79 150.326 223.282 150.134 223.846C149.954 224.41 149.864 224.998 149.864 225.61C149.864 226.258 149.966 226.864 150.17 227.428C150.386 227.992 150.674 228.484 151.034 228.904C151.406 229.324 151.844 229.66 152.348 229.912C152.852 230.152 153.398 230.272 153.986 230.272C154.634 230.272 155.252 230.122 155.84 229.822C156.44 229.522 157.01 229.048 157.55 228.4V227.032H154.868V225.538H159.242V232H157.55V230.416ZM165.556 232.18C164.824 232.18 164.158 232.054 163.558 231.802C162.958 231.538 162.442 231.184 162.01 230.74C161.59 230.296 161.26 229.78 161.02 229.192C160.792 228.604 160.678 227.98 160.678 227.32C160.678 226.66 160.792 226.036 161.02 225.448C161.26 224.848 161.59 224.326 162.01 223.882C162.442 223.426 162.958 223.072 163.558 222.82C164.158 222.556 164.83 222.424 165.574 222.424C166.306 222.424 166.966 222.556 167.554 222.82C168.154 223.084 168.664 223.438 169.084 223.882C169.504 224.314 169.822 224.824 170.038 225.412C170.266 225.988 170.38 226.594 170.38 227.23C170.38 227.374 170.374 227.512 170.362 227.644C170.35 227.764 170.338 227.866 170.326 227.95H162.784C162.82 228.37 162.916 228.748 163.072 229.084C163.24 229.42 163.45 229.714 163.702 229.966C163.966 230.206 164.26 230.392 164.584 230.524C164.92 230.656 165.268 230.722 165.628 230.722C165.892 230.722 166.15 230.692 166.402 230.632C166.666 230.56 166.906 230.464 167.122 230.344C167.338 230.212 167.53 230.056 167.698 229.876C167.866 229.696 167.998 229.498 168.094 229.282L169.786 229.768C169.462 230.476 168.922 231.058 168.166 231.514C167.422 231.958 166.552 232.18 165.556 232.18ZM168.418 226.582C168.382 226.186 168.28 225.82 168.112 225.484C167.956 225.148 167.752 224.866 167.5 224.638C167.248 224.398 166.954 224.212 166.618 224.08C166.282 223.948 165.928 223.882 165.556 223.882C165.184 223.882 164.83 223.948 164.494 224.08C164.17 224.212 163.882 224.398 163.63 224.638C163.378 224.866 163.174 225.148 163.018 225.484C162.862 225.82 162.766 226.186 162.73 226.582H168.418ZM177.162 231.514C176.91 231.634 176.562 231.772 176.118 231.928C175.674 232.072 175.2 232.144 174.696 232.144C174.384 232.144 174.09 232.102 173.814 232.018C173.538 231.934 173.292 231.808 173.076 231.64C172.872 231.472 172.71 231.256 172.59 230.992C172.47 230.716 172.41 230.386 172.41 230.002V224.116H171.168V222.586H172.41V219.49H174.39V222.586H176.442V224.116H174.39V229.372C174.414 229.708 174.516 229.954 174.696 230.11C174.888 230.254 175.122 230.326 175.398 230.326C175.674 230.326 175.938 230.278 176.19 230.182C176.442 230.086 176.628 230.008 176.748 229.948L177.162 231.514ZM190.27 222.586H192.16L188.2 232H186.562L184.816 227.626L183.07 232H181.432L177.454 222.586H179.344L182.386 230.092L183.754 226.6L182.116 222.604H183.736L184.816 225.556L185.878 222.604H187.498L185.878 226.6L187.246 230.092L190.27 222.586ZM195.749 232.18C195.293 232.18 194.867 232.108 194.471 231.964C194.087 231.808 193.751 231.598 193.463 231.334C193.187 231.07 192.965 230.758 192.797 230.398C192.641 230.038 192.563 229.648 192.563 229.228C192.563 228.784 192.659 228.382 192.851 228.022C193.043 227.662 193.313 227.35 193.661 227.086C194.021 226.822 194.441 226.618 194.921 226.474C195.413 226.33 195.953 226.258 196.541 226.258C196.985 226.258 197.423 226.3 197.855 226.384C198.287 226.456 198.677 226.558 199.025 226.69V226.042C199.025 225.346 198.827 224.806 198.431 224.422C198.035 224.026 197.465 223.828 196.721 223.828C196.217 223.828 195.719 223.924 195.227 224.116C194.747 224.296 194.249 224.56 193.733 224.908L193.121 223.648C194.333 222.832 195.593 222.424 196.901 222.424C198.197 222.424 199.205 222.754 199.925 223.414C200.645 224.074 201.005 225.022 201.005 226.258V229.66C201.005 230.08 201.179 230.296 201.527 230.308V232C201.335 232.036 201.167 232.06 201.023 232.072C200.891 232.084 200.759 232.09 200.627 232.09C200.243 232.09 199.943 231.994 199.727 231.802C199.523 231.61 199.397 231.364 199.349 231.064L199.295 230.47C198.875 231.022 198.353 231.448 197.729 231.748C197.117 232.036 196.457 232.18 195.749 232.18ZM196.289 230.722C196.769 230.722 197.219 230.638 197.639 230.47C198.071 230.29 198.407 230.044 198.647 229.732C198.899 229.516 199.025 229.288 199.025 229.048V227.806C198.689 227.674 198.329 227.572 197.945 227.5C197.573 227.428 197.207 227.392 196.847 227.392C196.139 227.392 195.557 227.548 195.101 227.86C194.657 228.16 194.435 228.562 194.435 229.066C194.435 229.534 194.609 229.93 194.957 230.254C195.305 230.566 195.749 230.722 196.289 230.722ZM203.502 234.214C203.682 234.25 203.856 234.28 204.024 234.304C204.204 234.328 204.348 234.34 204.456 234.34C204.612 234.34 204.744 234.304 204.852 234.232C204.972 234.172 205.092 234.058 205.212 233.89C205.332 233.722 205.452 233.482 205.572 233.17C205.704 232.87 205.854 232.48 206.022 232L202.152 222.586H204.186L207.102 230.254L209.694 222.586H211.566L207.3 234.178C207.108 234.718 206.772 235.168 206.292 235.528C205.824 235.9 205.218 236.086 204.474 236.086C204.33 236.086 204.18 236.074 204.024 236.05C203.868 236.038 203.694 236.002 203.502 235.942V234.214Z" fill="white"/>
<path fill-rule="evenodd" clip-rule="evenodd" d="M144.876 29.0192C178.677 29.6431 210.323 49.4304 219.884 81.8973C228.783 112.116 208.283 140.091 183.178 159.082C156.046 179.605 121.316 196.622 92.8589 177.984C60.7996 156.988 48.2013 115.169 60.8447 78.9617C72.7301 44.9247 108.87 28.3546 144.876 29.0192Z" fill="white" fill-opacity="0.2"/>
<path d="M133.798 127.251V135.71C133.798 142.877 127.131 148.668 118.923 148.668C110.714 148.668 104.006 142.877 104.006 135.71V127.251C104.006 134.418 110.673 139.501 118.923 139.501C127.131 139.501 133.798 134.376 133.798 127.251Z" stroke="white" stroke-width="2.5" stroke-linecap="round" stroke-linejoin="round"/>
<path d="M133.792 115.792C133.792 117.875 133.209 119.792 132.209 121.458C129.751 125.5 124.709 128.042 118.875 128.042C113.042 128.042 108 125.458 105.542 121.458C104.542 119.792 103.959 117.875 103.959 115.792C103.959 112.208 105.626 109 108.292 106.667C111.001 104.292 114.709 102.875 118.834 102.875C122.959 102.875 126.667 104.333 129.376 106.667C132.126 108.958 133.792 112.208 133.792 115.792Z" stroke="white" stroke-width="2.5" stroke-linecap="round" stroke-linejoin="round"/>
<path d="M133.798 115.792V127.25C133.798 134.417 127.131 139.5 118.923 139.5C110.714 139.5 104.006 134.375 104.006 127.25V115.792C104.006 108.625 110.673 102.833 118.923 102.833C123.048 102.833 126.756 104.292 129.464 106.625C132.131 108.958 133.798 112.208 133.798 115.792Z" stroke="white" stroke-width="2.5" stroke-linecap="round" stroke-linejoin="round"/>
<path d="M180.666 102.708V111.292C180.666 113.584 178.833 115.458 176.5 115.542H168.333C163.833 115.542 159.708 112.25 159.333 107.75C159.083 105.125 160.083 102.667 161.833 100.958C163.375 99.3751 165.5 98.4585 167.833 98.4585H176.5C178.833 98.5418 180.666 100.417 180.666 102.708Z" stroke="white" stroke-width="2.5" stroke-linecap="round" stroke-linejoin="round"/>
<path d="M97.334 100.75V92.4168C97.334 81.0835 104.167 73.1668 114.792 71.8335C115.876 71.6668 117.001 71.5835 118.167 71.5835H155.667C156.751 71.5835 157.792 71.6251 158.792 71.7918C169.542 73.0418 176.501 81.0002 176.501 92.4168V98.4585H167.834C165.501 98.4585 163.376 99.3751 161.834 100.958C160.084 102.667 159.084 105.125 159.334 107.75C159.709 112.25 163.834 115.542 168.334 115.542H176.501V121.583C176.501 134.083 168.167 142.417 155.667 142.417H145.251" stroke="white" stroke-width="2.5" stroke-linecap="round" stroke-linejoin="round"/>
</svg>
