<svg width="98" height="98" viewBox="0 0 98 98" fill="none" xmlns="http://www.w3.org/2000/svg">
<path d="M94.416 0.583008H3.58301C1.92901 0.583008 0.583008 1.92901 0.583008 3.58301V94.416C0.583008 96.07 1.92901 97.416 3.58301 97.416H94.416C96.07 97.416 97.416 96.07 97.416 94.416V3.58301C97.416 1.92901 96.07 0.583008 94.416 0.583008ZM95.416 94.416C95.416 94.968 94.968 95.416 94.416 95.416H3.58301C3.03201 95.416 2.58301 94.968 2.58301 94.416V3.58301C2.58301 3.03201 3.03201 2.58301 3.58301 2.58301H94.416C94.968 2.58301 95.416 3.03201 95.416 3.58301V94.416Z" fill="white"/>
<path d="M43.9002 16.7V13.3H40.5002V6.5H33.7002V9.899H37.1002V16.7H33.7002V20.1H40.5002V16.7H43.9002Z" fill="white"/>
<path d="M50.7008 6.5H47.2998V9.899H50.7008V6.5Z" fill="white"/>
<path d="M60.9 16.7H64.3V9.899H60.9V6.5H57.5V13.3H60.9V16.7Z" fill="white"/>
<path d="M30.3 6.5H6.5V30.3H30.3V6.5ZM26.9 26.899H9.9V9.899H26.9V26.899Z" fill="white"/>
<path d="M67.6992 30.3H91.5002V6.5H67.6992V30.3ZM71.1002 9.899H88.1002V26.899H71.1002V9.899Z" fill="white"/>
<path d="M23.4998 13.2998H13.2998V23.4998H23.4998V13.2998Z" fill="white"/>
<path d="M57.5001 13.2998H54.1011V16.6998H57.5001V13.2998Z" fill="white"/>
<path d="M84.7 13.2998H74.5V23.4998H84.7V13.2998Z" fill="white"/>
<path d="M60.9 16.7002H57.5V20.0992H60.9V16.7002Z" fill="white"/>
<path d="M57.5 23.5001V26.8991H60.9V30.3001H64.3V20.1001H60.9V23.5001H57.5Z" fill="white"/>
<path d="M37.1002 26.8989H33.7002V30.2989H37.1002V26.8989Z" fill="white"/>
<path d="M16.6998 33.7002H13.2998V37.0992H16.6998V33.7002Z" fill="white"/>
<path d="M23.5001 40.5002H26.9001V37.1002H30.3001V33.7002H20.1001V37.1002H23.5001V40.5002Z" fill="white"/>
<path d="M37.1002 33.7002H33.7002V37.0992H37.1002V33.7002Z" fill="white"/>
<path d="M40.5001 47.2992V43.9002H50.7011V40.5002H54.1001V37.1002H50.7011V33.7002H60.9001V30.3002H57.5001V26.9002H54.1011V30.3002H50.7021V26.9002H54.1011V16.7002H47.3011V30.3002H43.9011V20.1002H40.5011V23.5002H37.1011V26.8992H40.5011V30.2992H37.1011V33.6992H40.5011V40.4992H26.9001V43.8992H30.3001V47.2972H26.9001V43.9002H20.1001V47.2982H23.5001V50.7002H30.3001V54.1002H26.9001V57.5002H33.7001V47.2992H40.5001ZM43.9001 33.7002H47.3001V40.5002H43.9001V33.7002Z" fill="white"/>
<path d="M81.301 33.7002H77.9V40.5002H71.1V43.9002H67.699V33.7002H64.3V40.5002H60.9V37.1002H57.5V43.9002H60.9V47.2992H57.5V54.1012H60.9V50.7002H64.3V47.2992H67.699V50.7002H64.3V54.1012H67.699V57.5002H71.1V47.2992H74.5V43.9002H84.7V47.2992H88.1V43.9002H91.5V40.5002H88.1V37.1002H81.301V33.7002Z" fill="white"/>
<path d="M91.5001 33.7002H88.1001V37.0992H91.5001V33.7002Z" fill="white"/>
<path d="M16.7 47.2991V43.9001H20.1V37.1001H16.7V40.5001H13.3V37.1001H6.5V50.7001H9.9V47.2991H13.3V50.7001H20.1V47.2991H16.7Z" fill="white"/>
<path d="M54.1002 47.2988H50.7012V50.6998H54.1002V47.2988Z" fill="white"/>
<path d="M74.5 50.6998H77.9V54.1008H74.5V57.4998H77.9V60.8988H81.301V50.6998H84.7V47.2988H74.5V50.6998Z" fill="white"/>
<path d="M23.5001 50.7002H20.1001V54.1002H23.5001V50.7002Z" fill="white"/>
<path d="M40.5001 50.7002H37.1001V54.1002H40.5001V50.7002Z" fill="white"/>
<path d="M47.2999 50.7002H43.8999V54.1002H47.2999V50.7002Z" fill="white"/>
<path d="M91.5002 64.3002V60.8992H88.1002V57.5002H91.5002V54.1012H88.1002V50.7002H84.7002V64.3002H91.5002Z" fill="white"/>
<path d="M9.9 54.1011H6.5V57.5001H9.9V54.1011Z" fill="white"/>
<path d="M20.0998 54.1011H13.2998V57.5001H20.0998V54.1011Z" fill="white"/>
<path d="M50.7009 60.8991V57.5001H54.1009V54.1011H47.2999V57.5001H43.8999V54.1011H40.4999V57.5001H33.6999V60.8991H26.8999V64.3001H33.6999V67.6991H40.4999V71.0991H43.8999V64.3001H37.0999V60.8991H43.8999V64.3001H47.2999V60.8991H50.7009Z" fill="white"/>
<path d="M64.2989 54.1011H60.8999V57.5001H64.2989V54.1011Z" fill="white"/>
<path d="M13.2999 57.5H9.8999V60.899H13.2999V57.5Z" fill="white"/>
<path d="M23.5001 57.5H20.1001V60.899H23.5001V57.5Z" fill="white"/>
<path d="M60.9 57.5H57.5V60.899H60.9V57.5Z" fill="white"/>
<path d="M9.9 60.8989H6.5V64.2989H9.9V60.8989Z" fill="white"/>
<path d="M20.1002 60.8989H16.7002V64.2989H20.1002V60.8989Z" fill="white"/>
<path d="M57.5001 60.8989H54.1011V67.6989H57.5001V60.8989Z" fill="white"/>
<path d="M50.7008 81.2998H60.8998V77.8998H54.1008V71.0988H50.7008V64.2998H47.2998V74.4998H50.7008V81.2998Z" fill="white"/>
<path d="M74.4999 57.5H71.0999V60.899H67.6999V57.5H64.2999V60.899H60.8999V77.9H71.0999V81.3H74.4999V91.5H91.4999V88.099H88.0999V84.7H84.6999V88.098H77.8999V84.7H84.6999V81.3H88.0999V74.5H91.4999V67.699H81.3009V71.098H84.6999V74.5H81.3009V77.9H77.9009V67.699H81.3009V64.3H77.9009V60.9H74.5009V57.5H74.4999ZM74.4999 74.5H64.2999V64.3H74.4999V74.5Z" fill="white"/>
<path d="M71.0992 67.6992H67.6992V71.0982H71.0992V67.6992Z" fill="white"/>
<path d="M6.5 91.5002H30.3V67.6992H6.5V91.5002ZM9.9 71.0992H26.9V88.0992H9.9V71.0992V71.0992Z" fill="white"/>
<path d="M37.1002 71.0991H33.7002V77.9011H37.1002V71.0991Z" fill="white"/>
<path d="M23.4998 74.5H13.2998V84.7H23.4998V74.5Z" fill="white"/>
<path d="M64.3001 88.099H57.5001V84.7H50.7011V81.3H43.9001V77.9H47.3001V74.5H40.5001V77.9H37.1001V81.3H40.5001V84.7H37.1001V91.5H40.5001V88.099H43.9001V91.5H47.3001V88.099H50.7011V91.5H71.1001V88.099H67.6991V84.7H64.3001V88.099Z" fill="white"/>
<path d="M37.1002 81.2998H33.7002V84.6998H37.1002V81.2998Z" fill="white"/>
<path d="M64.2989 81.2998H60.8999V84.6998H64.2989V81.2998Z" fill="white"/>
<path d="M71.0992 81.2998H67.6992V84.6998H71.0992V81.2998Z" fill="white"/>
<path d="M91.5001 81.2998H88.1001V84.6998H91.5001V81.2998Z" fill="white"/>
</svg>
