<svg width="509" height="671" viewBox="0 0 509 671" fill="none" xmlns="http://www.w3.org/2000/svg">
<g opacity="0.89" filter="url(#filter0_f)">
<path d="M536 382C536 358.484 530.2 335.33 519.115 314.59C508.029 293.851 492 276.165 472.447 263.1C452.893 250.035 430.42 241.994 407.016 239.689C383.613 237.384 360.003 240.886 338.276 249.885C316.55 258.885 297.378 273.103 282.46 291.282C267.541 309.46 257.336 331.037 252.748 354.102C248.16 377.167 249.331 401.007 256.158 423.511C262.984 446.015 275.255 466.488 291.884 483.116L393 382H536Z" fill="url(#paint0_radial)"/>
</g>
<defs>
<filter id="filter0_f" x="0" y="-11" width="786" height="744.116" filterUnits="userSpaceOnUse" color-interpolation-filters="sRGB">
<feFlood flood-opacity="0" result="BackgroundImageFix"/>
<feBlend mode="normal" in="SourceGraphic" in2="BackgroundImageFix" result="shape"/>
<feGaussianBlur stdDeviation="125" result="effect1_foregroundBlur"/>
</filter>
<radialGradient id="paint0_radial" cx="0" cy="0" r="1" gradientUnits="userSpaceOnUse" gradientTransform="translate(393 382) rotate(90) scale(143)">
<stop stop-color="#4C6FFF"/>
<stop offset="1" stop-color="#17ADFC"/>
</radialGradient>
</defs>
</svg>
