<svg width="44" height="55" viewBox="0 0 44 55" fill="none" xmlns="http://www.w3.org/2000/svg">
<path d="M34.375 27.1248C34.375 23.4374 33.8127 19.7501 32.6874 16.3125L32.6251 15.9999H11.1252C9.93763 19.5626 9.37524 23.3123 9.37524 27.1248V27.2499H34.3751L34.375 27.1248ZM22.7501 25.9372C19.6875 26.4996 17.0002 23.8747 17.6249 20.812C17.9375 19.062 19.3125 17.687 21.0625 17.3744C24.1251 16.812 26.8125 19.4369 26.1877 22.4996C25.8128 24.1872 24.4377 25.5622 22.7501 25.9372V25.9372Z" fill="#111111"/>
<path d="M0.625186 54.7497H3.75017C3.99998 54.7497 4.18788 54.6246 4.31256 54.4371L8.18743 47.5619V34.187L0.312587 39.6244C0.125122 39.7495 0 39.937 0 40.1244V54.1243C0 54.4993 0.249808 54.7491 0.625174 54.7491L0.625186 54.7497Z" fill="#111111"/>
<path d="M23.4999 1.5001L21.8751 0L20.2502 1.5001C16.3749 5.12508 13.4374 9.68744 11.5627 14.75H32.1876C30.3125 9.68767 27.375 5.1253 23.4997 1.5001H23.4999Z" fill="#111111"/>
<path d="M35.625 34.1873V47.2497L39.4999 54.3746C39.625 54.5621 39.8125 54.7496 40.0623 54.7496H43.1249C43.4998 54.7496 43.75 54.4998 43.75 54.1244V40.1245C43.75 39.937 43.6249 39.7495 43.5002 39.6244L35.625 34.1873Z" fill="#111111"/>
<path d="M26.0624 51.6247H28.1249C28.4999 51.6247 28.7501 51.3749 28.7501 50.9995V48.4998H25.0627L25.5005 51.1247C25.5 51.375 25.7498 51.6248 26.0624 51.6248L26.0624 51.6247Z" fill="#111111"/>
<path d="M15.6252 51.6247H17.6877C18.0002 51.6247 18.25 51.3749 18.3128 51.1246L18.7505 48.4996H15V50.9994C15 51.3748 15.2502 51.6246 15.6252 51.6246L15.6252 51.6247Z" fill="#111111"/>
<path d="M34.3748 28.4999H9.375V47.2498H18.9374L21.2498 32.7499C21.3122 32.4373 21.5624 32.2498 21.875 32.2498C22.1876 32.2498 22.4374 32.4996 22.5002 32.7499L24.8125 47.2498H34.375L34.3748 28.4999Z" fill="#111111"/>
<path d="M24.3751 52.3746L23.6253 47.9369L21.8753 36.812L20.063 47.9994L19.3755 52.3743V52.4366L19.3131 52.999L19.1257 54.0615C19.0633 54.4364 19.3131 54.8113 19.7509 54.8113H24.1885C24.5635 54.8113 24.8761 54.4364 24.8137 54.0615L24.6263 52.999L24.3751 52.3746Z" fill="#111111"/>
</svg>
