<svg width="278" height="270" viewBox="0 0 278 270" fill="none" xmlns="http://www.w3.org/2000/svg">
<rect x="0.5" y="0.5" width="277" height="269" rx="19.5" fill="#0063FD" stroke="#D4D4D4"/>
<path d="M72.9229 216.226C72.8029 216.094 72.6289 215.956 72.4009 215.812C72.1729 215.656 71.9029 215.512 71.5909 215.38C71.2909 215.248 70.9549 215.14 70.5829 215.056C70.2229 214.972 69.8509 214.93 69.4669 214.93C68.6149 214.93 67.9849 215.086 67.5769 215.398C67.1809 215.71 66.9829 216.142 66.9829 216.694C66.9829 217.006 67.0429 217.264 67.1629 217.468C67.2949 217.66 67.4929 217.834 67.7569 217.99C68.0209 218.134 68.3509 218.266 68.7469 218.386C69.1429 218.494 69.6049 218.614 70.1329 218.746C70.7809 218.902 71.3629 219.076 71.8789 219.268C72.4069 219.46 72.8509 219.694 73.2109 219.97C73.5709 220.246 73.8469 220.588 74.0389 220.996C74.2429 221.392 74.3449 221.878 74.3449 222.454C74.3449 223.102 74.2189 223.66 73.9669 224.128C73.7269 224.596 73.3909 224.98 72.9589 225.28C72.5389 225.568 72.0469 225.784 71.4829 225.928C70.9189 226.06 70.3129 226.126 69.6649 226.126C68.6929 226.126 67.7509 225.982 66.8389 225.694C65.9389 225.394 65.1229 224.962 64.3909 224.398L65.3089 222.67C65.4649 222.826 65.6869 223 65.9749 223.192C66.2749 223.384 66.6169 223.564 67.0009 223.732C67.3969 223.888 67.8229 224.026 68.2789 224.146C68.7349 224.254 69.2089 224.308 69.7009 224.308C70.4929 224.308 71.1049 224.17 71.5369 223.894C71.9689 223.618 72.1849 223.21 72.1849 222.67C72.1849 222.346 72.1009 222.076 71.9329 221.86C71.7769 221.644 71.5489 221.458 71.2489 221.302C70.9489 221.134 70.5829 220.984 70.1509 220.852C69.7189 220.72 69.2269 220.582 68.6749 220.438C68.0389 220.27 67.4809 220.096 67.0009 219.916C66.5329 219.724 66.1429 219.496 65.8309 219.232C65.5189 218.968 65.2789 218.662 65.1109 218.314C64.9549 217.954 64.8769 217.522 64.8769 217.018C64.8769 216.394 64.9969 215.842 65.2369 215.362C65.4769 214.87 65.8009 214.462 66.2089 214.138C66.6289 213.802 67.1209 213.55 67.6849 213.382C68.2489 213.214 68.8609 213.13 69.5209 213.13C70.3849 213.13 71.1829 213.268 71.9149 213.544C72.6469 213.82 73.2889 214.162 73.8409 214.57L72.9229 216.226ZM80.3808 226.18C79.6488 226.18 78.9828 226.054 78.3828 225.802C77.7828 225.538 77.2668 225.184 76.8348 224.74C76.4148 224.296 76.0848 223.78 75.8448 223.192C75.6168 222.604 75.5028 221.98 75.5028 221.32C75.5028 220.66 75.6168 220.036 75.8448 219.448C76.0848 218.848 76.4148 218.326 76.8348 217.882C77.2668 217.426 77.7828 217.072 78.3828 216.82C78.9828 216.556 79.6548 216.424 80.3988 216.424C81.1308 216.424 81.7908 216.556 82.3788 216.82C82.9788 217.084 83.4888 217.438 83.9088 217.882C84.3288 218.314 84.6468 218.824 84.8628 219.412C85.0908 219.988 85.2048 220.594 85.2048 221.23C85.2048 221.374 85.1988 221.512 85.1868 221.644C85.1748 221.764 85.1628 221.866 85.1508 221.95H77.6088C77.6448 222.37 77.7408 222.748 77.8968 223.084C78.0648 223.42 78.2748 223.714 78.5268 223.966C78.7908 224.206 79.0848 224.392 79.4088 224.524C79.7448 224.656 80.0928 224.722 80.4528 224.722C80.7168 224.722 80.9748 224.692 81.2268 224.632C81.4908 224.56 81.7308 224.464 81.9468 224.344C82.1628 224.212 82.3548 224.056 82.5228 223.876C82.6908 223.696 82.8228 223.498 82.9188 223.282L84.6108 223.768C84.2868 224.476 83.7468 225.058 82.9908 225.514C82.2468 225.958 81.3768 226.18 80.3808 226.18ZM83.2428 220.582C83.2068 220.186 83.1048 219.82 82.9368 219.484C82.7808 219.148 82.5768 218.866 82.3248 218.638C82.0728 218.398 81.7788 218.212 81.4428 218.08C81.1068 217.948 80.7528 217.882 80.3808 217.882C80.0088 217.882 79.6548 217.948 79.3188 218.08C78.9948 218.212 78.7068 218.398 78.4548 218.638C78.2028 218.866 77.9988 219.148 77.8428 219.484C77.6868 219.82 77.5908 220.186 77.5548 220.582H83.2428ZM86.2078 221.284C86.2078 220.624 86.3218 220 86.5498 219.412C86.7778 218.824 87.1018 218.308 87.5218 217.864C87.9538 217.42 88.4698 217.072 89.0698 216.82C89.6698 216.556 90.3418 216.424 91.0858 216.424C92.0578 216.424 92.8918 216.64 93.5878 217.072C94.2958 217.492 94.8238 218.056 95.1718 218.764L93.2458 219.376C93.0178 218.98 92.7118 218.674 92.3278 218.458C91.9438 218.23 91.5178 218.116 91.0498 218.116C90.6538 218.116 90.2818 218.194 89.9338 218.35C89.5978 218.506 89.3038 218.728 89.0518 219.016C88.7998 219.292 88.6018 219.622 88.4578 220.006C88.3138 220.39 88.2418 220.816 88.2418 221.284C88.2418 221.74 88.3138 222.166 88.4578 222.562C88.6138 222.946 88.8178 223.282 89.0698 223.57C89.3338 223.858 89.6338 224.086 89.9698 224.254C90.3178 224.41 90.6838 224.488 91.0678 224.488C91.3078 224.488 91.5478 224.458 91.7878 224.398C92.0278 224.326 92.2438 224.23 92.4358 224.11C92.6398 223.99 92.8138 223.852 92.9578 223.696C93.1138 223.54 93.2278 223.372 93.2998 223.192L95.2438 223.768C94.9318 224.476 94.4098 225.058 93.6778 225.514C92.9458 225.958 92.0818 226.18 91.0858 226.18C90.3538 226.18 89.6878 226.048 89.0878 225.784C88.4878 225.52 87.9718 225.166 87.5398 224.722C87.1198 224.266 86.7898 223.744 86.5498 223.156C86.3218 222.568 86.2078 221.944 86.2078 221.284ZM99.7725 226.18C98.7885 226.18 98.0445 225.862 97.5405 225.226C97.0365 224.578 96.7845 223.618 96.7845 222.346V216.586H98.7645V221.95C98.7645 223.642 99.3645 224.488 100.565 224.488C101.129 224.488 101.663 224.314 102.167 223.966C102.671 223.618 103.061 223.114 103.337 222.454V216.586H105.317V223.66C105.317 223.888 105.353 224.05 105.425 224.146C105.509 224.242 105.653 224.296 105.857 224.308V226C105.653 226.036 105.485 226.06 105.353 226.072C105.221 226.084 105.095 226.09 104.975 226.09C104.615 226.09 104.309 225.994 104.057 225.802C103.805 225.598 103.673 225.34 103.661 225.028L103.625 224.092C103.205 224.776 102.659 225.298 101.987 225.658C101.315 226.006 100.577 226.18 99.7725 226.18ZM113.135 218.296C112.367 218.32 111.683 218.5 111.083 218.836C110.495 219.16 110.075 219.628 109.823 220.24V226H107.843V216.586H109.679V218.692C110.003 218.044 110.423 217.528 110.939 217.144C111.467 216.748 112.031 216.532 112.631 216.496C112.751 216.496 112.847 216.496 112.919 216.496C113.003 216.496 113.075 216.502 113.135 216.514V218.296ZM118.367 226.18C117.635 226.18 116.969 226.054 116.369 225.802C115.769 225.538 115.253 225.184 114.821 224.74C114.401 224.296 114.071 223.78 113.831 223.192C113.603 222.604 113.489 221.98 113.489 221.32C113.489 220.66 113.603 220.036 113.831 219.448C114.071 218.848 114.401 218.326 114.821 217.882C115.253 217.426 115.769 217.072 116.369 216.82C116.969 216.556 117.641 216.424 118.385 216.424C119.117 216.424 119.777 216.556 120.365 216.82C120.965 217.084 121.475 217.438 121.895 217.882C122.315 218.314 122.633 218.824 122.849 219.412C123.077 219.988 123.191 220.594 123.191 221.23C123.191 221.374 123.185 221.512 123.173 221.644C123.161 221.764 123.149 221.866 123.137 221.95H115.595C115.631 222.37 115.727 222.748 115.883 223.084C116.051 223.42 116.261 223.714 116.513 223.966C116.777 224.206 117.071 224.392 117.395 224.524C117.731 224.656 118.079 224.722 118.439 224.722C118.703 224.722 118.961 224.692 119.213 224.632C119.477 224.56 119.717 224.464 119.933 224.344C120.149 224.212 120.341 224.056 120.509 223.876C120.677 223.696 120.809 223.498 120.905 223.282L122.597 223.768C122.273 224.476 121.733 225.058 120.977 225.514C120.233 225.958 119.363 226.18 118.367 226.18ZM121.229 220.582C121.193 220.186 121.091 219.82 120.923 219.484C120.767 219.148 120.563 218.866 120.311 218.638C120.059 218.398 119.765 218.212 119.429 218.08C119.093 217.948 118.739 217.882 118.367 217.882C117.995 217.882 117.641 217.948 117.305 218.08C116.981 218.212 116.693 218.398 116.441 218.638C116.189 218.866 115.985 219.148 115.829 219.484C115.673 219.82 115.577 220.186 115.541 220.582H121.229ZM128.64 226.18C128.004 226.18 127.416 226.054 126.876 225.802C126.336 225.538 125.868 225.184 125.472 224.74C125.076 224.296 124.764 223.78 124.536 223.192C124.32 222.592 124.212 221.95 124.212 221.266C124.212 220.606 124.314 219.988 124.518 219.412C124.734 218.824 125.028 218.308 125.4 217.864C125.784 217.42 126.228 217.072 126.732 216.82C127.248 216.556 127.812 216.424 128.424 216.424C129.18 216.424 129.846 216.61 130.422 216.982C130.998 217.342 131.448 217.804 131.772 218.368V212.86H133.752V223.66C133.752 223.888 133.788 224.05 133.86 224.146C133.944 224.242 134.088 224.296 134.292 224.308V226C134.088 226.036 133.92 226.06 133.788 226.072C133.668 226.084 133.566 226.09 133.482 226.09C133.086 226.09 132.762 225.988 132.51 225.784C132.258 225.58 132.12 225.316 132.096 224.992L132.06 224.29C131.712 224.878 131.238 225.34 130.638 225.676C130.038 226.012 129.372 226.18 128.64 226.18ZM129.126 224.488C129.414 224.488 129.702 224.44 129.99 224.344C130.278 224.248 130.542 224.116 130.782 223.948C131.022 223.78 131.226 223.582 131.394 223.354C131.574 223.126 131.7 222.88 131.772 222.616V220.15C131.664 219.85 131.508 219.574 131.304 219.322C131.112 219.07 130.89 218.854 130.638 218.674C130.386 218.494 130.116 218.356 129.828 218.26C129.552 218.164 129.27 218.116 128.982 218.116C128.586 218.116 128.22 218.206 127.884 218.386C127.56 218.566 127.278 218.806 127.038 219.106C126.798 219.406 126.606 219.748 126.462 220.132C126.33 220.516 126.264 220.912 126.264 221.32C126.264 221.752 126.336 222.16 126.48 222.544C126.636 222.928 126.846 223.264 127.11 223.552C127.374 223.84 127.674 224.068 128.01 224.236C128.358 224.404 128.73 224.488 129.126 224.488ZM140.966 226V213.22H146.33C146.906 213.22 147.434 213.34 147.914 213.58C148.406 213.82 148.826 214.138 149.174 214.534C149.522 214.918 149.792 215.362 149.984 215.866C150.188 216.358 150.29 216.862 150.29 217.378C150.29 217.918 150.194 218.44 150.002 218.944C149.822 219.436 149.564 219.88 149.228 220.276C148.892 220.66 148.484 220.972 148.004 221.212C147.536 221.44 147.014 221.554 146.438 221.554H142.982V226H140.966ZM142.982 219.772H146.312C146.6 219.772 146.858 219.712 147.086 219.592C147.326 219.472 147.53 219.304 147.698 219.088C147.866 218.872 147.998 218.62 148.094 218.332C148.19 218.044 148.238 217.726 148.238 217.378C148.238 217.018 148.184 216.694 148.076 216.406C147.968 216.118 147.818 215.872 147.626 215.668C147.434 215.452 147.212 215.29 146.96 215.182C146.72 215.062 146.468 215.002 146.204 215.002H142.982V219.772ZM154.343 226.18C153.887 226.18 153.461 226.108 153.065 225.964C152.681 225.808 152.345 225.598 152.057 225.334C151.781 225.07 151.559 224.758 151.391 224.398C151.235 224.038 151.157 223.648 151.157 223.228C151.157 222.784 151.253 222.382 151.445 222.022C151.637 221.662 151.907 221.35 152.255 221.086C152.615 220.822 153.035 220.618 153.515 220.474C154.007 220.33 154.547 220.258 155.135 220.258C155.579 220.258 156.017 220.3 156.449 220.384C156.881 220.456 157.271 220.558 157.619 220.69V220.042C157.619 219.346 157.421 218.806 157.025 218.422C156.629 218.026 156.059 217.828 155.315 217.828C154.811 217.828 154.313 217.924 153.821 218.116C153.341 218.296 152.843 218.56 152.327 218.908L151.715 217.648C152.927 216.832 154.187 216.424 155.495 216.424C156.791 216.424 157.799 216.754 158.519 217.414C159.239 218.074 159.599 219.022 159.599 220.258V223.66C159.599 224.08 159.773 224.296 160.121 224.308V226C159.929 226.036 159.761 226.06 159.617 226.072C159.485 226.084 159.353 226.09 159.221 226.09C158.837 226.09 158.537 225.994 158.321 225.802C158.117 225.61 157.991 225.364 157.943 225.064L157.889 224.47C157.469 225.022 156.947 225.448 156.323 225.748C155.711 226.036 155.051 226.18 154.343 226.18ZM154.883 224.722C155.363 224.722 155.813 224.638 156.233 224.47C156.665 224.29 157.001 224.044 157.241 223.732C157.493 223.516 157.619 223.288 157.619 223.048V221.806C157.283 221.674 156.923 221.572 156.539 221.5C156.167 221.428 155.801 221.392 155.441 221.392C154.733 221.392 154.151 221.548 153.695 221.86C153.251 222.16 153.029 222.562 153.029 223.066C153.029 223.534 153.203 223.93 153.551 224.254C153.899 224.566 154.343 224.722 154.883 224.722ZM162.097 228.214C162.277 228.25 162.451 228.28 162.619 228.304C162.799 228.328 162.943 228.34 163.051 228.34C163.207 228.34 163.339 228.304 163.447 228.232C163.567 228.172 163.687 228.058 163.807 227.89C163.927 227.722 164.047 227.482 164.167 227.17C164.299 226.87 164.449 226.48 164.617 226L160.747 216.586H162.781L165.697 224.254L168.289 216.586H170.161L165.895 228.178C165.703 228.718 165.367 229.168 164.887 229.528C164.419 229.9 163.813 230.086 163.069 230.086C162.925 230.086 162.775 230.074 162.619 230.05C162.463 230.038 162.289 230.002 162.097 229.942V228.214ZM186.017 226H184.037V220.726C184.037 219.85 183.893 219.208 183.605 218.8C183.317 218.392 182.897 218.188 182.345 218.188C181.781 218.188 181.265 218.398 180.797 218.818C180.341 219.226 180.011 219.76 179.807 220.42V226H177.827V220.726C177.827 219.838 177.683 219.196 177.395 218.8C177.107 218.392 176.693 218.188 176.153 218.188C175.589 218.188 175.073 218.392 174.605 218.8C174.137 219.208 173.801 219.742 173.597 220.402V226H171.617V216.586H173.417V218.476C173.789 217.816 174.275 217.312 174.875 216.964C175.487 216.604 176.183 216.424 176.963 216.424C177.743 216.424 178.355 216.628 178.799 217.036C179.255 217.444 179.537 217.954 179.645 218.566C180.041 217.87 180.539 217.342 181.139 216.982C181.739 216.61 182.423 216.424 183.191 216.424C183.743 216.424 184.199 216.532 184.559 216.748C184.931 216.952 185.225 217.228 185.441 217.576C185.657 217.924 185.807 218.332 185.891 218.8C185.975 219.256 186.017 219.742 186.017 220.258V226ZM192.564 226.18C191.832 226.18 191.166 226.054 190.566 225.802C189.966 225.538 189.45 225.184 189.018 224.74C188.598 224.296 188.268 223.78 188.028 223.192C187.8 222.604 187.686 221.98 187.686 221.32C187.686 220.66 187.8 220.036 188.028 219.448C188.268 218.848 188.598 218.326 189.018 217.882C189.45 217.426 189.966 217.072 190.566 216.82C191.166 216.556 191.838 216.424 192.582 216.424C193.314 216.424 193.974 216.556 194.562 216.82C195.162 217.084 195.672 217.438 196.092 217.882C196.512 218.314 196.83 218.824 197.046 219.412C197.274 219.988 197.388 220.594 197.388 221.23C197.388 221.374 197.382 221.512 197.37 221.644C197.358 221.764 197.346 221.866 197.334 221.95H189.792C189.828 222.37 189.924 222.748 190.08 223.084C190.248 223.42 190.458 223.714 190.71 223.966C190.974 224.206 191.268 224.392 191.592 224.524C191.928 224.656 192.276 224.722 192.636 224.722C192.9 224.722 193.158 224.692 193.41 224.632C193.674 224.56 193.914 224.464 194.13 224.344C194.346 224.212 194.538 224.056 194.706 223.876C194.874 223.696 195.006 223.498 195.102 223.282L196.794 223.768C196.47 224.476 195.93 225.058 195.174 225.514C194.43 225.958 193.56 226.18 192.564 226.18ZM195.426 220.582C195.39 220.186 195.288 219.82 195.12 219.484C194.964 219.148 194.76 218.866 194.508 218.638C194.256 218.398 193.962 218.212 193.626 218.08C193.29 217.948 192.936 217.882 192.564 217.882C192.192 217.882 191.838 217.948 191.502 218.08C191.178 218.212 190.89 218.398 190.638 218.638C190.386 218.866 190.182 219.148 190.026 219.484C189.87 219.82 189.774 220.186 189.738 220.582H195.426ZM207.445 226H205.465V220.726C205.465 219.838 205.321 219.196 205.033 218.8C204.757 218.392 204.343 218.188 203.791 218.188C203.503 218.188 203.215 218.242 202.927 218.35C202.639 218.458 202.369 218.614 202.117 218.818C201.865 219.01 201.637 219.244 201.433 219.52C201.241 219.784 201.091 220.078 200.983 220.402V226H199.003V216.586H200.803V218.476C201.163 217.84 201.685 217.342 202.369 216.982C203.053 216.61 203.809 216.424 204.637 216.424C205.201 216.424 205.663 216.526 206.023 216.73C206.383 216.934 206.665 217.216 206.869 217.576C207.085 217.924 207.235 218.332 207.319 218.8C207.403 219.256 207.445 219.742 207.445 220.258V226ZM214.894 225.514C214.642 225.634 214.294 225.772 213.85 225.928C213.406 226.072 212.932 226.144 212.428 226.144C212.116 226.144 211.822 226.102 211.546 226.018C211.27 225.934 211.024 225.808 210.808 225.64C210.604 225.472 210.442 225.256 210.322 224.992C210.202 224.716 210.142 224.386 210.142 224.002V218.116H208.9V216.586H210.142V213.49H212.122V216.586H214.174V218.116H212.122V223.372C212.146 223.708 212.248 223.954 212.428 224.11C212.62 224.254 212.854 224.326 213.13 224.326C213.406 224.326 213.67 224.278 213.922 224.182C214.174 224.086 214.36 224.008 214.48 223.948L214.894 225.514Z" fill="white"/>
<path fill-rule="evenodd" clip-rule="evenodd" d="M137.372 27.0075C173.913 26.5873 211.489 43.8219 221.894 78.8301C231.721 111.894 205.527 141.352 177.223 161.09C150.999 179.378 117.391 188.099 90.9264 170.161C61.9041 150.489 47.8165 114.045 58.6326 80.7077C69.4678 47.3115 102.244 27.4115 137.372 27.0075Z" fill="white" fill-opacity="0.2"/>
<path d="M177.125 99.3334C177.125 119.708 162.333 138.792 142.125 144.375C140.75 144.75 139.25 144.75 137.875 144.375C117.667 138.792 102.875 119.708 102.875 99.3334V81.0417C102.875 77.625 105.458 73.75 108.667 72.4584L131.875 62.9585C137.083 60.8335 142.958 60.8335 148.167 62.9585L171.375 72.4584C174.542 73.75 177.167 77.625 177.167 81.0417L177.125 99.3334Z" stroke="white" stroke-width="2.5" stroke-linecap="round" stroke-linejoin="round"/>
<path d="M139.999 105.083C144.602 105.083 148.333 101.352 148.333 96.7498C148.333 92.1475 144.602 88.4165 139.999 88.4165C135.397 88.4165 131.666 92.1475 131.666 96.7498C131.666 101.352 135.397 105.083 139.999 105.083Z" stroke="white" stroke-width="2.5" stroke-miterlimit="10" stroke-linecap="round" stroke-linejoin="round"/>
<path d="M140 105.083V117.583" stroke="white" stroke-width="2.5" stroke-miterlimit="10" stroke-linecap="round" stroke-linejoin="round"/>
</svg>
