<svg width="204" height="182" viewBox="0 0 204 182" fill="none" xmlns="http://www.w3.org/2000/svg">
<g clip-path="url(#clip0)">
<path d="M8.22092 0.800064C8.72101 0.800064 9.12617 0.438592 9.12617 -0.00756064C9.12617 -0.452449 8.72101 -0.815186 8.22092 -0.815186C7.72084 -0.815186 7.31567 -0.452449 7.31567 -0.00756064C7.31567 0.438592 7.72084 0.800064 8.22092 0.800064Z" fill="white"/>
<path d="M18.4211 0.800064C18.9212 0.800064 19.3264 0.438592 19.3264 -0.00756064C19.3264 -0.452449 18.9212 -0.815186 18.4211 -0.815186C17.921 -0.815186 17.5159 -0.452449 17.5159 -0.00756064C17.5159 0.438592 17.921 0.800064 18.4211 0.800064Z" fill="white"/>
<path d="M28.6208 0.800064C29.1209 0.800064 29.5261 0.438592 29.5261 -0.00756064C29.5261 -0.452449 29.1209 -0.815186 28.6208 -0.815186C28.1207 -0.815186 27.7156 -0.452449 27.7156 -0.00756064C27.7156 0.438592 28.1207 0.800064 28.6208 0.800064Z" fill="white"/>
<path d="M38.821 0.800064C39.3211 0.800064 39.7263 0.438592 39.7263 -0.00756064C39.7263 -0.452449 39.3211 -0.815186 38.821 -0.815186C38.3209 -0.815186 37.9158 -0.452449 37.9158 -0.00756064C37.9158 0.438592 38.3209 0.800064 38.821 0.800064Z" fill="white"/>
<path d="M49.021 0.800064C49.5211 0.800064 49.9262 0.438592 49.9262 -0.00756064C49.9262 -0.452449 49.5211 -0.815186 49.021 -0.815186C48.5209 -0.815186 48.1157 -0.452449 48.1157 -0.00756064C48.1157 0.438592 48.5209 0.800064 49.021 0.800064Z" fill="white"/>
<path d="M59.2209 0.800064C59.721 0.800064 60.1262 0.438592 60.1262 -0.00756064C60.1262 -0.452449 59.721 -0.815186 59.2209 -0.815186C58.7208 -0.815186 58.3157 -0.452449 58.3157 -0.00756064C58.3157 0.438592 58.7208 0.800064 59.2209 0.800064Z" fill="white"/>
<path d="M69.4209 0.800064C69.9209 0.800064 70.3261 0.438592 70.3261 -0.00756064C70.3261 -0.452449 69.9209 -0.815186 69.4209 -0.815186C68.9208 -0.815186 68.5156 -0.452449 68.5156 -0.00756064C68.5156 0.438592 68.9208 0.800064 69.4209 0.800064Z" fill="white"/>
<path d="M79.6211 0.800064C80.1212 0.800064 80.5263 0.438592 80.5263 -0.00756064C80.5263 -0.452449 80.1212 -0.815186 79.6211 -0.815186C79.121 -0.815186 78.7158 -0.452449 78.7158 -0.00756064C78.7158 0.438592 79.121 0.800064 79.6211 0.800064Z" fill="white"/>
<path d="M89.821 0.800064C90.3211 0.800064 90.7263 0.438592 90.7263 -0.00756064C90.7263 -0.452449 90.3211 -0.815186 89.821 -0.815186C89.3209 -0.815186 88.9158 -0.452449 88.9158 -0.00756064C88.9158 0.438592 89.3209 0.800064 89.821 0.800064Z" fill="white"/>
<path d="M100.021 0.800064C100.521 0.800064 100.926 0.438592 100.926 -0.00756064C100.926 -0.452449 100.521 -0.815186 100.021 -0.815186C99.5209 -0.815186 99.1157 -0.452449 99.1157 -0.00756064C99.1157 0.438592 99.5209 0.800064 100.021 0.800064Z" fill="white"/>
<path d="M110.221 0.800064C110.721 0.800064 111.126 0.438592 111.126 -0.00756064C111.126 -0.452449 110.721 -0.815186 110.221 -0.815186C109.721 -0.815186 109.316 -0.452449 109.316 -0.00756064C109.316 0.438592 109.721 0.800064 110.221 0.800064Z" fill="white"/>
<path d="M120.421 0.800064C120.921 0.800064 121.326 0.438592 121.326 -0.00756064C121.326 -0.452449 120.921 -0.815186 120.421 -0.815186C119.921 -0.815186 119.516 -0.452449 119.516 -0.00756064C119.516 0.438592 119.921 0.800064 120.421 0.800064Z" fill="white"/>
<path d="M130.621 0.800064C131.121 0.800064 131.526 0.438592 131.526 -0.00756064C131.526 -0.452449 131.121 -0.815186 130.621 -0.815186C130.121 -0.815186 129.716 -0.452449 129.716 -0.00756064C129.716 0.438592 130.121 0.800064 130.621 0.800064Z" fill="white"/>
<path d="M140.821 0.800064C141.321 0.800064 141.726 0.438592 141.726 -0.00756064C141.726 -0.452449 141.321 -0.815186 140.821 -0.815186C140.321 -0.815186 139.916 -0.452449 139.916 -0.00756064C139.916 0.438592 140.321 0.800064 140.821 0.800064Z" fill="white"/>
<path d="M151.021 0.800064C151.521 0.800064 151.926 0.438592 151.926 -0.00756064C151.926 -0.452449 151.521 -0.815186 151.021 -0.815186C150.521 -0.815186 150.116 -0.452449 150.116 -0.00756064C150.116 0.438592 150.521 0.800064 151.021 0.800064Z" fill="white"/>
<path d="M161.221 0.800064C161.721 0.800064 162.126 0.438592 162.126 -0.00756064C162.126 -0.452449 161.721 -0.815186 161.221 -0.815186C160.721 -0.815186 160.316 -0.452449 160.316 -0.00756064C160.316 0.438592 160.721 0.800064 161.221 0.800064Z" fill="white"/>
<path d="M171.421 0.800064C171.921 0.800064 172.326 0.438592 172.326 -0.00756064C172.326 -0.452449 171.921 -0.815186 171.421 -0.815186C170.921 -0.815186 170.516 -0.452449 170.516 -0.00756064C170.516 0.438592 170.921 0.800064 171.421 0.800064Z" fill="white"/>
<path d="M181.621 0.800064C182.121 0.800064 182.526 0.438592 182.526 -0.00756064C182.526 -0.452449 182.121 -0.815186 181.621 -0.815186C181.121 -0.815186 180.716 -0.452449 180.716 -0.00756064C180.716 0.438592 181.121 0.800064 181.621 0.800064Z" fill="white"/>
<path d="M191.821 0.800064C192.321 0.800064 192.726 0.438592 192.726 -0.00756064C192.726 -0.452449 192.321 -0.815186 191.821 -0.815186C191.321 -0.815186 190.916 -0.452449 190.916 -0.00756064C190.916 0.438592 191.321 0.800064 191.821 0.800064Z" fill="white"/>
<path d="M202.021 0.800064C202.521 0.800064 202.926 0.438592 202.926 -0.00756064C202.926 -0.452449 202.521 -0.815186 202.021 -0.815186C201.521 -0.815186 201.116 -0.452449 201.116 -0.00756064C201.116 0.438592 201.521 0.800064 202.021 0.800064Z" fill="white"/>
<path d="M3.12083 9.89992C3.62091 9.89992 4.02608 9.53845 4.02608 9.09229C4.02608 8.6474 3.62091 8.28467 3.12083 8.28467C2.62074 8.28467 2.21558 8.6474 2.21558 9.09229C2.21558 9.53845 2.62074 9.89992 3.12083 9.89992Z" fill="white"/>
<path d="M13.321 9.89992C13.8211 9.89992 14.2263 9.53845 14.2263 9.09229C14.2263 8.6474 13.8211 8.28467 13.321 8.28467C12.8209 8.28467 12.4158 8.6474 12.4158 9.09229C12.4158 9.53845 12.8209 9.89992 13.321 9.89992Z" fill="white"/>
<path d="M23.521 9.89992C24.0211 9.89992 24.4262 9.53845 24.4262 9.09229C24.4262 8.6474 24.0211 8.28467 23.521 8.28467C23.0209 8.28467 22.6157 8.6474 22.6157 9.09229C22.6157 9.53845 23.0209 9.89992 23.521 9.89992Z" fill="white"/>
<path d="M33.7209 9.89992C34.221 9.89992 34.6262 9.53845 34.6262 9.09229C34.6262 8.6474 34.221 8.28467 33.7209 8.28467C33.2208 8.28467 32.8157 8.6474 32.8157 9.09229C32.8157 9.53845 33.2208 9.89992 33.7209 9.89992Z" fill="white"/>
<path d="M43.9211 9.89992C44.4212 9.89992 44.8264 9.53845 44.8264 9.09229C44.8264 8.6474 44.4212 8.28467 43.9211 8.28467C43.421 8.28467 43.0159 8.6474 43.0159 9.09229C43.0159 9.53845 43.421 9.89992 43.9211 9.89992Z" fill="white"/>
<path d="M54.1211 9.89992C54.6212 9.89992 55.0263 9.53845 55.0263 9.09229C55.0263 8.6474 54.6212 8.28467 54.1211 8.28467C53.621 8.28467 53.2158 8.6474 53.2158 9.09229C53.2158 9.53845 53.621 9.89992 54.1211 9.89992Z" fill="white"/>
<path d="M64.321 9.89992C64.8211 9.89992 65.2263 9.53845 65.2263 9.09229C65.2263 8.6474 64.8211 8.28467 64.321 8.28467C63.8209 8.28467 63.4158 8.6474 63.4158 9.09229C63.4158 9.53845 63.8209 9.89992 64.321 9.89992Z" fill="white"/>
<path d="M74.521 9.89992C75.0211 9.89992 75.4262 9.53845 75.4262 9.09229C75.4262 8.6474 75.0211 8.28467 74.521 8.28467C74.0209 8.28467 73.6157 8.6474 73.6157 9.09229C73.6157 9.53845 74.0209 9.89992 74.521 9.89992Z" fill="white"/>
<path d="M84.7209 9.89992C85.221 9.89992 85.6262 9.53845 85.6262 9.09229C85.6262 8.6474 85.221 8.28467 84.7209 8.28467C84.2208 8.28467 83.8157 8.6474 83.8157 9.09229C83.8157 9.53845 84.2208 9.89992 84.7209 9.89992Z" fill="white"/>
<path d="M94.9211 9.89992C95.4212 9.89992 95.8264 9.53845 95.8264 9.09229C95.8264 8.6474 95.4212 8.28467 94.9211 8.28467C94.421 8.28467 94.0159 8.6474 94.0159 9.09229C94.0159 9.53845 94.421 9.89992 94.9211 9.89992Z" fill="white"/>
<path d="M105.121 9.89992C105.621 9.89992 106.026 9.53845 106.026 9.09229C106.026 8.6474 105.621 8.28467 105.121 8.28467C104.621 8.28467 104.216 8.6474 104.216 9.09229C104.216 9.53845 104.621 9.89992 105.121 9.89992Z" fill="white"/>
<path d="M115.321 9.89992C115.821 9.89992 116.226 9.53845 116.226 9.09229C116.226 8.6474 115.821 8.28467 115.321 8.28467C114.821 8.28467 114.416 8.6474 114.416 9.09229C114.416 9.53845 114.821 9.89992 115.321 9.89992Z" fill="white"/>
<path d="M125.521 9.89992C126.021 9.89992 126.426 9.53845 126.426 9.09229C126.426 8.6474 126.021 8.28467 125.521 8.28467C125.021 8.28467 124.616 8.6474 124.616 9.09229C124.616 9.53845 125.021 9.89992 125.521 9.89992Z" fill="white"/>
<path d="M135.721 9.89992C136.221 9.89992 136.626 9.53845 136.626 9.09229C136.626 8.6474 136.221 8.28467 135.721 8.28467C135.221 8.28467 134.816 8.6474 134.816 9.09229C134.816 9.53845 135.221 9.89992 135.721 9.89992Z" fill="white"/>
<path d="M145.921 9.89992C146.421 9.89992 146.826 9.53845 146.826 9.09229C146.826 8.6474 146.421 8.28467 145.921 8.28467C145.421 8.28467 145.016 8.6474 145.016 9.09229C145.016 9.53845 145.421 9.89992 145.921 9.89992Z" fill="white"/>
<path d="M156.121 9.89992C156.621 9.89992 157.026 9.53845 157.026 9.09229C157.026 8.6474 156.621 8.28467 156.121 8.28467C155.621 8.28467 155.216 8.6474 155.216 9.09229C155.216 9.53845 155.621 9.89992 156.121 9.89992Z" fill="white"/>
<path d="M166.321 9.89992C166.821 9.89992 167.226 9.53845 167.226 9.09229C167.226 8.6474 166.821 8.28467 166.321 8.28467C165.821 8.28467 165.416 8.6474 165.416 9.09229C165.416 9.53845 165.821 9.89992 166.321 9.89992Z" fill="white"/>
<path d="M176.521 9.89992C177.021 9.89992 177.426 9.53845 177.426 9.09229C177.426 8.6474 177.021 8.28467 176.521 8.28467C176.021 8.28467 175.616 8.6474 175.616 9.09229C175.616 9.53845 176.021 9.89992 176.521 9.89992Z" fill="white"/>
<path d="M186.721 9.89992C187.221 9.89992 187.626 9.53845 187.626 9.09229C187.626 8.6474 187.221 8.28467 186.721 8.28467C186.221 8.28467 185.816 8.6474 185.816 9.09229C185.816 9.53845 186.221 9.89992 186.721 9.89992Z" fill="white"/>
<path d="M196.921 9.89992C197.421 9.89992 197.826 9.53845 197.826 9.09229C197.826 8.6474 197.421 8.28467 196.921 8.28467C196.421 8.28467 196.016 8.6474 196.016 9.09229C196.016 9.53845 196.421 9.89992 196.921 9.89992Z" fill="white"/>
<path d="M8.22092 19C8.72101 19 9.12617 18.6385 9.12617 18.1923C9.12617 17.7475 8.72101 17.386 8.22092 17.386C7.72084 17.386 7.31567 17.7475 7.31567 18.1923C7.31567 18.6385 7.72084 19 8.22092 19Z" fill="white"/>
<path d="M18.4211 19C18.9212 19 19.3264 18.6385 19.3264 18.1923C19.3264 17.7475 18.9212 17.386 18.4211 17.386C17.921 17.386 17.5159 17.7475 17.5159 18.1923C17.5159 18.6385 17.921 19 18.4211 19Z" fill="white"/>
<path d="M28.6208 19C29.1209 19 29.5261 18.6385 29.5261 18.1923C29.5261 17.7475 29.1209 17.386 28.6208 17.386C28.1207 17.386 27.7156 17.7475 27.7156 18.1923C27.7156 18.6385 28.1207 19 28.6208 19Z" fill="white"/>
<path d="M38.821 19C39.3211 19 39.7263 18.6385 39.7263 18.1923C39.7263 17.7475 39.3211 17.386 38.821 17.386C38.3209 17.386 37.9158 17.7475 37.9158 18.1923C37.9158 18.6385 38.3209 19 38.821 19Z" fill="white"/>
<path d="M49.021 19C49.5211 19 49.9262 18.6385 49.9262 18.1923C49.9262 17.7475 49.5211 17.386 49.021 17.386C48.5209 17.386 48.1157 17.7475 48.1157 18.1923C48.1157 18.6385 48.5209 19 49.021 19Z" fill="white"/>
<path d="M59.2209 19C59.721 19 60.1262 18.6385 60.1262 18.1923C60.1262 17.7475 59.721 17.386 59.2209 17.386C58.7208 17.386 58.3157 17.7475 58.3157 18.1923C58.3157 18.6385 58.7208 19 59.2209 19Z" fill="white"/>
<path d="M69.4209 19C69.9209 19 70.3261 18.6385 70.3261 18.1923C70.3261 17.7475 69.9209 17.386 69.4209 17.386C68.9208 17.386 68.5156 17.7475 68.5156 18.1923C68.5156 18.6385 68.9208 19 69.4209 19Z" fill="white"/>
<path d="M79.6211 19C80.1212 19 80.5263 18.6385 80.5263 18.1923C80.5263 17.7475 80.1212 17.386 79.6211 17.386C79.121 17.386 78.7158 17.7475 78.7158 18.1923C78.7158 18.6385 79.121 19 79.6211 19Z" fill="white"/>
<path d="M89.821 19C90.3211 19 90.7263 18.6385 90.7263 18.1923C90.7263 17.7475 90.3211 17.386 89.821 17.386C89.3209 17.386 88.9158 17.7475 88.9158 18.1923C88.9158 18.6385 89.3209 19 89.821 19Z" fill="white"/>
<path d="M100.021 19C100.521 19 100.926 18.6385 100.926 18.1923C100.926 17.7475 100.521 17.386 100.021 17.386C99.5209 17.386 99.1157 17.7475 99.1157 18.1923C99.1157 18.6385 99.5209 19 100.021 19Z" fill="white"/>
<path d="M110.221 19C110.721 19 111.126 18.6385 111.126 18.1923C111.126 17.7475 110.721 17.386 110.221 17.386C109.721 17.386 109.316 17.7475 109.316 18.1923C109.316 18.6385 109.721 19 110.221 19Z" fill="white"/>
<path d="M120.421 19C120.921 19 121.326 18.6385 121.326 18.1923C121.326 17.7475 120.921 17.386 120.421 17.386C119.921 17.386 119.516 17.7475 119.516 18.1923C119.516 18.6385 119.921 19 120.421 19Z" fill="white"/>
<path d="M130.621 19C131.121 19 131.526 18.6385 131.526 18.1923C131.526 17.7475 131.121 17.386 130.621 17.386C130.121 17.386 129.716 17.7475 129.716 18.1923C129.716 18.6385 130.121 19 130.621 19Z" fill="white"/>
<path d="M140.821 19C141.321 19 141.726 18.6385 141.726 18.1923C141.726 17.7475 141.321 17.386 140.821 17.386C140.321 17.386 139.916 17.7475 139.916 18.1923C139.916 18.6385 140.321 19 140.821 19Z" fill="white"/>
<path d="M151.021 19C151.521 19 151.926 18.6385 151.926 18.1923C151.926 17.7475 151.521 17.386 151.021 17.386C150.521 17.386 150.116 17.7475 150.116 18.1923C150.116 18.6385 150.521 19 151.021 19Z" fill="white"/>
<path d="M161.221 19C161.721 19 162.126 18.6385 162.126 18.1923C162.126 17.7475 161.721 17.386 161.221 17.386C160.721 17.386 160.316 17.7475 160.316 18.1923C160.316 18.6385 160.721 19 161.221 19Z" fill="white"/>
<path d="M171.421 19C171.921 19 172.326 18.6385 172.326 18.1923C172.326 17.7475 171.921 17.386 171.421 17.386C170.921 17.386 170.516 17.7475 170.516 18.1923C170.516 18.6385 170.921 19 171.421 19Z" fill="white"/>
<path d="M181.621 19C182.121 19 182.526 18.6385 182.526 18.1923C182.526 17.7475 182.121 17.386 181.621 17.386C181.121 17.386 180.716 17.7475 180.716 18.1923C180.716 18.6385 181.121 19 181.621 19Z" fill="white"/>
<path d="M191.821 19C192.321 19 192.726 18.6385 192.726 18.1923C192.726 17.7475 192.321 17.386 191.821 17.386C191.321 17.386 190.916 17.7475 190.916 18.1923C190.916 18.6385 191.321 19 191.821 19Z" fill="white"/>
<path d="M202.021 19C202.521 19 202.926 18.6385 202.926 18.1923C202.926 17.7475 202.521 17.386 202.021 17.386C201.521 17.386 201.116 17.7475 201.116 18.1923C201.116 18.6385 201.521 19 202.021 19Z" fill="white"/>
<path d="M3.12083 28.0998C3.62091 28.0998 4.02608 27.7384 4.02608 27.2935C4.02608 26.8461 3.62091 26.4858 3.12083 26.4858C2.62074 26.4858 2.21558 26.8461 2.21558 27.2935C2.21558 27.7384 2.62074 28.0998 3.12083 28.0998Z" fill="white"/>
<path d="M13.321 28.0998C13.8211 28.0998 14.2263 27.7384 14.2263 27.2935C14.2263 26.8461 13.8211 26.4858 13.321 26.4858C12.8209 26.4858 12.4158 26.8461 12.4158 27.2935C12.4158 27.7384 12.8209 28.0998 13.321 28.0998Z" fill="white"/>
<path d="M23.521 28.0998C24.0211 28.0998 24.4262 27.7384 24.4262 27.2935C24.4262 26.8461 24.0211 26.4858 23.521 26.4858C23.0209 26.4858 22.6157 26.8461 22.6157 27.2935C22.6157 27.7384 23.0209 28.0998 23.521 28.0998Z" fill="white"/>
<path d="M33.7209 28.0998C34.221 28.0998 34.6262 27.7384 34.6262 27.2935C34.6262 26.8461 34.221 26.4858 33.7209 26.4858C33.2208 26.4858 32.8157 26.8461 32.8157 27.2935C32.8157 27.7384 33.2208 28.0998 33.7209 28.0998Z" fill="white"/>
<path d="M43.9211 28.0998C44.4212 28.0998 44.8264 27.7384 44.8264 27.2935C44.8264 26.8461 44.4212 26.4858 43.9211 26.4858C43.421 26.4858 43.0159 26.8461 43.0159 27.2935C43.0159 27.7384 43.421 28.0998 43.9211 28.0998Z" fill="white"/>
<path d="M54.1211 28.0998C54.6212 28.0998 55.0263 27.7384 55.0263 27.2935C55.0263 26.8461 54.6212 26.4858 54.1211 26.4858C53.621 26.4858 53.2158 26.8461 53.2158 27.2935C53.2158 27.7384 53.621 28.0998 54.1211 28.0998Z" fill="white"/>
<path d="M64.321 28.0998C64.8211 28.0998 65.2263 27.7384 65.2263 27.2935C65.2263 26.8461 64.8211 26.4858 64.321 26.4858C63.8209 26.4858 63.4158 26.8461 63.4158 27.2935C63.4158 27.7384 63.8209 28.0998 64.321 28.0998Z" fill="white"/>
<path d="M74.521 28.0998C75.0211 28.0998 75.4262 27.7384 75.4262 27.2935C75.4262 26.8461 75.0211 26.4858 74.521 26.4858C74.0209 26.4858 73.6157 26.8461 73.6157 27.2935C73.6157 27.7384 74.0209 28.0998 74.521 28.0998Z" fill="white"/>
<path d="M84.7209 28.0998C85.221 28.0998 85.6262 27.7384 85.6262 27.2935C85.6262 26.8461 85.221 26.4858 84.7209 26.4858C84.2208 26.4858 83.8157 26.8461 83.8157 27.2935C83.8157 27.7384 84.2208 28.0998 84.7209 28.0998Z" fill="white"/>
<path d="M94.9211 28.0998C95.4212 28.0998 95.8264 27.7384 95.8264 27.2935C95.8264 26.8461 95.4212 26.4858 94.9211 26.4858C94.421 26.4858 94.0159 26.8461 94.0159 27.2935C94.0159 27.7384 94.421 28.0998 94.9211 28.0998Z" fill="white"/>
<path d="M105.121 28.0998C105.621 28.0998 106.026 27.7384 106.026 27.2935C106.026 26.8461 105.621 26.4858 105.121 26.4858C104.621 26.4858 104.216 26.8461 104.216 27.2935C104.216 27.7384 104.621 28.0998 105.121 28.0998Z" fill="white"/>
<path d="M115.321 28.0998C115.821 28.0998 116.226 27.7384 116.226 27.2935C116.226 26.8461 115.821 26.4858 115.321 26.4858C114.821 26.4858 114.416 26.8461 114.416 27.2935C114.416 27.7384 114.821 28.0998 115.321 28.0998Z" fill="white"/>
<path d="M125.521 28.0998C126.021 28.0998 126.426 27.7384 126.426 27.2935C126.426 26.8461 126.021 26.4858 125.521 26.4858C125.021 26.4858 124.616 26.8461 124.616 27.2935C124.616 27.7384 125.021 28.0998 125.521 28.0998Z" fill="white"/>
<path d="M135.721 28.0998C136.221 28.0998 136.626 27.7384 136.626 27.2935C136.626 26.8461 136.221 26.4858 135.721 26.4858C135.221 26.4858 134.816 26.8461 134.816 27.2935C134.816 27.7384 135.221 28.0998 135.721 28.0998Z" fill="white"/>
<path d="M145.921 28.0998C146.421 28.0998 146.826 27.7384 146.826 27.2935C146.826 26.8461 146.421 26.4858 145.921 26.4858C145.421 26.4858 145.016 26.8461 145.016 27.2935C145.016 27.7384 145.421 28.0998 145.921 28.0998Z" fill="white"/>
<path d="M156.121 28.0998C156.621 28.0998 157.026 27.7384 157.026 27.2935C157.026 26.8461 156.621 26.4858 156.121 26.4858C155.621 26.4858 155.216 26.8461 155.216 27.2935C155.216 27.7384 155.621 28.0998 156.121 28.0998Z" fill="white"/>
<path d="M166.321 28.0998C166.821 28.0998 167.226 27.7384 167.226 27.2935C167.226 26.8461 166.821 26.4858 166.321 26.4858C165.821 26.4858 165.416 26.8461 165.416 27.2935C165.416 27.7384 165.821 28.0998 166.321 28.0998Z" fill="white"/>
<path d="M176.521 28.0998C177.021 28.0998 177.426 27.7384 177.426 27.2935C177.426 26.8461 177.021 26.4858 176.521 26.4858C176.021 26.4858 175.616 26.8461 175.616 27.2935C175.616 27.7384 176.021 28.0998 176.521 28.0998Z" fill="white"/>
<path d="M186.721 28.0998C187.221 28.0998 187.626 27.7384 187.626 27.2935C187.626 26.8461 187.221 26.4858 186.721 26.4858C186.221 26.4858 185.816 26.8461 185.816 27.2935C185.816 27.7384 186.221 28.0998 186.721 28.0998Z" fill="white"/>
<path d="M196.921 28.0998C197.421 28.0998 197.826 27.7384 197.826 27.2935C197.826 26.8461 197.421 26.4858 196.921 26.4858C196.421 26.4858 196.016 26.8461 196.016 27.2935C196.016 27.7384 196.421 28.0998 196.921 28.0998Z" fill="white"/>
<path d="M8.22092 37.1999C8.72101 37.1999 9.12617 36.8384 9.12617 36.3923C9.12617 35.9474 8.72101 35.5859 8.22092 35.5859C7.72084 35.5859 7.31567 35.9474 7.31567 36.3923C7.31567 36.8384 7.72084 37.1999 8.22092 37.1999Z" fill="white"/>
<path d="M18.4211 37.1999C18.9212 37.1999 19.3264 36.8384 19.3264 36.3923C19.3264 35.9474 18.9212 35.5859 18.4211 35.5859C17.921 35.5859 17.5159 35.9474 17.5159 36.3923C17.5159 36.8384 17.921 37.1999 18.4211 37.1999Z" fill="white"/>
<path d="M28.6208 37.1999C29.1209 37.1999 29.5261 36.8384 29.5261 36.3923C29.5261 35.9474 29.1209 35.5859 28.6208 35.5859C28.1207 35.5859 27.7156 35.9474 27.7156 36.3923C27.7156 36.8384 28.1207 37.1999 28.6208 37.1999Z" fill="white"/>
<path d="M38.821 37.1999C39.3211 37.1999 39.7263 36.8384 39.7263 36.3923C39.7263 35.9474 39.3211 35.5859 38.821 35.5859C38.3209 35.5859 37.9158 35.9474 37.9158 36.3923C37.9158 36.8384 38.3209 37.1999 38.821 37.1999Z" fill="white"/>
<path d="M49.021 37.1999C49.5211 37.1999 49.9262 36.8384 49.9262 36.3923C49.9262 35.9474 49.5211 35.5859 49.021 35.5859C48.5209 35.5859 48.1157 35.9474 48.1157 36.3923C48.1157 36.8384 48.5209 37.1999 49.021 37.1999Z" fill="white"/>
<path d="M59.2209 37.1999C59.721 37.1999 60.1262 36.8384 60.1262 36.3923C60.1262 35.9474 59.721 35.5859 59.2209 35.5859C58.7208 35.5859 58.3157 35.9474 58.3157 36.3923C58.3157 36.8384 58.7208 37.1999 59.2209 37.1999Z" fill="white"/>
<path d="M69.4209 37.1999C69.9209 37.1999 70.3261 36.8384 70.3261 36.3923C70.3261 35.9474 69.9209 35.5859 69.4209 35.5859C68.9208 35.5859 68.5156 35.9474 68.5156 36.3923C68.5156 36.8384 68.9208 37.1999 69.4209 37.1999Z" fill="white"/>
<path d="M79.6211 37.1999C80.1212 37.1999 80.5263 36.8384 80.5263 36.3923C80.5263 35.9474 80.1212 35.5859 79.6211 35.5859C79.121 35.5859 78.7158 35.9474 78.7158 36.3923C78.7158 36.8384 79.121 37.1999 79.6211 37.1999Z" fill="white"/>
<path d="M89.821 37.1999C90.3211 37.1999 90.7263 36.8384 90.7263 36.3923C90.7263 35.9474 90.3211 35.5859 89.821 35.5859C89.3209 35.5859 88.9158 35.9474 88.9158 36.3923C88.9158 36.8384 89.3209 37.1999 89.821 37.1999Z" fill="white"/>
<path d="M100.021 37.1999C100.521 37.1999 100.926 36.8384 100.926 36.3923C100.926 35.9474 100.521 35.5859 100.021 35.5859C99.5209 35.5859 99.1157 35.9474 99.1157 36.3923C99.1157 36.8384 99.5209 37.1999 100.021 37.1999Z" fill="white"/>
<path d="M110.221 37.1999C110.721 37.1999 111.126 36.8384 111.126 36.3923C111.126 35.9474 110.721 35.5859 110.221 35.5859C109.721 35.5859 109.316 35.9474 109.316 36.3923C109.316 36.8384 109.721 37.1999 110.221 37.1999Z" fill="white"/>
<path d="M120.421 37.1999C120.921 37.1999 121.326 36.8384 121.326 36.3923C121.326 35.9474 120.921 35.5859 120.421 35.5859C119.921 35.5859 119.516 35.9474 119.516 36.3923C119.516 36.8384 119.921 37.1999 120.421 37.1999Z" fill="white"/>
<path d="M130.621 37.1999C131.121 37.1999 131.526 36.8384 131.526 36.3923C131.526 35.9474 131.121 35.5859 130.621 35.5859C130.121 35.5859 129.716 35.9474 129.716 36.3923C129.716 36.8384 130.121 37.1999 130.621 37.1999Z" fill="white"/>
<path d="M140.821 37.1999C141.321 37.1999 141.726 36.8384 141.726 36.3923C141.726 35.9474 141.321 35.5859 140.821 35.5859C140.321 35.5859 139.916 35.9474 139.916 36.3923C139.916 36.8384 140.321 37.1999 140.821 37.1999Z" fill="white"/>
<path d="M151.021 37.1999C151.521 37.1999 151.926 36.8384 151.926 36.3923C151.926 35.9474 151.521 35.5859 151.021 35.5859C150.521 35.5859 150.116 35.9474 150.116 36.3923C150.116 36.8384 150.521 37.1999 151.021 37.1999Z" fill="white"/>
<path d="M161.221 37.1999C161.721 37.1999 162.126 36.8384 162.126 36.3923C162.126 35.9474 161.721 35.5859 161.221 35.5859C160.721 35.5859 160.316 35.9474 160.316 36.3923C160.316 36.8384 160.721 37.1999 161.221 37.1999Z" fill="white"/>
<path d="M171.421 37.1999C171.921 37.1999 172.326 36.8384 172.326 36.3923C172.326 35.9474 171.921 35.5859 171.421 35.5859C170.921 35.5859 170.516 35.9474 170.516 36.3923C170.516 36.8384 170.921 37.1999 171.421 37.1999Z" fill="white"/>
<path d="M181.621 37.1999C182.121 37.1999 182.526 36.8384 182.526 36.3923C182.526 35.9474 182.121 35.5859 181.621 35.5859C181.121 35.5859 180.716 35.9474 180.716 36.3923C180.716 36.8384 181.121 37.1999 181.621 37.1999Z" fill="white"/>
<path d="M191.821 37.1999C192.321 37.1999 192.726 36.8384 192.726 36.3923C192.726 35.9474 192.321 35.5859 191.821 35.5859C191.321 35.5859 190.916 35.9474 190.916 36.3923C190.916 36.8384 191.321 37.1999 191.821 37.1999Z" fill="white"/>
<path d="M202.021 37.1999C202.521 37.1999 202.926 36.8384 202.926 36.3923C202.926 35.9474 202.521 35.5859 202.021 35.5859C201.521 35.5859 201.116 35.9474 201.116 36.3923C201.116 36.8384 201.521 37.1999 202.021 37.1999Z" fill="white"/>
<path d="M3.12083 46.3001C3.62091 46.3001 4.02608 45.9386 4.02608 45.4924C4.02608 45.0475 3.62091 44.6848 3.12083 44.6848C2.62074 44.6848 2.21558 45.0475 2.21558 45.4924C2.21558 45.9386 2.62074 46.3001 3.12083 46.3001Z" fill="white"/>
<path d="M13.321 46.3001C13.8211 46.3001 14.2263 45.9386 14.2263 45.4924C14.2263 45.0475 13.8211 44.6848 13.321 44.6848C12.8209 44.6848 12.4158 45.0475 12.4158 45.4924C12.4158 45.9386 12.8209 46.3001 13.321 46.3001Z" fill="white"/>
<path d="M23.521 46.3001C24.0211 46.3001 24.4262 45.9386 24.4262 45.4924C24.4262 45.0475 24.0211 44.6848 23.521 44.6848C23.0209 44.6848 22.6157 45.0475 22.6157 45.4924C22.6157 45.9386 23.0209 46.3001 23.521 46.3001Z" fill="white"/>
<path d="M33.7209 46.3001C34.221 46.3001 34.6262 45.9386 34.6262 45.4924C34.6262 45.0475 34.221 44.6848 33.7209 44.6848C33.2208 44.6848 32.8157 45.0475 32.8157 45.4924C32.8157 45.9386 33.2208 46.3001 33.7209 46.3001Z" fill="white"/>
<path d="M43.9211 46.3001C44.4212 46.3001 44.8264 45.9386 44.8264 45.4924C44.8264 45.0475 44.4212 44.6848 43.9211 44.6848C43.421 44.6848 43.0159 45.0475 43.0159 45.4924C43.0159 45.9386 43.421 46.3001 43.9211 46.3001Z" fill="white"/>
<path d="M54.1211 46.3001C54.6212 46.3001 55.0263 45.9386 55.0263 45.4924C55.0263 45.0475 54.6212 44.6848 54.1211 44.6848C53.621 44.6848 53.2158 45.0475 53.2158 45.4924C53.2158 45.9386 53.621 46.3001 54.1211 46.3001Z" fill="white"/>
<path d="M64.321 46.3001C64.8211 46.3001 65.2263 45.9386 65.2263 45.4924C65.2263 45.0475 64.8211 44.6848 64.321 44.6848C63.8209 44.6848 63.4158 45.0475 63.4158 45.4924C63.4158 45.9386 63.8209 46.3001 64.321 46.3001Z" fill="white"/>
<path d="M74.521 46.3001C75.0211 46.3001 75.4262 45.9386 75.4262 45.4924C75.4262 45.0475 75.0211 44.6848 74.521 44.6848C74.0209 44.6848 73.6157 45.0475 73.6157 45.4924C73.6157 45.9386 74.0209 46.3001 74.521 46.3001Z" fill="white"/>
<path d="M84.7209 46.3001C85.221 46.3001 85.6262 45.9386 85.6262 45.4924C85.6262 45.0475 85.221 44.6848 84.7209 44.6848C84.2208 44.6848 83.8157 45.0475 83.8157 45.4924C83.8157 45.9386 84.2208 46.3001 84.7209 46.3001Z" fill="white"/>
<path d="M94.9211 46.3001C95.4212 46.3001 95.8264 45.9386 95.8264 45.4924C95.8264 45.0475 95.4212 44.6848 94.9211 44.6848C94.421 44.6848 94.0159 45.0475 94.0159 45.4924C94.0159 45.9386 94.421 46.3001 94.9211 46.3001Z" fill="white"/>
<path d="M105.121 46.3001C105.621 46.3001 106.026 45.9386 106.026 45.4924C106.026 45.0475 105.621 44.6848 105.121 44.6848C104.621 44.6848 104.216 45.0475 104.216 45.4924C104.216 45.9386 104.621 46.3001 105.121 46.3001Z" fill="white"/>
<path d="M115.321 46.3001C115.821 46.3001 116.226 45.9386 116.226 45.4924C116.226 45.0475 115.821 44.6848 115.321 44.6848C114.821 44.6848 114.416 45.0475 114.416 45.4924C114.416 45.9386 114.821 46.3001 115.321 46.3001Z" fill="white"/>
<path d="M125.521 46.3001C126.021 46.3001 126.426 45.9386 126.426 45.4924C126.426 45.0475 126.021 44.6848 125.521 44.6848C125.021 44.6848 124.616 45.0475 124.616 45.4924C124.616 45.9386 125.021 46.3001 125.521 46.3001Z" fill="white"/>
<path d="M135.721 46.3001C136.221 46.3001 136.626 45.9386 136.626 45.4924C136.626 45.0475 136.221 44.6848 135.721 44.6848C135.221 44.6848 134.816 45.0475 134.816 45.4924C134.816 45.9386 135.221 46.3001 135.721 46.3001Z" fill="white"/>
<path d="M145.921 46.3001C146.421 46.3001 146.826 45.9386 146.826 45.4924C146.826 45.0475 146.421 44.6848 145.921 44.6848C145.421 44.6848 145.016 45.0475 145.016 45.4924C145.016 45.9386 145.421 46.3001 145.921 46.3001Z" fill="white"/>
<path d="M156.121 46.3001C156.621 46.3001 157.026 45.9386 157.026 45.4924C157.026 45.0475 156.621 44.6848 156.121 44.6848C155.621 44.6848 155.216 45.0475 155.216 45.4924C155.216 45.9386 155.621 46.3001 156.121 46.3001Z" fill="white"/>
<path d="M166.321 46.3001C166.821 46.3001 167.226 45.9386 167.226 45.4924C167.226 45.0475 166.821 44.6848 166.321 44.6848C165.821 44.6848 165.416 45.0475 165.416 45.4924C165.416 45.9386 165.821 46.3001 166.321 46.3001Z" fill="white"/>
<path d="M176.521 46.3001C177.021 46.3001 177.426 45.9386 177.426 45.4924C177.426 45.0475 177.021 44.6848 176.521 44.6848C176.021 44.6848 175.616 45.0475 175.616 45.4924C175.616 45.9386 176.021 46.3001 176.521 46.3001Z" fill="white"/>
<path d="M186.721 46.3001C187.221 46.3001 187.626 45.9386 187.626 45.4924C187.626 45.0475 187.221 44.6848 186.721 44.6848C186.221 44.6848 185.816 45.0475 185.816 45.4924C185.816 45.9386 186.221 46.3001 186.721 46.3001Z" fill="white"/>
<path d="M196.921 46.3001C197.421 46.3001 197.826 45.9386 197.826 45.4924C197.826 45.0475 197.421 44.6848 196.921 44.6848C196.421 44.6848 196.016 45.0475 196.016 45.4924C196.016 45.9386 196.421 46.3001 196.921 46.3001Z" fill="white"/>
<path d="M8.22092 55.3999C8.72101 55.3999 9.12617 55.0385 9.12617 54.5923C9.12617 54.1474 8.72101 53.7847 8.22092 53.7847C7.72084 53.7847 7.31567 54.1474 7.31567 54.5923C7.31567 55.0385 7.72084 55.3999 8.22092 55.3999Z" fill="white"/>
<path d="M18.4211 55.3999C18.9212 55.3999 19.3264 55.0385 19.3264 54.5923C19.3264 54.1474 18.9212 53.7847 18.4211 53.7847C17.921 53.7847 17.5159 54.1474 17.5159 54.5923C17.5159 55.0385 17.921 55.3999 18.4211 55.3999Z" fill="white"/>
<path d="M28.6208 55.3999C29.1209 55.3999 29.5261 55.0385 29.5261 54.5923C29.5261 54.1474 29.1209 53.7847 28.6208 53.7847C28.1207 53.7847 27.7156 54.1474 27.7156 54.5923C27.7156 55.0385 28.1207 55.3999 28.6208 55.3999Z" fill="white"/>
<path d="M38.821 55.3999C39.3211 55.3999 39.7263 55.0385 39.7263 54.5923C39.7263 54.1474 39.3211 53.7847 38.821 53.7847C38.3209 53.7847 37.9158 54.1474 37.9158 54.5923C37.9158 55.0385 38.3209 55.3999 38.821 55.3999Z" fill="white"/>
<path d="M49.021 55.3999C49.5211 55.3999 49.9262 55.0385 49.9262 54.5923C49.9262 54.1474 49.5211 53.7847 49.021 53.7847C48.5209 53.7847 48.1157 54.1474 48.1157 54.5923C48.1157 55.0385 48.5209 55.3999 49.021 55.3999Z" fill="white"/>
<path d="M59.2209 55.3999C59.721 55.3999 60.1262 55.0385 60.1262 54.5923C60.1262 54.1474 59.721 53.7847 59.2209 53.7847C58.7208 53.7847 58.3157 54.1474 58.3157 54.5923C58.3157 55.0385 58.7208 55.3999 59.2209 55.3999Z" fill="white"/>
<path d="M69.4209 55.3999C69.9209 55.3999 70.3261 55.0385 70.3261 54.5923C70.3261 54.1474 69.9209 53.7847 69.4209 53.7847C68.9208 53.7847 68.5156 54.1474 68.5156 54.5923C68.5156 55.0385 68.9208 55.3999 69.4209 55.3999Z" fill="white"/>
<path d="M79.6211 55.3999C80.1212 55.3999 80.5263 55.0385 80.5263 54.5923C80.5263 54.1474 80.1212 53.7847 79.6211 53.7847C79.121 53.7847 78.7158 54.1474 78.7158 54.5923C78.7158 55.0385 79.121 55.3999 79.6211 55.3999Z" fill="white"/>
<path d="M89.821 55.3999C90.3211 55.3999 90.7263 55.0385 90.7263 54.5923C90.7263 54.1474 90.3211 53.7847 89.821 53.7847C89.3209 53.7847 88.9158 54.1474 88.9158 54.5923C88.9158 55.0385 89.3209 55.3999 89.821 55.3999Z" fill="white"/>
<path d="M100.021 55.3999C100.521 55.3999 100.926 55.0385 100.926 54.5923C100.926 54.1474 100.521 53.7847 100.021 53.7847C99.5209 53.7847 99.1157 54.1474 99.1157 54.5923C99.1157 55.0385 99.5209 55.3999 100.021 55.3999Z" fill="white"/>
<path d="M110.221 55.3999C110.721 55.3999 111.126 55.0385 111.126 54.5923C111.126 54.1474 110.721 53.7847 110.221 53.7847C109.721 53.7847 109.316 54.1474 109.316 54.5923C109.316 55.0385 109.721 55.3999 110.221 55.3999Z" fill="white"/>
<path d="M120.421 55.3999C120.921 55.3999 121.326 55.0385 121.326 54.5923C121.326 54.1474 120.921 53.7847 120.421 53.7847C119.921 53.7847 119.516 54.1474 119.516 54.5923C119.516 55.0385 119.921 55.3999 120.421 55.3999Z" fill="white"/>
<path d="M130.621 55.3999C131.121 55.3999 131.526 55.0385 131.526 54.5923C131.526 54.1474 131.121 53.7847 130.621 53.7847C130.121 53.7847 129.716 54.1474 129.716 54.5923C129.716 55.0385 130.121 55.3999 130.621 55.3999Z" fill="white"/>
<path d="M140.821 55.3999C141.321 55.3999 141.726 55.0385 141.726 54.5923C141.726 54.1474 141.321 53.7847 140.821 53.7847C140.321 53.7847 139.916 54.1474 139.916 54.5923C139.916 55.0385 140.321 55.3999 140.821 55.3999Z" fill="white"/>
<path d="M151.021 55.3999C151.521 55.3999 151.926 55.0385 151.926 54.5923C151.926 54.1474 151.521 53.7847 151.021 53.7847C150.521 53.7847 150.116 54.1474 150.116 54.5923C150.116 55.0385 150.521 55.3999 151.021 55.3999Z" fill="white"/>
<path d="M161.221 55.3999C161.721 55.3999 162.126 55.0385 162.126 54.5923C162.126 54.1474 161.721 53.7847 161.221 53.7847C160.721 53.7847 160.316 54.1474 160.316 54.5923C160.316 55.0385 160.721 55.3999 161.221 55.3999Z" fill="white"/>
<path d="M171.421 55.3999C171.921 55.3999 172.326 55.0385 172.326 54.5923C172.326 54.1474 171.921 53.7847 171.421 53.7847C170.921 53.7847 170.516 54.1474 170.516 54.5923C170.516 55.0385 170.921 55.3999 171.421 55.3999Z" fill="white"/>
<path d="M181.621 55.3999C182.121 55.3999 182.526 55.0385 182.526 54.5923C182.526 54.1474 182.121 53.7847 181.621 53.7847C181.121 53.7847 180.716 54.1474 180.716 54.5923C180.716 55.0385 181.121 55.3999 181.621 55.3999Z" fill="white"/>
<path d="M191.821 55.3999C192.321 55.3999 192.726 55.0385 192.726 54.5923C192.726 54.1474 192.321 53.7847 191.821 53.7847C191.321 53.7847 190.916 54.1474 190.916 54.5923C190.916 55.0385 191.321 55.3999 191.821 55.3999Z" fill="white"/>
<path d="M202.021 55.3999C202.521 55.3999 202.926 55.0385 202.926 54.5923C202.926 54.1474 202.521 53.7847 202.021 53.7847C201.521 53.7847 201.116 54.1474 201.116 54.5923C201.116 55.0385 201.521 55.3999 202.021 55.3999Z" fill="white"/>
<path d="M3.12083 64.5C3.62091 64.5 4.02608 64.1385 4.02608 63.6924C4.02608 63.2475 3.62091 62.886 3.12083 62.886C2.62074 62.886 2.21558 63.2475 2.21558 63.6924C2.21558 64.1385 2.62074 64.5 3.12083 64.5Z" fill="white"/>
<path d="M13.321 64.5C13.8211 64.5 14.2263 64.1385 14.2263 63.6924C14.2263 63.2475 13.8211 62.886 13.321 62.886C12.8209 62.886 12.4158 63.2475 12.4158 63.6924C12.4158 64.1385 12.8209 64.5 13.321 64.5Z" fill="white"/>
<path d="M23.521 64.5C24.0211 64.5 24.4262 64.1385 24.4262 63.6924C24.4262 63.2475 24.0211 62.886 23.521 62.886C23.0209 62.886 22.6157 63.2475 22.6157 63.6924C22.6157 64.1385 23.0209 64.5 23.521 64.5Z" fill="white"/>
<path d="M33.7209 64.5C34.221 64.5 34.6262 64.1385 34.6262 63.6924C34.6262 63.2475 34.221 62.886 33.7209 62.886C33.2208 62.886 32.8157 63.2475 32.8157 63.6924C32.8157 64.1385 33.2208 64.5 33.7209 64.5Z" fill="white"/>
<path d="M43.9211 64.5C44.4212 64.5 44.8264 64.1385 44.8264 63.6924C44.8264 63.2475 44.4212 62.886 43.9211 62.886C43.421 62.886 43.0159 63.2475 43.0159 63.6924C43.0159 64.1385 43.421 64.5 43.9211 64.5Z" fill="white"/>
<path d="M54.1211 64.5C54.6212 64.5 55.0263 64.1385 55.0263 63.6924C55.0263 63.2475 54.6212 62.886 54.1211 62.886C53.621 62.886 53.2158 63.2475 53.2158 63.6924C53.2158 64.1385 53.621 64.5 54.1211 64.5Z" fill="white"/>
<path d="M64.321 64.5C64.8211 64.5 65.2263 64.1385 65.2263 63.6924C65.2263 63.2475 64.8211 62.886 64.321 62.886C63.8209 62.886 63.4158 63.2475 63.4158 63.6924C63.4158 64.1385 63.8209 64.5 64.321 64.5Z" fill="white"/>
<path d="M74.521 64.5C75.0211 64.5 75.4262 64.1385 75.4262 63.6924C75.4262 63.2475 75.0211 62.886 74.521 62.886C74.0209 62.886 73.6157 63.2475 73.6157 63.6924C73.6157 64.1385 74.0209 64.5 74.521 64.5Z" fill="white"/>
<path d="M84.7209 64.5C85.221 64.5 85.6262 64.1385 85.6262 63.6924C85.6262 63.2475 85.221 62.886 84.7209 62.886C84.2208 62.886 83.8157 63.2475 83.8157 63.6924C83.8157 64.1385 84.2208 64.5 84.7209 64.5Z" fill="white"/>
<path d="M94.9211 64.5C95.4212 64.5 95.8264 64.1385 95.8264 63.6924C95.8264 63.2475 95.4212 62.886 94.9211 62.886C94.421 62.886 94.0159 63.2475 94.0159 63.6924C94.0159 64.1385 94.421 64.5 94.9211 64.5Z" fill="white"/>
<path d="M105.121 64.5C105.621 64.5 106.026 64.1385 106.026 63.6924C106.026 63.2475 105.621 62.886 105.121 62.886C104.621 62.886 104.216 63.2475 104.216 63.6924C104.216 64.1385 104.621 64.5 105.121 64.5Z" fill="white"/>
<path d="M115.321 64.5C115.821 64.5 116.226 64.1385 116.226 63.6924C116.226 63.2475 115.821 62.886 115.321 62.886C114.821 62.886 114.416 63.2475 114.416 63.6924C114.416 64.1385 114.821 64.5 115.321 64.5Z" fill="white"/>
<path d="M125.521 64.5C126.021 64.5 126.426 64.1385 126.426 63.6924C126.426 63.2475 126.021 62.886 125.521 62.886C125.021 62.886 124.616 63.2475 124.616 63.6924C124.616 64.1385 125.021 64.5 125.521 64.5Z" fill="white"/>
<path d="M135.721 64.5C136.221 64.5 136.626 64.1385 136.626 63.6924C136.626 63.2475 136.221 62.886 135.721 62.886C135.221 62.886 134.816 63.2475 134.816 63.6924C134.816 64.1385 135.221 64.5 135.721 64.5Z" fill="white"/>
<path d="M145.921 64.5C146.421 64.5 146.826 64.1385 146.826 63.6924C146.826 63.2475 146.421 62.886 145.921 62.886C145.421 62.886 145.016 63.2475 145.016 63.6924C145.016 64.1385 145.421 64.5 145.921 64.5Z" fill="white"/>
<path d="M156.121 64.5C156.621 64.5 157.026 64.1385 157.026 63.6924C157.026 63.2475 156.621 62.886 156.121 62.886C155.621 62.886 155.216 63.2475 155.216 63.6924C155.216 64.1385 155.621 64.5 156.121 64.5Z" fill="white"/>
<path d="M166.321 64.5C166.821 64.5 167.226 64.1385 167.226 63.6924C167.226 63.2475 166.821 62.886 166.321 62.886C165.821 62.886 165.416 63.2475 165.416 63.6924C165.416 64.1385 165.821 64.5 166.321 64.5Z" fill="white"/>
<path d="M176.521 64.5C177.021 64.5 177.426 64.1385 177.426 63.6924C177.426 63.2475 177.021 62.886 176.521 62.886C176.021 62.886 175.616 63.2475 175.616 63.6924C175.616 64.1385 176.021 64.5 176.521 64.5Z" fill="white"/>
<path d="M186.721 64.5C187.221 64.5 187.626 64.1385 187.626 63.6924C187.626 63.2475 187.221 62.886 186.721 62.886C186.221 62.886 185.816 63.2475 185.816 63.6924C185.816 64.1385 186.221 64.5 186.721 64.5Z" fill="white"/>
<path d="M196.921 64.5C197.421 64.5 197.826 64.1385 197.826 63.6924C197.826 63.2475 197.421 62.886 196.921 62.886C196.421 62.886 196.016 63.2475 196.016 63.6924C196.016 64.1385 196.421 64.5 196.921 64.5Z" fill="white"/>
<path d="M8.22092 73.5998C8.72101 73.5998 9.12617 73.2384 9.12617 72.7935C9.12617 72.3473 8.72101 71.9858 8.22092 71.9858C7.72084 71.9858 7.31567 72.3473 7.31567 72.7935C7.31567 73.2384 7.72084 73.5998 8.22092 73.5998Z" fill="white"/>
<path d="M18.4211 73.5998C18.9212 73.5998 19.3264 73.2384 19.3264 72.7935C19.3264 72.3473 18.9212 71.9858 18.4211 71.9858C17.921 71.9858 17.5159 72.3473 17.5159 72.7935C17.5159 73.2384 17.921 73.5998 18.4211 73.5998Z" fill="white"/>
<path d="M28.6208 73.5998C29.1209 73.5998 29.5261 73.2384 29.5261 72.7935C29.5261 72.3473 29.1209 71.9858 28.6208 71.9858C28.1207 71.9858 27.7156 72.3473 27.7156 72.7935C27.7156 73.2384 28.1207 73.5998 28.6208 73.5998Z" fill="white"/>
<path d="M38.821 73.5998C39.3211 73.5998 39.7263 73.2384 39.7263 72.7935C39.7263 72.3473 39.3211 71.9858 38.821 71.9858C38.3209 71.9858 37.9158 72.3473 37.9158 72.7935C37.9158 73.2384 38.3209 73.5998 38.821 73.5998Z" fill="white"/>
<path d="M49.021 73.5998C49.5211 73.5998 49.9262 73.2384 49.9262 72.7935C49.9262 72.3473 49.5211 71.9858 49.021 71.9858C48.5209 71.9858 48.1157 72.3473 48.1157 72.7935C48.1157 73.2384 48.5209 73.5998 49.021 73.5998Z" fill="white"/>
<path d="M59.2209 73.5998C59.721 73.5998 60.1262 73.2384 60.1262 72.7935C60.1262 72.3473 59.721 71.9858 59.2209 71.9858C58.7208 71.9858 58.3157 72.3473 58.3157 72.7935C58.3157 73.2384 58.7208 73.5998 59.2209 73.5998Z" fill="white"/>
<path d="M69.4209 73.5998C69.9209 73.5998 70.3261 73.2384 70.3261 72.7935C70.3261 72.3473 69.9209 71.9858 69.4209 71.9858C68.9208 71.9858 68.5156 72.3473 68.5156 72.7935C68.5156 73.2384 68.9208 73.5998 69.4209 73.5998Z" fill="white"/>
<path d="M79.6211 73.5998C80.1212 73.5998 80.5263 73.2384 80.5263 72.7935C80.5263 72.3473 80.1212 71.9858 79.6211 71.9858C79.121 71.9858 78.7158 72.3473 78.7158 72.7935C78.7158 73.2384 79.121 73.5998 79.6211 73.5998Z" fill="white"/>
<path d="M89.821 73.5998C90.3211 73.5998 90.7263 73.2384 90.7263 72.7935C90.7263 72.3473 90.3211 71.9858 89.821 71.9858C89.3209 71.9858 88.9158 72.3473 88.9158 72.7935C88.9158 73.2384 89.3209 73.5998 89.821 73.5998Z" fill="white"/>
<path d="M100.021 73.5998C100.521 73.5998 100.926 73.2384 100.926 72.7935C100.926 72.3473 100.521 71.9858 100.021 71.9858C99.5209 71.9858 99.1157 72.3473 99.1157 72.7935C99.1157 73.2384 99.5209 73.5998 100.021 73.5998Z" fill="white"/>
<path d="M110.221 73.5998C110.721 73.5998 111.126 73.2384 111.126 72.7935C111.126 72.3473 110.721 71.9858 110.221 71.9858C109.721 71.9858 109.316 72.3473 109.316 72.7935C109.316 73.2384 109.721 73.5998 110.221 73.5998Z" fill="white"/>
<path d="M120.421 73.5998C120.921 73.5998 121.326 73.2384 121.326 72.7935C121.326 72.3473 120.921 71.9858 120.421 71.9858C119.921 71.9858 119.516 72.3473 119.516 72.7935C119.516 73.2384 119.921 73.5998 120.421 73.5998Z" fill="white"/>
<path d="M130.621 73.5998C131.121 73.5998 131.526 73.2384 131.526 72.7935C131.526 72.3473 131.121 71.9858 130.621 71.9858C130.121 71.9858 129.716 72.3473 129.716 72.7935C129.716 73.2384 130.121 73.5998 130.621 73.5998Z" fill="white"/>
<path d="M140.821 73.5998C141.321 73.5998 141.726 73.2384 141.726 72.7935C141.726 72.3473 141.321 71.9858 140.821 71.9858C140.321 71.9858 139.916 72.3473 139.916 72.7935C139.916 73.2384 140.321 73.5998 140.821 73.5998Z" fill="white"/>
<path d="M151.021 73.5998C151.521 73.5998 151.926 73.2384 151.926 72.7935C151.926 72.3473 151.521 71.9858 151.021 71.9858C150.521 71.9858 150.116 72.3473 150.116 72.7935C150.116 73.2384 150.521 73.5998 151.021 73.5998Z" fill="white"/>
<path d="M161.221 73.5998C161.721 73.5998 162.126 73.2384 162.126 72.7935C162.126 72.3473 161.721 71.9858 161.221 71.9858C160.721 71.9858 160.316 72.3473 160.316 72.7935C160.316 73.2384 160.721 73.5998 161.221 73.5998Z" fill="white"/>
<path d="M171.421 73.5998C171.921 73.5998 172.326 73.2384 172.326 72.7935C172.326 72.3473 171.921 71.9858 171.421 71.9858C170.921 71.9858 170.516 72.3473 170.516 72.7935C170.516 73.2384 170.921 73.5998 171.421 73.5998Z" fill="white"/>
<path d="M181.621 73.5998C182.121 73.5998 182.526 73.2384 182.526 72.7935C182.526 72.3473 182.121 71.9858 181.621 71.9858C181.121 71.9858 180.716 72.3473 180.716 72.7935C180.716 73.2384 181.121 73.5998 181.621 73.5998Z" fill="white"/>
<path d="M191.821 73.5998C192.321 73.5998 192.726 73.2384 192.726 72.7935C192.726 72.3473 192.321 71.9858 191.821 71.9858C191.321 71.9858 190.916 72.3473 190.916 72.7935C190.916 73.2384 191.321 73.5998 191.821 73.5998Z" fill="white"/>
<path d="M202.021 73.5998C202.521 73.5998 202.926 73.2384 202.926 72.7935C202.926 72.3473 202.521 71.9858 202.021 71.9858C201.521 71.9858 201.116 72.3473 201.116 72.7935C201.116 73.2384 201.521 73.5998 202.021 73.5998Z" fill="white"/>
<path d="M3.12083 82.6999C3.62091 82.6999 4.02608 82.3385 4.02608 81.8923C4.02608 81.4474 3.62091 81.0859 3.12083 81.0859C2.62074 81.0859 2.21558 81.4474 2.21558 81.8923C2.21558 82.3385 2.62074 82.6999 3.12083 82.6999Z" fill="white"/>
<path d="M13.321 82.6999C13.8211 82.6999 14.2263 82.3385 14.2263 81.8923C14.2263 81.4474 13.8211 81.0859 13.321 81.0859C12.8209 81.0859 12.4158 81.4474 12.4158 81.8923C12.4158 82.3385 12.8209 82.6999 13.321 82.6999Z" fill="white"/>
<path d="M23.521 82.6999C24.0211 82.6999 24.4262 82.3385 24.4262 81.8923C24.4262 81.4474 24.0211 81.0859 23.521 81.0859C23.0209 81.0859 22.6157 81.4474 22.6157 81.8923C22.6157 82.3385 23.0209 82.6999 23.521 82.6999Z" fill="white"/>
<path d="M33.7209 82.6999C34.221 82.6999 34.6262 82.3385 34.6262 81.8923C34.6262 81.4474 34.221 81.0859 33.7209 81.0859C33.2208 81.0859 32.8157 81.4474 32.8157 81.8923C32.8157 82.3385 33.2208 82.6999 33.7209 82.6999Z" fill="white"/>
<path d="M43.9211 82.6999C44.4212 82.6999 44.8264 82.3385 44.8264 81.8923C44.8264 81.4474 44.4212 81.0859 43.9211 81.0859C43.421 81.0859 43.0159 81.4474 43.0159 81.8923C43.0159 82.3385 43.421 82.6999 43.9211 82.6999Z" fill="white"/>
<path d="M54.1211 82.6999C54.6212 82.6999 55.0263 82.3385 55.0263 81.8923C55.0263 81.4474 54.6212 81.0859 54.1211 81.0859C53.621 81.0859 53.2158 81.4474 53.2158 81.8923C53.2158 82.3385 53.621 82.6999 54.1211 82.6999Z" fill="white"/>
<path d="M64.321 82.6999C64.8211 82.6999 65.2263 82.3385 65.2263 81.8923C65.2263 81.4474 64.8211 81.0859 64.321 81.0859C63.8209 81.0859 63.4158 81.4474 63.4158 81.8923C63.4158 82.3385 63.8209 82.6999 64.321 82.6999Z" fill="white"/>
<path d="M74.521 82.6999C75.0211 82.6999 75.4262 82.3385 75.4262 81.8923C75.4262 81.4474 75.0211 81.0859 74.521 81.0859C74.0209 81.0859 73.6157 81.4474 73.6157 81.8923C73.6157 82.3385 74.0209 82.6999 74.521 82.6999Z" fill="white"/>
<path d="M84.7209 82.6999C85.221 82.6999 85.6262 82.3385 85.6262 81.8923C85.6262 81.4474 85.221 81.0859 84.7209 81.0859C84.2208 81.0859 83.8157 81.4474 83.8157 81.8923C83.8157 82.3385 84.2208 82.6999 84.7209 82.6999Z" fill="white"/>
<path d="M94.9211 82.6999C95.4212 82.6999 95.8264 82.3385 95.8264 81.8923C95.8264 81.4474 95.4212 81.0859 94.9211 81.0859C94.421 81.0859 94.0159 81.4474 94.0159 81.8923C94.0159 82.3385 94.421 82.6999 94.9211 82.6999Z" fill="white"/>
<path d="M105.121 82.6999C105.621 82.6999 106.026 82.3385 106.026 81.8923C106.026 81.4474 105.621 81.0859 105.121 81.0859C104.621 81.0859 104.216 81.4474 104.216 81.8923C104.216 82.3385 104.621 82.6999 105.121 82.6999Z" fill="white"/>
<path d="M115.321 82.6999C115.821 82.6999 116.226 82.3385 116.226 81.8923C116.226 81.4474 115.821 81.0859 115.321 81.0859C114.821 81.0859 114.416 81.4474 114.416 81.8923C114.416 82.3385 114.821 82.6999 115.321 82.6999Z" fill="white"/>
<path d="M125.521 82.6999C126.021 82.6999 126.426 82.3385 126.426 81.8923C126.426 81.4474 126.021 81.0859 125.521 81.0859C125.021 81.0859 124.616 81.4474 124.616 81.8923C124.616 82.3385 125.021 82.6999 125.521 82.6999Z" fill="white"/>
<path d="M135.721 82.6999C136.221 82.6999 136.626 82.3385 136.626 81.8923C136.626 81.4474 136.221 81.0859 135.721 81.0859C135.221 81.0859 134.816 81.4474 134.816 81.8923C134.816 82.3385 135.221 82.6999 135.721 82.6999Z" fill="white"/>
<path d="M145.921 82.6999C146.421 82.6999 146.826 82.3385 146.826 81.8923C146.826 81.4474 146.421 81.0859 145.921 81.0859C145.421 81.0859 145.016 81.4474 145.016 81.8923C145.016 82.3385 145.421 82.6999 145.921 82.6999Z" fill="white"/>
<path d="M156.121 82.6999C156.621 82.6999 157.026 82.3385 157.026 81.8923C157.026 81.4474 156.621 81.0859 156.121 81.0859C155.621 81.0859 155.216 81.4474 155.216 81.8923C155.216 82.3385 155.621 82.6999 156.121 82.6999Z" fill="white"/>
<path d="M166.321 82.6999C166.821 82.6999 167.226 82.3385 167.226 81.8923C167.226 81.4474 166.821 81.0859 166.321 81.0859C165.821 81.0859 165.416 81.4474 165.416 81.8923C165.416 82.3385 165.821 82.6999 166.321 82.6999Z" fill="white"/>
<path d="M176.521 82.6999C177.021 82.6999 177.426 82.3385 177.426 81.8923C177.426 81.4474 177.021 81.0859 176.521 81.0859C176.021 81.0859 175.616 81.4474 175.616 81.8923C175.616 82.3385 176.021 82.6999 176.521 82.6999Z" fill="white"/>
<path d="M186.721 82.6999C187.221 82.6999 187.626 82.3385 187.626 81.8923C187.626 81.4474 187.221 81.0859 186.721 81.0859C186.221 81.0859 185.816 81.4474 185.816 81.8923C185.816 82.3385 186.221 82.6999 186.721 82.6999Z" fill="white"/>
<path d="M196.921 82.6999C197.421 82.6999 197.826 82.3385 197.826 81.8923C197.826 81.4474 197.421 81.0859 196.921 81.0859C196.421 81.0859 196.016 81.4474 196.016 81.8923C196.016 82.3385 196.421 82.6999 196.921 82.6999Z" fill="white"/>
<path d="M8.22092 91.8C8.72101 91.8 9.12617 91.4386 9.12617 90.9924C9.12617 90.5475 8.72101 90.1848 8.22092 90.1848C7.72084 90.1848 7.31567 90.5475 7.31567 90.9924C7.31567 91.4386 7.72084 91.8 8.22092 91.8Z" fill="white"/>
<path d="M18.4211 91.8C18.9212 91.8 19.3264 91.4386 19.3264 90.9924C19.3264 90.5475 18.9212 90.1848 18.4211 90.1848C17.921 90.1848 17.5159 90.5475 17.5159 90.9924C17.5159 91.4386 17.921 91.8 18.4211 91.8Z" fill="white"/>
<path d="M28.6208 91.8C29.1209 91.8 29.5261 91.4386 29.5261 90.9924C29.5261 90.5475 29.1209 90.1848 28.6208 90.1848C28.1207 90.1848 27.7156 90.5475 27.7156 90.9924C27.7156 91.4386 28.1207 91.8 28.6208 91.8Z" fill="white"/>
<path d="M38.821 91.8C39.3211 91.8 39.7263 91.4386 39.7263 90.9924C39.7263 90.5475 39.3211 90.1848 38.821 90.1848C38.3209 90.1848 37.9158 90.5475 37.9158 90.9924C37.9158 91.4386 38.3209 91.8 38.821 91.8Z" fill="white"/>
<path d="M49.021 91.8C49.5211 91.8 49.9262 91.4386 49.9262 90.9924C49.9262 90.5475 49.5211 90.1848 49.021 90.1848C48.5209 90.1848 48.1157 90.5475 48.1157 90.9924C48.1157 91.4386 48.5209 91.8 49.021 91.8Z" fill="white"/>
<path d="M59.2209 91.8C59.721 91.8 60.1262 91.4386 60.1262 90.9924C60.1262 90.5475 59.721 90.1848 59.2209 90.1848C58.7208 90.1848 58.3157 90.5475 58.3157 90.9924C58.3157 91.4386 58.7208 91.8 59.2209 91.8Z" fill="white"/>
<path d="M69.4209 91.8C69.9209 91.8 70.3261 91.4386 70.3261 90.9924C70.3261 90.5475 69.9209 90.1848 69.4209 90.1848C68.9208 90.1848 68.5156 90.5475 68.5156 90.9924C68.5156 91.4386 68.9208 91.8 69.4209 91.8Z" fill="white"/>
<path d="M79.6211 91.8C80.1212 91.8 80.5263 91.4386 80.5263 90.9924C80.5263 90.5475 80.1212 90.1848 79.6211 90.1848C79.121 90.1848 78.7158 90.5475 78.7158 90.9924C78.7158 91.4386 79.121 91.8 79.6211 91.8Z" fill="white"/>
<path d="M89.821 91.8C90.3211 91.8 90.7263 91.4386 90.7263 90.9924C90.7263 90.5475 90.3211 90.1848 89.821 90.1848C89.3209 90.1848 88.9158 90.5475 88.9158 90.9924C88.9158 91.4386 89.3209 91.8 89.821 91.8Z" fill="white"/>
<path d="M100.021 91.8C100.521 91.8 100.926 91.4386 100.926 90.9924C100.926 90.5475 100.521 90.1848 100.021 90.1848C99.5209 90.1848 99.1157 90.5475 99.1157 90.9924C99.1157 91.4386 99.5209 91.8 100.021 91.8Z" fill="white"/>
<path d="M110.221 91.8C110.721 91.8 111.126 91.4386 111.126 90.9924C111.126 90.5475 110.721 90.1848 110.221 90.1848C109.721 90.1848 109.316 90.5475 109.316 90.9924C109.316 91.4386 109.721 91.8 110.221 91.8Z" fill="white"/>
<path d="M120.421 91.8C120.921 91.8 121.326 91.4386 121.326 90.9924C121.326 90.5475 120.921 90.1848 120.421 90.1848C119.921 90.1848 119.516 90.5475 119.516 90.9924C119.516 91.4386 119.921 91.8 120.421 91.8Z" fill="white"/>
<path d="M130.621 91.8C131.121 91.8 131.526 91.4386 131.526 90.9924C131.526 90.5475 131.121 90.1848 130.621 90.1848C130.121 90.1848 129.716 90.5475 129.716 90.9924C129.716 91.4386 130.121 91.8 130.621 91.8Z" fill="white"/>
<path d="M140.821 91.8C141.321 91.8 141.726 91.4386 141.726 90.9924C141.726 90.5475 141.321 90.1848 140.821 90.1848C140.321 90.1848 139.916 90.5475 139.916 90.9924C139.916 91.4386 140.321 91.8 140.821 91.8Z" fill="white"/>
<path d="M151.021 91.8C151.521 91.8 151.926 91.4386 151.926 90.9924C151.926 90.5475 151.521 90.1848 151.021 90.1848C150.521 90.1848 150.116 90.5475 150.116 90.9924C150.116 91.4386 150.521 91.8 151.021 91.8Z" fill="white"/>
<path d="M161.221 91.8C161.721 91.8 162.126 91.4386 162.126 90.9924C162.126 90.5475 161.721 90.1848 161.221 90.1848C160.721 90.1848 160.316 90.5475 160.316 90.9924C160.316 91.4386 160.721 91.8 161.221 91.8Z" fill="white"/>
<path d="M171.421 91.8C171.921 91.8 172.326 91.4386 172.326 90.9924C172.326 90.5475 171.921 90.1848 171.421 90.1848C170.921 90.1848 170.516 90.5475 170.516 90.9924C170.516 91.4386 170.921 91.8 171.421 91.8Z" fill="white"/>
<path d="M181.621 91.8C182.121 91.8 182.526 91.4386 182.526 90.9924C182.526 90.5475 182.121 90.1848 181.621 90.1848C181.121 90.1848 180.716 90.5475 180.716 90.9924C180.716 91.4386 181.121 91.8 181.621 91.8Z" fill="white"/>
<path d="M191.821 91.8C192.321 91.8 192.726 91.4386 192.726 90.9924C192.726 90.5475 192.321 90.1848 191.821 90.1848C191.321 90.1848 190.916 90.5475 190.916 90.9924C190.916 91.4386 191.321 91.8 191.821 91.8Z" fill="white"/>
<path d="M202.021 91.8C202.521 91.8 202.926 91.4386 202.926 90.9924C202.926 90.5475 202.521 90.1848 202.021 90.1848C201.521 90.1848 201.116 90.5475 201.116 90.9924C201.116 91.4386 201.521 91.8 202.021 91.8Z" fill="white"/>
<path d="M3.12083 100.9C3.62091 100.9 4.02608 100.539 4.02608 100.093C4.02608 99.6476 3.62091 99.2849 3.12083 99.2849C2.62074 99.2849 2.21558 99.6476 2.21558 100.093C2.21558 100.539 2.62074 100.9 3.12083 100.9Z" fill="white"/>
<path d="M13.321 100.9C13.8211 100.9 14.2263 100.539 14.2263 100.093C14.2263 99.6476 13.8211 99.2849 13.321 99.2849C12.8209 99.2849 12.4158 99.6476 12.4158 100.093C12.4158 100.539 12.8209 100.9 13.321 100.9Z" fill="white"/>
<path d="M23.521 100.9C24.0211 100.9 24.4262 100.539 24.4262 100.093C24.4262 99.6476 24.0211 99.2849 23.521 99.2849C23.0209 99.2849 22.6157 99.6476 22.6157 100.093C22.6157 100.539 23.0209 100.9 23.521 100.9Z" fill="white"/>
<path d="M33.7209 100.9C34.221 100.9 34.6262 100.539 34.6262 100.093C34.6262 99.6476 34.221 99.2849 33.7209 99.2849C33.2208 99.2849 32.8157 99.6476 32.8157 100.093C32.8157 100.539 33.2208 100.9 33.7209 100.9Z" fill="white"/>
<path d="M43.9211 100.9C44.4212 100.9 44.8264 100.539 44.8264 100.093C44.8264 99.6476 44.4212 99.2849 43.9211 99.2849C43.421 99.2849 43.0159 99.6476 43.0159 100.093C43.0159 100.539 43.421 100.9 43.9211 100.9Z" fill="white"/>
<path d="M54.1211 100.9C54.6212 100.9 55.0263 100.539 55.0263 100.093C55.0263 99.6476 54.6212 99.2849 54.1211 99.2849C53.621 99.2849 53.2158 99.6476 53.2158 100.093C53.2158 100.539 53.621 100.9 54.1211 100.9Z" fill="white"/>
<path d="M64.321 100.9C64.8211 100.9 65.2263 100.539 65.2263 100.093C65.2263 99.6476 64.8211 99.2849 64.321 99.2849C63.8209 99.2849 63.4158 99.6476 63.4158 100.093C63.4158 100.539 63.8209 100.9 64.321 100.9Z" fill="white"/>
<path d="M74.521 100.9C75.0211 100.9 75.4262 100.539 75.4262 100.093C75.4262 99.6476 75.0211 99.2849 74.521 99.2849C74.0209 99.2849 73.6157 99.6476 73.6157 100.093C73.6157 100.539 74.0209 100.9 74.521 100.9Z" fill="white"/>
<path d="M84.7209 100.9C85.221 100.9 85.6262 100.539 85.6262 100.093C85.6262 99.6476 85.221 99.2849 84.7209 99.2849C84.2208 99.2849 83.8157 99.6476 83.8157 100.093C83.8157 100.539 84.2208 100.9 84.7209 100.9Z" fill="white"/>
<path d="M94.9211 100.9C95.4212 100.9 95.8264 100.539 95.8264 100.093C95.8264 99.6476 95.4212 99.2849 94.9211 99.2849C94.421 99.2849 94.0159 99.6476 94.0159 100.093C94.0159 100.539 94.421 100.9 94.9211 100.9Z" fill="white"/>
<path d="M105.121 100.9C105.621 100.9 106.026 100.539 106.026 100.093C106.026 99.6476 105.621 99.2849 105.121 99.2849C104.621 99.2849 104.216 99.6476 104.216 100.093C104.216 100.539 104.621 100.9 105.121 100.9Z" fill="white"/>
<path d="M115.321 100.9C115.821 100.9 116.226 100.539 116.226 100.093C116.226 99.6476 115.821 99.2849 115.321 99.2849C114.821 99.2849 114.416 99.6476 114.416 100.093C114.416 100.539 114.821 100.9 115.321 100.9Z" fill="white"/>
<path d="M125.521 100.9C126.021 100.9 126.426 100.539 126.426 100.093C126.426 99.6476 126.021 99.2849 125.521 99.2849C125.021 99.2849 124.616 99.6476 124.616 100.093C124.616 100.539 125.021 100.9 125.521 100.9Z" fill="white"/>
<path d="M135.721 100.9C136.221 100.9 136.626 100.539 136.626 100.093C136.626 99.6476 136.221 99.2849 135.721 99.2849C135.221 99.2849 134.816 99.6476 134.816 100.093C134.816 100.539 135.221 100.9 135.721 100.9Z" fill="white"/>
<path d="M145.921 100.9C146.421 100.9 146.826 100.539 146.826 100.093C146.826 99.6476 146.421 99.2849 145.921 99.2849C145.421 99.2849 145.016 99.6476 145.016 100.093C145.016 100.539 145.421 100.9 145.921 100.9Z" fill="white"/>
<path d="M156.121 100.9C156.621 100.9 157.026 100.539 157.026 100.093C157.026 99.6476 156.621 99.2849 156.121 99.2849C155.621 99.2849 155.216 99.6476 155.216 100.093C155.216 100.539 155.621 100.9 156.121 100.9Z" fill="white"/>
<path d="M166.321 100.9C166.821 100.9 167.226 100.539 167.226 100.093C167.226 99.6476 166.821 99.2849 166.321 99.2849C165.821 99.2849 165.416 99.6476 165.416 100.093C165.416 100.539 165.821 100.9 166.321 100.9Z" fill="white"/>
<path d="M176.521 100.9C177.021 100.9 177.426 100.539 177.426 100.093C177.426 99.6476 177.021 99.2849 176.521 99.2849C176.021 99.2849 175.616 99.6476 175.616 100.093C175.616 100.539 176.021 100.9 176.521 100.9Z" fill="white"/>
<path d="M186.721 100.9C187.221 100.9 187.626 100.539 187.626 100.093C187.626 99.6476 187.221 99.2849 186.721 99.2849C186.221 99.2849 185.816 99.6476 185.816 100.093C185.816 100.539 186.221 100.9 186.721 100.9Z" fill="white"/>
<path d="M196.921 100.9C197.421 100.9 197.826 100.539 197.826 100.093C197.826 99.6476 197.421 99.2849 196.921 99.2849C196.421 99.2849 196.016 99.6476 196.016 100.093C196.016 100.539 196.421 100.9 196.921 100.9Z" fill="white"/>
<path d="M8.22092 110C8.72101 110 9.12617 109.638 9.12617 109.192C9.12617 108.747 8.72101 108.386 8.22092 108.386C7.72084 108.386 7.31567 108.747 7.31567 109.192C7.31567 109.638 7.72084 110 8.22092 110Z" fill="white"/>
<path d="M18.4211 110C18.9212 110 19.3264 109.638 19.3264 109.192C19.3264 108.747 18.9212 108.386 18.4211 108.386C17.921 108.386 17.5159 108.747 17.5159 109.192C17.5159 109.638 17.921 110 18.4211 110Z" fill="white"/>
<path d="M28.6208 110C29.1209 110 29.5261 109.638 29.5261 109.192C29.5261 108.747 29.1209 108.386 28.6208 108.386C28.1207 108.386 27.7156 108.747 27.7156 109.192C27.7156 109.638 28.1207 110 28.6208 110Z" fill="white"/>
<path d="M38.821 110C39.3211 110 39.7263 109.638 39.7263 109.192C39.7263 108.747 39.3211 108.386 38.821 108.386C38.3209 108.386 37.9158 108.747 37.9158 109.192C37.9158 109.638 38.3209 110 38.821 110Z" fill="white"/>
<path d="M49.021 110C49.5211 110 49.9262 109.638 49.9262 109.192C49.9262 108.747 49.5211 108.386 49.021 108.386C48.5209 108.386 48.1157 108.747 48.1157 109.192C48.1157 109.638 48.5209 110 49.021 110Z" fill="white"/>
<path d="M59.2209 110C59.721 110 60.1262 109.638 60.1262 109.192C60.1262 108.747 59.721 108.386 59.2209 108.386C58.7208 108.386 58.3157 108.747 58.3157 109.192C58.3157 109.638 58.7208 110 59.2209 110Z" fill="white"/>
<path d="M69.4209 110C69.9209 110 70.3261 109.638 70.3261 109.192C70.3261 108.747 69.9209 108.386 69.4209 108.386C68.9208 108.386 68.5156 108.747 68.5156 109.192C68.5156 109.638 68.9208 110 69.4209 110Z" fill="white"/>
<path d="M79.6211 110C80.1212 110 80.5263 109.638 80.5263 109.192C80.5263 108.747 80.1212 108.386 79.6211 108.386C79.121 108.386 78.7158 108.747 78.7158 109.192C78.7158 109.638 79.121 110 79.6211 110Z" fill="white"/>
<path d="M89.821 110C90.3211 110 90.7263 109.638 90.7263 109.192C90.7263 108.747 90.3211 108.386 89.821 108.386C89.3209 108.386 88.9158 108.747 88.9158 109.192C88.9158 109.638 89.3209 110 89.821 110Z" fill="white"/>
<path d="M100.021 110C100.521 110 100.926 109.638 100.926 109.192C100.926 108.747 100.521 108.386 100.021 108.386C99.5209 108.386 99.1157 108.747 99.1157 109.192C99.1157 109.638 99.5209 110 100.021 110Z" fill="white"/>
<path d="M110.221 110C110.721 110 111.126 109.638 111.126 109.192C111.126 108.747 110.721 108.386 110.221 108.386C109.721 108.386 109.316 108.747 109.316 109.192C109.316 109.638 109.721 110 110.221 110Z" fill="white"/>
<path d="M120.421 110C120.921 110 121.326 109.638 121.326 109.192C121.326 108.747 120.921 108.386 120.421 108.386C119.921 108.386 119.516 108.747 119.516 109.192C119.516 109.638 119.921 110 120.421 110Z" fill="white"/>
<path d="M130.621 110C131.121 110 131.526 109.638 131.526 109.192C131.526 108.747 131.121 108.386 130.621 108.386C130.121 108.386 129.716 108.747 129.716 109.192C129.716 109.638 130.121 110 130.621 110Z" fill="white"/>
<path d="M140.821 110C141.321 110 141.726 109.638 141.726 109.192C141.726 108.747 141.321 108.386 140.821 108.386C140.321 108.386 139.916 108.747 139.916 109.192C139.916 109.638 140.321 110 140.821 110Z" fill="white"/>
<path d="M151.021 110C151.521 110 151.926 109.638 151.926 109.192C151.926 108.747 151.521 108.386 151.021 108.386C150.521 108.386 150.116 108.747 150.116 109.192C150.116 109.638 150.521 110 151.021 110Z" fill="white"/>
<path d="M161.221 110C161.721 110 162.126 109.638 162.126 109.192C162.126 108.747 161.721 108.386 161.221 108.386C160.721 108.386 160.316 108.747 160.316 109.192C160.316 109.638 160.721 110 161.221 110Z" fill="white"/>
<path d="M171.421 110C171.921 110 172.326 109.638 172.326 109.192C172.326 108.747 171.921 108.386 171.421 108.386C170.921 108.386 170.516 108.747 170.516 109.192C170.516 109.638 170.921 110 171.421 110Z" fill="white"/>
<path d="M181.621 110C182.121 110 182.526 109.638 182.526 109.192C182.526 108.747 182.121 108.386 181.621 108.386C181.121 108.386 180.716 108.747 180.716 109.192C180.716 109.638 181.121 110 181.621 110Z" fill="white"/>
<path d="M191.821 110C192.321 110 192.726 109.638 192.726 109.192C192.726 108.747 192.321 108.386 191.821 108.386C191.321 108.386 190.916 108.747 190.916 109.192C190.916 109.638 191.321 110 191.821 110Z" fill="white"/>
<path d="M202.021 110C202.521 110 202.926 109.638 202.926 109.192C202.926 108.747 202.521 108.386 202.021 108.386C201.521 108.386 201.116 108.747 201.116 109.192C201.116 109.638 201.521 110 202.021 110Z" fill="white"/>
<path d="M3.12083 119.1C3.62091 119.1 4.02608 118.738 4.02608 118.293C4.02608 117.847 3.62091 117.486 3.12083 117.486C2.62074 117.486 2.21558 117.847 2.21558 118.293C2.21558 118.738 2.62074 119.1 3.12083 119.1Z" fill="white"/>
<path d="M13.321 119.1C13.8211 119.1 14.2263 118.738 14.2263 118.293C14.2263 117.847 13.8211 117.486 13.321 117.486C12.8209 117.486 12.4158 117.847 12.4158 118.293C12.4158 118.738 12.8209 119.1 13.321 119.1Z" fill="white"/>
<path d="M23.521 119.1C24.0211 119.1 24.4262 118.738 24.4262 118.293C24.4262 117.847 24.0211 117.486 23.521 117.486C23.0209 117.486 22.6157 117.847 22.6157 118.293C22.6157 118.738 23.0209 119.1 23.521 119.1Z" fill="white"/>
<path d="M33.7209 119.1C34.221 119.1 34.6262 118.738 34.6262 118.293C34.6262 117.847 34.221 117.486 33.7209 117.486C33.2208 117.486 32.8157 117.847 32.8157 118.293C32.8157 118.738 33.2208 119.1 33.7209 119.1Z" fill="white"/>
<path d="M43.9211 119.1C44.4212 119.1 44.8264 118.738 44.8264 118.293C44.8264 117.847 44.4212 117.486 43.9211 117.486C43.421 117.486 43.0159 117.847 43.0159 118.293C43.0159 118.738 43.421 119.1 43.9211 119.1Z" fill="white"/>
<path d="M54.1211 119.1C54.6212 119.1 55.0263 118.738 55.0263 118.293C55.0263 117.847 54.6212 117.486 54.1211 117.486C53.621 117.486 53.2158 117.847 53.2158 118.293C53.2158 118.738 53.621 119.1 54.1211 119.1Z" fill="white"/>
<path d="M64.321 119.1C64.8211 119.1 65.2263 118.738 65.2263 118.293C65.2263 117.847 64.8211 117.486 64.321 117.486C63.8209 117.486 63.4158 117.847 63.4158 118.293C63.4158 118.738 63.8209 119.1 64.321 119.1Z" fill="white"/>
<path d="M74.521 119.1C75.0211 119.1 75.4262 118.738 75.4262 118.293C75.4262 117.847 75.0211 117.486 74.521 117.486C74.0209 117.486 73.6157 117.847 73.6157 118.293C73.6157 118.738 74.0209 119.1 74.521 119.1Z" fill="white"/>
<path d="M84.7209 119.1C85.221 119.1 85.6262 118.738 85.6262 118.293C85.6262 117.847 85.221 117.486 84.7209 117.486C84.2208 117.486 83.8157 117.847 83.8157 118.293C83.8157 118.738 84.2208 119.1 84.7209 119.1Z" fill="white"/>
<path d="M94.9211 119.1C95.4212 119.1 95.8264 118.738 95.8264 118.293C95.8264 117.847 95.4212 117.486 94.9211 117.486C94.421 117.486 94.0159 117.847 94.0159 118.293C94.0159 118.738 94.421 119.1 94.9211 119.1Z" fill="white"/>
<path d="M105.121 119.1C105.621 119.1 106.026 118.738 106.026 118.293C106.026 117.847 105.621 117.486 105.121 117.486C104.621 117.486 104.216 117.847 104.216 118.293C104.216 118.738 104.621 119.1 105.121 119.1Z" fill="white"/>
<path d="M115.321 119.1C115.821 119.1 116.226 118.738 116.226 118.293C116.226 117.847 115.821 117.486 115.321 117.486C114.821 117.486 114.416 117.847 114.416 118.293C114.416 118.738 114.821 119.1 115.321 119.1Z" fill="white"/>
<path d="M125.521 119.1C126.021 119.1 126.426 118.738 126.426 118.293C126.426 117.847 126.021 117.486 125.521 117.486C125.021 117.486 124.616 117.847 124.616 118.293C124.616 118.738 125.021 119.1 125.521 119.1Z" fill="white"/>
<path d="M135.721 119.1C136.221 119.1 136.626 118.738 136.626 118.293C136.626 117.847 136.221 117.486 135.721 117.486C135.221 117.486 134.816 117.847 134.816 118.293C134.816 118.738 135.221 119.1 135.721 119.1Z" fill="white"/>
<path d="M145.921 119.1C146.421 119.1 146.826 118.738 146.826 118.293C146.826 117.847 146.421 117.486 145.921 117.486C145.421 117.486 145.016 117.847 145.016 118.293C145.016 118.738 145.421 119.1 145.921 119.1Z" fill="white"/>
<path d="M156.121 119.1C156.621 119.1 157.026 118.738 157.026 118.293C157.026 117.847 156.621 117.486 156.121 117.486C155.621 117.486 155.216 117.847 155.216 118.293C155.216 118.738 155.621 119.1 156.121 119.1Z" fill="white"/>
<path d="M166.321 119.1C166.821 119.1 167.226 118.738 167.226 118.293C167.226 117.847 166.821 117.486 166.321 117.486C165.821 117.486 165.416 117.847 165.416 118.293C165.416 118.738 165.821 119.1 166.321 119.1Z" fill="white"/>
<path d="M176.521 119.1C177.021 119.1 177.426 118.738 177.426 118.293C177.426 117.847 177.021 117.486 176.521 117.486C176.021 117.486 175.616 117.847 175.616 118.293C175.616 118.738 176.021 119.1 176.521 119.1Z" fill="white"/>
<path d="M186.721 119.1C187.221 119.1 187.626 118.738 187.626 118.293C187.626 117.847 187.221 117.486 186.721 117.486C186.221 117.486 185.816 117.847 185.816 118.293C185.816 118.738 186.221 119.1 186.721 119.1Z" fill="white"/>
<path d="M196.921 119.1C197.421 119.1 197.826 118.738 197.826 118.293C197.826 117.847 197.421 117.486 196.921 117.486C196.421 117.486 196.016 117.847 196.016 118.293C196.016 118.738 196.421 119.1 196.921 119.1Z" fill="white"/>
<path d="M8.22092 128.2C8.72101 128.2 9.12617 127.838 9.12617 127.392C9.12617 126.947 8.72101 126.586 8.22092 126.586C7.72084 126.586 7.31567 126.947 7.31567 127.392C7.31567 127.838 7.72084 128.2 8.22092 128.2Z" fill="white"/>
<path d="M18.4211 128.2C18.9212 128.2 19.3264 127.838 19.3264 127.392C19.3264 126.947 18.9212 126.586 18.4211 126.586C17.921 126.586 17.5159 126.947 17.5159 127.392C17.5159 127.838 17.921 128.2 18.4211 128.2Z" fill="white"/>
<path d="M28.6208 128.2C29.1209 128.2 29.5261 127.838 29.5261 127.392C29.5261 126.947 29.1209 126.586 28.6208 126.586C28.1207 126.586 27.7156 126.947 27.7156 127.392C27.7156 127.838 28.1207 128.2 28.6208 128.2Z" fill="white"/>
<path d="M38.821 128.2C39.3211 128.2 39.7263 127.838 39.7263 127.392C39.7263 126.947 39.3211 126.586 38.821 126.586C38.3209 126.586 37.9158 126.947 37.9158 127.392C37.9158 127.838 38.3209 128.2 38.821 128.2Z" fill="white"/>
<path d="M49.021 128.2C49.5211 128.2 49.9262 127.838 49.9262 127.392C49.9262 126.947 49.5211 126.586 49.021 126.586C48.5209 126.586 48.1157 126.947 48.1157 127.392C48.1157 127.838 48.5209 128.2 49.021 128.2Z" fill="white"/>
<path d="M59.2209 128.2C59.721 128.2 60.1262 127.838 60.1262 127.392C60.1262 126.947 59.721 126.586 59.2209 126.586C58.7208 126.586 58.3157 126.947 58.3157 127.392C58.3157 127.838 58.7208 128.2 59.2209 128.2Z" fill="white"/>
<path d="M69.4209 128.2C69.9209 128.2 70.3261 127.838 70.3261 127.392C70.3261 126.947 69.9209 126.586 69.4209 126.586C68.9208 126.586 68.5156 126.947 68.5156 127.392C68.5156 127.838 68.9208 128.2 69.4209 128.2Z" fill="white"/>
<path d="M79.6211 128.2C80.1212 128.2 80.5263 127.838 80.5263 127.392C80.5263 126.947 80.1212 126.586 79.6211 126.586C79.121 126.586 78.7158 126.947 78.7158 127.392C78.7158 127.838 79.121 128.2 79.6211 128.2Z" fill="white"/>
<path d="M89.821 128.2C90.3211 128.2 90.7263 127.838 90.7263 127.392C90.7263 126.947 90.3211 126.586 89.821 126.586C89.3209 126.586 88.9158 126.947 88.9158 127.392C88.9158 127.838 89.3209 128.2 89.821 128.2Z" fill="white"/>
<path d="M100.021 128.2C100.521 128.2 100.926 127.838 100.926 127.392C100.926 126.947 100.521 126.586 100.021 126.586C99.5209 126.586 99.1157 126.947 99.1157 127.392C99.1157 127.838 99.5209 128.2 100.021 128.2Z" fill="white"/>
<path d="M110.221 128.2C110.721 128.2 111.126 127.838 111.126 127.392C111.126 126.947 110.721 126.586 110.221 126.586C109.721 126.586 109.316 126.947 109.316 127.392C109.316 127.838 109.721 128.2 110.221 128.2Z" fill="white"/>
<path d="M120.421 128.2C120.921 128.2 121.326 127.838 121.326 127.392C121.326 126.947 120.921 126.586 120.421 126.586C119.921 126.586 119.516 126.947 119.516 127.392C119.516 127.838 119.921 128.2 120.421 128.2Z" fill="white"/>
<path d="M130.621 128.2C131.121 128.2 131.526 127.838 131.526 127.392C131.526 126.947 131.121 126.586 130.621 126.586C130.121 126.586 129.716 126.947 129.716 127.392C129.716 127.838 130.121 128.2 130.621 128.2Z" fill="white"/>
<path d="M140.821 128.2C141.321 128.2 141.726 127.838 141.726 127.392C141.726 126.947 141.321 126.586 140.821 126.586C140.321 126.586 139.916 126.947 139.916 127.392C139.916 127.838 140.321 128.2 140.821 128.2Z" fill="white"/>
<path d="M151.021 128.2C151.521 128.2 151.926 127.838 151.926 127.392C151.926 126.947 151.521 126.586 151.021 126.586C150.521 126.586 150.116 126.947 150.116 127.392C150.116 127.838 150.521 128.2 151.021 128.2Z" fill="white"/>
<path d="M161.221 128.2C161.721 128.2 162.126 127.838 162.126 127.392C162.126 126.947 161.721 126.586 161.221 126.586C160.721 126.586 160.316 126.947 160.316 127.392C160.316 127.838 160.721 128.2 161.221 128.2Z" fill="white"/>
<path d="M171.421 128.2C171.921 128.2 172.326 127.838 172.326 127.392C172.326 126.947 171.921 126.586 171.421 126.586C170.921 126.586 170.516 126.947 170.516 127.392C170.516 127.838 170.921 128.2 171.421 128.2Z" fill="white"/>
<path d="M181.621 128.2C182.121 128.2 182.526 127.838 182.526 127.392C182.526 126.947 182.121 126.586 181.621 126.586C181.121 126.586 180.716 126.947 180.716 127.392C180.716 127.838 181.121 128.2 181.621 128.2Z" fill="white"/>
<path d="M191.821 128.2C192.321 128.2 192.726 127.838 192.726 127.392C192.726 126.947 192.321 126.586 191.821 126.586C191.321 126.586 190.916 126.947 190.916 127.392C190.916 127.838 191.321 128.2 191.821 128.2Z" fill="white"/>
<path d="M202.021 128.2C202.521 128.2 202.926 127.838 202.926 127.392C202.926 126.947 202.521 126.586 202.021 126.586C201.521 126.586 201.116 126.947 201.116 127.392C201.116 127.838 201.521 128.2 202.021 128.2Z" fill="white"/>
<path d="M3.12083 137.3C3.62091 137.3 4.02608 136.939 4.02608 136.492C4.02608 136.048 3.62091 135.685 3.12083 135.685C2.62074 135.685 2.21558 136.048 2.21558 136.492C2.21558 136.939 2.62074 137.3 3.12083 137.3Z" fill="white"/>
<path d="M13.321 137.3C13.8211 137.3 14.2263 136.939 14.2263 136.492C14.2263 136.048 13.8211 135.685 13.321 135.685C12.8209 135.685 12.4158 136.048 12.4158 136.492C12.4158 136.939 12.8209 137.3 13.321 137.3Z" fill="white"/>
<path d="M23.521 137.3C24.0211 137.3 24.4262 136.939 24.4262 136.492C24.4262 136.048 24.0211 135.685 23.521 135.685C23.0209 135.685 22.6157 136.048 22.6157 136.492C22.6157 136.939 23.0209 137.3 23.521 137.3Z" fill="white"/>
<path d="M33.7209 137.3C34.221 137.3 34.6262 136.939 34.6262 136.492C34.6262 136.048 34.221 135.685 33.7209 135.685C33.2208 135.685 32.8157 136.048 32.8157 136.492C32.8157 136.939 33.2208 137.3 33.7209 137.3Z" fill="white"/>
<path d="M43.9211 137.3C44.4212 137.3 44.8264 136.939 44.8264 136.492C44.8264 136.048 44.4212 135.685 43.9211 135.685C43.421 135.685 43.0159 136.048 43.0159 136.492C43.0159 136.939 43.421 137.3 43.9211 137.3Z" fill="white"/>
<path d="M54.1211 137.3C54.6212 137.3 55.0263 136.939 55.0263 136.492C55.0263 136.048 54.6212 135.685 54.1211 135.685C53.621 135.685 53.2158 136.048 53.2158 136.492C53.2158 136.939 53.621 137.3 54.1211 137.3Z" fill="white"/>
<path d="M64.321 137.3C64.8211 137.3 65.2263 136.939 65.2263 136.492C65.2263 136.048 64.8211 135.685 64.321 135.685C63.8209 135.685 63.4158 136.048 63.4158 136.492C63.4158 136.939 63.8209 137.3 64.321 137.3Z" fill="white"/>
<path d="M74.521 137.3C75.0211 137.3 75.4262 136.939 75.4262 136.492C75.4262 136.048 75.0211 135.685 74.521 135.685C74.0209 135.685 73.6157 136.048 73.6157 136.492C73.6157 136.939 74.0209 137.3 74.521 137.3Z" fill="white"/>
<path d="M84.7209 137.3C85.221 137.3 85.6262 136.939 85.6262 136.492C85.6262 136.048 85.221 135.685 84.7209 135.685C84.2208 135.685 83.8157 136.048 83.8157 136.492C83.8157 136.939 84.2208 137.3 84.7209 137.3Z" fill="white"/>
<path d="M94.9211 137.3C95.4212 137.3 95.8264 136.939 95.8264 136.492C95.8264 136.048 95.4212 135.685 94.9211 135.685C94.421 135.685 94.0159 136.048 94.0159 136.492C94.0159 136.939 94.421 137.3 94.9211 137.3Z" fill="white"/>
<path d="M105.121 137.3C105.621 137.3 106.026 136.939 106.026 136.492C106.026 136.048 105.621 135.685 105.121 135.685C104.621 135.685 104.216 136.048 104.216 136.492C104.216 136.939 104.621 137.3 105.121 137.3Z" fill="white"/>
<path d="M115.321 137.3C115.821 137.3 116.226 136.939 116.226 136.492C116.226 136.048 115.821 135.685 115.321 135.685C114.821 135.685 114.416 136.048 114.416 136.492C114.416 136.939 114.821 137.3 115.321 137.3Z" fill="white"/>
<path d="M125.521 137.3C126.021 137.3 126.426 136.939 126.426 136.492C126.426 136.048 126.021 135.685 125.521 135.685C125.021 135.685 124.616 136.048 124.616 136.492C124.616 136.939 125.021 137.3 125.521 137.3Z" fill="white"/>
<path d="M135.721 137.3C136.221 137.3 136.626 136.939 136.626 136.492C136.626 136.048 136.221 135.685 135.721 135.685C135.221 135.685 134.816 136.048 134.816 136.492C134.816 136.939 135.221 137.3 135.721 137.3Z" fill="white"/>
<path d="M145.921 137.3C146.421 137.3 146.826 136.939 146.826 136.492C146.826 136.048 146.421 135.685 145.921 135.685C145.421 135.685 145.016 136.048 145.016 136.492C145.016 136.939 145.421 137.3 145.921 137.3Z" fill="white"/>
<path d="M156.121 137.3C156.621 137.3 157.026 136.939 157.026 136.492C157.026 136.048 156.621 135.685 156.121 135.685C155.621 135.685 155.216 136.048 155.216 136.492C155.216 136.939 155.621 137.3 156.121 137.3Z" fill="white"/>
<path d="M166.321 137.3C166.821 137.3 167.226 136.939 167.226 136.492C167.226 136.048 166.821 135.685 166.321 135.685C165.821 135.685 165.416 136.048 165.416 136.492C165.416 136.939 165.821 137.3 166.321 137.3Z" fill="white"/>
<path d="M176.521 137.3C177.021 137.3 177.426 136.939 177.426 136.492C177.426 136.048 177.021 135.685 176.521 135.685C176.021 135.685 175.616 136.048 175.616 136.492C175.616 136.939 176.021 137.3 176.521 137.3Z" fill="white"/>
<path d="M186.721 137.3C187.221 137.3 187.626 136.939 187.626 136.492C187.626 136.048 187.221 135.685 186.721 135.685C186.221 135.685 185.816 136.048 185.816 136.492C185.816 136.939 186.221 137.3 186.721 137.3Z" fill="white"/>
<path d="M196.921 137.3C197.421 137.3 197.826 136.939 197.826 136.492C197.826 136.048 197.421 135.685 196.921 135.685C196.421 135.685 196.016 136.048 196.016 136.492C196.016 136.939 196.421 137.3 196.921 137.3Z" fill="white"/>
<path d="M8.22092 146.4C8.72101 146.4 9.12617 146.038 9.12617 145.592C9.12617 145.147 8.72101 144.785 8.22092 144.785C7.72084 144.785 7.31567 145.147 7.31567 145.592C7.31567 146.038 7.72084 146.4 8.22092 146.4Z" fill="white"/>
<path d="M18.4211 146.4C18.9212 146.4 19.3264 146.038 19.3264 145.592C19.3264 145.147 18.9212 144.785 18.4211 144.785C17.921 144.785 17.5159 145.147 17.5159 145.592C17.5159 146.038 17.921 146.4 18.4211 146.4Z" fill="white"/>
<path d="M28.6208 146.4C29.1209 146.4 29.5261 146.038 29.5261 145.592C29.5261 145.147 29.1209 144.785 28.6208 144.785C28.1207 144.785 27.7156 145.147 27.7156 145.592C27.7156 146.038 28.1207 146.4 28.6208 146.4Z" fill="white"/>
<path d="M38.821 146.4C39.3211 146.4 39.7263 146.038 39.7263 145.592C39.7263 145.147 39.3211 144.785 38.821 144.785C38.3209 144.785 37.9158 145.147 37.9158 145.592C37.9158 146.038 38.3209 146.4 38.821 146.4Z" fill="white"/>
<path d="M49.021 146.4C49.5211 146.4 49.9262 146.038 49.9262 145.592C49.9262 145.147 49.5211 144.785 49.021 144.785C48.5209 144.785 48.1157 145.147 48.1157 145.592C48.1157 146.038 48.5209 146.4 49.021 146.4Z" fill="white"/>
<path d="M59.2209 146.4C59.721 146.4 60.1262 146.038 60.1262 145.592C60.1262 145.147 59.721 144.785 59.2209 144.785C58.7208 144.785 58.3157 145.147 58.3157 145.592C58.3157 146.038 58.7208 146.4 59.2209 146.4Z" fill="white"/>
<path d="M69.4209 146.4C69.9209 146.4 70.3261 146.038 70.3261 145.592C70.3261 145.147 69.9209 144.785 69.4209 144.785C68.9208 144.785 68.5156 145.147 68.5156 145.592C68.5156 146.038 68.9208 146.4 69.4209 146.4Z" fill="white"/>
<path d="M79.6211 146.4C80.1212 146.4 80.5263 146.038 80.5263 145.592C80.5263 145.147 80.1212 144.785 79.6211 144.785C79.121 144.785 78.7158 145.147 78.7158 145.592C78.7158 146.038 79.121 146.4 79.6211 146.4Z" fill="white"/>
<path d="M89.821 146.4C90.3211 146.4 90.7263 146.038 90.7263 145.592C90.7263 145.147 90.3211 144.785 89.821 144.785C89.3209 144.785 88.9158 145.147 88.9158 145.592C88.9158 146.038 89.3209 146.4 89.821 146.4Z" fill="white"/>
<path d="M100.021 146.4C100.521 146.4 100.926 146.038 100.926 145.592C100.926 145.147 100.521 144.785 100.021 144.785C99.5209 144.785 99.1157 145.147 99.1157 145.592C99.1157 146.038 99.5209 146.4 100.021 146.4Z" fill="white"/>
<path d="M110.221 146.4C110.721 146.4 111.126 146.038 111.126 145.592C111.126 145.147 110.721 144.785 110.221 144.785C109.721 144.785 109.316 145.147 109.316 145.592C109.316 146.038 109.721 146.4 110.221 146.4Z" fill="white"/>
<path d="M120.421 146.4C120.921 146.4 121.326 146.038 121.326 145.592C121.326 145.147 120.921 144.785 120.421 144.785C119.921 144.785 119.516 145.147 119.516 145.592C119.516 146.038 119.921 146.4 120.421 146.4Z" fill="white"/>
<path d="M130.621 146.4C131.121 146.4 131.526 146.038 131.526 145.592C131.526 145.147 131.121 144.785 130.621 144.785C130.121 144.785 129.716 145.147 129.716 145.592C129.716 146.038 130.121 146.4 130.621 146.4Z" fill="white"/>
<path d="M140.821 146.4C141.321 146.4 141.726 146.038 141.726 145.592C141.726 145.147 141.321 144.785 140.821 144.785C140.321 144.785 139.916 145.147 139.916 145.592C139.916 146.038 140.321 146.4 140.821 146.4Z" fill="white"/>
<path d="M151.021 146.4C151.521 146.4 151.926 146.038 151.926 145.592C151.926 145.147 151.521 144.785 151.021 144.785C150.521 144.785 150.116 145.147 150.116 145.592C150.116 146.038 150.521 146.4 151.021 146.4Z" fill="white"/>
<path d="M161.221 146.4C161.721 146.4 162.126 146.038 162.126 145.592C162.126 145.147 161.721 144.785 161.221 144.785C160.721 144.785 160.316 145.147 160.316 145.592C160.316 146.038 160.721 146.4 161.221 146.4Z" fill="white"/>
<path d="M171.421 146.4C171.921 146.4 172.326 146.038 172.326 145.592C172.326 145.147 171.921 144.785 171.421 144.785C170.921 144.785 170.516 145.147 170.516 145.592C170.516 146.038 170.921 146.4 171.421 146.4Z" fill="white"/>
<path d="M181.621 146.4C182.121 146.4 182.526 146.038 182.526 145.592C182.526 145.147 182.121 144.785 181.621 144.785C181.121 144.785 180.716 145.147 180.716 145.592C180.716 146.038 181.121 146.4 181.621 146.4Z" fill="white"/>
<path d="M191.821 146.4C192.321 146.4 192.726 146.038 192.726 145.592C192.726 145.147 192.321 144.785 191.821 144.785C191.321 144.785 190.916 145.147 190.916 145.592C190.916 146.038 191.321 146.4 191.821 146.4Z" fill="white"/>
<path d="M202.021 146.4C202.521 146.4 202.926 146.038 202.926 145.592C202.926 145.147 202.521 144.785 202.021 144.785C201.521 144.785 201.116 145.147 201.116 145.592C201.116 146.038 201.521 146.4 202.021 146.4Z" fill="white"/>
<path d="M3.12083 155.5C3.62091 155.5 4.02608 155.138 4.02608 154.692C4.02608 154.247 3.62091 153.886 3.12083 153.886C2.62074 153.886 2.21558 154.247 2.21558 154.692C2.21558 155.138 2.62074 155.5 3.12083 155.5Z" fill="white"/>
<path d="M13.321 155.5C13.8211 155.5 14.2263 155.138 14.2263 154.692C14.2263 154.247 13.8211 153.886 13.321 153.886C12.8209 153.886 12.4158 154.247 12.4158 154.692C12.4158 155.138 12.8209 155.5 13.321 155.5Z" fill="white"/>
<path d="M23.521 155.5C24.0211 155.5 24.4262 155.138 24.4262 154.692C24.4262 154.247 24.0211 153.886 23.521 153.886C23.0209 153.886 22.6157 154.247 22.6157 154.692C22.6157 155.138 23.0209 155.5 23.521 155.5Z" fill="white"/>
<path d="M33.7209 155.5C34.221 155.5 34.6262 155.138 34.6262 154.692C34.6262 154.247 34.221 153.886 33.7209 153.886C33.2208 153.886 32.8157 154.247 32.8157 154.692C32.8157 155.138 33.2208 155.5 33.7209 155.5Z" fill="white"/>
<path d="M43.9211 155.5C44.4212 155.5 44.8264 155.138 44.8264 154.692C44.8264 154.247 44.4212 153.886 43.9211 153.886C43.421 153.886 43.0159 154.247 43.0159 154.692C43.0159 155.138 43.421 155.5 43.9211 155.5Z" fill="white"/>
<path d="M54.1211 155.5C54.6212 155.5 55.0263 155.138 55.0263 154.692C55.0263 154.247 54.6212 153.886 54.1211 153.886C53.621 153.886 53.2158 154.247 53.2158 154.692C53.2158 155.138 53.621 155.5 54.1211 155.5Z" fill="white"/>
<path d="M64.321 155.5C64.8211 155.5 65.2263 155.138 65.2263 154.692C65.2263 154.247 64.8211 153.886 64.321 153.886C63.8209 153.886 63.4158 154.247 63.4158 154.692C63.4158 155.138 63.8209 155.5 64.321 155.5Z" fill="white"/>
<path d="M74.521 155.5C75.0211 155.5 75.4262 155.138 75.4262 154.692C75.4262 154.247 75.0211 153.886 74.521 153.886C74.0209 153.886 73.6157 154.247 73.6157 154.692C73.6157 155.138 74.0209 155.5 74.521 155.5Z" fill="white"/>
<path d="M84.7209 155.5C85.221 155.5 85.6262 155.138 85.6262 154.692C85.6262 154.247 85.221 153.886 84.7209 153.886C84.2208 153.886 83.8157 154.247 83.8157 154.692C83.8157 155.138 84.2208 155.5 84.7209 155.5Z" fill="white"/>
<path d="M94.9211 155.5C95.4212 155.5 95.8264 155.138 95.8264 154.692C95.8264 154.247 95.4212 153.886 94.9211 153.886C94.421 153.886 94.0159 154.247 94.0159 154.692C94.0159 155.138 94.421 155.5 94.9211 155.5Z" fill="white"/>
<path d="M105.121 155.5C105.621 155.5 106.026 155.138 106.026 154.692C106.026 154.247 105.621 153.886 105.121 153.886C104.621 153.886 104.216 154.247 104.216 154.692C104.216 155.138 104.621 155.5 105.121 155.5Z" fill="white"/>
<path d="M115.321 155.5C115.821 155.5 116.226 155.138 116.226 154.692C116.226 154.247 115.821 153.886 115.321 153.886C114.821 153.886 114.416 154.247 114.416 154.692C114.416 155.138 114.821 155.5 115.321 155.5Z" fill="white"/>
<path d="M125.521 155.5C126.021 155.5 126.426 155.138 126.426 154.692C126.426 154.247 126.021 153.886 125.521 153.886C125.021 153.886 124.616 154.247 124.616 154.692C124.616 155.138 125.021 155.5 125.521 155.5Z" fill="white"/>
<path d="M135.721 155.5C136.221 155.5 136.626 155.138 136.626 154.692C136.626 154.247 136.221 153.886 135.721 153.886C135.221 153.886 134.816 154.247 134.816 154.692C134.816 155.138 135.221 155.5 135.721 155.5Z" fill="white"/>
<path d="M145.921 155.5C146.421 155.5 146.826 155.138 146.826 154.692C146.826 154.247 146.421 153.886 145.921 153.886C145.421 153.886 145.016 154.247 145.016 154.692C145.016 155.138 145.421 155.5 145.921 155.5Z" fill="white"/>
<path d="M156.121 155.5C156.621 155.5 157.026 155.138 157.026 154.692C157.026 154.247 156.621 153.886 156.121 153.886C155.621 153.886 155.216 154.247 155.216 154.692C155.216 155.138 155.621 155.5 156.121 155.5Z" fill="white"/>
<path d="M166.321 155.5C166.821 155.5 167.226 155.138 167.226 154.692C167.226 154.247 166.821 153.886 166.321 153.886C165.821 153.886 165.416 154.247 165.416 154.692C165.416 155.138 165.821 155.5 166.321 155.5Z" fill="white"/>
<path d="M176.521 155.5C177.021 155.5 177.426 155.138 177.426 154.692C177.426 154.247 177.021 153.886 176.521 153.886C176.021 153.886 175.616 154.247 175.616 154.692C175.616 155.138 176.021 155.5 176.521 155.5Z" fill="white"/>
<path d="M186.721 155.5C187.221 155.5 187.626 155.138 187.626 154.692C187.626 154.247 187.221 153.886 186.721 153.886C186.221 153.886 185.816 154.247 185.816 154.692C185.816 155.138 186.221 155.5 186.721 155.5Z" fill="white"/>
<path d="M196.921 155.5C197.421 155.5 197.826 155.138 197.826 154.692C197.826 154.247 197.421 153.886 196.921 153.886C196.421 153.886 196.016 154.247 196.016 154.692C196.016 155.138 196.421 155.5 196.921 155.5Z" fill="white"/>
<path d="M8.22092 164.6C8.72101 164.6 9.12617 164.238 9.12617 163.793C9.12617 163.347 8.72101 162.986 8.22092 162.986C7.72084 162.986 7.31567 163.347 7.31567 163.793C7.31567 164.238 7.72084 164.6 8.22092 164.6Z" fill="white"/>
<path d="M18.4211 164.6C18.9212 164.6 19.3264 164.238 19.3264 163.793C19.3264 163.347 18.9212 162.986 18.4211 162.986C17.921 162.986 17.5159 163.347 17.5159 163.793C17.5159 164.238 17.921 164.6 18.4211 164.6Z" fill="white"/>
<path d="M28.6208 164.6C29.1209 164.6 29.5261 164.238 29.5261 163.793C29.5261 163.347 29.1209 162.986 28.6208 162.986C28.1207 162.986 27.7156 163.347 27.7156 163.793C27.7156 164.238 28.1207 164.6 28.6208 164.6Z" fill="white"/>
<path d="M38.821 164.6C39.3211 164.6 39.7263 164.238 39.7263 163.793C39.7263 163.347 39.3211 162.986 38.821 162.986C38.3209 162.986 37.9158 163.347 37.9158 163.793C37.9158 164.238 38.3209 164.6 38.821 164.6Z" fill="white"/>
<path d="M49.021 164.6C49.5211 164.6 49.9262 164.238 49.9262 163.793C49.9262 163.347 49.5211 162.986 49.021 162.986C48.5209 162.986 48.1157 163.347 48.1157 163.793C48.1157 164.238 48.5209 164.6 49.021 164.6Z" fill="white"/>
<path d="M59.2209 164.6C59.721 164.6 60.1262 164.238 60.1262 163.793C60.1262 163.347 59.721 162.986 59.2209 162.986C58.7208 162.986 58.3157 163.347 58.3157 163.793C58.3157 164.238 58.7208 164.6 59.2209 164.6Z" fill="white"/>
<path d="M69.4209 164.6C69.9209 164.6 70.3261 164.238 70.3261 163.793C70.3261 163.347 69.9209 162.986 69.4209 162.986C68.9208 162.986 68.5156 163.347 68.5156 163.793C68.5156 164.238 68.9208 164.6 69.4209 164.6Z" fill="white"/>
<path d="M79.6211 164.6C80.1212 164.6 80.5263 164.238 80.5263 163.793C80.5263 163.347 80.1212 162.986 79.6211 162.986C79.121 162.986 78.7158 163.347 78.7158 163.793C78.7158 164.238 79.121 164.6 79.6211 164.6Z" fill="white"/>
<path d="M89.821 164.6C90.3211 164.6 90.7263 164.238 90.7263 163.793C90.7263 163.347 90.3211 162.986 89.821 162.986C89.3209 162.986 88.9158 163.347 88.9158 163.793C88.9158 164.238 89.3209 164.6 89.821 164.6Z" fill="white"/>
<path d="M100.021 164.6C100.521 164.6 100.926 164.238 100.926 163.793C100.926 163.347 100.521 162.986 100.021 162.986C99.5209 162.986 99.1157 163.347 99.1157 163.793C99.1157 164.238 99.5209 164.6 100.021 164.6Z" fill="white"/>
<path d="M110.221 164.6C110.721 164.6 111.126 164.238 111.126 163.793C111.126 163.347 110.721 162.986 110.221 162.986C109.721 162.986 109.316 163.347 109.316 163.793C109.316 164.238 109.721 164.6 110.221 164.6Z" fill="white"/>
<path d="M120.421 164.6C120.921 164.6 121.326 164.238 121.326 163.793C121.326 163.347 120.921 162.986 120.421 162.986C119.921 162.986 119.516 163.347 119.516 163.793C119.516 164.238 119.921 164.6 120.421 164.6Z" fill="white"/>
<path d="M130.621 164.6C131.121 164.6 131.526 164.238 131.526 163.793C131.526 163.347 131.121 162.986 130.621 162.986C130.121 162.986 129.716 163.347 129.716 163.793C129.716 164.238 130.121 164.6 130.621 164.6Z" fill="white"/>
<path d="M140.821 164.6C141.321 164.6 141.726 164.238 141.726 163.793C141.726 163.347 141.321 162.986 140.821 162.986C140.321 162.986 139.916 163.347 139.916 163.793C139.916 164.238 140.321 164.6 140.821 164.6Z" fill="white"/>
<path d="M151.021 164.6C151.521 164.6 151.926 164.238 151.926 163.793C151.926 163.347 151.521 162.986 151.021 162.986C150.521 162.986 150.116 163.347 150.116 163.793C150.116 164.238 150.521 164.6 151.021 164.6Z" fill="white"/>
<path d="M161.221 164.6C161.721 164.6 162.126 164.238 162.126 163.793C162.126 163.347 161.721 162.986 161.221 162.986C160.721 162.986 160.316 163.347 160.316 163.793C160.316 164.238 160.721 164.6 161.221 164.6Z" fill="white"/>
<path d="M171.421 164.6C171.921 164.6 172.326 164.238 172.326 163.793C172.326 163.347 171.921 162.986 171.421 162.986C170.921 162.986 170.516 163.347 170.516 163.793C170.516 164.238 170.921 164.6 171.421 164.6Z" fill="white"/>
<path d="M181.621 164.6C182.121 164.6 182.526 164.238 182.526 163.793C182.526 163.347 182.121 162.986 181.621 162.986C181.121 162.986 180.716 163.347 180.716 163.793C180.716 164.238 181.121 164.6 181.621 164.6Z" fill="white"/>
<path d="M191.821 164.6C192.321 164.6 192.726 164.238 192.726 163.793C192.726 163.347 192.321 162.986 191.821 162.986C191.321 162.986 190.916 163.347 190.916 163.793C190.916 164.238 191.321 164.6 191.821 164.6Z" fill="white"/>
<path d="M202.021 164.6C202.521 164.6 202.926 164.238 202.926 163.793C202.926 163.347 202.521 162.986 202.021 162.986C201.521 162.986 201.116 163.347 201.116 163.793C201.116 164.238 201.521 164.6 202.021 164.6Z" fill="white"/>
<path d="M3.12083 173.7C3.62091 173.7 4.02608 173.338 4.02608 172.892C4.02608 172.447 3.62091 172.086 3.12083 172.086C2.62074 172.086 2.21558 172.447 2.21558 172.892C2.21558 173.338 2.62074 173.7 3.12083 173.7Z" fill="white"/>
<path d="M13.321 173.7C13.8211 173.7 14.2263 173.338 14.2263 172.892C14.2263 172.447 13.8211 172.086 13.321 172.086C12.8209 172.086 12.4158 172.447 12.4158 172.892C12.4158 173.338 12.8209 173.7 13.321 173.7Z" fill="white"/>
<path d="M23.521 173.7C24.0211 173.7 24.4262 173.338 24.4262 172.892C24.4262 172.447 24.0211 172.086 23.521 172.086C23.0209 172.086 22.6157 172.447 22.6157 172.892C22.6157 173.338 23.0209 173.7 23.521 173.7Z" fill="white"/>
<path d="M33.7209 173.7C34.221 173.7 34.6262 173.338 34.6262 172.892C34.6262 172.447 34.221 172.086 33.7209 172.086C33.2208 172.086 32.8157 172.447 32.8157 172.892C32.8157 173.338 33.2208 173.7 33.7209 173.7Z" fill="white"/>
<path d="M43.9211 173.7C44.4212 173.7 44.8264 173.338 44.8264 172.892C44.8264 172.447 44.4212 172.086 43.9211 172.086C43.421 172.086 43.0159 172.447 43.0159 172.892C43.0159 173.338 43.421 173.7 43.9211 173.7Z" fill="white"/>
<path d="M54.1211 173.7C54.6212 173.7 55.0263 173.338 55.0263 172.892C55.0263 172.447 54.6212 172.086 54.1211 172.086C53.621 172.086 53.2158 172.447 53.2158 172.892C53.2158 173.338 53.621 173.7 54.1211 173.7Z" fill="white"/>
<path d="M64.321 173.7C64.8211 173.7 65.2263 173.338 65.2263 172.892C65.2263 172.447 64.8211 172.086 64.321 172.086C63.8209 172.086 63.4158 172.447 63.4158 172.892C63.4158 173.338 63.8209 173.7 64.321 173.7Z" fill="white"/>
<path d="M74.521 173.7C75.0211 173.7 75.4262 173.338 75.4262 172.892C75.4262 172.447 75.0211 172.086 74.521 172.086C74.0209 172.086 73.6157 172.447 73.6157 172.892C73.6157 173.338 74.0209 173.7 74.521 173.7Z" fill="white"/>
<path d="M84.7209 173.7C85.221 173.7 85.6262 173.338 85.6262 172.892C85.6262 172.447 85.221 172.086 84.7209 172.086C84.2208 172.086 83.8157 172.447 83.8157 172.892C83.8157 173.338 84.2208 173.7 84.7209 173.7Z" fill="white"/>
<path d="M94.9211 173.7C95.4212 173.7 95.8264 173.338 95.8264 172.892C95.8264 172.447 95.4212 172.086 94.9211 172.086C94.421 172.086 94.0159 172.447 94.0159 172.892C94.0159 173.338 94.421 173.7 94.9211 173.7Z" fill="white"/>
<path d="M105.121 173.7C105.621 173.7 106.026 173.338 106.026 172.892C106.026 172.447 105.621 172.086 105.121 172.086C104.621 172.086 104.216 172.447 104.216 172.892C104.216 173.338 104.621 173.7 105.121 173.7Z" fill="white"/>
<path d="M115.321 173.7C115.821 173.7 116.226 173.338 116.226 172.892C116.226 172.447 115.821 172.086 115.321 172.086C114.821 172.086 114.416 172.447 114.416 172.892C114.416 173.338 114.821 173.7 115.321 173.7Z" fill="white"/>
<path d="M125.521 173.7C126.021 173.7 126.426 173.338 126.426 172.892C126.426 172.447 126.021 172.086 125.521 172.086C125.021 172.086 124.616 172.447 124.616 172.892C124.616 173.338 125.021 173.7 125.521 173.7Z" fill="white"/>
<path d="M135.721 173.7C136.221 173.7 136.626 173.338 136.626 172.892C136.626 172.447 136.221 172.086 135.721 172.086C135.221 172.086 134.816 172.447 134.816 172.892C134.816 173.338 135.221 173.7 135.721 173.7Z" fill="white"/>
<path d="M145.921 173.7C146.421 173.7 146.826 173.338 146.826 172.892C146.826 172.447 146.421 172.086 145.921 172.086C145.421 172.086 145.016 172.447 145.016 172.892C145.016 173.338 145.421 173.7 145.921 173.7Z" fill="white"/>
<path d="M156.121 173.7C156.621 173.7 157.026 173.338 157.026 172.892C157.026 172.447 156.621 172.086 156.121 172.086C155.621 172.086 155.216 172.447 155.216 172.892C155.216 173.338 155.621 173.7 156.121 173.7Z" fill="white"/>
<path d="M166.321 173.7C166.821 173.7 167.226 173.338 167.226 172.892C167.226 172.447 166.821 172.086 166.321 172.086C165.821 172.086 165.416 172.447 165.416 172.892C165.416 173.338 165.821 173.7 166.321 173.7Z" fill="white"/>
<path d="M176.521 173.7C177.021 173.7 177.426 173.338 177.426 172.892C177.426 172.447 177.021 172.086 176.521 172.086C176.021 172.086 175.616 172.447 175.616 172.892C175.616 173.338 176.021 173.7 176.521 173.7Z" fill="white"/>
<path d="M186.721 173.7C187.221 173.7 187.626 173.338 187.626 172.892C187.626 172.447 187.221 172.086 186.721 172.086C186.221 172.086 185.816 172.447 185.816 172.892C185.816 173.338 186.221 173.7 186.721 173.7Z" fill="white"/>
<path d="M196.921 173.7C197.421 173.7 197.826 173.338 197.826 172.892C197.826 172.447 197.421 172.086 196.921 172.086C196.421 172.086 196.016 172.447 196.016 172.892C196.016 173.338 196.421 173.7 196.921 173.7Z" fill="white"/>
<path d="M8.22092 182.8C8.72101 182.8 9.12617 182.439 9.12617 181.992C9.12617 181.548 8.72101 181.185 8.22092 181.185C7.72084 181.185 7.31567 181.548 7.31567 181.992C7.31567 182.439 7.72084 182.8 8.22092 182.8Z" fill="white"/>
<path d="M18.4211 182.8C18.9212 182.8 19.3264 182.439 19.3264 181.992C19.3264 181.548 18.9212 181.185 18.4211 181.185C17.921 181.185 17.5159 181.548 17.5159 181.992C17.5159 182.439 17.921 182.8 18.4211 182.8Z" fill="white"/>
<path d="M28.6208 182.8C29.1209 182.8 29.5261 182.439 29.5261 181.992C29.5261 181.548 29.1209 181.185 28.6208 181.185C28.1207 181.185 27.7156 181.548 27.7156 181.992C27.7156 182.439 28.1207 182.8 28.6208 182.8Z" fill="white"/>
<path d="M38.821 182.8C39.3211 182.8 39.7263 182.439 39.7263 181.992C39.7263 181.548 39.3211 181.185 38.821 181.185C38.3209 181.185 37.9158 181.548 37.9158 181.992C37.9158 182.439 38.3209 182.8 38.821 182.8Z" fill="white"/>
<path d="M49.021 182.8C49.5211 182.8 49.9262 182.439 49.9262 181.992C49.9262 181.548 49.5211 181.185 49.021 181.185C48.5209 181.185 48.1157 181.548 48.1157 181.992C48.1157 182.439 48.5209 182.8 49.021 182.8Z" fill="white"/>
<path d="M59.2209 182.8C59.721 182.8 60.1262 182.439 60.1262 181.992C60.1262 181.548 59.721 181.185 59.2209 181.185C58.7208 181.185 58.3157 181.548 58.3157 181.992C58.3157 182.439 58.7208 182.8 59.2209 182.8Z" fill="white"/>
<path d="M69.4209 182.8C69.9209 182.8 70.3261 182.439 70.3261 181.992C70.3261 181.548 69.9209 181.185 69.4209 181.185C68.9208 181.185 68.5156 181.548 68.5156 181.992C68.5156 182.439 68.9208 182.8 69.4209 182.8Z" fill="white"/>
<path d="M79.6211 182.8C80.1212 182.8 80.5263 182.439 80.5263 181.992C80.5263 181.548 80.1212 181.185 79.6211 181.185C79.121 181.185 78.7158 181.548 78.7158 181.992C78.7158 182.439 79.121 182.8 79.6211 182.8Z" fill="white"/>
<path d="M89.821 182.8C90.3211 182.8 90.7263 182.439 90.7263 181.992C90.7263 181.548 90.3211 181.185 89.821 181.185C89.3209 181.185 88.9158 181.548 88.9158 181.992C88.9158 182.439 89.3209 182.8 89.821 182.8Z" fill="white"/>
<path d="M100.021 182.8C100.521 182.8 100.926 182.439 100.926 181.992C100.926 181.548 100.521 181.185 100.021 181.185C99.5209 181.185 99.1157 181.548 99.1157 181.992C99.1157 182.439 99.5209 182.8 100.021 182.8Z" fill="white"/>
<path d="M110.221 182.8C110.721 182.8 111.126 182.439 111.126 181.992C111.126 181.548 110.721 181.185 110.221 181.185C109.721 181.185 109.316 181.548 109.316 181.992C109.316 182.439 109.721 182.8 110.221 182.8Z" fill="white"/>
<path d="M120.421 182.8C120.921 182.8 121.326 182.439 121.326 181.992C121.326 181.548 120.921 181.185 120.421 181.185C119.921 181.185 119.516 181.548 119.516 181.992C119.516 182.439 119.921 182.8 120.421 182.8Z" fill="white"/>
<path d="M130.621 182.8C131.121 182.8 131.526 182.439 131.526 181.992C131.526 181.548 131.121 181.185 130.621 181.185C130.121 181.185 129.716 181.548 129.716 181.992C129.716 182.439 130.121 182.8 130.621 182.8Z" fill="white"/>
<path d="M140.821 182.8C141.321 182.8 141.726 182.439 141.726 181.992C141.726 181.548 141.321 181.185 140.821 181.185C140.321 181.185 139.916 181.548 139.916 181.992C139.916 182.439 140.321 182.8 140.821 182.8Z" fill="white"/>
<path d="M151.021 182.8C151.521 182.8 151.926 182.439 151.926 181.992C151.926 181.548 151.521 181.185 151.021 181.185C150.521 181.185 150.116 181.548 150.116 181.992C150.116 182.439 150.521 182.8 151.021 182.8Z" fill="white"/>
<path d="M161.221 182.8C161.721 182.8 162.126 182.439 162.126 181.992C162.126 181.548 161.721 181.185 161.221 181.185C160.721 181.185 160.316 181.548 160.316 181.992C160.316 182.439 160.721 182.8 161.221 182.8Z" fill="white"/>
<path d="M171.421 182.8C171.921 182.8 172.326 182.439 172.326 181.992C172.326 181.548 171.921 181.185 171.421 181.185C170.921 181.185 170.516 181.548 170.516 181.992C170.516 182.439 170.921 182.8 171.421 182.8Z" fill="white"/>
<path d="M181.621 182.8C182.121 182.8 182.526 182.439 182.526 181.992C182.526 181.548 182.121 181.185 181.621 181.185C181.121 181.185 180.716 181.548 180.716 181.992C180.716 182.439 181.121 182.8 181.621 182.8Z" fill="white"/>
<path d="M191.821 182.8C192.321 182.8 192.726 182.439 192.726 181.992C192.726 181.548 192.321 181.185 191.821 181.185C191.321 181.185 190.916 181.548 190.916 181.992C190.916 182.439 191.321 182.8 191.821 182.8Z" fill="white"/>
<path d="M202.021 182.8C202.521 182.8 202.926 182.439 202.926 181.992C202.926 181.548 202.521 181.185 202.021 181.185C201.521 181.185 201.116 181.548 201.116 181.992C201.116 182.439 201.521 182.8 202.021 182.8Z" fill="white"/>
</g>
<defs>
<clipPath id="clip0">
<rect width="204" height="182" fill="white"/>
</clipPath>
</defs>
</svg>
